<svg id="Слой_1" data-name="Слой 1" xmlns="http://www.w3.org/2000/svg" viewBox="0 0 2275.53 965.12"><defs><style>.cls-1{fill:#0071e3;}.cls-2{fill:#20abf0;}.cls-3{fill:#d2ebff;}.cls-4{fill:#27272a;}</style></defs><path class="cls-1" d="M55,760.11c-26.3-15.84-25.69-54.18,1.1-69.17L521.92,430.25a80,80,0,0,1,77.58-.31l444.62,244.2c26.91,14.78,27.82,53.12,1.64,69.17l-463.48,284a80,80,0,0,1-83.07.31Z" transform="translate(-33.66 -74)"/><path class="cls-2" d="M57.62,617c-26-15.61-25.87-53.39.3-68.78L516.51,278.51a80,80,0,0,1,79.93-.68l445.7,252c26.62,15,27.19,53.18,1,69l-464,281.17a80,80,0,0,1-82.61.18Z" transform="translate(-33.66 -74)"/><path class="cls-3" d="M53,434.54c-25.84-15.57-25.81-53,0-68.56L520.41,85.41a80,80,0,0,1,81.7-.38L1049,347.64c26,15.3,26.38,52.8.65,68.59L582.33,702.94a80,80,0,0,1-83.11.34Z" transform="translate(-33.66 -74)"/><path class="cls-4" d="M417.78,254.37a1,1,0,0,1,1.06-1l212.25,13.45,17.25,1.46c49.21,4.16,62.21,70.17,18.26,92.68h0a48.49,48.49,0,0,1-9.65,3.72l-49,13.18c6.06,8,39.13,21.66,71.38,22.58a1,1,0,0,1,.54,1.9l-70.38,45a1,1,0,0,1-1.56-.84c-.48-17.68-7.78-41.09-23.8-53.68l-22.8,25.91a99,99,0,0,1-23.77,19.72h0c-52.83,31.4-119.75-6.68-119.75-68.14Z" transform="translate(-33.66 -74)"/><path class="cls-4" d="M1279.18,462V173.25h90q28.17,0,49.52,9.8,21.52,9.8,33.6,28.7t12.08,46.73q0,27.47-12.08,47.42a81.33,81.33,0,0,1-33.6,30.62q-21.35,10.68-49.52,10.68H1325V462ZM1325,310.1h30.62q17.32,0,31-5.6a49.26,49.26,0,0,0,21.87-16.62q8.05-11.2,8-28.18t-8-28a47,47,0,0,0-21.87-16.27q-13.65-5.43-31-5.43H1325Zm261.75,157.5q-29.05,0-52.5-12.08a94.13,94.13,0,0,1-36.93-33.6q-13.65-21.51-13.65-49.52,0-28.17,13.65-49.52a94.23,94.23,0,0,1,36.93-33.61q23.28-12.06,52.5-12.07,29.06,0,52.32,12.07A92.62,92.62,0,0,1,1676,322.88q13.65,21.35,13.65,49.52,0,28-13.65,49.52a92.53,92.53,0,0,1-36.93,33.6Q1615.84,467.61,1586.78,467.6Zm0-37.45a58.49,58.49,0,0,0,29.4-7.35,55.27,55.27,0,0,0,20.65-20.47q7.53-13.12,7.52-29.93,0-17-7.52-29.92A53.61,53.61,0,0,0,1616.18,322a58.49,58.49,0,0,0-29.4-7.35,59.13,59.13,0,0,0-29.4,7.35,53.61,53.61,0,0,0-20.65,20.48q-7.53,12.94-7.53,29.92,0,16.8,7.53,29.93a55.27,55.27,0,0,0,20.65,20.47A59.13,59.13,0,0,0,1586.78,430.15ZM1742.45,462V161H1786V351.23l68.25-68.43h56.52l-85.57,86.62,89.6,92.58h-56L1786,386.05V462Zm291.17,5.6q-28.71,0-51.45-12.43a95.55,95.55,0,0,1-35.88-33.94q-13.12-21.53-13.12-48.48a92.42,92.42,0,0,1,7.52-37.27,96.25,96.25,0,0,1,51.8-50.93,98.35,98.35,0,0,1,38.15-7.35q28,0,49,11.55a82.42,82.42,0,0,1,32.9,32.2q11.89,20.66,11.9,48.13a37.4,37.4,0,0,1-.17,3.84c-.12.94-.35,2.57-.7,4.91h-146q0,16.26,7.35,28.69a51.64,51.64,0,0,0,20.47,19.25q13.3,6.84,30.45,6.83,16.27,0,28.88-6.48,12.77-6.64,23.1-20.12l31.67,16.27A89.24,89.24,0,0,1,2084,455.7Q2061.44,467.6,2033.62,467.6Zm-54.08-117.08h101.68a47.89,47.89,0,0,0-9.28-21.17,47.11,47.11,0,0,0-17.67-13.83,54.79,54.79,0,0,0-23.8-5.07,59.29,59.29,0,0,0-24.68,4.9,45.37,45.37,0,0,0-17.67,13.82A44.78,44.78,0,0,0,1979.54,350.52Zm197,111.48V282.8h43.57v26.08q9.45-15.4,23.63-23.46a61,61,0,0,1,31.15-8.22,71.27,71.27,0,0,1,18.2,2.45,60.65,60.65,0,0,1,16.1,6.12l-18,36.93a58.78,58.78,0,0,0-27.47-7.7,41.61,41.61,0,0,0-21.18,5.77,49.84,49.84,0,0,0-16.27,14.88,34.4,34.4,0,0,0-6.13,19.6V462Z" transform="translate(-33.66 -74)"/><path class="cls-1" d="M1279.18,854V565.25h90q28.17,0,49.52,9.8,21.52,9.8,33.6,28.7t12.08,46.72q0,27.48-12.08,47.43a81.42,81.42,0,0,1-33.6,30.63q-21.35,10.66-49.52,10.67H1325V854ZM1325,702.1h30.62q17.32,0,31-5.6a49.34,49.34,0,0,0,21.87-16.62q8.05-11.21,8-28.18t-8-28a47,47,0,0,0-21.87-16.28q-13.65-5.42-31-5.42H1325Zm251.88,157.5a85.7,85.7,0,0,1-45.15-12.25,90.58,90.58,0,0,1-32-34Q1488,791.88,1488,764.22q0-27.29,11.38-48.64a88,88,0,0,1,31.67-34q20.13-12.42,45.85-12.42a86,86,0,0,1,38.68,8.75,70.21,70.21,0,0,1,28,24.33V674.8h43.57V854h-43.57V825.3a84.57,84.57,0,0,1-29.23,25.37A79.88,79.88,0,0,1,1576.91,859.6Zm12.43-37.27q16.28,0,28.7-7.36a53.84,53.84,0,0,0,19.6-20.64q7.17-13.12,7.17-29.93,0-17-7.17-29.93A52.62,52.62,0,0,0,1618,714q-12.43-7.53-28.7-7.53a54.84,54.84,0,0,0-28.7,7.53,52.22,52.22,0,0,0-19.78,20.47q-7.17,13.13-7.17,29.93t7.17,29.93A53.42,53.42,0,0,0,1560.64,815,55.79,55.79,0,0,0,1589.34,822.33ZM1753.92,945l53-106.92L1721.72,674.8h49.7l60.72,120.75,53.73-120.75h49.7l-132,270.2Z" transform="translate(-33.66 -74)"/></svg>