<svg id="Слой_1" data-name="Слой 1" xmlns="http://www.w3.org/2000/svg" viewBox="0 0 1035.12 965.12"><defs><style>.cls-1{fill:#0071e3;}.cls-2{fill:#20abf0;}.cls-3{fill:#d2ebff;}.cls-4{fill:#27272a;}</style></defs><path class="cls-1" d="M57,760.11c-26.3-15.84-25.69-54.18,1.1-69.17L523.92,430.25a80,80,0,0,1,77.58-.31l444.62,244.2c26.91,14.78,27.82,53.12,1.64,69.17l-463.48,284a80,80,0,0,1-83.07.31Z" transform="translate(-35.66 -74)"/><path class="cls-2" d="M59.62,617c-26-15.61-25.87-53.39.3-68.78L518.51,278.51a80,80,0,0,1,79.93-.68l445.7,252c26.62,15,27.19,53.18,1,69l-464,281.17a80,80,0,0,1-82.61.18Z" transform="translate(-35.66 -74)"/><path class="cls-3" d="M55,434.54c-25.84-15.57-25.81-53,0-68.56L522.41,85.41a80,80,0,0,1,81.7-.38L1051,347.64c26,15.3,26.38,52.8.65,68.59L584.33,702.94a80,80,0,0,1-83.11.34Z" transform="translate(-35.66 -74)"/><path class="cls-4" d="M419.78,254.37a1,1,0,0,1,1.06-1l212.25,13.45,17.25,1.46c49.21,4.16,62.21,70.17,18.26,92.68h0a48.49,48.49,0,0,1-9.65,3.72l-49,13.18c6.06,8,39.13,21.66,71.38,22.58a1,1,0,0,1,.54,1.9l-70.38,45a1,1,0,0,1-1.56-.84c-.48-17.68-7.78-41.09-23.8-53.68l-22.8,25.91a99,99,0,0,1-23.77,19.72h0c-52.83,31.4-119.75-6.68-119.75-68.14Z" transform="translate(-35.66 -74)"/></svg>