<svg width="3336" height="966" viewBox="0 0 3336 966" fill="none" xmlns="http://www.w3.org/2000/svg">
<g clip-path="url(#clip0_1_9)">
<path d="M21.34 686.11C-4.96001 670.27 -4.35001 631.93 22.44 616.94L488.26 356.25C500.103 349.622 513.438 346.116 527.01 346.062C540.582 346.007 553.944 349.407 565.84 355.94L1010.46 600.14C1037.37 614.92 1038.28 653.26 1012.1 669.31L548.62 953.31C536.129 960.962 521.777 965.038 507.128 965.092C492.48 965.147 478.098 961.179 465.55 953.62L21.34 686.11Z" fill="#0071E3"/>
<path d="M23.96 543C-2.04002 527.39 -1.91002 489.61 24.26 474.22L482.85 204.51C494.943 197.398 508.695 193.591 522.724 193.472C536.753 193.352 550.567 196.925 562.78 203.83L1008.48 455.83C1035.1 470.83 1035.67 509.01 1009.48 524.83L545.48 806C533.03 813.543 518.757 817.546 504.2 817.578C489.643 817.61 475.353 813.669 462.87 806.18L23.96 543Z" fill="#20ABF0"/>
<path d="M19.3399 360.54C-6.50006 344.97 -6.47006 307.54 19.3399 291.98L486.75 11.41C499.077 4.01113 513.171 0.0710318 527.548 0.00416148C541.925 -0.0627088 556.054 3.74612 568.45 11.03L1015.34 273.64C1041.34 288.94 1041.72 326.44 1015.99 342.23L548.67 628.94C536.177 636.604 521.819 640.689 507.163 640.749C492.506 640.809 478.115 636.842 465.56 629.28L19.3399 360.54Z" fill="#D2EBFF"/>
<path d="M384.12 180.37C384.12 180.233 384.147 180.098 384.201 179.973C384.255 179.848 384.334 179.734 384.434 179.641C384.533 179.547 384.651 179.475 384.779 179.428C384.907 179.382 385.044 179.362 385.18 179.37L597.43 192.82L614.68 194.28C663.89 198.44 676.89 264.45 632.94 286.96C629.865 288.54 626.63 289.788 623.29 290.68L574.29 303.86C580.35 311.86 613.42 325.52 645.67 326.44C645.906 326.412 646.145 326.469 646.343 326.6C646.541 326.732 646.686 326.931 646.751 327.159C646.816 327.388 646.797 327.633 646.698 327.85C646.599 328.066 646.426 328.24 646.21 328.34L575.83 373.34C575.679 373.442 575.502 373.501 575.32 373.51C575.138 373.519 574.957 373.479 574.796 373.392C574.635 373.305 574.501 373.177 574.408 373.019C574.316 372.862 574.268 372.683 574.27 372.5C573.79 354.82 566.49 331.41 550.47 318.82L527.67 344.73C520.827 352.506 512.806 359.161 503.9 364.45V364.45C451.07 395.85 384.15 357.77 384.15 296.31L384.12 180.37Z" fill="#27272A"/>
</g>
<path d="M1248.2 603V273H1351C1372.47 273 1391.33 276.733 1407.6 284.2C1424 291.667 1436.8 302.6 1446 317C1455.2 331.4 1459.8 349.2 1459.8 370.4C1459.8 391.333 1455.2 409.4 1446 424.6C1436.8 439.667 1424 451.333 1407.6 459.6C1391.33 467.733 1372.47 471.8 1351 471.8H1300.6V603H1248.2ZM1300.6 429.4H1335.6C1348.8 429.4 1360.6 427.267 1371 423C1381.53 418.733 1389.87 412.4 1396 404C1402.13 395.467 1405.2 384.733 1405.2 371.8C1405.2 358.867 1402.13 348.2 1396 339.8C1389.87 331.4 1381.53 325.2 1371 321.2C1360.6 317.067 1348.8 315 1335.6 315H1300.6V429.4ZM1599.75 609.4C1577.61 609.4 1557.61 604.8 1539.75 595.6C1522.01 586.4 1507.95 573.6 1497.55 557.2C1487.15 540.8 1481.95 521.933 1481.95 500.6C1481.95 479.133 1487.15 460.267 1497.55 444C1507.95 427.6 1522.01 414.8 1539.75 405.6C1557.48 396.4 1577.48 391.8 1599.75 391.8C1621.88 391.8 1641.81 396.4 1659.55 405.6C1677.41 414.8 1691.48 427.6 1701.75 444C1712.15 460.267 1717.35 479.133 1717.35 500.6C1717.35 521.933 1712.15 540.8 1701.75 557.2C1691.48 573.6 1677.41 586.4 1659.55 595.6C1641.81 604.8 1621.88 609.4 1599.75 609.4ZM1599.75 566.6C1612.28 566.6 1623.48 563.8 1633.35 558.2C1643.35 552.467 1651.21 544.667 1656.95 534.8C1662.68 524.8 1665.55 513.4 1665.55 500.6C1665.55 487.667 1662.68 476.267 1656.95 466.4C1651.21 456.4 1643.35 448.6 1633.35 443C1623.48 437.4 1612.28 434.6 1599.75 434.6C1587.35 434.6 1576.15 437.4 1566.15 443C1556.15 448.6 1548.28 456.4 1542.55 466.4C1536.81 476.267 1533.95 487.667 1533.95 500.6C1533.95 513.4 1536.81 524.8 1542.55 534.8C1548.28 544.667 1556.15 552.467 1566.15 558.2C1576.15 563.8 1587.35 566.6 1599.75 566.6ZM1777.66 603V259H1827.46V476.4L1905.46 398.2H1970.06L1872.26 497.2L1974.66 603H1910.66L1827.46 516.2V603H1777.66ZM2110.42 609.4C2088.55 609.4 2068.95 604.667 2051.62 595.2C2034.42 585.733 2020.75 572.8 2010.62 556.4C2000.62 540 1995.62 521.533 1995.62 501C1995.62 485.8 1998.49 471.6 2004.22 458.4C2009.95 445.2 2017.89 433.6 2028.02 423.6C2038.15 413.6 2049.95 405.8 2063.42 400.2C2076.89 394.6 2091.42 391.8 2107.02 391.8C2128.35 391.8 2147.02 396.2 2163.02 405C2179.15 413.8 2191.69 426.067 2200.62 441.8C2209.69 457.533 2214.22 475.867 2214.22 496.8C2214.22 498.533 2214.15 500 2214.02 501.2C2213.89 502.267 2213.62 504.133 2213.22 506.8H2046.42C2046.42 519.2 2049.22 530.133 2054.82 539.6C2060.42 548.933 2068.22 556.267 2078.22 561.6C2088.35 566.8 2099.95 569.4 2113.02 569.4C2125.42 569.4 2136.42 566.933 2146.02 562C2155.75 556.933 2164.55 549.267 2172.42 539L2208.62 557.6C2198.89 573.867 2185.35 586.6 2168.02 595.8C2150.82 604.867 2131.62 609.4 2110.42 609.4ZM2048.62 475.6H2164.82C2163.09 466.267 2159.55 458.2 2154.22 451.4C2148.89 444.6 2142.15 439.333 2134.02 435.6C2125.89 431.733 2116.82 429.8 2106.82 429.8C2096.29 429.8 2086.89 431.667 2078.62 435.4C2070.35 439.133 2063.62 444.4 2058.42 451.2C2053.22 458 2049.95 466.133 2048.62 475.6ZM2273.76 603V398.2H2323.56V428C2330.76 416.267 2339.76 407.333 2350.56 401.2C2361.36 394.933 2373.22 391.8 2386.16 391.8C2392.96 391.8 2399.89 392.733 2406.96 394.6C2414.16 396.333 2420.29 398.667 2425.36 401.6L2404.76 443.8C2400.36 441.133 2395.22 439 2389.36 437.4C2383.62 435.8 2378.29 435 2373.36 435C2364.82 435 2356.76 437.2 2349.16 441.6C2341.56 446 2335.36 451.667 2330.56 458.6C2325.89 465.533 2323.56 473 2323.56 481V603H2273.76Z" fill="#27272A"/>
<path d="M2582.18 603V273H2684.98C2706.45 273 2725.32 276.733 2741.58 284.2C2757.98 291.667 2770.78 302.6 2779.98 317C2789.18 331.4 2793.78 349.2 2793.78 370.4C2793.78 391.333 2789.18 409.4 2779.98 424.6C2770.78 439.667 2757.98 451.333 2741.58 459.6C2725.32 467.733 2706.45 471.8 2684.98 471.8H2634.58V603H2582.18ZM2634.58 429.4H2669.58C2682.78 429.4 2694.58 427.267 2704.98 423C2715.52 418.733 2723.85 412.4 2729.98 404C2736.12 395.467 2739.18 384.733 2739.18 371.8C2739.18 358.867 2736.12 348.2 2729.98 339.8C2723.85 331.4 2715.52 325.2 2704.98 321.2C2694.58 317.067 2682.78 315 2669.58 315H2634.58V429.4ZM2922.46 609.4C2903.52 609.4 2886.32 604.733 2870.86 595.4C2855.52 585.933 2843.32 573 2834.26 556.6C2825.32 540.2 2820.86 521.467 2820.86 500.4C2820.86 479.6 2825.19 461.067 2833.86 444.8C2842.66 428.4 2854.72 415.467 2870.06 406C2885.39 396.533 2902.86 391.8 2922.46 391.8C2938.46 391.8 2953.19 395.133 2966.66 401.8C2980.12 408.467 2990.79 417.733 2998.66 429.6V398.2H3048.46V603H2998.66V570.2C2989.59 582.6 2978.46 592.267 2965.26 599.2C2952.19 606 2937.92 609.4 2922.46 609.4ZM2936.66 566.8C2949.06 566.8 2959.99 564 2969.46 558.4C2978.92 552.667 2986.39 544.8 2991.86 534.8C2997.32 524.8 3000.06 513.4 3000.06 500.6C3000.06 487.667 2997.32 476.267 2991.86 466.4C2986.39 456.4 2978.92 448.6 2969.46 443C2959.99 437.267 2949.06 434.4 2936.66 434.4C2924.39 434.4 2913.46 437.267 2903.86 443C2894.26 448.6 2886.72 456.4 2881.26 466.4C2875.79 476.4 2873.06 487.8 2873.06 500.6C2873.06 513.4 2875.79 524.8 2881.26 534.8C2886.72 544.8 2894.26 552.667 2903.86 558.4C2913.46 564 2924.39 566.8 2936.66 566.8ZM3124.75 707L3185.35 584.8L3087.95 398.2H3144.75L3214.15 536.2L3275.55 398.2H3332.35L3181.55 707H3124.75Z" fill="#0071E3"/>
<defs>
<clipPath id="clip0_1_9">
<rect width="1035.12" height="965.12" fill="white"/>
</clipPath>
</defs>
</svg>
