<svg width="528" height="60" viewBox="0 0 528 60" fill="none" xmlns="http://www.w3.org/2000/svg">
<rect x="1.48548" y="1.48548" width="56.4484" height="56.4484" rx="28.2242" fill="#F5F5F5"/>
<path fill-rule="evenodd" clip-rule="evenodd" d="M24.3341 22.5366L18.5036 36.4445H14.7008L11.8319 25.346C11.6574 24.6609 11.507 24.412 10.9778 24.1224C10.1106 23.6563 8.68272 23.2125 7.42749 22.9414L7.51291 22.5366H13.635C14.4148 22.5366 15.1167 23.0565 15.295 23.9553L16.8102 32.0029L20.5536 22.5366H24.3341ZM39.2354 31.9044C39.2521 28.2334 34.1606 28.031 34.1959 26.3896C34.2052 25.892 34.6805 25.3609 35.7204 25.2253C36.2366 25.1585 37.6571 25.1065 39.267 25.8474L39.9002 22.8987C38.8241 22.495 37.6848 22.2862 36.5355 22.2822C32.9778 22.2822 30.4748 24.1725 30.4525 26.8798C30.4302 28.8815 32.2388 29.9993 33.6017 30.6659C35.0036 31.3455 35.4753 31.7837 35.4697 32.3928C35.4604 33.3268 34.3519 33.739 33.3158 33.7539C31.5072 33.7817 30.4562 33.2655 29.6206 32.8774L28.9689 35.9227C29.81 36.3089 31.3605 36.6469 32.9704 36.6636C36.7509 36.6636 39.2224 34.7956 39.2335 31.9044H39.2354ZM48.6274 36.4445H51.9549L49.0507 22.5366H45.9795C45.6512 22.5337 45.3296 22.6295 45.0564 22.8116C44.7833 22.9937 44.5712 23.2537 44.4476 23.5579L39.0479 36.4445H42.8266L43.5767 34.3666H48.1929L48.6274 36.4463V36.4445ZM44.6128 31.5164L46.5068 26.2949L47.5968 31.5164H44.6128ZM29.4739 22.5366L26.4992 36.4445H22.9007L25.8772 22.5366H29.4739V22.5366Z" fill="#1434CB"/>
<rect x="1.48548" y="1.48548" width="56.4484" height="56.4484" rx="28.2242" stroke="white" stroke-width="2.97097"/>
<g clip-path="url(#clip0_9_109)">
<rect x="66.8467" width="59.4193" height="59.4193" rx="29.7097" fill="white"/>
<path d="M126.266 0H66.8467V59.4193H126.266V0Z" fill="#E0E0E0"/>
<path d="M101.852 20.4766H91.1871V39.6433H101.852V20.4766Z" fill="#7673C0"/>
<path d="M91.8639 30.0616C91.8599 26.3208 93.5767 22.7862 96.5193 20.4766C91.5219 16.5492 84.3454 17.1212 80.0333 21.7907C75.7212 26.4603 75.7212 33.6595 80.0333 38.329C84.3454 42.9985 91.5219 43.5706 96.5193 39.6431C93.5776 37.3343 91.861 33.8011 91.8639 30.0616Z" fill="#EB001B"/>
<path d="M116.238 30.0617C116.237 34.7271 113.573 38.9825 109.376 41.0216C105.18 43.0606 100.188 42.5254 96.5194 39.6432C99.4598 37.3324 101.177 33.7997 101.177 30.06C101.177 26.3202 99.4598 22.7875 96.5194 20.4767C100.188 17.5924 105.181 17.0561 109.379 19.0954C113.576 21.1347 116.241 25.3916 116.241 30.0583L116.238 30.0617Z" fill="#00A1DF"/>
</g>
<rect x="68.3322" y="1.48548" width="56.4484" height="56.4484" rx="28.2242" stroke="white" stroke-width="2.97097"/>
<g clip-path="url(#clip1_9_109)">
<rect x="133.694" width="59.4193" height="59.4193" rx="29.7097" fill="white"/>
<path d="M193.113 0H133.694V59.4193H193.113V0Z" fill="#E0E0E0"/>
<path d="M167.222 20.7125H156.647V39.7128H167.222V20.7125Z" fill="#FF5F00"/>
<path d="M157.285 30.2132C157.285 26.3526 159.098 22.9285 161.884 20.7128C159.836 19.1015 157.251 18.1279 154.431 18.1279C147.751 18.1279 142.346 23.5327 142.346 30.2132C142.346 36.8937 147.751 42.2985 154.431 42.2985C157.251 42.2985 159.836 41.325 161.884 39.7136C159.098 37.5315 157.285 34.0738 157.285 30.2132Z" fill="#EB001B"/>
<path d="M181.456 30.2132C181.456 36.8937 176.051 42.2985 169.37 42.2985C166.55 42.2985 163.965 41.325 161.918 39.7136C164.738 37.498 166.517 34.0738 166.517 30.2132C166.517 26.3526 164.704 22.9285 161.918 20.7128C163.965 19.1015 166.55 18.1279 169.37 18.1279C176.051 18.1279 181.456 23.5663 181.456 30.2132Z" fill="#F79E1B"/>
</g>
<rect x="135.179" y="1.48548" width="56.4484" height="56.4484" rx="28.2242" stroke="white" stroke-width="2.97097"/>
<g clip-path="url(#clip2_9_109)">
<rect x="200.54" width="59.4193" height="59.4193" rx="29.7097" fill="white"/>
<path d="M259.96 0H200.54V59.4193H259.96V0Z" fill="#006848"/>
<path d="M233.228 25.1195L230.362 31.3295H230.071V23.7678H226V36.5647H229.455C230.363 36.5647 231.187 36.037 231.568 35.213L234.434 29.003H234.725V36.5647H238.796V23.7678H235.341C234.433 23.7678 233.609 24.2955 233.228 25.1195ZM217.953 25.4497L216.257 31.3295H215.966L214.27 25.4497C213.982 24.4537 213.071 23.7678 212.034 23.7678H207.968V36.5647H212.039V29.003H212.33L214.657 36.5647H217.565L219.892 29.003H220.183V36.5647H224.254V23.7678H220.188C219.152 23.7678 218.24 24.4537 217.953 25.4497ZM240.541 29.5845V36.5647H244.605V32.493H248.976C250.874 32.493 252.485 31.2778 253.085 29.5845H240.541ZM248.976 23.7678H239.96C240.507 26.7458 243.113 29.003 246.249 29.003H253.251C253.308 28.721 253.338 28.4291 253.338 28.1304C253.338 25.7209 251.385 23.7678 248.976 23.7678Z" fill="white"/>
</g>
<rect x="202.026" y="1.48548" width="56.4484" height="56.4484" rx="28.2242" stroke="white" stroke-width="2.97097"/>
<g clip-path="url(#clip3_9_109)">
<rect x="267.387" width="59.4193" height="59.4193" rx="29.7097" fill="white"/>
<path d="M297.097 59.4193C313.505 59.4193 326.806 46.1179 326.806 29.7097C326.806 13.3015 313.505 0 297.097 0C280.688 0 267.387 13.3015 267.387 29.7097C267.387 46.1179 280.688 59.4193 297.097 59.4193Z" fill="#21A038"/>
<path d="M304.824 18.3933L308.29 15.8383C305.122 13.2732 301.168 11.8769 297.092 11.8839V11.8854C292.601 11.8814 288.274 13.5775 284.983 16.633C283.18 18.2993 281.741 20.3209 280.758 22.5705C279.775 24.82 279.269 27.2488 279.271 29.7038V29.7142C279.268 34.1744 280.941 38.4729 283.959 41.757C285.627 43.5806 287.657 45.0364 289.919 46.0313C292.182 47.0263 294.627 47.5386 297.098 47.5355C301.519 47.5403 305.783 45.8968 309.056 42.9261V42.9291C310.906 41.2595 312.384 39.2198 313.395 36.9422C314.406 34.6647 314.927 32.2001 314.924 29.7083C314.924 28.6387 314.832 27.5692 314.642 26.5145L310.806 29.3428V29.7097C310.807 31.5101 310.452 33.2928 309.762 34.9557C309.072 36.6185 308.06 38.1287 306.785 39.3995C306.645 39.5393 306.503 39.676 306.357 39.8095L306.29 39.869C303.609 42.3046 300.07 43.5762 296.452 43.4044L296.412 43.4C293.017 43.2308 289.807 41.8042 287.407 39.3981L287.41 39.3966C286.134 38.1266 285.122 36.617 284.432 34.9546C283.742 33.2921 283.388 31.5097 283.389 29.7097V29.6771C283.397 26.0535 284.842 22.5811 287.407 20.0214L287.41 20.0229C288.762 18.6661 290.383 17.6086 292.17 16.9192C293.957 16.2298 295.869 15.9237 297.782 16.021V16.018C300.304 16.1426 302.742 16.9649 304.824 18.3933V18.3933Z" fill="white"/>
<path d="M313.338 22.3552C312.766 21.095 312.049 19.9056 311.202 18.8108L297.101 29.2077L290.315 24.9533V30.0708L297.101 34.3252L313.337 22.3552H313.338Z" fill="white"/>
</g>
<rect x="268.872" y="1.48548" width="56.4484" height="56.4484" rx="28.2242" stroke="white" stroke-width="2.97097"/>
<g clip-path="url(#clip4_9_109)">
<rect x="334.234" width="59.4193" height="59.4193" rx="29.7097" fill="white"/>
<mask id="mask0_9_109" style="mask-type:alpha" maskUnits="userSpaceOnUse" x="334" y="0" width="60" height="60">
<path d="M363.944 59.4193C380.352 59.4193 393.653 46.1183 393.653 29.7097C393.653 13.301 380.352 0 363.944 0C347.535 0 334.234 13.301 334.234 29.7097C334.234 46.1183 347.535 59.4193 363.944 59.4193Z" fill="white"/>
</mask>
<g mask="url(#mask0_9_109)">
<path d="M363.944 59.4193C380.352 59.4193 393.653 46.1183 393.653 29.7097C393.653 13.301 380.352 0 363.944 0C347.535 0 334.234 13.301 334.234 29.7097C334.234 46.1183 347.535 59.4193 363.944 59.4193Z" fill="#272725"/>
<path fill-rule="evenodd" clip-rule="evenodd" d="M359.443 16.2475L359.425 16.2514L359.44 16.2316L359.443 16.2475ZM382.793 28.0412L383.313 26.3438L381.592 26.3992C381.446 26.3992 380.39 26.3685 379.364 25.611C379.44 25.6179 379.516 25.6288 379.594 25.6288C380.65 25.6288 381.673 24.9811 382.082 24.0542L382.822 22.3805C381.893 22.3934 381.044 22.2736 381.044 22.2736C381.037 22.2736 380.368 22.1844 379.594 21.3793C379.04 20.8019 378.352 20.4969 377.609 20.4969C377.283 20.4969 376.992 20.5563 376.742 20.6376C376.782 20.5019 376.817 20.3642 376.839 20.2216C377.076 18.6559 376.087 17.4616 376.087 17.4626L374.791 15.8285L373.989 17.7478C373.986 17.7537 373.783 18.2033 373.421 18.4232C373.312 17.8587 373.042 17.2249 372.468 16.6188C371.386 15.477 370.066 15.3057 369.377 15.3057C369.057 15.3057 368.829 15.3413 368.773 15.3502L367.21 15.6642C367.301 15.3076 367.494 14.6877 367.844 14.1301L368.707 12.7625L366.538 13.0131L365.845 11.5177L364.508 12.2208L363.27 10.975L362.036 12.2208L360.693 11.5177L360.004 13.0131L357.835 12.7615L358.699 14.1311C359.05 14.6877 359.241 15.3066 359.33 15.6612L357.839 15.3621L357.787 15.3532C357.582 15.3205 357.374 15.3046 357.165 15.3057C356.476 15.3057 355.157 15.477 354.077 16.6188C353.502 17.2239 353.232 17.8587 353.122 18.4232C352.762 18.2053 352.56 17.7636 352.56 17.7636L351.756 15.8325L350.441 17.4764C350.28 17.6884 349.488 18.8114 349.703 20.2246C349.725 20.3652 349.762 20.5019 349.8 20.6376C349.521 20.5452 349.229 20.4978 348.935 20.4969C348.19 20.4969 347.504 20.8019 346.948 21.3783C346.176 22.1805 345.512 22.2726 345.517 22.2726C345.517 22.2726 344.813 22.4013 343.725 22.3815L344.461 24.0552C344.871 24.9811 345.894 25.6298 346.946 25.6298C347.026 25.6298 347.102 25.6179 347.18 25.61C346.157 26.3685 345.1 26.3992 344.972 26.4002L343.219 26.3438L343.751 28.0402C344.018 28.9147 344.909 30.3625 346.62 30.519C346.434 31.3132 346.021 32.2035 345.116 32.5868L343.809 33.1344L344.522 34.3991C344.924 35.0804 345.869 35.8776 347.211 35.8776C347.502 35.8766 347.782 35.8469 348.053 35.7885C348.122 36.0995 348.208 36.4114 348.31 36.7214C348.71 37.9345 348.365 38.7803 348.362 38.7892L347.718 40.1657L349.156 40.5519C349.175 40.5579 349.609 40.6807 350.153 40.6807C350.401 40.6807 350.636 40.6539 350.857 40.5995C351.024 40.5599 351.186 40.5074 351.34 40.443C351.527 40.7837 351.752 41.0946 352.017 41.3729C352.939 42.3365 354.246 42.8257 355.902 42.8257H355.907L357.089 42.8099L354.647 43.8448L356.501 44.7569C357.174 45.0916 357.973 45.4867 358.787 45.7898L358.555 46.4345L359.194 46.7316C359.25 46.7583 360.48 47.3178 362.521 47.4367C362.521 47.4367 363.014 47.4604 363.287 47.4604C363.558 47.4604 364.045 47.4357 364.045 47.4357C366.073 47.3129 367.294 46.7583 367.35 46.7325L367.991 46.4345L367.757 45.7878C368.593 45.4768 369.421 45.0648 370.067 44.744L371.887 43.8428L369.452 42.8099L370.64 42.8257C372.298 42.8257 373.605 42.3365 374.526 41.3709C374.79 41.0923 375.017 40.7804 375.201 40.443C375.577 40.6021 375.981 40.6829 376.39 40.6807C376.924 40.6807 377.364 40.5589 377.375 40.5549L378.821 40.1657L378.192 38.8149C378.177 38.7803 377.833 37.9335 378.232 36.7204C378.334 36.4104 378.42 36.0985 378.489 35.7875C378.76 35.8469 379.044 35.8766 379.337 35.8766C381.048 35.8766 381.868 34.6506 382.028 34.3842L382.733 33.1334L381.426 32.5878C380.519 32.2035 380.107 31.3132 379.923 30.52C381.611 30.3714 382.516 28.9206 382.793 28.0412V28.0412Z" fill="white"/>
<path fill-rule="evenodd" clip-rule="evenodd" d="M363.27 16.1721C361.886 16.1731 360.849 16.6345 360.624 17.1782L363.269 18.2418L365.916 17.1782C365.691 16.6345 364.654 16.1731 363.27 16.1721M363.297 44.3289H363.244C362.406 44.3339 361.251 44.1596 360.697 43.9942L360.027 45.8372C360.468 45.9976 361.962 46.3046 363.273 46.3046C364.579 46.3046 366.073 45.9976 366.514 45.8372L365.846 43.9942C365.288 44.1596 364.135 44.3339 363.297 44.3289M368.359 42.4938C367.861 42.781 366.75 43.2118 366.104 43.4119L366.646 44.935C367.646 44.6577 368.472 44.3319 369.153 43.9843L368.027 43.602L368.359 42.4938M358.182 42.4938L358.515 43.603L357.388 43.9833C358.068 44.3319 358.897 44.6567 359.894 44.935L360.438 43.4119C359.793 43.2118 358.68 42.781 358.182 42.4938M363.27 14.4093C364.312 14.4093 365.333 14.6628 366.121 15.1085C366.192 14.8638 366.293 14.5658 366.429 14.2528L366.132 14.2895L365.82 14.3231L365.688 14.033L365.29 13.1773L364.565 13.5626L364.284 13.7081L364.057 13.4823L363.27 12.6881L362.483 13.4823L362.259 13.7081L361.976 13.5626L361.247 13.1773L360.855 14.033L360.721 14.3231L360.409 14.2895L360.112 14.2528C360.249 14.5658 360.348 14.8638 360.421 15.1085C361.211 14.6628 362.232 14.4083 363.27 14.4083M379.185 24.2996C379.321 24.3472 379.458 24.369 379.594 24.369C380.184 24.369 380.754 23.9788 380.951 23.5351C380.951 23.5351 379.869 23.4688 378.707 22.2655C378.336 21.8763 377.944 21.7595 377.608 21.7595C377.283 21.765 376.966 21.8621 376.694 22.0397C378.099 22.8023 378.386 24.0243 379.185 24.2996M346.946 24.368C347.083 24.368 347.22 24.3472 347.352 24.2986C348.154 24.0243 348.444 22.8023 349.846 22.0407C349.846 22.0407 349.454 21.7595 348.935 21.7595C348.596 21.7595 348.205 21.8763 347.833 22.2665C346.672 23.4688 345.591 23.5351 345.591 23.5351C345.786 23.9788 346.357 24.368 346.946 24.368" fill="white"/>
<path fill-rule="evenodd" clip-rule="evenodd" d="M378.761 33.0757C377.675 32.53 376.988 31.0812 376.823 30.5593C376.643 33.4322 375.266 35.4257 373.657 37.346C372.822 38.3402 372.531 39.3078 372.531 39.3078C372.531 39.3078 372.691 38.2115 373.413 37.3202C374.915 35.4822 376.342 33.1945 376.448 30.5494C376.521 28.7024 376.056 27.2051 375.329 25.9711C375.735 27.2566 375.677 28.8302 374.296 30.2988C374.296 30.2988 377.046 26.9416 373.201 23.5003C371.663 22.1911 369.979 21.381 369.113 20.8086C372.244 21.8494 373.773 20.7036 373.773 20.7036C372.773 21.587 371.479 21.5721 370.676 21.4444C370.894 21.5533 371.121 21.6662 371.364 21.7989C374.005 23.2596 376.376 25.6641 376.781 28.9936V28.9678C377.395 32.2359 378.762 33.0757 378.762 33.0757M379.565 29.2669C379.59 29.2689 379.611 29.2689 379.636 29.2689C381.107 29.2689 381.606 27.6626 381.606 27.6626H381.577C381.307 27.6626 379.119 27.5982 377.573 25.5948C376.555 24.2777 375.72 23.12 374.073 22.6644L373.91 22.6347L373.875 22.4664C373.829 22.2109 374.003 21.9702 374.394 21.7107C376.668 20.1936 375.123 18.2585 375.123 18.2585C375.123 18.2585 374.474 19.8054 373.021 19.8054L372.912 19.8034C372.748 19.7955 372.588 19.7895 372.428 19.7539L372.161 19.7014C372.161 19.7014 372.576 18.5526 371.575 17.4989C371.292 17.2013 370.951 16.965 370.573 16.8049C370.195 16.6448 369.788 16.5641 369.377 16.568C369.109 16.568 368.941 16.6027 368.941 16.6027C369.443 17.2721 369.806 18.3823 369.226 19.0676C368.725 19.6558 367.501 19.6836 367.501 20.561C367.501 20.9333 367.842 21.3671 368.454 21.7563C370.294 22.9368 372.12 24.5035 372.881 26.6029C373.829 29.2214 372.76 30.9604 371.234 31.9566C371.234 31.9566 371.712 32.4062 372.406 32.4637C372.548 32.4775 372.685 32.4835 372.814 32.4835C374.28 32.4835 375.037 31.7833 375.037 31.7833C375.037 31.7833 374.913 32.7509 374.15 33.6491C373.447 34.478 372.524 34.9672 371.115 34.987C371.115 34.987 371.07 35.6535 371.693 36.2299C372.093 36.5943 373.014 36.7122 373.014 36.7122C373.014 36.7122 371.288 37.0687 371.098 39.6663C370.995 41.0735 370.641 41.5627 370.641 41.5627H370.672C374.678 41.5627 374.576 38.062 374.576 38.062C374.576 38.062 374.853 39.0988 375.972 39.3692C376.106 39.4048 376.251 39.4187 376.388 39.4187C376.748 39.4187 377.061 39.3325 377.061 39.3325C377.061 39.3325 376.474 38.0748 377.056 36.316C377.537 34.8563 377.46 33.7749 377.46 33.7749C377.46 33.7749 377.999 34.6067 379.337 34.6137H379.35C379.668 34.6174 379.981 34.5405 380.261 34.3902C380.541 34.2398 380.778 34.021 380.95 33.7541C378.28 32.6241 378.543 28.9787 378.543 28.9787C378.543 28.9787 378.89 29.2421 379.565 29.2669M352.883 37.346C351.274 35.4257 349.898 33.4322 349.716 30.5593C349.551 31.0812 348.866 32.53 347.78 33.0757C347.78 33.0757 349.145 32.2369 349.759 28.9678V28.9936C350.165 25.6651 352.536 23.2596 355.177 21.7999C355.419 21.6652 355.648 21.5523 355.864 21.4453C355.062 21.5721 353.767 21.587 352.768 20.7036C352.768 20.7036 354.297 21.8494 357.427 20.8086C356.561 21.383 354.879 22.1911 353.341 23.5003C349.494 26.9426 352.245 30.2998 352.245 30.2998C350.862 28.8302 350.806 27.2566 351.213 25.9721C350.484 27.2051 350.019 28.7024 350.094 30.5494C350.199 33.1935 351.625 35.4812 353.125 37.3202C353.85 38.2115 354.012 39.3078 354.012 39.3078C354.012 39.3078 353.718 38.3402 352.883 37.346M353.527 36.7122C353.527 36.7122 354.448 36.5943 354.849 36.2299C355.472 35.6535 355.427 34.987 355.427 34.987C354.017 34.9672 353.095 34.478 352.387 33.6501C351.629 32.7509 351.503 31.7833 351.503 31.7833C351.503 31.7833 352.261 32.4835 353.725 32.4835C353.856 32.4835 353.992 32.4775 354.135 32.4637C354.829 32.4062 355.309 31.9576 355.309 31.9576C353.782 30.9604 352.712 29.2223 353.659 26.6029C354.42 24.5035 356.246 22.9368 358.086 21.7553C358.698 21.3671 359.039 20.9333 359.039 20.561C359.039 19.6836 357.816 19.6558 357.316 19.0676C356.735 18.3823 357.098 17.2721 357.6 16.6027C357.6 16.6027 357.433 16.568 357.164 16.568C356.635 16.568 355.72 16.7037 354.967 17.4989C353.964 18.5526 354.38 19.7014 354.38 19.7014L354.113 19.7539C353.953 19.7885 353.792 19.7955 353.628 19.8034L353.522 19.8054C352.065 19.8054 351.419 18.2585 351.419 18.2585C351.419 18.2585 349.874 20.1936 352.148 21.7107C352.539 21.9702 352.713 22.2109 352.666 22.4674L352.631 22.6347L352.466 22.6644C350.821 23.12 349.985 24.2787 348.966 25.5958C347.421 27.5972 345.236 27.6626 344.963 27.6626H344.934C344.934 27.6626 345.433 29.2689 346.904 29.2689C346.928 29.2689 346.95 29.2689 346.975 29.2669C347.651 29.2421 347.999 28.9787 347.999 28.9787C347.999 28.9787 348.26 32.6231 345.591 33.7531C345.591 33.7531 346.077 34.6146 347.191 34.6146H347.204C348.543 34.6067 349.082 33.7749 349.082 33.7749C349.082 33.7749 349.004 34.8573 349.484 36.316C350.065 38.0758 349.482 39.3335 349.482 39.3335C349.482 39.3335 349.793 39.4197 350.153 39.4197C350.292 39.4197 350.435 39.4048 350.569 39.3692C351.686 39.0988 351.965 38.062 351.965 38.062C351.965 38.062 351.863 41.5627 355.869 41.5627H355.898C355.898 41.5627 355.547 41.0735 355.444 39.6663C355.254 37.0687 353.527 36.7122 353.527 36.7122M362.366 23.8132H364.254V24.4737C364.032 24.1965 363.6 24.2529 363.6 24.2529V25.2046C363.6 25.2046 363.616 25.673 363.777 25.876H362.843C363.006 25.673 363.021 25.2046 363.021 25.2046V24.2539C363.021 24.2539 362.589 24.1965 362.366 24.4737V23.8132V23.8132ZM360.307 23.9122C360.374 23.9845 360.438 24.0618 360.501 24.141C360.575 24.2391 360.647 24.3395 360.715 24.4421L360.753 24.4975C360.819 24.6015 360.884 24.7075 360.946 24.8184C361.525 25.8345 362.449 26.4415 363.27 26.4425C364.091 26.4415 365.014 25.8345 365.594 24.8184C365.657 24.7045 365.723 24.5956 365.79 24.4936L365.82 24.448C365.888 24.3438 365.96 24.2424 366.036 24.144C366.101 24.0618 366.167 23.9835 366.235 23.9103L366.267 23.8776C366.562 23.5706 366.913 23.3369 367.372 23.2071L367.167 23.0853H367.156L366.343 22.605L365.508 22.1178L363.275 23.3557L363.27 23.3507L363.266 23.3557L361.032 22.1178L360.198 22.605L359.383 23.0853H359.374L359.168 23.2071C359.627 23.3369 359.977 23.5686 360.272 23.8756C360.285 23.8875 360.294 23.9013 360.307 23.9122V23.9122Z" fill="white"/>
<path fill-rule="evenodd" clip-rule="evenodd" d="M362.558 19.6172V20.2381L362.441 20.1837C362.435 20.1787 362.263 20.1401 361.964 19.8975C361.469 19.5073 361.459 19.1468 361.459 19.1468L362.558 19.6172ZM363.076 22.5317V18.6675L360.662 17.8326L361.299 21.578L363.076 22.5317ZM363.982 19.6172L365.082 19.1468C365.082 19.1468 365.072 19.5073 364.575 19.8975C364.277 20.1401 364.104 20.1787 364.099 20.1837L363.982 20.2381V19.6172ZM365.241 21.578L365.876 17.8326L363.463 18.6675V22.5317L365.241 21.578ZM359.662 31.4922C359.896 31.5783 360.181 31.5971 360.328 31.5971L360.348 31.5278C360.361 31.4842 360.374 31.4407 360.383 31.3921C360.423 31.1782 360.438 30.9366 360.442 30.7791C360.307 30.6971 360.197 30.5791 360.125 30.4385C360.035 30.2463 359.907 30.1562 359.72 30.1562C359.477 30.1562 359.217 30.3048 359.104 30.3751C359.015 30.9098 359.402 31.3951 359.662 31.4922ZM365.002 29.4422C364.554 29.9383 363.675 30.8039 363.634 30.8465L363.58 30.9009L360.807 30.8564C360.805 31.0902 360.774 31.3229 360.717 31.5496L360.694 31.6387L363.994 32.2428C364.337 31.9992 365.282 31.2961 365.648 31.0208C365.383 30.6236 365.357 30.1523 365.417 29.8215C365.258 29.7195 365.118 29.5913 365.002 29.4422" fill="white"/>
<path fill-rule="evenodd" clip-rule="evenodd" d="M365.379 26.0425C364.739 26.6882 364.126 26.9278 363.579 26.9833C363.479 26.9932 363.378 27.0001 363.277 27.0001H363.263C363.062 27.0001 362.861 26.9785 362.664 26.9357C362.629 27.0813 362.583 27.3844 362.713 27.6726C362.829 27.933 363.064 28.1281 363.408 28.2568L363.524 28.3034L363.526 28.4301C363.526 28.4678 363.554 29.2897 364.432 29.5185C364.576 29.368 364.706 29.2313 364.802 29.1174C364.623 28.6857 364.717 28.2459 364.979 28.031C364.967 28.0766 364.852 29.1551 365.702 29.5561L365.84 29.6245L365.8 29.776C365.786 29.8215 365.503 30.8653 366.531 31.2545L366.713 31.3239L366.633 31.5041C366.614 31.5437 366.212 32.4915 367.16 33.0292H369.219V31.3645C368.486 31.2734 368.177 30.6742 368.097 30.2494C367.757 30.1899 367.493 30.0404 367.313 29.7968C366.881 29.2175 367.252 28.6856 367.257 28.6579C367.256 28.6619 367.257 29.2264 367.599 29.5759C367.769 29.7443 367.969 29.874 368.273 29.9028L368.423 29.9176L368.436 30.0731C368.439 30.1058 368.521 30.8713 369.218 30.9911V27.5884C369.218 27.0615 369.368 26.5317 369.55 26.0435H365.379M359.837 27.6012L359.781 29.7681L360.023 29.8057L360.614 27.726L360.314 27.0873L359.837 27.6022M361.117 35.6219C361.101 35.6211 361.085 35.6171 361.07 35.6099C361.055 35.6028 361.042 35.5927 361.031 35.5802C361.021 35.5678 361.013 35.5533 361.008 35.5377C361.003 35.522 361.001 35.5055 361.003 35.4892C361.003 35.4732 361.007 35.4576 361.014 35.4432C361.021 35.4288 361.031 35.4159 361.043 35.4053C361.055 35.3947 361.069 35.3866 361.084 35.3815C361.099 35.3763 361.115 35.3742 361.131 35.3753C361.201 35.3782 361.25 35.4396 361.248 35.506C361.241 35.5753 361.183 35.6278 361.117 35.6219M366.352 37.5391C366.371 37.5391 366.392 37.5421 366.412 37.5471C366.778 37.654 366.872 39.0038 367.517 39.1246C367.574 39.1367 367.632 39.1427 367.69 39.1425C367.876 39.1425 367.987 39.0613 368.107 38.9167C368.107 38.9167 367.782 38.3977 367.54 38.0462C367.217 37.5877 366.967 37.0331 366.367 37.0331C366.352 37.0331 366.335 37.0331 366.321 37.0351C366.123 37.045 366.001 37.144 366.001 37.144C365.801 37.0101 365.567 36.9378 365.327 36.936C364.951 36.936 364.659 37.1113 364.511 37.1113H364.506L363.165 36.9766C362.956 36.9558 362.79 36.7399 362.731 36.6568L362.708 36.6201C362.708 36.5825 362.708 36.5448 362.705 36.5112C362.66 35.3941 361.812 34.9168 361.509 34.9088C361.509 34.9088 361.544 34.6959 361.463 34.6147L361.167 34.9811L360.197 34.485L360.891 35.3089L360.303 35.9794C360.23 36.0556 360.239 36.1576 360.27 36.2022L360.523 36.43L360.844 36.2319C360.86 36.22 360.89 36.2161 360.925 36.2161C361.014 36.2161 361.147 36.2388 361.267 36.2388C361.398 36.2388 361.511 36.2111 361.524 36.0853C361.485 36.5003 361.107 37.2193 361.354 37.7847L361.538 38.2116L360.353 38.0383L359.798 38.9929C359.627 39.3098 359.6 39.6535 359.765 39.8406L359.973 40.1051C359.973 40.1051 360.264 39.7911 360.329 39.5841L360.234 39.4782C360.155 39.3891 360.159 39.3098 360.207 39.2148L360.556 38.6265L361.954 38.9632L362.029 38.8345C362.066 38.7673 362.122 38.712 362.189 38.6752C362.257 38.6384 362.333 38.6215 362.41 38.6265C362.472 38.6265 362.535 38.6334 362.601 38.6443C362.968 38.72 363.341 38.7608 363.715 38.7661C364.183 38.7661 364.65 38.681 364.897 38.3977C365.405 39.1623 366.432 39.2841 366.35 39.6733L366.08 40.9845C366.258 40.9765 366.432 40.9647 366.595 40.9419L366.852 39.5782C366.881 39.4297 366.908 39.2296 366.908 39.2296C366.809 39.1266 366.569 38.9107 366.433 38.6473C366.252 38.2928 366.35 38.1076 366.182 37.6471C366.182 37.6471 366.234 37.5391 366.352 37.5391" fill="white"/>
<path fill-rule="evenodd" clip-rule="evenodd" d="M359.208 38.78C359.208 38.78 359.672 38.5849 359.713 38.4472L359.651 38.2888C359.607 38.1858 359.613 38.0749 359.698 38.0145L360.199 37.6619L361.034 37.8263C361.034 37.8263 360.884 37.6322 360.899 37.3747L360.1 37.2024L359.348 37.6698C359.216 37.7704 359.121 37.9119 359.077 38.0722C359.034 38.2325 359.045 38.4027 359.108 38.5562L359.207 38.78M365.123 41.0023C365.272 40.9963 365.439 40.9933 365.62 40.9933C365.62 40.9933 366.05 39.7109 366.075 39.6703C365.833 39.5613 365.332 39.291 365.139 39.1672C365.268 39.3623 365.577 39.5831 365.516 39.7554L365.123 41.0023Z" fill="white"/>
<path fill-rule="evenodd" clip-rule="evenodd" d="M369.22 33.3976H357.324V37.9561C357.324 39.8218 358.648 40.9884 360.602 40.9884C362.235 40.9884 362.665 41.0538 363.272 41.6668C363.691 41.2419 364.037 41.0825 364.748 41.0241L364.765 40.9538L365.14 39.7723C365.119 39.7466 364.506 39.0365 364.506 39.0365C364.263 39.1187 364.059 39.1326 363.716 39.1326C363.364 39.1326 362.966 39.09 362.535 39.0078C362.494 38.9984 362.453 38.9937 362.411 38.9939C362.358 38.9939 362.354 38.9979 362.341 39.0246L362.266 39.1494L362.13 39.3791L361.872 39.3187L360.731 39.0454L360.575 39.3078L360.598 39.3366L360.736 39.493L360.675 39.6961C360.592 39.9615 360.318 40.2714 360.235 40.3576L359.95 40.6695L359.689 40.3338L359.494 40.0843C359.289 39.8505 359.242 39.493 359.358 39.1167C359.354 39.1195 359.35 39.1213 359.346 39.1217L359.024 39.2573L358.879 38.9365L358.777 38.7087C358.679 38.4775 358.662 38.2202 358.727 37.9778C358.793 37.7354 358.938 37.522 359.139 37.3718L360.058 36.8419L360.932 37.0172C360.953 36.9321 360.985 36.6261 361.01 36.5478C360.993 36.5458 360.977 36.5419 360.96 36.5419L360.456 36.734L359.97 36.3923C359.97 36.3923 359.78 36.2052 359.952 36.019L360.422 35.2931L359.23 33.768L361.062 34.5345L361.185 34.381L361.432 34.0789L361.713 34.3513C361.792 34.4285 361.837 34.5246 361.86 34.6207C362.365 34.8217 363.27 35.4129 363.35 36.3735L363.066 36.4884V36.4963C363.132 36.5746 363.185 36.6062 363.202 36.6092L364.509 36.7399C364.544 36.735 364.585 36.7201 364.631 36.7063C364.795 36.6498 365.037 36.5676 365.327 36.5676C365.563 36.5676 365.791 36.6231 366.011 36.7271C366.091 36.6964 366.19 36.6736 366.305 36.6657L366.368 36.6637C367.068 36.6637 367.417 37.1975 367.695 37.6233C367.741 37.6949 367.788 37.7652 367.838 37.8342C368.081 38.1858 368.402 38.7008 368.414 38.7226L368.559 38.9523L368.383 39.1613C368.246 39.3217 368.042 39.5099 367.691 39.5099C367.619 39.5099 367.539 39.5019 367.454 39.4851C367.382 39.4714 367.312 39.4498 367.246 39.4207C367.236 39.4911 367.222 39.5752 367.209 39.6475L366.979 40.8666C368.352 40.523 369.222 39.4683 369.222 37.9561L369.22 33.3976M357.324 33.0302H366.576C366.115 32.5439 366.121 31.928 366.239 31.5279C366.114 31.4668 365.998 31.3888 365.894 31.2961C365.312 31.7323 364.728 32.1644 364.14 32.5925L364.078 32.6341L360.446 31.9656H360.373C360.286 31.9656 360.159 31.9616 360.018 31.9458C359.999 32.034 359.947 32.1116 359.873 32.1627C359.798 32.2139 359.707 32.2347 359.618 32.2211C359.524 32.2044 359.44 32.1512 359.384 32.0729C359.329 31.9947 359.307 31.8978 359.322 31.8032L359.336 31.723C358.963 31.4536 358.616 30.8535 358.769 30.2206L358.784 30.1533L358.837 30.1147C358.845 30.1087 358.906 30.0652 359.001 30.0107L358.738 29.9701C358.69 29.9614 358.648 29.9345 358.62 29.895C358.592 29.8556 358.581 29.8069 358.588 29.7592C358.605 29.6581 358.697 29.5868 358.794 29.6057L359.423 29.7067L359.481 27.4517L360.415 26.4436L361 27.6963L360.384 29.8651L360.939 29.9543C361.037 29.9701 361.104 30.0632 361.089 30.1662C361.083 30.2089 361.061 30.2478 361.028 30.2759C360.996 30.3039 360.954 30.3191 360.911 30.3187L360.883 30.3177L360.43 30.2434C360.436 30.2573 360.445 30.2652 360.451 30.2791C360.501 30.3681 360.577 30.4397 360.669 30.4841L363.436 30.5296C363.555 30.4128 363.845 30.1236 364.143 29.8166C363.881 29.7169 363.651 29.5465 363.48 29.3243C363.309 29.1021 363.202 28.8369 363.172 28.5579C362.793 28.3925 362.529 28.1449 362.384 27.8231C362.206 27.425 362.269 27.0249 362.317 26.8308C361.947 26.6941 361.559 26.4446 361.163 26.0425H356.992C357.17 26.5317 357.323 27.0625 357.323 27.5884V33.0302" fill="#FFE52B"/>
<path fill-rule="evenodd" clip-rule="evenodd" d="M361.148 35.3759C361.071 35.369 361.009 35.4284 361.003 35.5047C361.001 35.5229 361.003 35.5412 361.009 35.5586C361.014 35.576 361.024 35.5921 361.036 35.6059C361.048 35.6196 361.062 35.6307 361.079 35.6385C361.096 35.6463 361.113 35.6507 361.132 35.6512C361.168 35.6532 361.204 35.6407 361.231 35.6166C361.258 35.5926 361.275 35.5588 361.277 35.5225C361.279 35.4482 361.225 35.3789 361.148 35.3759M366.647 44.9365L366.103 43.4134C366.75 43.2124 367.861 42.7816 368.36 42.4954L368.027 43.6025L369.153 43.9838C368.472 44.3324 367.647 44.6572 366.647 44.9365M363.273 46.3051C361.964 46.3051 360.468 45.9981 360.028 45.8387L360.697 43.9947C361.252 44.1591 362.406 44.3344 363.244 44.3294H363.298C364.135 44.3344 365.288 44.1591 365.847 43.9947L366.514 45.8387C366.073 45.9981 364.579 46.3051 363.273 46.3051M357.388 43.9838L358.516 43.6025L358.183 42.4954C358.68 42.7816 359.794 43.2124 360.439 43.4134L359.894 44.9365C358.898 44.6572 358.069 44.3324 357.388 43.9838M369.203 43.6461L368.519 43.3787L368.708 42.6558L368.916 41.8705C368.916 41.8705 367.702 42.5409 365.99 43.045C365.505 43.1866 365.138 43.252 365.138 43.252V43.7867C365.138 43.7867 364.223 43.9492 363.298 43.9492H363.244C362.318 43.9492 361.405 43.7867 361.405 43.7867V43.252C361.405 43.252 361.037 43.1866 360.551 43.045C358.84 42.5409 357.628 41.8705 357.628 41.8705L357.833 42.6558L358.026 43.3787L357.338 43.6461L356.575 43.9353C357.45 44.3661 358.661 44.991 359.769 45.3009L359.508 46.0288C359.508 46.0288 360.914 46.6805 363.255 46.6864V46.6884H363.287V46.6864C365.631 46.6805 367.035 46.0288 367.035 46.0288L366.773 45.3009C367.882 44.991 369.094 44.3661 369.964 43.9353L369.204 43.6461M360.409 14.291L360.721 14.3237L360.855 14.0335L361.248 13.1789L361.977 13.5631L362.259 13.7097L363.269 12.6886L364.057 13.4829L364.284 13.7097L364.565 13.5631L365.29 13.1789L365.688 14.0335L365.82 14.3237L366.132 14.29L366.429 14.2534C366.308 14.5322 366.206 14.8183 366.121 15.11C365.334 14.6633 364.313 14.4088 363.269 14.4088C362.232 14.4088 361.211 14.6633 360.422 15.11C360.336 14.8184 360.233 14.5323 360.113 14.2534L360.41 14.29L360.409 14.291ZM363.27 14.8555C364.665 14.8555 365.781 15.3269 366.397 15.828C366.397 15.828 366.581 14.7049 367.205 13.7136L366.082 13.8443L365.494 12.5718L364.365 13.165L363.27 12.0618L362.178 13.165L361.046 12.5708L360.459 13.8443L359.335 13.7136C359.961 14.7039 360.143 15.828 360.143 15.828C360.764 15.3269 361.876 14.8555 363.27 14.8555V14.8555ZM380.951 33.7528C380.951 33.7528 380.466 34.6144 379.351 34.6144H379.337C378 34.6065 377.46 33.7746 377.46 33.7746C377.46 33.7746 377.537 34.856 377.056 36.3157C376.475 38.0756 377.061 39.3323 377.061 39.3323C377.061 39.3323 376.748 39.4194 376.388 39.4194C376.251 39.4194 376.107 39.4046 375.972 39.3689C374.855 39.0986 374.575 38.0617 374.575 38.0617C374.575 38.0617 374.678 41.5625 370.674 41.5625H370.642C370.642 41.5625 370.995 41.0733 371.098 39.666C371.289 37.0684 373.015 36.7119 373.015 36.7119C373.015 36.7119 372.094 36.594 371.695 36.2296C371.071 35.6532 371.114 34.9867 371.114 34.9867C372.523 34.9669 373.447 34.4777 374.151 33.6498C374.913 32.7506 375.038 31.783 375.038 31.783C375.038 31.783 374.28 32.4832 372.815 32.4832C372.686 32.4832 372.548 32.4773 372.407 32.4634C371.713 32.406 371.234 31.9573 371.234 31.9573C372.759 30.9601 373.83 29.2211 372.881 26.6027C372.12 24.5032 370.294 22.9365 368.454 21.755C367.842 21.3668 367.502 20.9331 367.502 20.5607C367.502 19.6833 368.726 19.6556 369.227 19.0673C369.806 18.382 369.443 17.2719 368.941 16.6024C368.941 16.6024 369.11 16.5677 369.377 16.5677C369.906 16.5677 370.823 16.7034 371.576 17.4986C372.576 18.5523 372.161 19.7011 372.161 19.7011L372.428 19.7536C372.589 19.7883 372.748 19.7952 372.914 19.8031L373.022 19.8051C374.474 19.8051 375.124 18.2582 375.124 18.2582C375.124 18.2582 376.668 20.1933 374.394 21.7105C374.003 21.9699 373.83 22.2106 373.875 22.4671L373.911 22.6354L374.072 22.6642C375.72 23.1197 376.554 24.2784 377.573 25.5955C379.12 27.5979 381.307 27.6623 381.577 27.6623H381.607C381.607 27.6623 381.108 29.2686 379.636 29.2686C379.611 29.2686 379.59 29.2686 379.567 29.2666C378.89 29.2419 378.544 28.9785 378.544 28.9785C378.544 28.9785 378.28 32.6228 380.95 33.7528M379.636 29.7598C381.439 29.7598 382.043 27.8901 382.068 27.8089L382.27 27.1503L381.594 27.1721H381.592C381.353 27.1721 379.363 27.1186 377.951 25.2905L377.818 25.1221C376.896 23.9268 376.021 22.7909 374.458 22.272C374.503 22.2304 374.567 22.1799 374.656 22.1205C375.486 21.5649 375.969 20.8895 376.09 20.1052C376.268 18.9267 375.529 17.9859 375.496 17.9473L374.994 17.3144L374.68 18.0651C374.659 18.1126 374.132 19.3139 373.022 19.3139H372.938C372.863 19.3099 372.79 19.307 372.719 19.301C372.758 18.7653 372.662 17.9354 371.923 17.156C371.035 16.2201 369.947 16.0795 369.377 16.0795C369.072 16.0795 368.87 16.1181 368.848 16.1191L368.09 16.2736L368.557 16.9015C368.925 17.3867 369.257 18.28 368.863 18.7474C368.736 18.896 368.477 19.0168 368.229 19.1376C367.718 19.3763 367.02 19.712 367.02 20.5607C367.02 21.1103 367.439 21.6857 368.199 22.1749C370.444 23.6139 371.83 25.1162 372.428 26.774C373.354 29.3241 372.146 30.7779 370.973 31.5454L370.447 31.889L370.907 32.3208C370.97 32.3763 371.532 32.8823 372.365 32.9546C372.523 32.9655 372.674 32.9744 372.815 32.9744C373.274 32.9764 373.732 32.909 374.171 32.7744C374.071 32.9546 373.945 33.1408 373.788 33.326C373.118 34.1182 372.293 34.4777 371.106 34.4975L370.666 34.5045L370.632 34.955C370.628 35.0462 370.594 35.882 371.371 36.5921C371.49 36.702 371.632 36.7931 371.784 36.8664C371.257 37.3496 370.722 38.1904 370.619 39.6304C370.53 40.8326 370.25 41.2783 370.247 41.2822L369.759 42.0398L370.64 42.0527C372.095 42.0527 373.209 41.6437 373.98 40.8326C374.437 40.3533 374.698 39.8126 374.852 39.3323C375.278 39.7021 375.824 39.906 376.389 39.9067C376.8 39.9067 377.143 39.8185 377.181 39.8086L377.743 39.6571L377.496 39.1223C377.477 39.0797 377.009 38.0062 377.513 36.4762C377.697 35.918 377.825 35.3427 377.895 34.759C378.249 34.9471 378.724 35.1026 379.337 35.1046C380.728 35.1046 381.342 34.0449 381.369 34.0004L381.643 33.5141L381.135 33.3012C379.476 32.5991 379.109 30.7145 379.036 29.6954C379.185 29.7252 379.358 29.7519 379.551 29.7568L379.636 29.7598" fill="#1A1918"/>
<path fill-rule="evenodd" clip-rule="evenodd" d="M377.608 21.7592C377.945 21.7592 378.336 21.8761 378.707 22.2663C379.869 23.4685 380.951 23.5349 380.951 23.5349C380.754 23.9785 380.184 24.3677 379.594 24.3677C379.455 24.3682 379.316 24.3447 379.185 24.2984C378.385 24.0241 378.098 22.802 376.694 22.0405C376.694 22.0405 377.086 21.7592 377.608 21.7592M376.465 22.4742C377.139 22.8397 377.53 23.3289 377.874 23.7626C378.212 24.1865 378.532 24.5945 379.034 24.7639C379.213 24.8263 379.401 24.856 379.594 24.856C380.347 24.856 381.103 24.3865 381.389 23.7369L381.678 23.0853L380.98 23.0427C380.948 23.0427 380.049 22.9585 379.051 21.9197C378.64 21.4928 378.143 21.269 377.608 21.269C376.955 21.269 376.469 21.6018 376.416 21.6354L375.774 22.0959L376.465 22.4742M376.781 28.9668V28.9925C376.376 25.6631 374.004 23.2586 371.364 21.7978C371.137 21.6748 370.908 21.5566 370.676 21.4433C371.478 21.5711 372.774 21.5859 373.773 20.7026C373.773 20.7026 372.244 21.8484 369.113 20.8075C369.979 21.3809 371.663 22.19 373.201 23.4992C377.046 26.9416 374.296 30.2978 374.296 30.2978C375.677 28.8291 375.735 27.2555 375.328 25.9701C376.055 27.204 376.52 28.7014 376.448 30.5483C376.343 33.1925 374.915 35.4801 373.413 37.3192C372.692 38.2105 372.532 39.3067 372.532 39.3067C372.532 39.3067 372.822 38.3392 373.657 37.3449C375.266 35.4247 376.643 33.4312 376.823 30.5582C376.988 31.0801 377.675 32.529 378.762 33.0746C378.762 33.0746 377.395 32.2358 376.781 28.9668M355.869 41.5617C351.863 41.5617 351.965 38.0609 351.965 38.0609C351.965 38.0609 351.686 39.0978 350.569 39.3681C350.435 39.4038 350.292 39.4177 350.153 39.4177C349.793 39.4177 349.482 39.3315 349.482 39.3315C349.482 39.3315 350.064 38.0748 349.484 36.315C349.004 34.8562 349.082 33.7738 349.082 33.7738C349.082 33.7738 348.543 34.6057 347.204 34.6136H347.191C346.077 34.6136 345.591 33.752 345.591 33.752C348.26 32.6231 347.999 28.9777 347.999 28.9777C347.999 28.9777 347.652 29.2411 346.975 29.2659C346.95 29.2678 346.928 29.2678 346.905 29.2678C345.433 29.2678 344.934 27.6615 344.934 27.6615H344.963C345.236 27.6615 347.421 27.5962 348.966 25.5938C349.986 24.2766 350.82 23.1189 352.466 22.6634L352.631 22.6337L352.666 22.4653C352.712 22.2098 352.539 21.9692 352.148 21.7097C349.875 20.1925 351.419 18.2574 351.419 18.2574C351.419 18.2574 352.065 19.8043 353.522 19.8043L353.628 19.8033C353.791 19.7934 353.952 19.7875 354.113 19.7538L354.38 19.7003C354.38 19.7003 353.964 18.5516 354.967 17.4979C355.249 17.2001 355.591 16.9638 355.969 16.8037C356.347 16.6435 356.754 16.563 357.165 16.567C357.432 16.567 357.599 16.6016 357.599 16.6016C357.099 17.2711 356.735 18.3812 357.315 19.0665C357.816 19.6548 359.038 19.6825 359.038 20.5599C359.038 20.9323 358.698 21.3661 358.087 21.7543C356.245 22.9357 354.42 24.5034 353.66 26.6019C352.712 29.2213 353.782 30.9593 355.309 31.9566C355.309 31.9566 354.829 32.4052 354.135 32.4616C353.998 32.4751 353.862 32.4821 353.725 32.4824C352.261 32.4824 351.503 31.7823 351.503 31.7823C351.503 31.7823 351.629 32.7498 352.387 33.649C353.095 34.4769 354.017 34.9662 355.427 34.986C355.427 34.986 355.472 35.6525 354.849 36.2288C354.449 36.5933 353.527 36.7111 353.527 36.7111C353.527 36.7111 355.254 37.0676 355.444 39.6652C355.547 41.0725 355.897 41.5617 355.897 41.5617H355.868H355.869ZM356.295 41.2814C356.293 41.2775 356.013 40.8318 355.923 39.6296C355.819 38.1887 355.284 37.3489 354.757 36.8656C354.907 36.795 355.046 36.7026 355.17 36.5913C355.945 35.8812 355.912 35.0464 355.906 34.9543L355.877 34.5037L355.433 34.4967C354.25 34.4769 353.423 34.1175 352.753 33.3252C352.608 33.1535 352.48 32.9688 352.369 32.7736C352.738 32.8875 353.191 32.9736 353.726 32.9736C353.868 32.9736 354.017 32.9647 354.175 32.9538C354.715 32.898 355.225 32.6766 355.634 32.32L356.096 31.8882L355.57 31.5446C354.391 30.7771 353.188 29.3233 354.113 26.7732C354.711 25.1154 356.096 23.6131 358.345 22.1742C359.104 21.685 359.519 21.1096 359.519 20.5599C359.519 19.7102 358.823 19.3755 358.313 19.1368C358.063 19.016 357.804 18.8952 357.679 18.7467C357.283 18.2792 357.616 17.385 357.983 16.9007L358.454 16.2728L357.692 16.1193C357.669 16.1164 357.47 16.0787 357.164 16.0787C356.595 16.0787 355.508 16.2194 354.621 17.1552C353.881 17.9346 353.784 18.7645 353.822 19.3003C353.75 19.3062 353.679 19.3092 353.603 19.3131H353.522C352.408 19.3131 351.882 18.1109 351.862 18.0653L351.549 17.3137L351.042 17.9475C351.013 17.9851 350.272 18.9259 350.453 20.1044C350.571 20.8887 351.056 21.5641 351.886 22.1197C351.975 22.1791 352.038 22.2286 352.084 22.2712C350.518 22.7901 349.645 23.926 348.723 25.1204L348.59 25.2907C347.181 27.1179 345.185 27.1723 344.946 27.1723L344.267 27.1495L344.474 27.8091C344.498 27.8893 345.1 29.759 346.904 29.759L346.991 29.7561C347.183 29.7511 347.354 29.7244 347.506 29.6947C347.432 30.7137 347.064 32.5983 345.405 33.2994L344.898 33.5134L345.172 33.9996C345.198 34.0442 345.814 35.1038 347.208 35.1038C347.709 35.1085 348.202 34.9901 348.646 34.7592C348.7 35.2207 348.812 35.8129 349.029 36.4754C349.534 38.0055 349.063 39.079 349.045 39.1216L348.797 39.6563L349.359 39.8078C349.397 39.8177 349.744 39.9069 350.153 39.9069C350.717 39.9072 351.263 39.7032 351.69 39.3325C351.842 39.8108 352.105 40.3525 352.56 40.8318C353.333 41.6429 354.447 42.0519 355.9 42.0519L356.782 42.039L356.295 41.2814V41.2814Z" fill="#1A1918"/>
<path fill-rule="evenodd" clip-rule="evenodd" d="M347.833 22.2655C348.205 21.8763 348.596 21.7594 348.935 21.7594C349.454 21.7594 349.846 22.0407 349.846 22.0407C348.443 22.8023 348.154 24.0243 347.353 24.2986C347.223 24.3452 347.085 24.3687 346.947 24.368C346.357 24.368 345.786 23.9788 345.59 23.5361C345.59 23.5361 346.672 23.4687 347.833 22.2655ZM346.946 24.8562C347.139 24.8562 347.328 24.8265 347.507 24.7651C348.01 24.5947 348.33 24.1877 348.667 23.7629C349.014 23.3301 349.4 22.8399 350.074 22.4754L350.767 22.0962L350.123 21.6357C350.071 21.601 349.588 21.2692 348.935 21.2692C348.398 21.2692 347.9 21.493 347.489 21.9199C346.49 22.9597 345.594 23.0429 345.563 23.0439L344.865 23.0855L345.152 23.7371C345.439 24.3868 346.194 24.8562 346.946 24.8562M350.094 30.5486C350.019 28.7016 350.485 27.2042 351.213 25.9703C350.807 27.2557 350.862 28.8294 352.245 30.298C352.245 30.298 349.494 26.9408 353.341 23.4994C354.879 22.1902 356.561 21.3801 357.427 20.8077C354.297 21.8486 352.768 20.7028 352.768 20.7028C353.767 21.5861 355.062 21.5713 355.865 21.4435C355.647 21.5525 355.419 21.6644 355.177 21.7981C352.536 23.2588 350.166 25.6633 349.759 28.9928V28.967C349.145 32.2351 347.78 33.0749 347.78 33.0749C348.866 32.5292 349.551 31.0804 349.717 30.5585C349.898 33.4314 351.274 35.4249 352.883 37.3451C353.718 38.3394 354.012 39.307 354.012 39.307C354.012 39.307 353.849 38.2107 353.124 37.3194C351.625 35.4813 350.199 33.1937 350.094 30.5486M362.366 23.8124V24.4729C362.589 24.1956 363.02 24.2521 363.02 24.2521V25.2038C363.02 25.2038 363.006 25.6722 362.842 25.8752H363.777C363.616 25.6722 363.599 25.2038 363.599 25.2038V24.2531C363.599 24.2531 364.032 24.1956 364.254 24.4729V23.8124H362.366M361.964 19.8976C362.263 20.1393 362.436 20.1799 362.442 20.1828L362.559 20.2383V19.6174L361.459 19.147C361.459 19.147 361.469 19.5065 361.964 19.8976ZM364.575 19.8976C365.072 19.5065 365.081 19.147 365.081 19.147L363.983 19.6174V20.2383L364.098 20.1828C364.104 20.1799 364.277 20.1393 364.575 19.8976Z" fill="#1A1918"/>
<path fill-rule="evenodd" clip-rule="evenodd" d="M363.27 18.2423L360.625 17.1777C360.85 16.635 361.887 16.1735 363.269 16.1725C364.656 16.1735 365.692 16.635 365.917 17.1777L363.27 18.2432V18.2423ZM365.242 21.5787L363.465 22.5333V18.6681L365.878 17.8333L365.242 21.5787ZM366.343 22.6046L367.157 23.0849H367.168L367.372 23.2067C366.914 23.3365 366.563 23.5702 366.268 23.8772L366.236 23.9099C366.167 23.9852 366.101 24.0632 366.037 24.1436L366 24.1931C365.937 24.2758 365.878 24.3607 365.822 24.4476L365.791 24.4932C365.722 24.5993 365.657 24.7077 365.595 24.818C365.015 25.8341 364.091 26.4411 363.27 26.4421C362.45 26.4411 361.526 25.8341 360.947 24.818C360.886 24.7093 360.821 24.6023 360.754 24.4971L360.716 24.4417C360.661 24.3585 360.604 24.2766 360.545 24.1961C360.471 24.098 360.392 24.0032 360.309 23.9119C360.295 23.901 360.286 23.8871 360.274 23.8752C359.974 23.555 359.591 23.3237 359.169 23.2067L359.375 23.0849H359.384L360.199 22.6046L361.034 22.1174L363.267 23.3553L363.27 23.3503L363.276 23.3553L365.509 22.1174L366.343 22.6046V22.6046ZM369.552 26.043C369.369 26.5322 369.218 27.0631 369.218 27.5889L369.22 30.9917C368.522 30.8728 368.44 30.1063 368.438 30.0736L368.424 29.9182L368.274 29.9043C368.017 29.8809 367.777 29.7643 367.6 29.5765C367.259 29.2279 367.258 28.6624 367.259 28.6575C367.254 28.6872 366.882 29.217 367.313 29.7963C367.494 30.041 367.759 30.1915 368.098 30.2499C368.178 30.6748 368.488 31.2739 369.22 31.366V33.0297H367.16C366.213 32.492 366.615 31.5453 366.633 31.5047L366.713 31.3254L366.532 31.2551C365.504 30.8669 365.787 29.8221 365.801 29.7765L365.842 29.624L365.702 29.5567C364.853 29.1556 364.968 28.0762 364.979 28.0316C364.718 28.2475 364.624 28.6862 364.804 29.118C364.706 29.2319 364.576 29.3685 364.433 29.5191C363.554 29.2913 363.527 28.4683 363.527 28.4297L363.525 28.3029L363.409 28.2574C363.065 28.1286 362.831 27.9336 362.714 27.6731C362.584 27.3839 362.63 27.0819 362.664 26.9353C362.861 26.9769 363.062 26.9985 363.264 26.9997H363.278C363.379 26.9997 363.48 26.9937 363.579 26.9838C364.127 26.9284 364.74 26.6887 365.38 26.043H369.551H369.552ZM366.979 40.8681L367.209 39.6471C367.221 39.5758 367.236 39.4916 367.246 39.4213C367.311 39.449 367.379 39.4708 367.454 39.4857C367.54 39.5025 367.619 39.5104 367.691 39.5104C368.042 39.5104 368.246 39.3223 368.383 39.1618L368.558 38.9539L368.414 38.7231C368.229 38.4225 368.036 38.1263 367.837 37.8348C367.788 37.7654 367.741 37.6947 367.696 37.6229C367.417 37.197 367.068 36.6642 366.367 36.6642L366.305 36.6662C366.204 36.6719 366.105 36.6926 366.011 36.7276C365.798 36.6241 365.564 36.5699 365.327 36.5692C365.037 36.5692 364.795 36.6504 364.632 36.7058C364.585 36.7207 364.543 36.7355 364.51 36.7415L363.202 36.6098C363.185 36.6068 363.133 36.5751 363.066 36.4969V36.4899L363.35 36.3741C363.27 35.4135 362.365 34.8222 361.859 34.6212C361.837 34.5189 361.787 34.425 361.713 34.3508L361.431 34.0795L361.184 34.3815L361.063 34.535L359.23 33.7685L360.422 35.2936L359.952 36.0195C359.78 36.2057 359.97 36.3929 359.97 36.3929L360.456 36.7336L360.96 36.5424C360.977 36.5424 360.993 36.5464 361.01 36.5484C360.985 36.6266 360.953 36.9326 360.932 37.0178L360.058 36.8435L359.139 37.3713C358.937 37.5216 358.792 37.7353 358.726 37.9782C358.661 38.221 358.679 38.4789 358.777 38.7102L358.879 38.937L359.025 39.2579L359.346 39.1222C359.35 39.121 359.354 39.1189 359.358 39.1163C359.242 39.4926 359.289 39.8511 359.495 40.0848L359.69 40.3354L359.95 40.6701L360.235 40.3571C360.318 40.273 360.592 39.961 360.675 39.6966L360.736 39.4936L360.598 39.3371L360.575 39.3084L360.731 39.046L361.872 39.3203L362.13 39.3797L362.266 39.1499L362.341 39.0252C362.355 38.9984 362.358 38.9945 362.411 38.9945C362.451 38.9945 362.492 38.9984 362.536 39.0083C362.966 39.0915 363.364 39.1321 363.716 39.1321C364.058 39.1321 364.263 39.1192 364.506 39.037C364.506 39.037 365.119 39.7461 365.14 39.7738L364.764 40.9533L364.748 41.0246C364.037 41.084 363.691 41.2425 363.272 41.6683C362.665 41.0543 362.235 40.989 360.603 40.989C358.648 40.989 357.323 39.8224 357.323 37.9566V33.3981H369.22L369.222 37.9566C369.222 39.4688 368.351 40.5235 366.979 40.8681V40.8681ZM359.651 38.2893L359.713 38.4478C359.672 38.5855 359.208 38.7805 359.208 38.7805L359.108 38.5567C359.045 38.4032 359.034 38.2331 359.077 38.0729C359.121 37.9126 359.216 37.7711 359.348 37.6704L360.1 37.203L360.899 37.3753C360.893 37.5367 360.94 37.6955 361.034 37.8269L360.199 37.6625L359.698 38.015C359.613 38.0754 359.607 38.1864 359.651 38.2893V38.2893ZM366.853 39.5787L366.596 40.9414C366.425 40.9648 366.253 40.9794 366.081 40.985L366.351 39.6748C366.433 39.2846 365.406 39.1638 364.899 38.3973C364.651 38.6815 364.186 38.7657 363.716 38.7657C363.289 38.7657 362.861 38.6964 362.602 38.6449C362.539 38.6335 362.475 38.6272 362.411 38.6261C362.261 38.6261 362.124 38.6736 362.03 38.834L361.955 38.9628L360.557 38.628L360.208 39.2143C360.16 39.3104 360.156 39.3896 360.235 39.4787L360.329 39.5837C360.265 39.7917 359.973 40.1056 359.973 40.1056L359.766 39.8412C359.601 39.653 359.627 39.3104 359.799 38.9925L360.354 38.0378L361.539 38.2121L361.355 37.7853C361.108 37.2198 361.485 36.5008 361.526 36.0859C361.512 36.2117 361.399 36.2394 361.268 36.2394C361.148 36.2394 361.015 36.2166 360.926 36.2166C360.891 36.2166 360.861 36.2206 360.845 36.2324L360.524 36.4305L360.271 36.2027C360.241 36.1592 360.231 36.0562 360.304 35.9789L360.891 35.3095L360.199 34.4855L361.168 34.9807L361.465 34.6153C361.545 34.6974 361.51 34.9094 361.51 34.9094C361.813 34.9173 362.661 35.3946 362.706 36.5107C362.709 36.5454 362.709 36.583 362.709 36.6197L362.732 36.6573C362.791 36.7415 362.958 36.9564 363.167 36.9762L364.507 37.1119H364.512C364.66 37.1119 364.952 36.9356 365.327 36.9356C365.532 36.9356 365.759 36.9891 366.001 37.1445C366.001 37.1445 366.125 37.0455 366.322 37.0356C366.337 37.0336 366.353 37.0336 366.367 37.0336C366.968 37.0336 367.219 37.5882 367.541 38.0477C367.783 38.3983 368.108 38.9172 368.108 38.9172C367.988 39.0618 367.877 39.143 367.69 39.143C367.632 39.143 367.575 39.137 367.518 39.1252C366.873 39.0044 366.78 37.6536 366.412 37.5476C366.393 37.5423 366.373 37.5396 366.353 37.5397C366.235 37.5397 366.184 37.6466 366.184 37.6466C366.352 38.1071 366.253 38.2933 366.435 38.6478C366.569 38.9113 366.81 39.1272 366.909 39.2302C366.909 39.2302 366.882 39.4292 366.853 39.5787V39.5787ZM365.62 40.9939C365.439 40.9939 365.273 40.9969 365.124 41.0028L365.517 39.757C365.578 39.5837 365.267 39.3619 365.139 39.1678C365.332 39.2916 365.833 39.5629 366.074 39.6708C366.05 39.7105 365.619 40.9939 365.619 40.9939H365.62ZM359.783 29.7686L359.838 27.6028L360.315 27.0878L360.614 27.7276L360.024 29.8062L359.783 29.7686ZM360.125 30.4391C360.204 30.6054 360.343 30.7164 360.442 30.7797C360.439 30.9853 360.419 31.1902 360.384 31.3927C360.374 31.4413 360.362 31.4848 360.349 31.5284L360.329 31.5977C360.183 31.5977 359.897 31.5789 359.663 31.4928C359.403 31.3947 359.017 30.9105 359.106 30.3757C359.218 30.3064 359.478 30.1578 359.721 30.1578C359.908 30.1578 360.036 30.2469 360.125 30.4391V30.4391ZM365.65 31.0214C365.284 31.2967 364.338 31.9998 363.995 32.2434L360.696 31.6393L360.718 31.5502C360.775 31.3234 360.805 31.0908 360.808 30.857L363.581 30.9025L363.635 30.8471C363.677 30.8045 364.556 29.939 365.004 29.4418C365.11 29.5785 365.242 29.7082 365.418 29.8221C365.358 30.1529 365.384 30.6243 365.65 31.0204V31.0214ZM361.163 26.043C361.559 26.4451 361.947 26.6947 362.317 26.8313C362.269 27.0254 362.206 27.4255 362.384 27.8246C362.529 28.1455 362.792 28.3931 363.173 28.5575C363.215 28.9556 363.462 29.5537 364.144 29.8171C363.845 30.1241 363.554 30.4133 363.436 30.5302L360.669 30.4856C360.577 30.441 360.501 30.369 360.451 30.2796C360.445 30.2658 360.436 30.2578 360.431 30.244L360.883 30.3182L360.912 30.3192C360.955 30.3194 360.996 30.3041 361.029 30.2761C361.061 30.2481 361.083 30.2092 361.089 30.1667C361.097 30.119 361.086 30.0699 361.058 30.0303C361.03 29.9906 360.988 29.9635 360.94 29.9548L360.384 29.8657L361.001 27.6969L360.416 26.4451L359.481 27.4523L359.423 29.7082L358.794 29.6062C358.697 29.5864 358.605 29.6587 358.587 29.7597C358.572 29.8587 358.639 29.9528 358.738 29.9706L359.001 30.0112C358.945 30.0435 358.89 30.0785 358.837 30.1162L358.784 30.1539L358.769 30.2212C358.617 30.854 358.963 31.4541 359.336 31.7235L359.323 31.8027C359.315 31.8501 359.316 31.8985 359.327 31.9453C359.338 31.9921 359.358 32.0362 359.386 32.0751C359.418 32.1221 359.462 32.1606 359.512 32.187C359.563 32.2134 359.619 32.227 359.676 32.2266C359.756 32.2256 359.834 32.1973 359.896 32.1464C359.959 32.0955 360.002 32.025 360.019 31.9463C360.158 31.9622 360.286 31.9661 360.373 31.9661H360.447L364.078 32.6346L364.14 32.593C364.429 32.387 365.532 31.568 365.893 31.2967C365.993 31.3838 366.105 31.4631 366.239 31.5284C366.121 31.9285 366.115 32.5445 366.576 33.0307H357.323V27.5889C357.323 27.0621 357.172 26.5322 356.993 26.044H361.162L361.163 26.043ZM360.663 17.8333L363.077 18.6681V22.5333L361.3 21.5787L360.663 17.8333ZM366.554 17.3678C366.554 16.424 364.996 15.5753 363.276 15.5753H363.267C361.546 15.5753 359.989 16.424 359.989 17.3678L360.022 17.5985L360.709 21.6153L360.019 22.0233L358.235 23.0849H358.241C358.241 23.0849 357.84 23.2959 357.653 23.4246C356.973 23.9059 356.829 24.6071 357.224 24.8972C357.321 24.3248 357.764 23.7277 358.596 23.7277C359.194 23.7277 359.651 24.0426 360.019 24.514C360.114 24.6328 360.204 24.7606 360.288 24.8972C360.391 25.0705 360.496 25.222 360.598 25.3676H356.002C356.339 26.0599 356.66 26.7937 356.66 27.5889V37.9576C356.66 40.4661 358.555 41.6644 360.604 41.6644C362.187 41.6644 362.4 41.5901 363.273 42.4774C364.143 41.5901 364.357 41.6644 365.941 41.6644C367.991 41.6644 369.883 40.4661 369.883 37.9566V27.5889C369.883 26.7927 370.204 26.0599 370.543 25.3676H365.944C366.047 25.222 366.151 25.0705 366.254 24.8972C366.336 24.7647 366.426 24.6368 366.522 24.514C366.893 24.0406 367.349 23.7277 367.948 23.7277C368.778 23.7277 369.221 24.3248 369.319 24.8972C369.715 24.6071 369.572 23.9059 368.889 23.4246C368.699 23.3023 368.503 23.1889 368.302 23.0849H368.309L366.522 22.0233L365.834 21.6153L366.522 17.5985L366.555 17.3668L366.554 17.3678Z" fill="#1A1918"/>
</g>
</g>
<rect x="335.719" y="1.48548" width="56.4484" height="56.4484" rx="28.2242" stroke="white" stroke-width="2.97097"/>
<g clip-path="url(#clip5_9_109)">
<rect x="401.08" width="59.4193" height="59.4193" rx="29.7097" fill="white"/>
<path d="M430.79 59.4193C447.195 59.4193 460.5 46.115 460.5 29.7097C460.5 13.3043 447.195 0 430.79 0C414.385 0 401.08 13.3043 401.08 29.7097C401.08 46.115 414.385 59.4193 430.79 59.4193Z" fill="#FF9900"/>
<path d="M446.361 46.0446C445.515 44.3238 444.015 43.0608 442.39 42.0924C441.827 41.7564 441.19 41.5194 440.636 41.3378C439.36 40.9248 438.126 40.8292 436.687 40.583C435.517 40.383 434.593 39.9022 433.602 39.2292C433.085 38.876 432.663 38.3919 432.31 37.8788C432.244 37.7754 431.915 37.3738 431.948 37.2357C431.948 37.2357 431.718 38.1561 432.173 39.4478C427.987 39.2603 424.318 36.9391 422.637 34.1254C419.543 28.9479 420.633 22.673 424.758 19.9019C428.882 17.1299 435.171 19.0854 438.537 24.0891C440.65 27.2293 441.19 30.8827 440.285 33.854C440.278 33.8771 440.27 33.8988 440.263 33.9218C438.475 32.621 436.841 33.2846 436.841 33.2846C438.633 33.0994 440.051 34.5259 440.051 34.5259C440.259 34.711 440.459 34.9157 440.641 35.1435C440.681 35.1987 440.723 35.255 440.764 35.3148C441.233 35.952 441.526 36.6607 441.65 37.3796C445.209 32.8648 445.797 26.6116 442.648 21.7552C438.637 15.5654 430.083 13.9849 423.549 18.2204C417.012 22.4591 414.967 30.9079 418.98 37.0967C422.277 42.189 430.011 43.7419 434.444 42.3385C436.12 41.8116 441.859 41.31 445.854 46.0286C445.854 46.0286 446.199 46.4232 446.386 46.8729C446.386 46.8729 446.442 47.0305 446.59 46.9544C446.629 46.9337 446.739 46.806 446.361 46.0446ZM438.135 37.6878C438.13 37.6845 438.127 37.6845 438.123 37.6809C438.113 37.6809 438.107 37.6774 438.101 37.6753C438.09 37.6718 438.082 37.6673 438.073 37.6649C438.068 37.6649 438.059 37.6649 438.057 37.6626C438.042 37.6579 438.028 37.6546 438.012 37.6487C437.827 37.6166 437.643 37.6442 437.49 37.7431C437.144 37.979 437.091 38.5116 437.374 38.9359C437.507 39.1281 437.684 39.2614 437.875 39.3352C437.879 39.3352 437.882 39.3352 437.89 39.3396C437.896 39.3408 437.904 39.3455 437.91 39.3455C437.919 39.35 437.928 39.35 437.936 39.3524C437.944 39.3524 437.948 39.3559 437.953 39.358C437.969 39.3616 437.981 39.3672 437.996 39.3684C438.18 39.4051 438.365 39.3788 438.519 39.2753C438.868 39.0395 438.921 38.5092 438.637 38.0859C438.505 37.8916 438.327 37.7559 438.135 37.6878ZM440.453 36.7101C440.16 36.6008 440.133 36.9471 440.207 37.1726C440.37 37.7005 440.592 38.1043 440.755 38.1848C440.91 38.2791 441.094 38.0616 440.976 37.5337C440.926 37.3047 440.752 36.8263 440.453 36.7101Z" fill="white"/>
</g>
<rect x="402.566" y="1.48548" width="56.4484" height="56.4484" rx="28.2242" stroke="white" stroke-width="2.97097"/>
<g clip-path="url(#clip6_9_109)">
<rect x="468" width="59.4193" height="59.4193" rx="29.7097" fill="white"/>
<g clip-path="url(#clip7_9_109)">
<path d="M498 0C514.568 0 528 13.4322 528 30C528 46.5678 514.567 60 498 60C481.433 60 468 46.5714 468 30C468 13.4286 481.43 0 498 0Z" fill="#53AE94"/>
<path d="M501.703 26.0028V21.54H511.908V14.7402H484.118V21.54H494.325V25.9992C486.03 26.3802 479.793 28.023 479.793 29.991C479.793 31.959 486.033 33.6018 494.325 33.9852V48.2802H501.705V33.984C509.985 33.6018 516.209 31.9602 516.209 29.994C516.209 28.0278 509.985 26.3862 501.705 26.004M501.705 32.7732V32.7696C501.497 32.7828 500.427 32.847 498.045 32.847C496.141 32.847 494.801 32.793 494.329 32.7684V32.7744C487 32.4498 481.53 31.1736 481.53 29.6466C481.53 28.1196 487.001 26.8452 494.329 26.52V31.503C494.809 31.536 496.181 31.617 498.076 31.617C500.352 31.617 501.496 31.5222 501.706 31.503V26.52C509.02 26.8458 514.478 28.1232 514.478 29.6448C514.478 31.1664 509.018 32.4444 501.706 32.7702" fill="white"/>
</g>
</g>
<rect x="469.485" y="1.48548" width="56.4484" height="56.4484" rx="28.2242" stroke="white" stroke-width="2.97097"/>
<defs>
<clipPath id="clip0_9_109">
<rect x="66.8467" width="59.4193" height="59.4193" rx="29.7097" fill="white"/>
</clipPath>
<clipPath id="clip1_9_109">
<rect x="133.694" width="59.4193" height="59.4193" rx="29.7097" fill="white"/>
</clipPath>
<clipPath id="clip2_9_109">
<rect x="200.54" width="59.4193" height="59.4193" rx="29.7097" fill="white"/>
</clipPath>
<clipPath id="clip3_9_109">
<rect x="267.387" width="59.4193" height="59.4193" rx="29.7097" fill="white"/>
</clipPath>
<clipPath id="clip4_9_109">
<rect x="334.234" width="59.4193" height="59.4193" rx="29.7097" fill="white"/>
</clipPath>
<clipPath id="clip5_9_109">
<rect x="401.08" width="59.4193" height="59.4193" rx="29.7097" fill="white"/>
</clipPath>
<clipPath id="clip6_9_109">
<rect x="468" width="59.4193" height="59.4193" rx="29.7097" fill="white"/>
</clipPath>
<clipPath id="clip7_9_109">
<rect width="60" height="60" fill="white" transform="translate(468)"/>
</clipPath>
</defs>
</svg>
