<svg width="3059" height="966" viewBox="0 0 3059 966" fill="none" xmlns="http://www.w3.org/2000/svg">
<g clip-path="url(#clip0_2_3)">
<path d="M21.34 686.11C-4.96001 670.27 -4.35001 631.93 22.44 616.94L488.26 356.25C500.103 349.622 513.438 346.116 527.01 346.062C540.582 346.007 553.944 349.407 565.84 355.94L1010.46 600.14C1037.37 614.92 1038.28 653.26 1012.1 669.31L548.62 953.31C536.129 960.962 521.777 965.038 507.128 965.092C492.48 965.147 478.098 961.179 465.55 953.62L21.34 686.11Z" fill="#0071E3"/>
<path d="M23.96 543C-2.04002 527.39 -1.91002 489.61 24.26 474.22L482.85 204.51C494.943 197.398 508.695 193.591 522.724 193.472C536.753 193.352 550.567 196.925 562.78 203.83L1008.48 455.83C1035.1 470.83 1035.67 509.01 1009.48 524.83L545.48 806C533.03 813.543 518.757 817.546 504.2 817.578C489.643 817.61 475.353 813.669 462.87 806.18L23.96 543Z" fill="#20ABF0"/>
<path d="M19.3399 360.54C-6.50006 344.97 -6.47006 307.54 19.3399 291.98L486.75 11.41C499.077 4.01113 513.171 0.0710318 527.548 0.00416148C541.925 -0.0627088 556.054 3.74612 568.45 11.03L1015.34 273.64C1041.34 288.94 1041.72 326.44 1015.99 342.23L548.67 628.94C536.177 636.604 521.819 640.689 507.163 640.749C492.506 640.809 478.115 636.842 465.56 629.28L19.3399 360.54Z" fill="#D2EBFF"/>
<path d="M384.12 180.37C384.12 180.233 384.147 180.098 384.201 179.973C384.255 179.848 384.334 179.734 384.434 179.641C384.533 179.547 384.651 179.475 384.779 179.428C384.907 179.382 385.044 179.362 385.18 179.37L597.43 192.82L614.68 194.28C663.89 198.44 676.89 264.45 632.94 286.96C629.865 288.54 626.63 289.788 623.29 290.68L574.29 303.86C580.35 311.86 613.42 325.52 645.67 326.44C645.906 326.412 646.145 326.469 646.343 326.6C646.541 326.732 646.686 326.931 646.751 327.159C646.816 327.388 646.797 327.633 646.698 327.85C646.599 328.066 646.426 328.24 646.21 328.34L575.83 373.34C575.679 373.442 575.502 373.501 575.32 373.51C575.138 373.519 574.957 373.479 574.796 373.392C574.635 373.305 574.501 373.177 574.408 373.019C574.316 372.862 574.268 372.683 574.27 372.5C573.79 354.82 566.49 331.41 550.47 318.82L527.67 344.73C520.827 352.506 512.806 359.161 503.9 364.45V364.45C451.07 395.85 384.15 357.77 384.15 296.31L384.12 180.37Z" fill="#27272A"/>
</g>
<path d="M1303.5 645H1248V298H1332.5C1368.83 298 1395.67 307.833 1413 327.5C1430.67 347.167 1439.5 377.167 1439.5 417.5C1439.5 458.167 1430.67 488.5 1413 508.5C1395.67 528.5 1368.83 538.5 1332.5 538.5H1303.5V645ZM1303.5 349V488H1332C1351 488 1364.33 482.667 1372 472C1380 461 1384 442.833 1384 417.5C1384 392.833 1380 375.333 1372 365C1364.33 354.333 1351 349 1332 349H1303.5ZM1585.11 652.5C1548.11 652.5 1521.11 641.333 1504.11 619C1487.44 596.333 1479.11 560.333 1479.11 511C1479.11 462.667 1487.44 427.167 1504.11 404.5C1521.11 381.833 1548.11 370.5 1585.11 370.5C1621.77 370.5 1648.44 381.833 1665.11 404.5C1682.11 427.167 1690.61 462.667 1690.61 511C1690.61 560 1682.11 595.833 1665.11 618.5C1648.44 641.167 1621.77 652.5 1585.11 652.5ZM1585.11 606.5C1605.11 606.5 1618.61 599.5 1625.61 585.5C1632.61 571.167 1636.11 546.333 1636.11 511C1636.11 475.333 1632.44 450.667 1625.11 437C1618.11 423.333 1604.77 416.5 1585.11 416.5C1565.44 416.5 1551.94 423.5 1544.61 437.5C1537.27 451.5 1533.61 476 1533.61 511C1533.61 546.333 1537.27 571.167 1544.61 585.5C1551.94 599.5 1565.44 606.5 1585.11 606.5ZM1935.55 645H1876.55L1824.05 526H1797.05V645H1742.55V265H1797.05V480.5H1826.55L1873.55 378H1932.05L1873.05 505L1935.55 645ZM2163.6 511.5V527H2012.6C2013.6 557 2017.6 577.833 2024.6 589.5C2031.93 600.833 2044.93 606.5 2063.6 606.5C2078.6 606.5 2089.6 603.333 2096.6 597C2103.93 590.333 2108.26 580 2109.6 566H2160.6C2156.93 623.667 2124.26 652.5 2062.6 652.5C2026.93 652.5 2000.6 641 1983.6 618C1966.93 595 1958.6 559.167 1958.6 510.5C1958.6 462.5 1966.93 427.167 1983.6 404.5C2000.26 381.833 2026.26 370.5 2061.6 370.5C2097.6 370.5 2123.6 381.5 2139.6 403.5C2155.6 425.5 2163.6 461.5 2163.6 511.5ZM2062.6 416.5C2045.93 416.5 2033.93 421.333 2026.6 431C2019.6 440.333 2015.26 457 2013.6 481H2109.1C2108.43 458 2104.43 441.5 2097.1 431.5C2090.1 421.5 2078.6 416.5 2062.6 416.5ZM2270.19 378.5V448C2285.52 397 2310.36 371.167 2344.69 370.5V430.5C2319.69 430.5 2301.36 437 2289.69 450C2278.02 463 2271.52 487 2270.19 522V645H2215.69V378.5H2270.19Z" fill="#27272A"/>
<path d="M2453.4 645H2397.9V298H2482.4C2518.74 298 2545.57 307.833 2562.9 327.5C2580.57 347.167 2589.4 377.167 2589.4 417.5C2589.4 458.167 2580.57 488.5 2562.9 508.5C2545.57 528.5 2518.74 538.5 2482.4 538.5H2453.4V645ZM2453.4 349V488H2481.9C2500.9 488 2514.24 482.667 2521.9 472C2529.9 461 2533.9 442.833 2533.9 417.5C2533.9 392.833 2529.9 375.333 2521.9 365C2514.24 354.333 2500.9 349 2481.9 349H2453.4ZM2723.01 370.5C2754.01 370.5 2776.51 379 2790.51 396C2804.84 412.667 2812.01 439 2812.01 475V645H2760.01V597.5C2750.34 634.167 2730.17 652.5 2699.51 652.5C2649.17 652.5 2624.01 625 2624.01 570C2624.01 512.333 2654.17 483.5 2714.51 483.5C2730.84 483.5 2746.01 487 2760.01 494V475C2760.01 454.333 2757.01 439.5 2751.01 430.5C2745.34 421.167 2736.01 416.5 2723.01 416.5C2710.34 416.5 2701.01 419.167 2695.01 424.5C2689.34 429.5 2685.84 438.667 2684.51 452H2633.51C2635.84 397.667 2665.67 370.5 2723.01 370.5ZM2714.01 608.5C2727.67 608.5 2738.51 603.5 2746.51 593.5C2754.84 583.5 2759.34 569.833 2760.01 552.5V537.5C2746.01 530.833 2732.17 527.5 2718.51 527.5C2691.17 527.5 2677.51 540.833 2677.51 567.5C2677.51 581.5 2680.34 591.833 2686.01 598.5C2692.01 605.167 2701.34 608.5 2714.01 608.5ZM2988.56 378H3042.56L3003.06 612.5L2991.56 683C2982.89 736 2951.39 762.5 2897.06 762.5C2882.73 762.5 2870.23 760 2859.56 755V709C2870.56 714 2882.56 716.5 2895.56 716.5C2909.89 716.5 2920.89 712.5 2928.56 704.5C2936.56 696.5 2941.89 684.167 2944.56 667.5L2948.06 645H2896.06L2851.06 378H2905.56L2941.06 599.5H2954.56L2988.56 378Z" fill="#0071E3"/>
<defs>
<clipPath id="clip0_2_3">
<rect width="1035.12" height="965.12" fill="white"/>
</clipPath>
</defs>
</svg>
