<svg width="3336" height="431" viewBox="0 0 3336 431" fill="none" xmlns="http://www.w3.org/2000/svg">
<rect x="10.7613" y="10.7613" width="408.929" height="408.929" rx="204.465" fill="#F5F5F5"/>
<path fill-rule="evenodd" clip-rule="evenodd" d="M176.283 163.262L134.045 264.015H106.496L85.7136 183.615C84.4492 178.651 83.3596 176.848 79.5259 174.75C73.244 171.374 62.8997 168.159 53.8064 166.195L54.4252 163.262H98.7751C104.425 163.262 109.51 167.029 110.801 173.539L121.777 231.839L148.896 163.262H176.283ZM284.233 231.126C284.354 204.532 247.469 203.066 247.725 191.174C247.792 187.569 251.236 183.722 258.769 182.74C262.508 182.256 272.799 181.879 284.461 187.247L289.048 165.885C281.253 162.961 272.999 161.448 264.674 161.419C238.901 161.419 220.768 175.113 220.606 194.726C220.445 209.226 233.547 217.324 243.42 222.153C253.576 227.077 256.993 230.251 256.953 234.663C256.885 241.43 248.855 244.416 241.349 244.523C228.247 244.725 220.633 240.986 214.58 238.174L209.859 260.235C215.952 263.033 227.184 265.481 238.847 265.602C266.234 265.602 284.138 252.07 284.219 231.126H284.233ZM352.271 264.015H376.376L355.338 163.262H333.089C330.711 163.241 328.381 163.935 326.402 165.254C324.423 166.574 322.886 168.457 321.991 170.661L282.874 264.015H310.248L315.682 248.963H349.123L352.271 264.028V264.015ZM323.188 228.314L336.909 190.488L344.805 228.314H323.188ZM213.517 163.262L191.968 264.015H165.899L187.462 163.262H213.517Z" fill="#1434CB"/>
<rect x="10.7613" y="10.7613" width="408.929" height="408.929" rx="204.465" stroke="white" stroke-width="21.5226"/>
<g clip-path="url(#clip0_1_16)">
<rect x="484.258" y="6.10352e-05" width="430.452" height="430.452" rx="215.226" fill="white"/>
<path d="M914.71 6.10352e-05H484.258V430.452H914.71V6.10352e-05Z" fill="#E0E0E0"/>
<path d="M737.845 148.341H660.586V287.19H737.845V148.341Z" fill="#7673C0"/>
<path d="M665.49 217.776C665.461 190.678 677.898 165.071 699.215 148.34C663.012 119.889 611.024 124.033 579.786 157.86C548.547 191.688 548.547 243.841 579.786 277.668C611.024 311.496 663.012 315.64 699.215 287.188C677.904 270.462 665.468 244.867 665.49 217.776Z" fill="#EB001B"/>
<path d="M842.061 217.777C842.053 251.575 822.753 282.402 792.354 297.174C761.955 311.945 725.792 308.068 699.215 287.189C720.516 270.449 732.952 244.856 732.952 217.765C732.952 190.673 720.516 165.081 699.215 148.341C725.791 127.446 761.965 123.561 792.373 138.334C822.781 153.107 842.085 183.946 842.085 217.752L842.061 217.777Z" fill="#00A1DF"/>
</g>
<rect x="495.019" y="10.7614" width="408.929" height="408.929" rx="204.465" stroke="white" stroke-width="21.5226"/>
<g clip-path="url(#clip1_1_16)">
<rect x="968.516" y="6.10352e-05" width="430.452" height="430.452" rx="215.226" fill="white"/>
<path d="M1398.97 6.10352e-05H968.516V430.452H1398.97V6.10352e-05Z" fill="#E0E0E0"/>
<path d="M1211.41 150.049H1134.8V287.693H1211.41V150.049Z" fill="#FF5F00"/>
<path d="M1139.42 218.873C1139.42 190.906 1152.55 166.101 1172.74 150.05C1157.9 138.377 1139.18 131.324 1118.75 131.324C1070.35 131.324 1031.2 170.478 1031.2 218.873C1031.2 267.269 1070.35 306.423 1118.75 306.423C1139.18 306.423 1157.9 299.37 1172.74 287.697C1152.55 271.89 1139.42 246.841 1139.42 218.873Z" fill="#EB001B"/>
<path d="M1314.52 218.873C1314.52 267.269 1275.36 306.423 1226.97 306.423C1206.54 306.423 1187.82 299.37 1172.98 287.697C1193.41 271.646 1206.3 246.841 1206.3 218.873C1206.3 190.906 1193.17 166.101 1172.98 150.05C1187.82 138.377 1206.54 131.324 1226.97 131.324C1275.36 131.324 1314.52 170.721 1314.52 218.873Z" fill="#F79E1B"/>
</g>
<rect x="979.277" y="10.7614" width="408.929" height="408.929" rx="204.465" stroke="white" stroke-width="21.5226"/>
<g clip-path="url(#clip2_1_16)">
<rect x="1452.77" y="6.10352e-05" width="430.452" height="430.452" rx="215.226" fill="white"/>
<path d="M1883.23 6.10352e-05H1452.77V430.452H1883.23V6.10352e-05Z" fill="#006848"/>
<path d="M1689.58 181.973L1668.81 226.96H1666.71V172.181H1637.21V264.885H1662.24C1668.82 264.885 1674.79 261.063 1677.55 255.093L1698.31 210.106H1700.42V264.885H1729.91V172.181H1704.88C1698.31 172.181 1692.33 176.003 1689.58 181.973ZM1578.91 184.365L1566.63 226.96H1564.52L1552.23 184.365C1550.15 177.149 1543.55 172.181 1536.04 172.181H1506.58V264.885H1536.08V210.106H1538.18L1555.04 264.885H1576.11L1592.96 210.106H1595.07V264.885H1624.57V172.181H1595.11C1587.6 172.181 1581 177.149 1578.91 184.365ZM1742.55 214.319V264.885H1771.99V235.388H1803.65C1817.41 235.388 1829.08 226.586 1833.42 214.319H1742.55ZM1803.65 172.181H1738.34C1742.31 193.754 1761.18 210.106 1783.9 210.106H1834.62C1835.04 208.063 1835.26 205.949 1835.26 203.785C1835.26 186.33 1821.11 172.181 1803.65 172.181Z" fill="white"/>
</g>
<rect x="1463.54" y="10.7614" width="408.929" height="408.929" rx="204.465" stroke="white" stroke-width="21.5226"/>
<g clip-path="url(#clip3_1_16)">
<rect x="1937.03" y="6.10352e-05" width="430.452" height="430.452" rx="215.226" fill="white"/>
<path d="M2152.26 430.452C2271.12 430.452 2367.48 334.092 2367.48 215.226C2367.48 96.3599 2271.12 6.10352e-05 2152.26 6.10352e-05C2033.39 6.10352e-05 1937.03 96.3599 1937.03 215.226C1937.03 334.092 2033.39 430.452 2152.26 430.452Z" fill="#21A038"/>
<path d="M2208.24 133.247L2233.34 114.737C2210.4 96.1551 2181.75 86.0394 2152.23 86.0906V86.1014C2119.69 86.072 2088.35 98.3596 2064.5 120.494C2051.44 132.565 2041.02 147.21 2033.9 163.507C2026.78 179.804 2023.11 197.399 2023.12 215.183V215.258C2023.1 247.57 2035.22 278.709 2057.09 302.5C2069.17 315.711 2083.88 326.257 2100.26 333.465C2116.65 340.673 2134.36 344.384 2152.27 344.362C2184.29 344.396 2215.18 332.49 2238.9 310.969V310.991C2252.3 298.896 2263.01 284.12 2270.33 267.621C2277.65 251.121 2281.43 233.267 2281.4 215.215C2281.4 207.467 2280.74 199.719 2279.36 192.079L2251.57 212.568V215.226C2251.58 228.268 2249.01 241.183 2244.01 253.229C2239.01 265.275 2231.68 276.216 2222.44 285.422C2221.43 286.434 2220.4 287.425 2219.34 288.392L2218.86 288.823C2199.44 306.467 2173.8 315.679 2147.59 314.434L2147.3 314.402C2122.71 313.177 2099.45 302.842 2082.06 285.411L2082.08 285.4C2072.84 276.2 2065.51 265.264 2060.51 253.221C2055.51 241.178 2052.94 228.266 2052.95 215.226V214.989C2053.01 188.739 2063.48 163.584 2082.06 145.041L2082.08 145.052C2091.88 135.222 2103.62 127.562 2116.57 122.568C2129.51 117.573 2143.36 115.356 2157.22 116.061V116.039C2175.49 116.942 2193.15 122.899 2208.24 133.247Z" fill="white"/>
<path d="M2269.92 161.948C2265.77 152.819 2260.58 144.203 2254.44 136.271L2152.29 211.59L2103.13 180.769V217.842L2152.29 248.662L2269.91 161.948H2269.92Z" fill="white"/>
</g>
<rect x="1947.79" y="10.7614" width="408.929" height="408.929" rx="204.465" stroke="white" stroke-width="21.5226"/>
<g clip-path="url(#clip4_1_16)">
<rect x="2421.29" y="6.10352e-05" width="430.452" height="430.452" rx="215.226" fill="white"/>
<mask id="mask0_1_16" style="mask-type:alpha" maskUnits="userSpaceOnUse" x="2421" y="0" width="431" height="431">
<path d="M2636.52 430.452C2755.39 430.452 2851.74 334.095 2851.74 215.226C2851.74 96.3567 2755.39 6.10352e-05 2636.52 6.10352e-05C2517.65 6.10352e-05 2421.29 96.3567 2421.29 215.226C2421.29 334.095 2517.65 430.452 2636.52 430.452Z" fill="white"/>
</mask>
<g mask="url(#mask0_1_16)">
<path d="M2636.52 430.452C2755.39 430.452 2851.74 334.095 2851.74 215.226C2851.74 96.3567 2755.39 6.10352e-05 2636.52 6.10352e-05C2517.65 6.10352e-05 2421.29 96.3567 2421.29 215.226C2421.29 334.095 2517.65 430.452 2636.52 430.452Z" fill="#272725"/>
<path fill-rule="evenodd" clip-rule="evenodd" d="M2603.92 117.701L2603.79 117.729L2603.89 117.586L2603.92 117.701ZM2773.07 203.138L2776.84 190.841L2764.37 191.243C2763.31 191.243 2755.66 191.021 2748.22 185.533C2748.78 185.583 2749.33 185.662 2749.9 185.662C2757.54 185.662 2764.95 180.97 2767.92 174.255L2773.28 162.13C2766.55 162.224 2760.4 161.356 2760.4 161.356C2760.35 161.356 2755.5 160.71 2749.9 154.877C2745.88 150.695 2740.9 148.485 2735.51 148.485C2733.15 148.485 2731.04 148.916 2729.23 149.504C2729.52 148.521 2729.78 147.524 2729.94 146.491C2731.65 135.148 2724.49 126.496 2724.49 126.503L2715.1 114.666L2709.29 128.569C2709.27 128.613 2707.8 131.87 2705.17 133.462C2704.38 129.373 2702.43 124.782 2698.27 120.391C2690.43 112.119 2680.87 110.878 2675.88 110.878C2673.56 110.878 2671.91 111.136 2671.5 111.201L2660.18 113.475C2660.84 110.892 2662.23 106.401 2664.77 102.362L2671.02 92.4546L2655.31 94.2697L2650.29 83.4366L2640.6 88.5303L2631.64 79.5052L2622.7 88.5303L2612.97 83.4366L2607.98 94.2697L2592.26 92.4474L2598.52 102.369C2601.07 106.401 2602.45 110.885 2603.1 113.453L2592.29 111.287L2591.92 111.222C2590.43 110.985 2588.92 110.87 2587.42 110.878C2582.42 110.878 2572.87 112.119 2565.04 120.391C2560.88 124.774 2558.92 129.373 2558.12 133.462C2555.51 131.884 2554.06 128.684 2554.06 128.684L2548.23 114.695L2538.7 126.604C2537.53 128.139 2531.79 136.275 2533.36 146.512C2533.52 147.531 2533.78 148.521 2534.06 149.504C2532.04 148.835 2529.92 148.491 2527.79 148.485C2522.4 148.485 2517.42 150.695 2513.4 154.87C2507.8 160.681 2503 161.348 2503.03 161.348C2503.03 161.348 2497.93 162.281 2490.05 162.138L2495.38 174.262C2498.35 180.97 2505.76 185.669 2513.38 185.669C2513.96 185.669 2514.51 185.583 2515.08 185.525C2507.67 191.021 2500.01 191.243 2499.08 191.25L2486.38 190.841L2490.23 203.131C2492.17 209.466 2498.63 219.954 2511.02 221.088C2509.68 226.842 2506.68 233.291 2500.13 236.068L2490.66 240.035L2495.82 249.196C2498.73 254.132 2505.58 259.907 2515.3 259.907C2517.41 259.9 2519.44 259.685 2521.4 259.262C2521.9 261.514 2522.52 263.774 2523.26 266.02C2526.16 274.808 2523.67 280.935 2523.64 281L2518.97 290.972L2529.39 293.77C2529.53 293.813 2532.68 294.702 2536.61 294.702C2538.41 294.702 2540.12 294.509 2541.72 294.114C2542.93 293.827 2544.1 293.447 2545.22 292.98C2546.57 295.448 2548.2 297.701 2550.12 299.717C2556.8 306.698 2566.27 310.242 2578.26 310.242H2578.3L2586.86 310.127L2569.17 317.624L2582.6 324.231C2587.48 326.656 2593.26 329.519 2599.16 331.714L2597.48 336.384L2602.11 338.537C2602.52 338.73 2611.43 342.784 2626.21 343.645C2626.21 343.645 2629.79 343.817 2631.76 343.817C2633.72 343.817 2637.25 343.637 2637.25 343.637C2651.95 342.748 2660.79 338.73 2661.19 338.544L2665.84 336.384L2664.14 331.7C2670.2 329.447 2676.2 326.462 2680.88 324.138L2694.06 317.609L2676.43 310.127L2685.03 310.242C2697.04 310.242 2706.51 306.698 2713.18 299.703C2715.1 297.684 2716.74 295.424 2718.07 292.98C2720.79 294.133 2723.72 294.718 2726.68 294.702C2730.55 294.702 2733.74 293.82 2733.82 293.791L2744.29 290.972L2739.74 281.186C2739.63 280.935 2737.13 274.801 2740.02 266.013C2740.76 263.767 2741.39 261.507 2741.89 259.255C2743.86 259.685 2745.91 259.9 2748.03 259.9C2760.43 259.9 2766.37 251.019 2767.52 249.089L2772.63 240.028L2763.17 236.075C2756.6 233.291 2753.61 226.842 2752.28 221.095C2764.5 220.019 2771.06 209.509 2773.07 203.138Z" fill="white"/>
<path fill-rule="evenodd" clip-rule="evenodd" d="M2631.63 117.157C2621.61 117.164 2614.1 120.507 2612.47 124.446L2631.63 132.151L2650.8 124.446C2649.18 120.507 2641.66 117.164 2631.63 117.157ZM2631.84 321.133H2631.45C2625.38 321.169 2617.01 319.906 2613 318.708L2608.15 332.06C2611.34 333.222 2622.16 335.446 2631.66 335.446C2641.12 335.446 2651.95 333.222 2655.14 332.06L2650.3 318.708C2646.26 319.906 2637.91 321.169 2631.84 321.133ZM2668.5 307.839C2664.89 309.92 2656.84 313.041 2652.17 314.49L2656.09 325.524C2663.34 323.515 2669.32 321.155 2674.26 318.637L2666.1 315.867L2668.5 307.839ZM2594.78 307.839L2597.19 315.875L2589.03 318.629C2593.96 321.155 2599.96 323.508 2607.18 325.524L2611.12 314.49C2606.45 313.041 2598.38 309.92 2594.78 307.839ZM2631.63 104.387C2639.19 104.387 2646.59 106.223 2652.29 109.452C2652.81 107.679 2653.54 105.52 2654.52 103.253L2652.37 103.518L2650.11 103.762L2649.15 101.66L2646.27 95.4618L2641.02 98.2526L2638.98 99.3072L2637.34 97.6715L2631.63 91.9178L2625.94 97.6715L2624.31 99.3072L2622.27 98.2526L2616.99 95.4618L2614.14 101.66L2613.17 103.762L2610.91 103.518L2608.76 103.253C2609.75 105.52 2610.47 107.679 2611 109.452C2616.72 106.223 2624.12 104.379 2631.63 104.379M2746.93 176.035C2747.91 176.38 2748.91 176.537 2749.89 176.537C2754.17 176.537 2758.3 173.711 2759.72 170.497C2759.72 170.497 2751.89 170.016 2743.47 161.299C2740.78 158.48 2737.94 157.633 2735.5 157.633C2733.15 157.673 2730.86 158.377 2728.89 159.664C2739.06 165.188 2741.14 174.041 2746.93 176.035ZM2513.38 176.53C2514.37 176.53 2515.37 176.38 2516.32 176.028C2522.14 174.041 2524.23 165.188 2534.39 159.671C2534.39 159.671 2531.55 157.633 2527.79 157.633C2525.33 157.633 2522.5 158.48 2519.81 161.307C2511.4 170.016 2503.57 170.497 2503.57 170.497C2504.97 173.711 2509.11 176.53 2513.38 176.53Z" fill="white"/>
<path fill-rule="evenodd" clip-rule="evenodd" d="M2743.86 239.609C2735.99 235.656 2731.02 225.16 2729.82 221.38C2728.51 242.192 2718.54 256.634 2706.88 270.544C2700.84 277.747 2698.73 284.756 2698.73 284.756C2698.73 284.756 2699.89 276.815 2705.12 270.358C2716 257.042 2726.33 240.47 2727.1 221.308C2727.63 207.928 2724.26 197.081 2718.99 188.141C2721.94 197.454 2721.52 208.853 2711.51 219.493C2711.51 219.493 2731.43 195.172 2703.58 170.242C2692.44 160.758 2680.24 154.889 2673.97 150.742C2696.65 158.282 2707.72 149.982 2707.72 149.982C2700.48 156.381 2691.11 156.274 2685.29 155.348C2686.87 156.137 2688.51 156.955 2690.28 157.917C2709.4 168.499 2726.58 185.917 2729.52 210.037V209.851C2733.97 233.525 2743.87 239.609 2743.87 239.609M2749.69 212.017C2749.86 212.032 2750.02 212.032 2750.19 212.032C2760.86 212.032 2764.47 200.395 2764.47 200.395H2764.26C2762.3 200.395 2746.45 199.929 2735.25 185.415C2727.88 175.874 2721.83 167.487 2709.9 164.187L2708.71 163.972L2708.46 162.752C2708.13 160.901 2709.39 159.158 2712.22 157.278C2728.69 146.287 2717.5 132.269 2717.5 132.269C2717.5 132.269 2712.8 143.475 2702.28 143.475L2701.49 143.461C2700.3 143.403 2699.14 143.36 2697.98 143.102L2696.04 142.722C2696.04 142.722 2699.05 134.4 2691.8 126.766C2689.75 124.61 2687.28 122.899 2684.54 121.739C2681.8 120.578 2678.85 119.994 2675.88 120.023C2673.94 120.023 2672.72 120.274 2672.72 120.274C2676.36 125.123 2678.98 133.166 2674.79 138.13C2671.16 142.392 2662.29 142.593 2662.29 148.949C2662.29 151.646 2664.76 154.789 2669.19 157.608C2682.52 166.16 2695.75 177.509 2701.26 192.719C2708.13 211.687 2700.38 224.285 2689.33 231.502C2689.33 231.502 2692.79 234.759 2697.82 235.175C2698.85 235.276 2699.85 235.319 2700.78 235.319C2711.4 235.319 2716.88 230.247 2716.88 230.247C2716.88 230.247 2715.98 237.256 2710.46 243.763C2705.36 249.768 2698.68 253.312 2688.47 253.455C2688.47 253.455 2688.15 258.284 2692.66 262.459C2695.56 265.099 2702.23 265.953 2702.23 265.953C2702.23 265.953 2689.72 268.536 2688.35 287.353C2687.6 297.548 2685.04 301.092 2685.04 301.092H2685.26C2714.28 301.092 2713.54 275.731 2713.54 275.731C2713.54 275.731 2715.55 283.243 2723.66 285.201C2724.63 285.459 2725.67 285.56 2726.67 285.56C2729.27 285.56 2731.54 284.936 2731.54 284.936C2731.54 284.936 2727.29 275.824 2731.51 263.083C2734.99 252.508 2734.43 244.674 2734.43 244.674C2734.43 244.674 2738.34 250.7 2748.04 250.751H2748.13C2750.43 250.778 2752.7 250.221 2754.72 249.132C2756.75 248.043 2758.47 246.457 2759.71 244.523C2740.37 236.338 2742.28 209.93 2742.28 209.93C2742.28 209.93 2744.79 211.838 2749.69 212.017ZM2556.39 270.544C2544.73 256.634 2534.77 242.192 2533.45 221.38C2532.25 225.16 2527.29 235.656 2519.42 239.609C2519.42 239.609 2529.31 233.533 2533.76 209.851V210.037C2536.7 185.925 2553.88 168.499 2573.01 157.924C2574.76 156.948 2576.42 156.13 2577.99 155.355C2572.17 156.274 2562.8 156.381 2555.56 149.982C2555.56 149.982 2566.64 158.282 2589.31 150.742C2583.04 154.903 2570.85 160.758 2559.71 170.242C2531.84 195.179 2551.77 219.5 2551.77 219.5C2541.75 208.853 2541.35 197.454 2544.3 188.149C2539.02 197.081 2535.64 207.928 2536.19 221.308C2536.95 240.463 2547.28 257.035 2558.14 270.358C2563.39 276.815 2564.57 284.756 2564.57 284.756C2564.57 284.756 2562.44 277.747 2556.39 270.544ZM2561.05 265.953C2561.05 265.953 2567.73 265.099 2570.63 262.459C2575.14 258.284 2574.82 253.455 2574.82 253.455C2564.61 253.312 2557.93 249.768 2552.8 243.77C2547.31 237.256 2546.4 230.247 2546.4 230.247C2546.4 230.247 2551.89 235.319 2562.49 235.319C2563.44 235.319 2564.43 235.276 2565.46 235.175C2570.49 234.759 2573.97 231.509 2573.97 231.509C2562.91 224.285 2555.15 211.694 2562.02 192.719C2567.53 177.509 2580.75 166.16 2594.08 157.601C2598.52 154.789 2600.99 151.646 2600.99 148.949C2600.99 142.593 2592.13 142.392 2588.5 138.13C2584.3 133.166 2586.92 125.123 2590.56 120.274C2590.56 120.274 2589.35 120.023 2587.41 120.023C2583.57 120.023 2576.95 121.005 2571.49 126.766C2564.23 134.4 2567.24 142.722 2567.24 142.722L2565.3 143.102C2564.14 143.353 2562.98 143.403 2561.79 143.461L2561.02 143.475C2550.47 143.475 2545.79 132.269 2545.79 132.269C2545.79 132.269 2534.6 146.287 2551.07 157.278C2553.9 159.158 2555.16 160.901 2554.82 162.759L2554.57 163.972L2553.37 164.187C2541.45 167.487 2535.4 175.881 2528.02 185.422C2516.83 199.922 2500.99 200.395 2499.02 200.395H2498.8C2498.8 200.395 2502.42 212.032 2513.08 212.032C2513.25 212.032 2513.41 212.032 2513.59 212.017C2518.49 211.838 2521.01 209.93 2521.01 209.93C2521.01 209.93 2522.9 236.331 2503.57 244.516C2503.57 244.516 2507.08 250.758 2515.15 250.758H2515.25C2524.95 250.7 2528.86 244.674 2528.86 244.674C2528.86 244.674 2528.29 252.516 2531.77 263.083C2535.97 275.832 2531.75 284.943 2531.75 284.943C2531.75 284.943 2534.01 285.567 2536.61 285.567C2537.62 285.567 2538.66 285.459 2539.62 285.201C2547.72 283.243 2549.74 275.731 2549.74 275.731C2549.74 275.731 2549 301.092 2578.02 301.092H2578.23C2578.23 301.092 2575.69 297.548 2574.94 287.353C2573.57 268.536 2561.05 265.953 2561.05 265.953ZM2625.09 172.509H2638.77V177.294C2637.16 175.285 2634.03 175.694 2634.03 175.694V182.589C2634.03 182.589 2634.14 185.982 2635.31 187.453H2628.54C2629.73 185.982 2629.83 182.589 2629.83 182.589V175.701C2629.83 175.701 2626.71 175.285 2625.09 177.294V172.509ZM2610.18 173.226C2610.66 173.75 2611.12 174.31 2611.57 174.884C2612.12 175.594 2612.64 176.322 2613.13 177.065L2613.4 177.466C2613.89 178.22 2614.35 178.987 2614.8 179.791C2618.99 187.151 2625.69 191.549 2631.63 191.556C2637.59 191.549 2644.27 187.151 2648.47 179.791C2648.93 178.966 2649.4 178.177 2649.89 177.438L2650.11 177.108C2650.6 176.353 2651.13 175.618 2651.68 174.905C2652.15 174.31 2652.63 173.743 2653.11 173.212L2653.35 172.975C2655.49 170.751 2658.03 169.058 2661.36 168.118L2659.87 167.236H2659.79L2653.9 163.756L2647.85 160.227L2631.68 169.194L2631.63 169.159L2631.61 169.194L2615.43 160.227L2609.38 163.756L2603.48 167.236H2603.41L2601.92 168.118C2605.25 169.058 2607.78 170.737 2609.92 172.961C2610.01 173.047 2610.08 173.147 2610.18 173.226Z" fill="white"/>
<path fill-rule="evenodd" clip-rule="evenodd" d="M2626.48 142.113V146.612L2625.63 146.217C2625.59 146.181 2624.34 145.901 2622.18 144.144C2618.59 141.317 2618.52 138.706 2618.52 138.706L2626.48 142.113ZM2630.23 163.227V135.233L2612.74 129.185L2617.36 156.318L2630.23 163.227ZM2636.8 142.113L2644.76 138.706C2644.76 138.706 2644.69 141.317 2641.09 144.144C2638.94 145.901 2637.68 146.181 2637.64 146.217L2636.8 146.612V142.113ZM2645.92 156.318L2650.51 129.185L2633.04 135.233V163.227L2645.92 156.318ZM2605.5 228.139C2607.2 228.763 2609.26 228.9 2610.33 228.9L2610.47 228.397C2610.56 228.082 2610.66 227.766 2610.72 227.415C2611.01 225.865 2611.12 224.114 2611.15 222.974C2610.17 222.379 2609.38 221.525 2608.85 220.506C2608.2 219.114 2607.28 218.461 2605.92 218.461C2604.16 218.461 2602.28 219.537 2601.46 220.047C2600.81 223.921 2603.62 227.436 2605.5 228.139ZM2644.19 213.289C2640.94 216.883 2634.57 223.153 2634.27 223.462L2633.89 223.856L2613.8 223.533C2613.78 225.227 2613.56 226.913 2613.14 228.555L2612.98 229.201L2636.88 233.577C2639.37 231.812 2646.21 226.719 2648.86 224.724C2646.94 221.847 2646.76 218.432 2647.19 216.036C2646.04 215.298 2645.03 214.369 2644.19 213.289Z" fill="white"/>
<path fill-rule="evenodd" clip-rule="evenodd" d="M2646.91 188.662C2642.28 193.339 2637.84 195.075 2633.88 195.477C2633.15 195.549 2632.42 195.599 2631.69 195.599H2631.59C2630.13 195.599 2628.68 195.442 2627.25 195.133C2626.99 196.187 2626.66 198.383 2627.6 200.47C2628.44 202.357 2630.15 203.77 2632.64 204.703L2633.48 205.04L2633.49 205.959C2633.49 206.231 2633.69 212.186 2640.06 213.843C2641.1 212.753 2642.04 211.763 2642.74 210.937C2641.44 207.81 2642.12 204.624 2644.02 203.067C2643.93 203.397 2643.1 211.21 2649.25 214.116L2650.26 214.611L2649.96 215.708C2649.86 216.038 2647.81 223.6 2655.26 226.419L2656.58 226.922L2656 228.227C2655.86 228.514 2652.95 235.38 2659.82 239.276H2674.74V227.216C2669.43 226.556 2667.19 222.215 2666.61 219.138C2664.14 218.707 2662.23 217.624 2660.93 215.859C2657.8 211.662 2660.49 207.81 2660.52 207.609C2660.52 207.637 2660.52 211.727 2663 214.259C2664.23 215.479 2665.68 216.419 2667.88 216.627L2668.97 216.734L2669.06 217.861C2669.08 218.097 2669.68 223.643 2674.73 224.511V199.861C2674.73 196.044 2675.81 192.206 2677.13 188.669H2646.91M2606.77 199.954L2606.37 215.651L2608.12 215.924L2612.4 200.858L2610.23 196.23L2606.77 199.961M2616.04 258.058C2615.92 258.052 2615.81 258.023 2615.7 257.971C2615.59 257.919 2615.5 257.846 2615.42 257.756C2615.34 257.666 2615.28 257.561 2615.25 257.448C2615.21 257.334 2615.2 257.215 2615.21 257.096C2615.22 256.981 2615.25 256.867 2615.3 256.763C2615.35 256.659 2615.42 256.566 2615.51 256.489C2615.59 256.412 2615.69 256.353 2615.8 256.316C2615.91 256.279 2616.03 256.263 2616.14 256.271C2616.65 256.293 2617 256.738 2616.99 257.218C2616.94 257.72 2616.52 258.101 2616.04 258.058ZM2653.97 271.947C2654.1 271.947 2654.25 271.968 2654.4 272.004C2657.05 272.779 2657.73 282.557 2662.4 283.433C2662.82 283.52 2663.24 283.564 2663.66 283.562C2665.01 283.562 2665.81 282.974 2666.68 281.926C2666.68 281.926 2664.33 278.167 2662.57 275.62C2660.23 272.298 2658.42 268.281 2654.07 268.281C2653.97 268.281 2653.84 268.281 2653.74 268.295C2652.3 268.367 2651.42 269.084 2651.42 269.084C2649.98 268.115 2648.28 267.591 2646.54 267.578C2643.81 267.578 2641.7 268.848 2640.63 268.848H2640.59L2630.88 267.872C2629.37 267.721 2628.16 266.157 2627.73 265.555L2627.57 265.289C2627.57 265.017 2627.57 264.744 2627.54 264.5C2627.22 256.408 2621.07 252.95 2618.88 252.892C2618.88 252.892 2619.14 251.35 2618.55 250.761L2616.4 253.416L2609.38 249.822L2614.4 255.791L2610.15 260.647C2609.62 261.2 2609.68 261.939 2609.9 262.262L2611.74 263.912L2614.06 262.477C2614.18 262.391 2614.39 262.362 2614.65 262.362C2615.3 262.362 2616.26 262.527 2617.13 262.527C2618.07 262.527 2618.89 262.326 2618.99 261.415C2618.7 264.421 2615.96 269.63 2617.76 273.726L2619.09 276.818L2610.5 275.563L2606.49 282.479C2605.25 284.774 2605.05 287.264 2606.24 288.62L2607.75 290.535C2607.75 290.535 2609.86 288.261 2610.33 286.762L2609.64 285.994C2609.07 285.348 2609.1 284.774 2609.45 284.086L2611.98 279.824L2622.11 282.263L2622.64 281.331C2622.91 280.844 2623.32 280.444 2623.81 280.177C2624.3 279.91 2624.85 279.788 2625.41 279.824C2625.86 279.824 2626.31 279.874 2626.79 279.953C2629.45 280.501 2632.15 280.797 2634.86 280.836C2638.25 280.836 2641.63 280.219 2643.43 278.167C2647.1 283.705 2654.54 284.588 2653.95 287.407L2651.99 296.906C2653.28 296.848 2654.54 296.762 2655.72 296.597L2657.59 286.718C2657.8 285.642 2657.99 284.193 2657.99 284.193C2657.27 283.447 2655.54 281.883 2654.55 279.975C2653.24 277.406 2653.95 276.065 2652.73 272.729C2652.73 272.729 2653.11 271.947 2653.97 271.947Z" fill="white"/>
<path fill-rule="evenodd" clip-rule="evenodd" d="M2602.21 280.935C2602.21 280.935 2605.57 279.522 2605.87 278.524L2605.42 277.377C2605.1 276.63 2605.15 275.827 2605.76 275.389L2609.39 272.835L2615.44 274.026C2615.44 274.026 2614.35 272.62 2614.46 270.755L2608.68 269.507L2603.22 272.893C2602.27 273.621 2601.58 274.646 2601.26 275.808C2600.95 276.969 2601.03 278.202 2601.49 279.314L2602.21 280.935M2645.06 297.034C2646.14 296.991 2647.35 296.969 2648.66 296.969C2648.66 296.969 2651.78 287.679 2651.96 287.385C2650.21 286.595 2646.58 284.637 2645.18 283.74C2646.11 285.153 2648.35 286.753 2647.9 288.002L2645.06 297.034Z" fill="white"/>
<path fill-rule="evenodd" clip-rule="evenodd" d="M2674.74 241.944H2588.56V274.967C2588.56 288.483 2598.15 296.935 2612.31 296.935C2624.14 296.935 2627.26 297.408 2631.65 301.849C2634.69 298.771 2637.19 297.616 2642.34 297.193L2642.47 296.683L2645.18 288.125C2645.03 287.938 2640.59 282.794 2640.59 282.794C2638.83 283.39 2637.35 283.49 2634.87 283.49C2632.31 283.49 2629.44 283.182 2626.31 282.586C2626.02 282.518 2625.71 282.484 2625.41 282.486C2625.03 282.486 2625 282.514 2624.9 282.708L2624.37 283.612L2623.37 285.276L2621.51 284.839L2613.25 282.859L2612.11 284.76L2612.28 284.968L2613.28 286.102L2612.84 287.572C2612.23 289.495 2610.25 291.74 2609.65 292.365L2607.58 294.624L2605.7 292.192L2604.28 290.385C2602.8 288.691 2602.46 286.102 2603.29 283.375C2603.27 283.396 2603.24 283.408 2603.21 283.411L2600.88 284.394L2599.83 282.07L2599.09 280.42C2598.38 278.745 2598.25 276.881 2598.73 275.125C2599.2 273.369 2600.25 271.823 2601.71 270.734L2608.37 266.896L2614.7 268.166C2614.85 267.549 2615.08 265.332 2615.26 264.765C2615.14 264.751 2615.02 264.722 2614.9 264.722L2611.25 266.114L2607.73 263.639C2607.73 263.639 2606.35 262.283 2607.6 260.934L2611.01 255.676L2602.37 244.627L2615.64 250.18L2616.53 249.068L2618.32 246.88L2620.35 248.853C2620.93 249.413 2621.26 250.109 2621.42 250.804C2625.08 252.261 2631.64 256.544 2632.21 263.503L2630.16 264.335V264.392C2630.64 264.959 2631.02 265.189 2631.14 265.21L2640.61 266.157C2640.87 266.121 2641.16 266.014 2641.5 265.913C2642.68 265.504 2644.44 264.909 2646.54 264.909C2648.25 264.909 2649.9 265.311 2651.49 266.064C2652.07 265.842 2652.79 265.677 2653.62 265.619L2654.08 265.605C2659.15 265.605 2661.68 269.472 2663.69 272.557C2664.02 273.075 2664.37 273.584 2664.73 274.085C2666.49 276.632 2668.82 280.362 2668.9 280.52L2669.95 282.184L2668.67 283.698C2667.68 284.86 2666.2 286.223 2663.67 286.223C2663.14 286.223 2662.56 286.166 2661.94 286.044C2661.43 285.945 2660.92 285.788 2660.44 285.578C2660.37 286.087 2660.26 286.697 2660.17 287.221L2658.51 296.052C2668.45 293.563 2674.76 285.922 2674.76 274.967L2674.74 241.944ZM2588.56 239.283H2655.59C2652.24 235.76 2652.29 231.298 2653.15 228.399C2652.24 227.957 2651.4 227.392 2650.64 226.721C2646.43 229.88 2642.2 233.011 2637.94 236.112L2637.49 236.413L2611.18 231.57H2610.65C2610.02 231.57 2609.1 231.542 2608.08 231.427C2607.94 232.066 2607.56 232.628 2607.03 232.998C2606.49 233.369 2605.83 233.52 2605.18 233.421C2604.5 233.3 2603.89 232.915 2603.49 232.348C2603.09 231.781 2602.92 231.079 2603.04 230.394L2603.14 229.813C2600.43 227.861 2597.92 223.514 2599.03 218.93L2599.14 218.442L2599.52 218.162C2599.58 218.119 2600.02 217.803 2600.71 217.409L2598.8 217.114C2598.46 217.051 2598.15 216.856 2597.95 216.571C2597.75 216.285 2597.67 215.932 2597.72 215.586C2597.84 214.855 2598.51 214.338 2599.21 214.474L2603.77 215.206L2604.18 198.87L2610.96 191.567L2615.19 200.643L2610.73 216.354L2614.75 217C2615.46 217.114 2615.94 217.789 2615.83 218.535C2615.79 218.844 2615.63 219.127 2615.4 219.33C2615.16 219.533 2614.86 219.643 2614.54 219.64L2614.34 219.633L2611.06 219.095C2611.11 219.195 2611.17 219.252 2611.21 219.353C2611.58 219.998 2612.13 220.516 2612.79 220.838L2632.84 221.168C2633.7 220.321 2635.8 218.226 2637.96 216.002C2636.06 215.28 2634.4 214.046 2633.16 212.436C2631.92 210.827 2631.15 208.905 2630.93 206.884C2628.18 205.686 2626.27 203.892 2625.22 201.561C2623.93 198.677 2624.39 195.778 2624.73 194.372C2622.05 193.382 2619.24 191.574 2616.37 188.662H2586.16C2587.45 192.206 2588.55 196.051 2588.55 199.861V239.283" fill="#FFE52B"/>
<path fill-rule="evenodd" clip-rule="evenodd" d="M2616.26 256.273C2615.71 256.223 2615.26 256.653 2615.21 257.205C2615.2 257.337 2615.22 257.47 2615.26 257.596C2615.3 257.722 2615.36 257.839 2615.45 257.938C2615.54 258.038 2615.64 258.118 2615.76 258.175C2615.88 258.231 2616.01 258.263 2616.15 258.267C2616.41 258.281 2616.67 258.191 2616.86 258.017C2617.06 257.842 2617.18 257.597 2617.2 257.335C2617.22 256.796 2616.82 256.294 2616.26 256.273ZM2656.1 325.532L2652.16 314.499C2656.85 313.042 2664.89 309.921 2668.51 307.848L2666.1 315.869L2674.26 318.631C2669.32 321.156 2663.35 323.509 2656.1 325.532ZM2631.66 335.447C2622.17 335.447 2611.34 333.223 2608.15 332.068L2613 318.71C2617.01 319.901 2625.38 321.171 2631.45 321.135H2631.84C2637.91 321.171 2646.26 319.901 2650.3 318.71L2655.14 332.068C2651.95 333.223 2641.12 335.447 2631.66 335.447ZM2589.03 318.631L2597.2 315.869L2594.78 307.848C2598.38 309.921 2606.45 313.042 2611.12 314.499L2607.18 325.532C2599.96 323.509 2593.96 321.156 2589.03 318.631ZM2674.62 316.184L2669.66 314.247L2671.03 309.01L2672.54 303.321C2672.54 303.321 2663.74 308.178 2651.34 311.83C2647.83 312.856 2645.17 313.329 2645.17 313.329V317.203C2645.17 317.203 2638.54 318.38 2631.84 318.38H2631.45C2624.74 318.38 2618.13 317.203 2618.13 317.203V313.329C2618.13 313.329 2615.46 312.856 2611.94 311.83C2599.55 308.178 2590.76 303.321 2590.76 303.321L2592.25 309.01L2593.65 314.247L2588.66 316.184L2583.14 318.279C2589.47 321.4 2598.25 325.927 2606.27 328.173L2604.38 333.446C2604.38 333.446 2614.57 338.166 2631.53 338.209V338.224H2631.76V338.209C2648.74 338.166 2658.91 333.446 2658.91 333.446L2657.01 328.173C2665.05 325.927 2673.83 321.4 2680.13 318.279L2674.62 316.184M2610.91 103.527L2613.17 103.764L2614.14 101.662L2616.99 95.4704L2622.27 98.2539L2624.31 99.3157L2631.63 91.9191L2637.34 97.6728L2638.98 99.3157L2641.02 98.2539L2646.27 95.4704L2649.15 101.662L2650.11 103.764L2652.37 103.52L2654.52 103.254C2653.65 105.274 2652.9 107.347 2652.29 109.46C2646.59 106.224 2639.19 104.381 2631.63 104.381C2624.12 104.381 2616.72 106.224 2611 109.46C2610.38 107.348 2609.64 105.275 2608.76 103.254L2610.92 103.52L2610.91 103.527ZM2631.64 107.616C2641.74 107.616 2649.83 111.031 2654.29 114.661C2654.29 114.661 2655.62 106.526 2660.15 99.3444L2652.01 100.291L2647.75 91.0726L2639.57 95.3699L2631.64 87.3779L2623.72 95.3699L2615.52 91.0654L2611.28 100.291L2603.13 99.3444C2607.67 106.519 2608.99 114.661 2608.99 114.661C2613.48 111.031 2621.54 107.616 2631.64 107.616ZM2759.72 244.514C2759.72 244.514 2756.21 250.756 2748.13 250.756H2748.03C2738.34 250.698 2734.43 244.672 2734.43 244.672C2734.43 244.672 2734.99 252.506 2731.51 263.081C2727.3 275.83 2731.54 284.934 2731.54 284.934C2731.54 284.934 2729.28 285.565 2726.66 285.565C2725.67 285.565 2724.63 285.457 2723.65 285.199C2715.56 283.241 2713.54 275.729 2713.54 275.729C2713.54 275.729 2714.28 301.09 2685.27 301.09H2685.04C2685.04 301.09 2687.6 297.546 2688.35 287.351C2689.72 268.533 2702.23 265.951 2702.23 265.951C2702.23 265.951 2695.56 265.097 2692.67 262.457C2688.15 258.282 2688.46 253.453 2688.46 253.453C2698.67 253.31 2705.36 249.766 2710.46 243.768C2715.98 237.254 2716.89 230.245 2716.89 230.245C2716.89 230.245 2711.4 235.317 2700.78 235.317C2699.85 235.317 2698.85 235.274 2697.82 235.173C2692.8 234.757 2689.33 231.507 2689.33 231.507C2700.38 224.283 2708.13 211.685 2701.26 192.717C2695.75 177.507 2682.52 166.158 2669.19 157.599C2664.76 154.787 2662.29 151.644 2662.29 148.947C2662.29 142.59 2671.16 142.39 2674.79 138.128C2678.99 133.164 2676.35 125.121 2672.72 120.272C2672.72 120.272 2673.94 120.02 2675.88 120.02C2679.71 120.02 2686.35 121.003 2691.81 126.764C2699.05 134.398 2696.05 142.72 2696.05 142.72L2697.98 143.1C2699.14 143.351 2700.3 143.401 2701.5 143.459L2702.28 143.473C2712.8 143.473 2717.51 132.267 2717.51 132.267C2717.51 132.267 2728.7 146.285 2712.22 157.276C2709.39 159.156 2708.13 160.899 2708.46 162.757L2708.72 163.977L2709.89 164.185C2721.83 167.485 2727.87 175.879 2735.25 185.42C2746.46 199.927 2762.3 200.393 2764.26 200.393H2764.47C2764.47 200.393 2760.86 212.029 2750.2 212.029C2750.02 212.029 2749.87 212.029 2749.69 212.015C2744.79 211.836 2742.28 209.927 2742.28 209.927C2742.28 209.927 2740.37 236.328 2759.72 244.514M2750.2 215.588C2763.26 215.588 2767.64 202.043 2767.82 201.455L2769.28 196.684L2764.38 196.842H2764.37C2762.64 196.842 2748.22 196.454 2737.99 183.211L2737.02 181.991C2730.35 173.332 2724.01 165.103 2712.68 161.344C2713.01 161.042 2713.48 160.677 2714.12 160.246C2720.14 156.221 2723.63 151.329 2724.51 145.647C2725.8 137.109 2720.44 130.294 2720.21 130.014L2716.57 125.43L2714.3 130.868C2714.14 131.212 2710.32 139.914 2702.28 139.914H2701.68C2701.13 139.886 2700.6 139.864 2700.08 139.821C2700.37 135.94 2699.68 129.928 2694.32 124.282C2687.89 117.502 2680 116.484 2675.88 116.484C2673.67 116.484 2672.21 116.763 2672.05 116.771L2666.55 117.89L2669.94 122.438C2672.6 125.954 2675.01 132.425 2672.16 135.811C2671.24 136.887 2669.36 137.762 2667.56 138.637C2663.86 140.366 2658.8 142.799 2658.8 148.947C2658.8 152.928 2661.84 157.097 2667.34 160.641C2683.61 171.065 2693.65 181.948 2697.98 193.958C2704.69 212.431 2695.94 222.963 2687.44 228.523L2683.63 231.012L2686.96 234.14C2687.41 234.542 2691.49 238.208 2697.52 238.732C2698.67 238.811 2699.76 238.875 2700.78 238.875C2704.11 238.89 2707.42 238.401 2710.61 237.426C2709.88 238.732 2708.97 240.081 2707.83 241.422C2702.98 247.162 2697 249.766 2688.4 249.909L2685.21 249.959L2684.97 253.224C2684.94 253.884 2684.7 259.939 2690.32 265.083C2691.18 265.879 2692.21 266.539 2693.31 267.07C2689.5 270.571 2685.62 276.662 2684.88 287.093C2684.23 295.803 2682.2 299.031 2682.18 299.06L2678.65 304.548L2685.03 304.641C2695.56 304.641 2703.64 301.678 2709.22 295.803C2712.53 292.33 2714.43 288.413 2715.54 284.934C2718.63 287.613 2722.58 289.09 2726.67 289.095C2729.65 289.095 2732.14 288.456 2732.41 288.384L2736.49 287.287L2734.69 283.413C2734.56 283.104 2731.16 275.327 2734.81 264.243C2736.15 260.199 2737.08 256.032 2737.58 251.803C2740.15 253.166 2743.59 254.293 2748.03 254.307C2758.11 254.307 2762.56 246.631 2762.75 246.308L2764.74 242.785L2761.06 241.243C2749.04 236.156 2746.38 222.504 2745.85 215.122C2746.93 215.337 2748.18 215.53 2749.58 215.566L2750.2 215.588Z" fill="#1A1918"/>
<path fill-rule="evenodd" clip-rule="evenodd" d="M2735.51 157.631C2737.95 157.631 2740.78 158.478 2743.46 161.305C2751.89 170.014 2759.72 170.495 2759.72 170.495C2758.29 173.709 2754.17 176.528 2749.89 176.528C2748.88 176.531 2747.88 176.362 2746.93 176.026C2741.13 174.039 2739.06 165.186 2728.89 159.669C2728.89 159.669 2731.73 157.631 2735.51 157.631ZM2727.23 162.811C2732.11 165.458 2734.94 169.002 2737.43 172.145C2739.88 175.215 2742.2 178.171 2745.84 179.398C2747.13 179.85 2748.49 180.065 2749.89 180.065C2755.35 180.065 2760.83 176.664 2762.9 171.958L2764.99 167.238L2759.94 166.929C2759.7 166.929 2753.19 166.319 2745.96 158.794C2742.98 155.701 2739.38 154.08 2735.51 154.08C2730.77 154.08 2727.26 156.491 2726.87 156.735L2722.22 160.071L2727.23 162.811ZM2729.52 209.845V210.032C2726.58 185.912 2709.4 168.493 2690.28 157.911C2688.63 157.02 2686.97 156.164 2685.29 155.343C2691.1 156.268 2700.48 156.376 2707.72 149.976C2707.72 149.976 2696.65 158.277 2673.97 150.737C2680.24 154.891 2692.44 160.752 2703.58 170.236C2731.43 195.174 2711.51 219.487 2711.51 219.487C2721.52 208.848 2721.93 197.448 2718.99 188.136C2724.26 197.075 2727.62 207.922 2727.1 221.302C2726.34 240.457 2715.99 257.03 2705.12 270.352C2699.9 276.809 2698.73 284.751 2698.73 284.751C2698.73 284.751 2700.84 277.742 2706.88 270.539C2718.54 256.628 2728.51 242.186 2729.82 221.374C2731.02 225.155 2735.99 235.651 2743.87 239.604C2743.87 239.604 2733.97 233.527 2729.52 209.845ZM2578.02 301.087C2549 301.087 2549.74 275.726 2549.74 275.726C2549.74 275.726 2547.72 283.237 2539.62 285.196C2538.66 285.454 2537.62 285.554 2536.61 285.554C2534.01 285.554 2531.75 284.93 2531.75 284.93C2531.75 284.93 2535.97 275.826 2531.77 263.078C2528.29 252.51 2528.86 244.669 2528.86 244.669C2528.86 244.669 2524.95 250.695 2515.25 250.752H2515.15C2507.09 250.752 2503.57 244.511 2503.57 244.511C2522.9 236.332 2521.01 209.924 2521.01 209.924C2521.01 209.924 2518.5 211.832 2513.59 212.012C2513.41 212.026 2513.25 212.026 2513.09 212.026C2502.42 212.026 2498.8 200.39 2498.8 200.39H2499.02C2500.99 200.39 2516.82 199.916 2528.02 185.41C2535.41 175.868 2541.45 167.482 2553.37 164.181L2554.57 163.966L2554.82 162.747C2555.15 160.896 2553.9 159.152 2551.07 157.273C2534.6 146.282 2545.79 132.263 2545.79 132.263C2545.79 132.263 2550.46 143.469 2561.02 143.469L2561.79 143.462C2562.97 143.391 2564.14 143.348 2565.3 143.104L2567.24 142.716C2567.24 142.716 2564.22 134.394 2571.48 126.761C2573.53 124.604 2576.01 122.892 2578.75 121.732C2581.49 120.572 2584.44 119.988 2587.41 120.017C2589.35 120.017 2590.55 120.268 2590.55 120.268C2586.93 125.118 2584.3 133.16 2588.49 138.125C2592.13 142.386 2600.98 142.587 2600.98 148.943C2600.98 151.641 2598.52 154.783 2594.09 157.595C2580.75 166.154 2567.52 177.511 2562.02 192.713C2555.15 211.689 2562.9 224.28 2573.97 231.504C2573.97 231.504 2570.49 234.754 2565.46 235.163C2564.47 235.261 2563.48 235.311 2562.49 235.313C2551.88 235.313 2546.4 230.241 2546.4 230.241C2546.4 230.241 2547.31 237.251 2552.8 243.765C2557.93 249.762 2564.6 253.306 2574.82 253.45C2574.82 253.45 2575.14 258.278 2570.63 262.453C2567.73 265.094 2561.05 265.947 2561.05 265.947C2561.05 265.947 2573.57 268.53 2574.94 287.348C2575.69 297.542 2578.23 301.087 2578.23 301.087H2578.01H2578.02ZM2581.11 299.056C2581.09 299.028 2579.07 295.799 2578.42 287.09C2577.66 276.651 2573.79 270.568 2569.96 267.066C2571.05 266.555 2572.06 265.886 2572.96 265.079C2578.57 259.935 2578.34 253.887 2578.29 253.22L2578.08 249.956L2574.86 249.906C2566.29 249.762 2560.3 247.158 2555.45 241.419C2554.4 240.175 2553.47 238.837 2552.67 237.423C2555.34 238.248 2558.62 238.872 2562.5 238.872C2563.53 238.872 2564.6 238.807 2565.75 238.728C2569.66 238.324 2573.36 236.72 2576.32 234.137L2579.66 231.009L2575.85 228.52C2567.32 222.96 2558.6 212.428 2565.3 193.954C2569.63 181.945 2579.66 171.061 2595.96 160.637C2601.46 157.093 2604.46 152.925 2604.46 148.943C2604.46 142.788 2599.42 140.363 2595.73 138.634C2593.92 137.759 2592.04 136.884 2591.14 135.807C2588.27 132.421 2590.68 125.943 2593.34 122.435L2596.75 117.886L2591.23 116.774C2591.06 116.753 2589.62 116.48 2587.4 116.48C2583.28 116.48 2575.41 117.499 2568.98 124.279C2563.62 129.925 2562.92 135.937 2563.19 139.818C2562.67 139.861 2562.16 139.882 2561.61 139.911H2561.02C2552.95 139.911 2549.14 131.202 2548.99 130.872L2546.73 125.426L2543.05 130.018C2542.85 130.29 2537.48 137.106 2538.78 145.643C2539.65 151.325 2543.15 156.218 2549.17 160.243C2549.81 160.673 2550.27 161.032 2550.6 161.34C2539.26 165.1 2532.93 173.328 2526.25 181.981L2525.29 183.215C2515.08 196.451 2500.63 196.845 2498.9 196.845L2493.97 196.68L2495.47 201.458C2495.65 202.04 2500.01 215.584 2513.08 215.584L2513.71 215.563C2515.1 215.527 2516.34 215.333 2517.44 215.118C2516.9 222.5 2514.23 236.153 2502.22 241.232L2498.54 242.782L2500.53 246.304C2500.72 246.627 2505.18 254.304 2515.28 254.304C2518.91 254.337 2522.48 253.48 2525.7 251.807C2526.09 255.15 2526.9 259.44 2528.47 264.24C2532.13 275.324 2528.72 283.101 2528.59 283.409L2526.79 287.283L2530.86 288.381C2531.14 288.453 2533.65 289.098 2536.61 289.098C2540.7 289.101 2544.66 287.623 2547.75 284.937C2548.85 288.403 2550.75 292.327 2554.05 295.799C2559.65 301.675 2567.72 304.638 2578.25 304.638L2584.64 304.544L2581.11 299.056Z" fill="#1A1918"/>
<path fill-rule="evenodd" clip-rule="evenodd" d="M2519.81 161.3C2522.5 158.48 2525.33 157.634 2527.79 157.634C2531.55 157.634 2534.39 159.671 2534.39 159.671C2524.23 165.188 2522.13 174.041 2516.33 176.028C2515.39 176.366 2514.39 176.536 2513.39 176.53C2509.11 176.53 2504.98 173.711 2503.56 170.504C2503.56 170.504 2511.39 170.016 2519.81 161.3ZM2513.38 180.067C2514.78 180.067 2516.15 179.852 2517.44 179.407C2521.09 178.173 2523.4 175.225 2525.85 172.147C2528.36 169.012 2531.16 165.461 2536.04 162.821L2541.06 160.073L2536.4 156.737C2536.02 156.486 2532.52 154.082 2527.79 154.082C2523.9 154.082 2520.29 155.704 2517.31 158.796C2510.07 166.329 2503.59 166.931 2503.36 166.939L2498.31 167.24L2500.38 171.96C2502.46 176.667 2507.94 180.067 2513.38 180.067ZM2536.19 221.305C2535.64 207.925 2539.01 197.077 2544.3 188.138C2541.35 197.45 2541.75 208.85 2551.77 219.489C2551.77 219.489 2531.84 195.169 2559.71 170.239C2570.85 160.754 2583.04 154.886 2589.31 150.739C2566.64 158.279 2555.56 149.979 2555.56 149.979C2562.8 156.378 2572.17 156.27 2577.99 155.345C2576.41 156.134 2574.76 156.945 2573.01 157.913C2553.88 168.495 2536.7 185.914 2533.76 210.034V209.847C2529.31 233.522 2519.42 239.606 2519.42 239.606C2527.29 235.653 2532.25 225.157 2533.45 221.376C2534.77 242.189 2544.73 256.63 2556.39 270.541C2562.44 277.744 2564.57 284.753 2564.57 284.753C2564.57 284.753 2563.39 276.811 2558.13 270.355C2547.28 257.039 2536.95 240.467 2536.19 221.305ZM2625.09 172.506V177.291C2626.71 175.282 2629.83 175.691 2629.83 175.691V182.585C2629.83 182.585 2629.73 185.979 2628.53 187.45H2635.31C2634.14 185.979 2634.02 182.585 2634.02 182.585V175.698C2634.02 175.698 2637.16 175.282 2638.76 177.291V172.506H2625.09ZM2622.18 144.146C2624.34 145.897 2625.59 146.191 2625.64 146.212L2626.48 146.614V142.116L2618.52 138.708C2618.52 138.708 2618.59 141.312 2622.18 144.146ZM2641.09 144.146C2644.69 141.312 2644.76 138.708 2644.76 138.708L2636.8 142.116V146.614L2637.64 146.212C2637.68 146.191 2638.93 145.897 2641.09 144.146Z" fill="#1A1918"/>
<path fill-rule="evenodd" clip-rule="evenodd" d="M2631.64 132.154L2612.48 124.441C2614.11 120.51 2621.62 117.167 2631.63 117.16C2641.68 117.167 2649.18 120.51 2650.81 124.441L2631.64 132.161V132.154ZM2645.92 156.323L2633.05 163.239V135.239L2650.53 129.191L2645.92 156.323ZM2653.9 163.756L2659.79 167.235H2659.88L2661.36 168.118C2658.03 169.058 2655.49 170.751 2653.36 172.975L2653.13 173.212C2652.62 173.757 2652.14 174.322 2651.68 174.905L2651.41 175.263C2650.96 175.862 2650.53 176.477 2650.12 177.107L2649.9 177.437C2649.4 178.206 2648.93 178.991 2648.48 179.79C2644.28 187.151 2637.59 191.549 2631.64 191.556C2625.69 191.549 2619 187.151 2614.81 179.79C2614.36 179.003 2613.9 178.228 2613.41 177.466L2613.14 177.064C2612.74 176.462 2612.32 175.868 2611.9 175.285C2611.36 174.575 2610.79 173.888 2610.19 173.226C2610.08 173.147 2610.02 173.047 2609.93 172.96C2607.76 170.641 2604.99 168.965 2601.92 168.118L2603.42 167.235H2603.49L2609.39 163.756L2615.44 160.226L2631.61 169.194L2631.64 169.158L2631.68 169.194L2647.85 160.226L2653.9 163.756ZM2677.15 188.665C2675.82 192.209 2674.73 196.054 2674.73 199.864L2674.74 224.514C2669.68 223.653 2669.09 218.1 2669.08 217.864L2668.97 216.737L2667.88 216.637C2666.02 216.468 2664.29 215.623 2663.01 214.262C2660.53 211.737 2660.52 207.64 2660.53 207.605C2660.49 207.82 2657.8 211.658 2660.93 215.855C2662.24 217.627 2664.15 218.717 2666.61 219.141C2667.19 222.218 2669.44 226.559 2674.74 227.226V239.279H2659.82C2652.95 235.383 2655.87 228.525 2656 228.23L2656.58 226.932L2655.26 226.423C2647.82 223.61 2649.87 216.041 2649.97 215.711L2650.27 214.607L2649.25 214.119C2643.1 211.213 2643.94 203.393 2644.02 203.071C2642.13 204.634 2641.45 207.813 2642.75 210.941C2642.04 211.766 2641.1 212.756 2640.06 213.846C2633.69 212.196 2633.5 206.234 2633.5 205.955L2633.48 205.036L2632.64 204.706C2630.16 203.774 2628.45 202.36 2627.61 200.473C2626.67 198.379 2627 196.19 2627.25 195.129C2628.68 195.43 2630.13 195.586 2631.59 195.595H2631.7C2632.43 195.595 2633.16 195.552 2633.88 195.48C2637.85 195.078 2642.29 193.342 2646.92 188.665H2677.14H2677.15ZM2658.51 296.062L2660.17 287.217C2660.26 286.7 2660.37 286.09 2660.44 285.581C2660.91 285.782 2661.41 285.94 2661.94 286.047C2662.57 286.169 2663.14 286.227 2663.67 286.227C2666.21 286.227 2667.68 284.863 2668.67 283.701L2669.94 282.195L2668.9 280.523C2667.56 278.345 2666.17 276.2 2664.72 274.088C2664.37 273.585 2664.03 273.073 2663.7 272.553C2661.68 269.468 2659.15 265.608 2654.07 265.608L2653.62 265.622C2652.89 265.664 2652.18 265.814 2651.49 266.067C2649.95 265.317 2648.26 264.925 2646.54 264.919C2644.44 264.919 2642.68 265.508 2641.5 265.909C2641.16 266.017 2640.86 266.124 2640.62 266.168L2631.15 265.213C2631.02 265.192 2630.64 264.962 2630.16 264.396V264.345L2632.21 263.506C2631.64 256.547 2625.08 252.264 2621.42 250.808C2621.26 250.066 2620.89 249.386 2620.36 248.849L2618.32 246.883L2616.52 249.071L2615.65 250.183L2602.37 244.631L2611.01 255.679L2607.6 260.938C2606.35 262.286 2607.73 263.642 2607.73 263.642L2611.25 266.11L2614.9 264.726C2615.02 264.726 2615.14 264.754 2615.26 264.769C2615.08 265.335 2614.85 267.552 2614.7 268.169L2608.37 266.906L2601.71 270.73C2600.25 271.819 2599.2 273.367 2598.72 275.127C2598.25 276.886 2598.38 278.754 2599.09 280.43L2599.83 282.073L2600.88 284.397L2603.21 283.414C2603.24 283.405 2603.27 283.391 2603.29 283.371C2602.46 286.097 2602.8 288.695 2604.29 290.388L2605.71 292.203L2607.59 294.628L2609.65 292.361C2610.25 291.751 2612.23 289.491 2612.84 287.575L2613.28 286.105L2612.28 284.971L2612.11 284.763L2613.25 282.862L2621.51 284.849L2623.38 285.28L2624.37 283.615L2624.9 282.711C2625.01 282.518 2625.03 282.489 2625.41 282.489C2625.71 282.489 2626 282.518 2626.32 282.589C2629.44 283.192 2632.31 283.486 2634.87 283.486C2637.34 283.486 2638.83 283.393 2640.59 282.797C2640.59 282.797 2645.03 287.934 2645.18 288.135L2642.46 296.679L2642.34 297.196C2637.19 297.626 2634.69 298.774 2631.65 301.859C2627.26 297.411 2624.14 296.938 2612.31 296.938C2598.15 296.938 2588.55 288.486 2588.55 274.97V241.947H2674.74L2674.76 274.97C2674.76 285.925 2668.44 293.566 2658.51 296.062ZM2605.42 277.381L2605.87 278.529C2605.57 279.526 2602.21 280.939 2602.21 280.939L2601.49 279.318C2601.03 278.206 2600.95 276.974 2601.26 275.812C2601.58 274.651 2602.27 273.626 2603.22 272.897L2608.68 269.511L2614.46 270.759C2614.42 271.928 2614.76 273.079 2615.44 274.03L2609.39 272.84L2605.76 275.394C2605.15 275.831 2605.1 276.635 2605.42 277.381ZM2657.6 286.722L2655.73 296.593C2654.49 296.763 2653.25 296.868 2652 296.909L2653.96 287.418C2654.55 284.591 2647.11 283.716 2643.43 278.163C2641.64 280.222 2638.27 280.832 2634.87 280.832C2631.78 280.832 2628.68 280.329 2626.8 279.956C2626.34 279.874 2625.88 279.829 2625.41 279.82C2624.33 279.82 2623.33 280.164 2622.65 281.327L2622.11 282.259L2611.98 279.834L2609.46 284.082C2609.11 284.777 2609.08 285.351 2609.65 285.997L2610.33 286.757C2609.87 288.264 2607.75 290.538 2607.75 290.538L2606.25 288.623C2605.06 287.26 2605.25 284.777 2606.49 282.474L2610.51 275.559L2619.1 276.821L2617.77 273.729C2615.97 269.633 2618.71 264.424 2619 261.418C2618.9 262.329 2618.08 262.53 2617.13 262.53C2616.27 262.53 2615.3 262.365 2614.66 262.365C2614.4 262.365 2614.19 262.394 2614.07 262.48L2611.75 263.915L2609.91 262.265C2609.69 261.949 2609.62 261.203 2610.15 260.643L2614.4 255.794L2609.39 249.825L2616.41 253.412L2618.56 250.765C2619.14 251.36 2618.88 252.895 2618.88 252.895C2621.08 252.953 2627.23 256.411 2627.55 264.496C2627.57 264.747 2627.57 265.02 2627.57 265.285L2627.74 265.558C2628.17 266.168 2629.37 267.724 2630.89 267.868L2640.6 268.851H2640.64C2641.71 268.851 2643.82 267.574 2646.54 267.574C2648.03 267.574 2649.67 267.961 2651.42 269.087C2651.42 269.087 2652.32 268.37 2653.74 268.298C2653.85 268.284 2653.97 268.284 2654.07 268.284C2658.43 268.284 2660.24 272.301 2662.58 275.63C2664.33 278.17 2666.69 281.929 2666.69 281.929C2665.82 282.977 2665.01 283.565 2663.66 283.565C2663.24 283.565 2662.82 283.521 2662.41 283.436C2657.74 282.561 2657.07 272.775 2654.4 272.007C2654.26 271.969 2654.12 271.95 2653.97 271.95C2653.11 271.95 2652.75 272.725 2652.75 272.725C2653.97 276.061 2653.25 277.41 2654.56 279.978C2655.54 281.886 2657.28 283.45 2658 284.196C2658 284.196 2657.8 285.638 2657.6 286.722ZM2648.66 296.974C2647.35 296.974 2646.15 296.995 2645.07 297.038L2647.91 288.013C2648.36 286.757 2646.1 285.15 2645.18 283.744C2646.58 284.641 2650.21 286.607 2651.95 287.389C2651.78 287.676 2648.65 296.974 2648.65 296.974H2648.66ZM2606.37 215.654L2606.77 199.964L2610.23 196.233L2612.4 200.868L2608.12 215.927L2606.37 215.654ZM2608.85 220.511C2609.43 221.716 2610.43 222.52 2611.15 222.979C2611.12 224.468 2610.98 225.953 2610.73 227.42C2610.66 227.771 2610.57 228.087 2610.48 228.403L2610.33 228.905C2609.27 228.905 2607.2 228.768 2605.5 228.144C2603.62 227.434 2600.83 223.926 2601.47 220.052C2602.28 219.55 2604.16 218.474 2605.93 218.474C2607.28 218.474 2608.21 219.119 2608.85 220.511ZM2648.88 224.729C2646.23 226.724 2639.37 231.817 2636.89 233.582L2612.99 229.206L2613.15 228.56C2613.56 226.918 2613.78 225.232 2613.8 223.538L2633.89 223.868L2634.28 223.467C2634.58 223.158 2640.95 216.888 2644.19 213.287C2644.96 214.277 2645.92 215.216 2647.19 216.041C2646.76 218.438 2646.95 221.853 2648.88 224.722V224.729ZM2616.37 188.665C2619.24 191.577 2622.06 193.385 2624.73 194.375C2624.39 195.782 2623.93 198.68 2625.22 201.571C2626.27 203.896 2628.17 205.689 2630.94 206.88C2631.24 209.764 2633.02 214.097 2637.97 216.006C2635.8 218.23 2633.69 220.324 2632.84 221.171L2612.79 220.848C2612.13 220.525 2611.58 220.004 2611.22 219.356C2611.17 219.256 2611.11 219.198 2611.07 219.098L2614.34 219.636L2614.55 219.643C2614.86 219.644 2615.16 219.533 2615.4 219.33C2615.64 219.127 2615.79 218.846 2615.84 218.538C2615.89 218.192 2615.81 217.837 2615.61 217.55C2615.41 217.262 2615.1 217.066 2614.76 217.003L2610.73 216.357L2615.2 200.646L2610.96 191.577L2604.18 198.874L2603.77 215.216L2599.21 214.477C2598.51 214.334 2597.84 214.858 2597.71 215.589C2597.61 216.307 2598.09 216.988 2598.8 217.118L2600.71 217.412C2600.3 217.645 2599.91 217.899 2599.52 218.172L2599.14 218.445L2599.03 218.933C2597.93 223.517 2600.43 227.865 2603.14 229.816L2603.04 230.39C2602.99 230.733 2603 231.084 2603.07 231.423C2603.15 231.761 2603.3 232.081 2603.5 232.363C2603.74 232.704 2604.05 232.982 2604.41 233.174C2604.78 233.365 2605.19 233.464 2605.6 233.46C2606.18 233.453 2606.74 233.248 2607.2 232.879C2607.65 232.511 2607.96 232 2608.09 231.43C2609.09 231.545 2610.02 231.574 2610.65 231.574H2611.19L2637.49 236.416L2637.94 236.115C2640.03 234.623 2648.03 228.69 2650.64 226.724C2651.36 227.355 2652.17 227.929 2653.15 228.403C2652.29 231.301 2652.24 235.763 2655.59 239.286H2588.55V199.864C2588.55 196.047 2587.46 192.209 2586.16 188.672H2616.37L2616.37 188.665ZM2612.75 129.191L2630.24 135.239V163.239L2617.36 156.323L2612.75 129.191ZM2655.43 125.819C2655.43 118.982 2644.14 112.833 2631.68 112.833H2631.61C2619.15 112.833 2607.86 118.982 2607.86 125.819L2608.11 127.49L2613.08 156.589L2608.09 159.545L2595.16 167.235H2595.2C2595.2 167.235 2592.3 168.764 2590.95 169.696C2586.02 173.183 2584.98 178.262 2587.83 180.364C2588.54 176.217 2591.75 171.891 2597.78 171.891C2602.11 171.891 2605.42 174.173 2608.09 177.588C2608.78 178.449 2609.43 179.374 2610.03 180.364C2610.78 181.62 2611.54 182.717 2612.28 183.772H2578.98C2581.43 188.787 2583.75 194.103 2583.75 199.864V274.977C2583.75 293.15 2597.48 301.83 2612.32 301.83C2623.79 301.83 2625.33 301.292 2631.66 307.72C2637.96 301.292 2639.51 301.83 2650.99 301.83C2665.84 301.83 2679.54 293.15 2679.54 274.97V199.864C2679.54 194.096 2681.87 188.787 2684.33 183.772H2651.01C2651.76 182.717 2652.51 181.62 2653.26 180.364C2653.85 179.404 2654.5 178.477 2655.19 177.588C2657.88 174.159 2661.18 171.891 2665.52 171.891C2671.54 171.891 2674.75 176.217 2675.46 180.364C2678.32 178.262 2677.29 173.183 2672.34 169.696C2670.96 168.81 2669.55 167.989 2668.09 167.235H2668.14L2655.19 159.545L2650.21 156.589L2655.19 127.49L2655.44 125.812L2655.43 125.819Z" fill="#1A1918"/>
</g>
</g>
<rect x="2432.05" y="10.7614" width="408.929" height="408.929" rx="204.465" stroke="white" stroke-width="21.5226"/>
<g clip-path="url(#clip5_1_16)">
<rect x="2905.55" y="6.10352e-05" width="430.452" height="430.452" rx="215.226" fill="white"/>
<path d="M3120.77 430.452C3239.62 430.452 3336 334.071 3336 215.226C3336 96.3806 3239.62 6.10352e-05 3120.77 6.10352e-05C3001.93 6.10352e-05 2905.55 96.3806 2905.55 215.226C2905.55 334.071 3001.93 430.452 3120.77 430.452Z" fill="#FF9900"/>
<path d="M3233.57 333.56C3227.45 321.094 3216.58 311.945 3204.81 304.929C3200.73 302.495 3196.12 300.779 3192.1 299.463C3182.86 296.471 3173.92 295.778 3163.49 293.995C3155.02 292.546 3148.32 289.063 3141.14 284.187C3137.4 281.629 3134.34 278.122 3131.78 274.405C3131.31 273.656 3128.92 270.746 3129.16 269.746C3129.16 269.746 3127.49 276.413 3130.79 285.771C3100.47 284.412 3073.89 267.597 3061.71 247.214C3039.3 209.706 3047.2 164.249 3077.08 144.175C3106.95 124.093 3152.51 138.26 3176.89 174.508C3192.2 197.257 3196.12 223.722 3189.56 245.248C3189.51 245.415 3189.45 245.572 3189.4 245.739C3176.44 236.315 3164.61 241.123 3164.61 241.123C3177.59 239.782 3187.86 250.115 3187.86 250.115C3189.37 251.456 3190.82 252.939 3192.13 254.59C3192.42 254.989 3192.73 255.397 3193.03 255.83C3196.43 260.447 3198.55 265.58 3199.45 270.789C3225.23 238.082 3229.49 192.782 3206.67 157.601C3177.62 112.76 3115.65 101.31 3068.32 131.993C3020.96 162.7 3006.15 223.905 3035.22 268.739C3059.1 305.629 3115.13 316.879 3147.24 306.712C3159.38 302.895 3200.96 299.261 3229.9 333.444C3229.9 333.444 3232.4 336.303 3233.76 339.561C3233.76 339.561 3234.16 340.703 3235.23 340.151C3235.51 340.001 3236.31 339.076 3233.57 333.56ZM3173.98 273.021C3173.95 272.997 3173.93 272.997 3173.89 272.971C3173.83 272.971 3173.78 272.946 3173.73 272.93C3173.66 272.905 3173.6 272.872 3173.53 272.855C3173.49 272.855 3173.43 272.855 3173.42 272.838C3173.31 272.804 3173.21 272.78 3173.09 272.738C3171.75 272.505 3170.42 272.705 3169.31 273.422C3166.8 275.13 3166.42 278.989 3168.47 282.062C3169.43 283.455 3170.72 284.421 3172.1 284.955C3172.13 284.955 3172.15 284.955 3172.21 284.987C3172.25 284.996 3172.31 285.03 3172.35 285.03C3172.42 285.063 3172.48 285.063 3172.54 285.08C3172.6 285.08 3172.63 285.105 3172.67 285.121C3172.78 285.146 3172.87 285.187 3172.98 285.196C3174.31 285.462 3175.65 285.271 3176.77 284.522C3179.29 282.813 3179.68 278.972 3177.62 275.905C3176.67 274.497 3175.38 273.514 3173.98 273.021ZM3190.78 265.938C3188.65 265.147 3188.46 267.655 3188.99 269.288C3190.18 273.113 3191.78 276.038 3192.96 276.622C3194.08 277.304 3195.41 275.729 3194.56 271.905C3194.2 270.246 3192.94 266.78 3190.78 265.938Z" fill="white"/>
</g>
<rect x="2916.31" y="10.7614" width="408.929" height="408.929" rx="204.465" stroke="white" stroke-width="21.5226"/>
<defs>
<clipPath id="clip0_1_16">
<rect x="484.258" y="6.10352e-05" width="430.452" height="430.452" rx="215.226" fill="white"/>
</clipPath>
<clipPath id="clip1_1_16">
<rect x="968.516" y="6.10352e-05" width="430.452" height="430.452" rx="215.226" fill="white"/>
</clipPath>
<clipPath id="clip2_1_16">
<rect x="1452.77" y="6.10352e-05" width="430.452" height="430.452" rx="215.226" fill="white"/>
</clipPath>
<clipPath id="clip3_1_16">
<rect x="1937.03" y="6.10352e-05" width="430.452" height="430.452" rx="215.226" fill="white"/>
</clipPath>
<clipPath id="clip4_1_16">
<rect x="2421.29" y="6.10352e-05" width="430.452" height="430.452" rx="215.226" fill="white"/>
</clipPath>
<clipPath id="clip5_1_16">
<rect x="2905.55" y="6.10352e-05" width="430.452" height="430.452" rx="215.226" fill="white"/>
</clipPath>
</defs>
</svg>
