<svg xmlns="http://www.w3.org/2000/svg" xmlns:xlink="http://www.w3.org/1999/xlink" viewBox="0 0 937.71 330.33"><defs><style>.cls-1{fill:none;}.cls-2{fill:#fff;}.cls-3{fill:#ffdd2d;}.cls-20,.cls-4{fill:#010101;}.cls-5{fill:url(#Blue_Gradient_01);}.cls-6{opacity:0;}.cls-7{fill:#eb621d;}.cls-8{fill:#e41522;}.cls-9{fill:#f59e1f;}.cls-10{fill:#40a435;}.cls-11{fill:url(#linear-gradient);}.cls-12{fill:#23a038;}.cls-13{fill:url(#Безымянный_градиент_7);}.cls-14{fill:url(#Безымянный_градиент_2);}.cls-15{fill:url(#Безымянный_градиент_3);}.cls-16{fill:url(#Безымянный_градиент_4);}.cls-17{fill:url(#Безымянный_градиент_5);}.cls-18{fill:url(#Безымянный_градиент_6);}.cls-19{clip-path:url(#clip-path);}.cls-20{fill-rule:evenodd;}.cls-21{fill:#5b58a3;}.cls-22{fill:#d90652;}.cls-23{fill:#fbb81e;}.cls-24{fill:#ed7029;}.cls-25{fill:#64b333;}.cls-26{fill:#1b87c9;}.cls-27{fill:#0a8036;}.cls-28{fill:#984a96;}</style><linearGradient id="Blue_Gradient_01" x1="506.72" y1="144.78" x2="673.55" y2="80.8" gradientUnits="userSpaceOnUse"><stop offset="0" stop-color="#232853"/><stop offset="1" stop-color="#233985"/></linearGradient><linearGradient id="linear-gradient" x1="874.41" y1="95.17" x2="937.71" y2="95.17" gradientUnits="userSpaceOnUse"><stop offset="0" stop-color="#18a6e0"/><stop offset="0.29" stop-color="#169dd9"/><stop offset="0.77" stop-color="#1185c7"/><stop offset="1" stop-color="#0e77bd"/></linearGradient><linearGradient id="Безымянный_градиент_7" x1="588.68" y1="-337.08" x2="581.54" y2="-316.71" gradientTransform="matrix(1, 0, 0, -1, 0, -42.78)" gradientUnits="userSpaceOnUse"><stop offset="0.14" stop-color="#efe522"/><stop offset="0.3" stop-color="#e3e026"/><stop offset="0.58" stop-color="#c7d530"/><stop offset="0.89" stop-color="#a2c73f"/></linearGradient><linearGradient id="Безымянный_градиент_2" x1="589.14" y1="-299.41" x2="607.16" y2="-292.63" gradientTransform="matrix(1, 0, 0, -1, 0, -42.78)" gradientUnits="userSpaceOnUse"><stop offset="0.06" stop-color="#1ca7df"/><stop offset="0.54" stop-color="#3f8fcd"/><stop offset="0.92" stop-color="#3589c9"/></linearGradient><linearGradient id="Безымянный_градиент_3" x1="605.05" y1="-342.13" x2="625.39" y2="-337.6" gradientTransform="matrix(1, 0, 0, -1, 0, -42.78)" gradientUnits="userSpaceOnUse"><stop offset="0.12" stop-color="#a2c73f"/><stop offset="0.28" stop-color="#88be3f"/><stop offset="0.87" stop-color="#219f38"/></linearGradient><linearGradient id="Безымянный_градиент_4" x1="605.51" y1="-292.36" x2="622.92" y2="-297.66" gradientTransform="matrix(1, 0, 0, -1, 0, -42.78)" gradientUnits="userSpaceOnUse"><stop offset="0.06" stop-color="#3589c9"/><stop offset="0.79" stop-color="#1589cb"/></linearGradient><linearGradient id="Безымянный_градиент_5" x1="587.97" y1="-336.16" x2="606.93" y2="-343.15" gradientTransform="matrix(1, 0, 0, -1, 0, -42.78)" gradientUnits="userSpaceOnUse"><stop offset="0.13" stop-color="#efe522"/><stop offset="0.3" stop-color="#e8e224"/><stop offset="0.53" stop-color="#d6da2c"/><stop offset="0.8" stop-color="#b9cf35"/><stop offset="0.98" stop-color="#a2c73f"/></linearGradient><linearGradient id="Безымянный_градиент_6" x1="581.5" y1="-318.84" x2="589.26" y2="-298.91" gradientTransform="matrix(1, 0, 0, -1, 0, -42.78)" gradientUnits="userSpaceOnUse"><stop offset="0.07" stop-color="#a2c73f"/><stop offset="0.26" stop-color="#82be61"/><stop offset="0.92" stop-color="#1ca7df"/></linearGradient><clipPath id="clip-path"><rect class="cls-1" x="649.38" y="257.06" width="288.33" height="37.02"/></clipPath></defs><g id="Слой_2" data-name="Слой 2"><g id="Слой_1-2" data-name="Слой 1"><path class="cls-2" d="M282.78,105.19l3.29-10.46-10.88.34a25.78,25.78,0,0,1-14.09-4.86c.49,0,1,.11,1.46.11,6.68,0,13.13-4,15.72-9.7L283,70.31a86.41,86.41,0,0,1-11.23-.66c-.05,0-4.28-.55-9.17-5.51A17.37,17.37,0,0,0,250,58.69a18.19,18.19,0,0,0-5.48.87,18.72,18.72,0,0,0,.62-2.56c1.5-9.66-4.76-17-4.76-17l-8.18-10.06-5.07,11.83a10.68,10.68,0,0,1-3.59,4.16,21.88,21.88,0,0,0-6-11.12A27.08,27.08,0,0,0,198,26.69a24,24,0,0,0-3.81.28l-9.87,1.93a33.5,33.5,0,0,1,4-9.45L193.76,11,180,12.57l-4.37-9.23-8.45,4.34L159.4,0l-7.8,7.68-8.49-4.34-4.36,9.23L125.05,11l5.45,8.44a33.17,33.17,0,0,1,4,9.44L125.07,27l-.32-.05a23.86,23.86,0,0,0-3.93-.3,27.07,27.07,0,0,0-19.52,8.1,21.93,21.93,0,0,0-6,11.12,10.43,10.43,0,0,1-3.54-4.07l-5.08-11.9L78.32,40.08c-1,1.31-6,8.23-4.66,16.93a20.31,20.31,0,0,0,.62,2.56,18.07,18.07,0,0,0-5.47-.87,17.41,17.41,0,0,0-12.56,5.44c-4.87,5-9.08,5.51-9,5.51a64.52,64.52,0,0,1-11.33.66l4.65,10.32c2.59,5.72,9.06,9.7,15.72,9.7.5,0,1-.07,1.48-.11a25.84,25.84,0,0,1-14,4.87l-11.09-.36L36,105.18c1.69,5.39,7.33,14.32,18.13,15.28-1.17,4.9-3.78,10.38-9.5,12.75l-8.26,3.38,4.5,7.79a20,20,0,0,0,17,9.12,26.44,26.44,0,0,0,5.32-.55,58.11,58.11,0,0,0,1.62,5.75c2.54,7.47.36,12.69.33,12.75l-4.08,8.49,9.1,2.38a25.49,25.49,0,0,0,6.3.78,19.42,19.42,0,0,0,4.46-.49,19,19,0,0,0,3.05-1,27.62,27.62,0,0,0,4.28,5.73c5.83,5.94,14.08,9,24.55,9h0l7.47-.1-15.43,6.37,11.72,5.62a156.86,156.86,0,0,0,14.44,6.37l-1.46,4,4,1.83c.36.16,8.12,3.62,21,4.35,0,0,3.11.14,4.83.14s4.8-.15,4.8-.15c12.82-.75,20.53-4.17,20.89-4.34l4-1.84-1.47-4a155.79,155.79,0,0,0,14.59-6.43l11.5-5.55-15.38-6.38,7.49.1c10.48,0,18.74-3,24.56-9a28,28,0,0,0,4.28-5.72,19.47,19.47,0,0,0,3.06,1,19.27,19.27,0,0,0,4.45.49,26.52,26.52,0,0,0,6.23-.76l9.14-2.4-4-8.33c-.1-.22-2.28-5.43.26-12.91q1-2.88,1.62-5.75a26,26,0,0,0,5.35.55,19.88,19.88,0,0,0,17-9.21l4.45-7.7-8.25-3.37c-5.74-2.37-8.34-7.86-9.5-12.75C275.31,119.55,281,110.62,282.78,105.19ZM135.22,32.5l-.12,0,.1-.12Z"/><path class="cls-2" d="M159.58,205.58h-.33a68.69,68.69,0,0,1-16.11-2.06l-4.23,11.37c2.79,1,12.23,2.87,20.51,2.87a79.74,79.74,0,0,0,20.48-2.87l-4.22-11.37A68.08,68.08,0,0,1,159.58,205.58Z"/><path class="cls-2" d="M191.57,194.28a92.51,92.51,0,0,1-14.26,5.66l3.43,9.39a85.93,85.93,0,0,0,15.85-5.86l-7.12-2.36Z"/><path class="cls-2" d="M127.26,194.28l2.1,6.83-7.13,2.36a86.91,86.91,0,0,0,15.84,5.86l3.43-9.39A94.1,94.1,0,0,1,127.26,194.28Z"/><path class="cls-2" d="M260,82.13a8,8,0,0,0,2.58.42c3.73,0,7.33-2.39,8.57-5.13,0,0-6.83-.42-14.18-7.83A9.46,9.46,0,0,0,250,66.47a11,11,0,0,0-5.77,1.74C253.12,72.9,254.93,80.43,260,82.13Z"/><path class="cls-2" d="M56.24,82.55a7.82,7.82,0,0,0,2.57-.42c5.07-1.7,6.89-9.23,15.76-13.92a11,11,0,0,0-5.76-1.74,9.51,9.51,0,0,0-7,3.12C54.52,77,47.68,77.42,47.68,77.42,48.91,80.16,52.52,82.55,56.24,82.55Z"/><path class="cls-2" d="M262.39,112.75h.45c9.3,0,12.46-9.9,12.46-9.9h-.19a33.77,33.77,0,0,1-25.3-12.75C243.37,82,238.1,74.85,227.68,72.05l-1-.18-.23-1c-.28-1.58.81-3.06,3.28-4.66,14.37-9.35,4.62-21.28,4.62-21.28s-4.11,9.54-13.29,9.54h-.68a18.47,18.47,0,0,1-3.07-.31l-1.69-.33s2.61-7.07-3.7-13.57A19.15,19.15,0,0,0,198,34.47a15.1,15.1,0,0,0-2.76.22c3.17,4.13,5.47,11,1.8,15.18-3.17,3.63-10.9,3.81-10.9,9.22,0,2.29,2.15,5,6,7.36,11.63,7.28,23.17,16.94,28,29.88,6,16.14-.76,26.85-10.41,33a13.61,13.61,0,0,0,7.41,3.11c.89.09,1.77.13,2.58.13,9.26,0,14.05-4.32,14.05-4.32a24.22,24.22,0,0,1-5.61,11.5c-4.45,5.12-10.29,8.12-19.19,8.25a10.19,10.19,0,0,0,3.66,7.66c2.52,2.24,8.35,3,8.35,3s-10.91,2.19-12.11,18.21c-.66,8.67-2.88,11.68-2.88,11.68h.2c25.31,0,24.66-21.57,24.66-21.57a12.24,12.24,0,0,0,8.82,8,10.3,10.3,0,0,0,2.64.31,18.45,18.45,0,0,0,4.25-.53s-3.7-7.75,0-18.59a43.87,43.87,0,0,0,2.55-15.67s3.41,5.13,11.86,5.18H261a11.9,11.9,0,0,0,10.11-5.31c-16.88-7-15.21-29.43-15.21-29.43A12.25,12.25,0,0,0,262.39,112.75Zm-5.08,23.47c-6.86-3.36-11.2-12.29-12.25-15.51-1.14,17.71-9.84,30-20,41.83a37.73,37.73,0,0,0-7.12,12.09,27.87,27.87,0,0,1,5.58-12.25C233,151.05,242,137,242.69,120.64a49.37,49.37,0,0,0-7.08-28.21c2.57,7.92,2.21,17.62-6.52,26.68,0,0,17.37-20.7-6.92-41.91-9.73-8.07-20.36-13.06-25.84-16.59C216.12,67,225.78,60,225.78,60c-6.32,5.45-14.5,5.35-19.58,4.57,1.38.67,2.81,1.37,4.36,2.19,16.68,9,31.67,23.82,34.23,44.34v-.16C248.68,131.05,257.31,136.22,257.31,136.22Z"/><path class="cls-2" d="M97.83,158.64s5.83-.73,8.35-3a10.19,10.19,0,0,0,3.66-7.66c-8.91-.12-14.74-3.13-19.21-8.24a24.34,24.34,0,0,1-5.58-11.5s4.78,4.32,14,4.32a25.66,25.66,0,0,0,2.59-.13,13.66,13.66,0,0,0,7.42-3.11c-9.65-6.15-16.41-16.87-10.42-33,4.8-12.93,16.34-22.6,28-29.88,3.87-2.4,6-5.07,6-7.36,0-5.41-7.73-5.59-10.89-9.22-3.67-4.22-1.37-11.06,1.8-15.18a14.78,14.78,0,0,0-2.75-.22,19.15,19.15,0,0,0-13.89,5.74c-6.33,6.5-3.7,13.57-3.7,13.57l-1.7.33a18.46,18.46,0,0,1-3.06.31H97.8c-9.21,0-13.29-9.53-13.29-9.53s-9.76,11.93,4.6,21.28c2.48,1.6,3.56,3.08,3.27,4.66l-.22,1-1,.18C80.71,74.86,75.44,82,69,90.12a33.75,33.75,0,0,1-25.29,12.74h-.19s3.16,9.9,12.46,9.9h.44A12.15,12.15,0,0,0,62.89,111s1.65,22.46-15.21,29.43a11.91,11.91,0,0,0,10.12,5.31h.08c8.46-.05,11.87-5.18,11.87-5.18a43.7,43.7,0,0,0,2.54,15.67c3.67,10.84,0,18.59,0,18.59a18.31,18.31,0,0,0,4.24.53,10,10,0,0,0,2.62-.31A12.29,12.29,0,0,0,88,167s-.65,21.57,24.67,21.57h.18s-2.22-3-2.86-11.68C108.74,160.83,97.83,158.64,97.83,158.64Zm-4.06,3.9c-10.17-11.83-18.87-24.12-20-41.83-1.05,3.21-5.38,12.15-12.24,15.51,0,0,8.63-5.17,12.5-25.32v.16c2.57-20.51,17.56-35.34,34.25-44.34,1.53-.83,3-1.53,4.34-2.19-5.07.78-13.25.88-19.57-4.57,0,0,9.66,7.07,29.44.65C117,64.14,106.37,69.13,96.65,77.2c-24.3,21.21-6.92,41.91-6.92,41.91C81,110,80.64,100.35,83.21,92.43a49.08,49.08,0,0,0-7.07,28.21c.66,16.31,9.67,30.41,19.14,41.74a28,28,0,0,1,5.62,12.25A38.12,38.12,0,0,0,93.77,162.54Z"/><path class="cls-2" d="M140.69,79.74c.41.45.82.93,1.21,1.41.1.11.18.21.28.34.36.49.73,1,1.08,1.51l.23.35c.43.64.83,1.3,1.23,2,3.65,6.26,9.49,10,14.68,10s11-3.75,14.69-10c.41-.7.82-1.38,1.24-2l.19-.27c.36-.54.74-1.07,1.14-1.57a2.62,2.62,0,0,1,.24-.3c.4-.5.82-1,1.25-1.45a1.75,1.75,0,0,1,.2-.19,15,15,0,0,1,7-4.14L184,74.66H184l-5.14-3-5.28-3-14.1,7.63,0,0,0,0-14.11-7.63-5.27,3-5.15,3h-.06l-1.31.74a15.13,15.13,0,0,1,7,4.12C140.55,79.58,140.6,79.67,140.69,79.74Zm13-.61h11.94V83.2c-1.41-1.71-4.14-1.36-4.14-1.36v5.87s.11,2.88,1.12,4.14h-5.9c1-1.25,1.12-4.14,1.12-4.14V81.84s-2.72-.35-4.14,1.36Z"/><path class="cls-2" d="M136.6,126.46a13.45,13.45,0,0,0,4.21.65,3.6,3.6,0,0,0,.13-.42,6.87,6.87,0,0,0,.22-.84,23.5,23.5,0,0,0,.37-3.78,5.22,5.22,0,0,1-2-2.1,2.65,2.65,0,0,0-2.56-1.73,8.19,8.19,0,0,0-3.88,1.35A6.74,6.74,0,0,0,136.6,126.46Z"/><path class="cls-2" d="M170.36,113.82c-2.84,3.06-8.38,8.39-8.66,8.67l-.33.34-17.52-.28a17.79,17.79,0,0,1-.57,4.27l-.15.56L164,131.1c2.17-1.51,8.14-5.84,10.45-7.54a10.06,10.06,0,0,1-1.47-7.39A10.54,10.54,0,0,1,170.36,113.82Z"/><path class="cls-2" d="M172.73,92.87c-4,4-7.91,5.46-11.37,5.8-.63.06-1.26.1-1.91.1h-.08c-.65,0-1.29,0-1.92-.1a16,16,0,0,1-1.87-.29,7,7,0,0,0,.3,4.54,7.18,7.18,0,0,0,4.39,3.59l.73.29v.78a7.23,7.23,0,0,0,5.73,6.7c.91-.93,1.74-1.77,2.34-2.46-1.13-2.66-.54-5.37,1.11-6.7-.07.28-.79,6.93,4.57,9.4l.88.42-.26.93c-.09.28-1.88,6.71,4.61,9.11l1.15.43-.51,1.11a7.18,7.18,0,0,0,3.33,9.4h13V125.65a8.2,8.2,0,0,1-7.09-6.87,7.53,7.53,0,0,1-5-2.8,6.09,6.09,0,0,1-.35-7,8.79,8.79,0,0,0,2.16,5.66,6.68,6.68,0,0,0,4.27,2l1,.08.08,1c0,.21.54,4.92,5,5.67v-21a27.47,27.47,0,0,1,2.1-9.53H172.73Z"/><path class="cls-2" d="M137.71,102.48l-.35,13.36,1.53.22,3.73-12.81-1.89-3.94Z"/><path class="cls-2" d="M178.89,163.73a1.72,1.72,0,0,1,.37.05c2.32.66,2.91,9,7,9.73a4.91,4.91,0,0,0,1.09.11,3.2,3.2,0,0,0,2.64-1.39s-2.05-3.2-3.59-5.36c-2-2.82-3.62-6.24-7.41-6.24h-.29a3.77,3.77,0,0,0-2,.67,7.85,7.85,0,0,0-4.27-1.3c-2.38,0-4.22,1.09-5.14,1.09h0l-8.48-.83a4.42,4.42,0,0,1-2.74-2,2.69,2.69,0,0,1-.15-.23c0-.22,0-.46,0-.67-.28-6.88-5.64-9.83-7.55-9.88,0,0,.23-1.3-.29-1.8L146.11,148,140,144.91l4.37,5.07-3.71,4.14a1.13,1.13,0,0,0-.22,1.37l1.6,1.41,2-1.23a1,1,0,0,1,.51-.09c.56,0,1.41.14,2.16.14s1.55-.18,1.64-.95c-.26,2.55-2.64,7-1.08,10.47l1.16,2.63L141,166.8l-3.5,5.88c-1.09,2-1.26,4.08-.21,5.23l1.3,1.63a12.54,12.54,0,0,0,2.26-3.21l-.6-.65a1.27,1.27,0,0,1-.17-1.63l2.2-3.63,8.85,2.07.46-.79a2.59,2.59,0,0,1,2.41-1.29,7.28,7.28,0,0,1,1.2.12,38.44,38.44,0,0,0,7,.75c3,0,5.91-.53,7.47-2.27,3.21,4.72,9.7,5.47,9.19,7.86L177.14,185c1.13-.05,2.22-.13,3.25-.27l1.62-8.41c.18-.91.35-2.15.35-2.15a15.46,15.46,0,0,1-3-3.59c-1.15-2.18-.52-3.32-1.59-6.16A1.46,1.46,0,0,1,178.89,163.73Zm-33.08-11.81a.76.76,0,1,1,.08-1.51.76.76,0,0,1,.73.81A.77.77,0,0,1,145.81,151.92Z"/><path class="cls-2" d="M133.73,171.38s2.93-1.19,3.2-2l-.39-1a1.34,1.34,0,0,1,.29-1.7l3.17-2.17,5.29,1a4.4,4.4,0,0,1-.87-2.77l-5-1.07-4.76,2.88a4.57,4.57,0,0,0-1.51,5.47Z"/><path class="cls-2" d="M171.12,185.08c.94,0,2-.06,3.13-.06,0,0,2.72-7.9,2.87-8.16a65.14,65.14,0,0,1-5.91-3.09c.81,1.19,2.77,2.57,2.38,3.62Z"/><path class="cls-3" d="M197,138.21H121.82v28.11c0,11.49,8.36,18.68,20.72,18.68,10.32,0,13,.4,16.88,4.19,2.64-2.62,4.83-3.6,9.32-4l.11-.43,2.37-7.28c-.13-.16-4-4.54-4-4.54a14.82,14.82,0,0,1-5,.59,41.91,41.91,0,0,1-7.46-.76,3.07,3.07,0,0,0-.78-.09c-.33,0-.36,0-.45.19l-.47.77-.87,1.42-1.62-.37L143.35,173l-1,1.62.15.17.88,1L143,177a13,13,0,0,1-2.78,4.07l-1.8,1.92L136.79,181l-1.23-1.53a6.06,6.06,0,0,1-.87-6l-.08,0-2,.84-.92-2L131,171a6.8,6.8,0,0,1,2.28-8.25l5.81-3.26,5.53,1.08c.13-.52.33-2.41.49-2.89a2.91,2.91,0,0,0-.31,0l-3.18,1.18-3.08-2.11a1.62,1.62,0,0,1-.11-2.3l3-4.47-7.54-9.4,11.58,4.73.77-.95,1.57-1.86,1.77,1.68a3.35,3.35,0,0,1,.93,1.66c3.19,1.24,8.91,4.88,9.41,10.81l-1.79.71v0a2.26,2.26,0,0,0,.85.7l8.27.81c.21,0,.47-.13.77-.22a13.29,13.29,0,0,1,4.39-.85,10.24,10.24,0,0,1,4.32,1,6.31,6.31,0,0,1,1.85-.37h.4c4.43,0,6.63,3.28,8.39,5.9.3.45.59.89.89,1.31,1.55,2.17,3.57,5.34,3.65,5.47l.91,1.42-1.12,1.29a5.52,5.52,0,0,1-4.37,2.15,7.5,7.5,0,0,1-1.49-.16,6.13,6.13,0,0,1-1.32-.39c-.07.43-.15,1-.24,1.39l-1.45,7.52c8.67-2.12,14.18-8.63,14.18-17.93Z"/><path class="cls-3" d="M121.82,136h58.47a9.27,9.27,0,0,1-2.13-9.26,10.14,10.14,0,0,1-2.18-1.42c-2.29,1.67-9.26,6.72-11.08,8l-.39.27-22.95-4.13h-.46a20.16,20.16,0,0,1-2.24-.12A2.23,2.23,0,0,1,136.7,131a2.31,2.31,0,0,1-.37,0,2.24,2.24,0,0,1-1.47-.91,2.17,2.17,0,0,1-.4-1.67l.09-.49a9.1,9.1,0,0,1-3.59-9.26l.1-.42.33-.23a10.87,10.87,0,0,1,1-.64l-1.67-.26a1.14,1.14,0,0,1-.94-1.3,1.12,1.12,0,0,1,1.3-.94l4,.62.36-13.9,5.91-6.22,3.69,7.72-3.9,13.37,3.51.55a1.13,1.13,0,0,1-.18,2.24h-.18l-2.85-.46c0,.08.09.13.13.22a3.08,3.08,0,0,0,1.37,1.27l17.5.27c.74-.72,2.58-2.51,4.47-4.4a9.4,9.4,0,0,1-6.14-7.76,9.12,9.12,0,0,1-5-4.53,9.49,9.49,0,0,1-.43-6.11,20.62,20.62,0,0,1-7.29-4.86H119.73a27.68,27.68,0,0,1,2.09,9.53Z"/><path class="cls-4" d="M145.9,150.41a.76.76,0,1,0-.09,1.51.77.77,0,0,0,.83-.7A.78.78,0,0,0,145.9,150.41Z"/><path class="cls-4" d="M196.9,201.37l-4.33-1.65,1.2-4.44,1.31-4.85a103.1,103.1,0,0,1-18.49,7.24,54.57,54.57,0,0,1-5.39,1.27v3.3a78,78,0,0,1-11.63,1h-.33a78.26,78.26,0,0,1-11.64-1v-3.3a53.84,53.84,0,0,1-5.39-1.27,103.18,103.18,0,0,1-18.48-7.24l1.3,4.85,1.22,4.44-4.34,1.65-4.82,1.79c5.53,2.65,13.18,6.51,20.18,8.41l-1.65,4.49s8.89,4,23.68,4.06h.21c14.82,0,23.69-4.06,23.69-4.06l-1.66-4.49c7-1.9,14.67-5.76,20.17-8.41Zm-74.67,2.09,7.13-2.35-2.11-6.83a92.51,92.51,0,0,0,14.26,5.66l-3.44,9.39A87.34,87.34,0,0,1,122.23,203.46Zm37.19,14.3a79.81,79.81,0,0,1-20.51-2.87l4.23-11.37a68.6,68.6,0,0,0,16.1,2.06h.34a68.6,68.6,0,0,0,16.1-2.06l4.22,11.37C177.12,215.88,167.68,217.76,159.42,217.76Zm21.32-8.43-3.43-9.39a92.51,92.51,0,0,0,14.26-5.66l-2.1,6.83,7.12,2.35A86.62,86.62,0,0,1,180.74,209.33Z"/><path class="cls-4" d="M262.83,115.78c11.4,0,15.21-11.53,15.37-12l1.28-4.06-4.28.13h0a30.66,30.66,0,0,1-23-11.59l-.85-1C245.5,79.83,240,72.83,230.1,69.64a9.07,9.07,0,0,1,1.25-.94c5.24-3.43,8.3-7.59,9.06-12.42,1.12-7.27-3.54-13.07-3.75-13.3l-3.18-3.9-2,4.62c-.13.3-3.47,7.7-10.48,7.7h-.52l-1.4-.08a16.75,16.75,0,0,0-5-13.22A22.31,22.31,0,0,0,198,31.46a20.37,20.37,0,0,0-3.34.25l-4.8.95,3,3.87c2.32,3,4.43,8.49,1.93,11.38a13.39,13.39,0,0,1-4,2.4c-3.23,1.48-7.64,3.53-7.64,8.77,0,3.39,2.65,6.93,7.45,9.94,14.19,8.88,22.95,18.14,26.73,28.36,5.85,15.72-1.78,24.68-9.19,29.4l-3.33,2.13,2.91,2.66a16.94,16.94,0,0,0,9.22,3.91c1,.06,2,.12,2.84.12a29.39,29.39,0,0,0,8.58-1.24,21.39,21.39,0,0,1-2.43,3.41c-4.23,4.88-9.45,7.11-16.95,7.22l-2.78,0-.22,2.78a13,13,0,0,0,4.67,10.08,11.07,11.07,0,0,0,2.61,1.7c-3.33,3-6.71,8.16-7.37,17-.55,7.41-2.33,10.15-2.35,10.18l-3.08,4.67,5.57.08c9.19,0,16.23-2.53,21.12-7.52a23.72,23.72,0,0,0,5.5-9.25A15,15,0,0,0,239,178a15.29,15.29,0,0,0,3.35.36,22,22,0,0,0,5-.6l3.56-.94-1.58-3.3c-.11-.26-3.08-6.87.12-16.31a53.46,53.46,0,0,0,2.41-10.58,19.63,19.63,0,0,0,9.11,2.13,15.12,15.12,0,0,0,12.86-6.8l1.73-3-3.21-1.32c-10.49-4.32-12.81-15.93-13.27-22.23a20.83,20.83,0,0,0,3.25.39Zm8.31,24.62A11.9,11.9,0,0,1,261,145.71h-.09c-8.45-.05-11.86-5.18-11.86-5.18a43.77,43.77,0,0,1-2.56,15.67c-3.67,10.84,0,18.59,0,18.59a18.45,18.45,0,0,1-4.25.53,10.76,10.76,0,0,1-2.64-.31,12.24,12.24,0,0,1-8.82-8.06s.65,21.58-24.66,21.58H206s2.22-3,2.89-11.68c1.2-16,12.11-18.21,12.11-18.21s-5.82-.73-8.34-3A10.22,10.22,0,0,1,209,148c8.91-.12,14.74-3.13,19.19-8.25a24.34,24.34,0,0,0,5.61-11.5s-4.79,4.32-14.05,4.32c-.81,0-1.69,0-2.58-.13a13.65,13.65,0,0,1-7.41-3.11c9.64-6.15,16.41-16.86,10.41-33-4.81-12.93-16.35-22.6-28-29.88-3.87-2.4-6-5.07-6-7.36,0-5.41,7.73-5.58,10.91-9.22,3.66-4.21,1.36-11.06-1.81-15.18a15.1,15.1,0,0,1,2.76-.22A19.2,19.2,0,0,1,211.9,40.2c6.32,6.5,3.7,13.57,3.7,13.57l1.69.33a17.45,17.45,0,0,0,3.07.3H221c9.18,0,13.29-9.54,13.29-9.54s9.76,11.94-4.61,21.28c-2.47,1.6-3.56,3.08-3.28,4.66l.23,1,1,.18c10.42,2.8,15.69,10,22.13,18.06a33.77,33.77,0,0,0,25.3,12.75h.18s-3.15,9.9-12.45,9.9h-.45a12.14,12.14,0,0,1-6.46-1.78S254.26,133.43,271.14,140.4Z"/><path class="cls-4" d="M242.8,70.88c4.26,2.25,6.73,5.27,8.9,7.94S255.86,83.94,259,85a10.79,10.79,0,0,0,3.53.57c4.76,0,9.54-2.9,11.35-6.9l1.82-4-4.41-.27c-.21,0-5.87-.51-12.19-6.93a12.63,12.63,0,0,0-9.12-4,14.42,14.42,0,0,0-7.53,2.26l-4.06,2.83ZM250,66.47A9.46,9.46,0,0,1,257,69.59c7.35,7.41,14.18,7.83,14.18,7.83a9.84,9.84,0,0,1-8.57,5.13,8,8,0,0,1-2.58-.42c-5.06-1.7-6.87-9.23-15.75-13.92A11.09,11.09,0,0,1,250,66.47Z"/><path class="cls-4" d="M244.79,110.9v.15c-2.56-20.51-17.55-35.33-34.23-44.34-1.55-.82-3-1.52-4.36-2.19,5.09.78,13.27.88,19.58-4.57,0,0-9.66,7.07-29.45.65,5.48,3.54,16.12,8.52,25.84,16.59,24.29,21.21,6.91,41.91,6.91,41.91,8.73-9,9.09-18.76,6.52-26.68a49.37,49.37,0,0,1,7.08,28.21C242,136.94,233,151,223.5,162.37a28,28,0,0,0-5.58,12.25A37.73,37.73,0,0,1,225,162.53c10.17-11.83,18.86-24.12,20-41.83,1.05,3.21,5.38,12.15,12.25,15.51C257.31,136.22,248.68,131.05,244.79,110.9Z"/><path class="cls-4" d="M115.32,186.81S113.55,184,113,176.63c-.66-8.88-4-14.06-7.37-17a10.24,10.24,0,0,0,2.6-1.7,13.1,13.1,0,0,0,4.67-10.08l-.19-2.78-2.81-.05c-7.48-.12-12.7-2.35-16.94-7.22a22.68,22.68,0,0,1-2.43-3.4,29.69,29.69,0,0,0,8.57,1.23c.91,0,1.85-.06,2.85-.12a16.9,16.9,0,0,0,9.22-3.91l2.91-2.66-3.33-2.13c-7.44-4.73-15-13.69-9.2-29.4,3.78-10.22,12.53-19.48,26.75-28.36,4.79-3,7.42-6.55,7.42-9.94,0-5.24-4.4-7.3-7.63-8.77a13.65,13.65,0,0,1-4-2.4c-2.5-2.88-.39-8.4,1.92-11.38l3-3.87-4.81-.95a22.08,22.08,0,0,0-3.34-.25,22.33,22.33,0,0,0-16.08,6.64,16.82,16.82,0,0,0-5,13.22l-1.38.08h-.51c-7,0-10.36-7.4-10.5-7.69l-2-4.63L82.11,43c-.18.24-4.86,6-3.73,13.3.76,4.83,3.81,9,9.05,12.42a9.28,9.28,0,0,1,1.26.94c-9.87,3.19-15.39,10.2-21.22,17.56l-.84,1a30.69,30.69,0,0,1-23,11.59l-4.3-.13,1.31,4.06c.15.49,4,12,15.36,12l.55,0a21.5,21.5,0,0,0,3.26-.38c-.48,6.28-2.8,17.89-13.29,22.22l-3.21,1.32,1.74,3a15.09,15.09,0,0,0,12.87,6.8A19.64,19.64,0,0,0,67,146.59a52.71,52.71,0,0,0,2.42,10.58c3.19,9.44.21,16.05.1,16.31l-1.57,3.3,3.56.94a22.26,22.26,0,0,0,5,.6,14.84,14.84,0,0,0,9.7-3.54,23.84,23.84,0,0,0,5.5,9.25c4.89,5,11.92,7.52,21.12,7.52l5.57-.08Zm-2.69,1.72C87.31,188.53,88,167,88,167a12.26,12.26,0,0,1-8.83,8,10.44,10.44,0,0,1-2.62.31,18.2,18.2,0,0,1-4.24-.53s3.68-7.75,0-18.59a44,44,0,0,1-2.54-15.67s-3.41,5.13-11.87,5.17h-.08a11.91,11.91,0,0,1-10.12-5.3c16.87-7,15.21-29.43,15.21-29.43a12.22,12.22,0,0,1-6.47,1.78H56c-9.31,0-12.46-9.9-12.46-9.9h.19A33.74,33.74,0,0,0,69,90.11C75.43,82,80.71,74.86,91.11,72.05l1-.18.22-1c.29-1.58-.79-3.06-3.27-4.66-14.37-9.35-4.6-21.28-4.6-21.28s4.08,9.53,13.29,9.53h.67a18.35,18.35,0,0,0,3.06-.31l1.7-.33s-2.63-7.07,3.7-13.57a19.15,19.15,0,0,1,13.89-5.74,14.78,14.78,0,0,1,2.75.22c-3.17,4.13-5.46,11-1.8,15.18,3.16,3.63,10.89,3.81,10.89,9.22,0,2.29-2.15,5-6,7.36-11.63,7.28-23.18,17-28,29.88-6,16.15.77,26.85,10.42,33a13.66,13.66,0,0,1-7.42,3.11,25.66,25.66,0,0,1-2.59.13c-9.25,0-14-4.32-14-4.32a24.34,24.34,0,0,0,5.58,11.5c4.47,5.12,10.3,8.13,19.21,8.25a10.14,10.14,0,0,1-3.66,7.66c-2.53,2.24-8.35,3-8.35,3s10.92,2.19,12.12,18.21c.65,8.67,2.86,11.68,2.86,11.68Z"/><path class="cls-4" d="M56.24,85.57A10.87,10.87,0,0,0,59.79,85c3.18-1,5.2-3.56,7.33-6.17s4.64-5.69,8.89-7.94l4.38-2.34-4.06-2.83a14.35,14.35,0,0,0-7.52-2.26,12.61,12.61,0,0,0-9.13,4c-6.31,6.41-12,6.92-12.18,6.93l-4.41.26,1.81,4C46.72,82.66,51.49,85.57,56.24,85.57Zm5.61-16a9.51,9.51,0,0,1,7-3.12,11.06,11.06,0,0,1,5.76,1.73C65.7,72.92,63.88,80.44,58.81,82.14a7.86,7.86,0,0,1-2.57.42c-3.72,0-7.33-2.39-8.56-5.13C47.68,77.42,54.51,77,61.85,69.6Z"/><path class="cls-4" d="M76.13,120.64a49.14,49.14,0,0,1,7.08-28.21c-2.57,7.92-2.22,17.62,6.52,26.68,0,0-17.39-20.7,6.92-41.91,9.72-8.07,20.36-13,25.83-16.59C102.69,67,93,60,93,60c6.31,5.45,14.49,5.35,19.57,4.56-1.38.67-2.82,1.37-4.34,2.19-16.7,9-31.69,23.83-34.26,44.34v-.16c-3.88,20.15-12.5,25.32-12.5,25.32,6.86-3.36,11.18-12.29,12.24-15.51,1.14,17.71,9.83,30,20,41.83a37.89,37.89,0,0,1,7.13,12.09,28,28,0,0,0-5.61-12.25C85.81,151.06,76.8,137,76.13,120.64Z"/><path class="cls-4" d="M153.69,79.13V83.2c1.41-1.7,4.14-1.36,4.14-1.36v5.87s-.09,2.88-1.12,4.14h5.9c-1-1.25-1.12-4.14-1.12-4.14V81.84s2.73-.34,4.14,1.36V79.13H153.69Z"/><path class="cls-4" d="M180.15,39.39c0-5.81-9.84-11-20.72-11h-.06c-10.87,0-20.72,5.23-20.72,11l.22,1.43,4.34,24.77-4.36,2.51-11.28,6.55h0s-2.54,1.29-3.71,2.09c-4.3,3-5.21,7.29-2.71,9.08a8.5,8.5,0,0,1,8.67-7.22c3.78,0,6.66,1.94,9,4.86a23.69,23.69,0,0,1,1.69,2.36c.66,1.06,1.31,2,2,2.9H113.45c2.14,4.27,4.16,8.79,4.16,13.7v63.9c0,15.46,12,22.85,24.92,22.85,10,0,11.36-.46,16.88,5,5.5-5.47,6.85-5,16.87-5,13,0,24.91-7.39,24.91-22.85v-63.9c0-4.91,2-9.43,4.17-13.7H176.3c.64-.89,1.3-1.84,1.95-2.9a25.43,25.43,0,0,1,1.69-2.36c2.35-2.93,5.22-4.86,9-4.86a8.5,8.5,0,0,1,8.67,7.22c2.5-1.79,1.6-6.11-2.73-9.08-1.15-.8-3.69-2.09-3.69-2.09h0L180,68.1l-4.35-2.51L180,40.82Zm-37.23,2.88,15.26,5.15V71.24L147,65.35Zm3.16,50.6a20.22,20.22,0,0,0,7.29,4.86,9.4,9.4,0,0,0,.42,6.13,9.2,9.2,0,0,0,5,4.52,9.4,9.4,0,0,0,6.13,7.76c-1.88,1.89-3.72,3.67-4.47,4.4L143,120.27a3.11,3.11,0,0,1-1.37-1.28,1.59,1.59,0,0,1-.13-.22l2.86.46h.18a1.13,1.13,0,0,0,.18-2.24l-3.51-.55,3.89-13.37-3.68-7.71-5.92,6.22-.36,13.9-4-.62a1.14,1.14,0,0,0-1.31.94,1.16,1.16,0,0,0,.95,1.3l1.67.25c-.6.34-1,.61-1,.64l-.35.24-.09.41a9.09,9.09,0,0,0,3.58,9.26l-.08.49a2.25,2.25,0,0,0,1.86,2.58,2.31,2.31,0,0,0,.37,0,2.25,2.25,0,0,0,2.17-1.73,20,20,0,0,0,2.23.12h.47l22.95,4.12.38-.26c1.83-1.27,8.8-6.32,11.08-8a10.28,10.28,0,0,0,2.18,1.43A9.3,9.3,0,0,0,180.3,136H121.81V102.42a27.77,27.77,0,0,0-2.08-9.53h26.35Zm28.36,30.69c-2.32,1.7-8.3,6-10.46,7.54l-20.85-3.72c.05-.19.1-.37.14-.56a17.79,17.79,0,0,0,.57-4.27l17.53.29.33-.34c.26-.27,5.82-5.6,8.65-8.67a11,11,0,0,0,2.62,2.35A10,10,0,0,0,174.44,123.56ZM139.53,120a5.22,5.22,0,0,0,2,2.1,23.5,23.5,0,0,1-.37,3.78,7.38,7.38,0,0,1-.22.84c-.05.17-.09.31-.13.42a13.41,13.41,0,0,1-4.21-.65,6.73,6.73,0,0,1-3.52-6.87,8.24,8.24,0,0,1,3.89-1.35A2.64,2.64,0,0,1,139.53,120Zm-2.17-4.13.35-13.35,3-3.17,1.9,3.93-3.74,12.81ZM174.25,185c-1.14,0-2.19,0-3.14.06l2.48-7.68c.39-1.06-1.57-2.43-2.37-3.63a63.84,63.84,0,0,0,5.91,3.1C177,177.13,174.25,185,174.25,185Zm7.79-8.72-1.62,8.4c-1,.14-2.13.22-3.26.26l1.71-8.08c.51-2.4-6-3.14-9.19-7.86-1.56,1.75-4.51,2.27-7.47,2.27a37.47,37.47,0,0,1-7-.76,8.63,8.63,0,0,0-1.21-.11,2.56,2.56,0,0,0-2.4,1.29l-.48.79-8.84-2.07-2.2,3.62a1.26,1.26,0,0,0,.17,1.63l.6.65a12.15,12.15,0,0,1-2.25,3.21l-1.32-1.63c-1-1.16-.87-3.27.22-5.23l3.51-5.88,7.49,1.07-1.17-2.64c-1.56-3.48.82-7.92,1.07-10.47-.08.77-.79.94-1.63.94s-1.6-.14-2.16-.14a1,1,0,0,0-.51.09l-2,1.23-1.6-1.41a1.12,1.12,0,0,1,.22-1.37l3.7-4.13L140,144.91l6.14,3.06,1.86-2.25c.52.5.3,1.8.3,1.8,1.91,0,7.28,3,7.56,9.88,0,.2,0,.44,0,.66l.14.23a4.48,4.48,0,0,0,2.75,2l8.48.83h0c.93,0,2.78-1.09,5.15-1.09a7.87,7.87,0,0,1,4.27,1.3,3.72,3.72,0,0,1,2-.67H179c3.8,0,5.37,3.41,7.41,6.24,1.54,2.16,3.58,5.36,3.58,5.36a3.16,3.16,0,0,1-2.63,1.39,5.58,5.58,0,0,1-1.09-.11c-4.08-.74-4.66-9.07-7-9.73a1.17,1.17,0,0,0-.37,0,1.26,1.26,0,0,0-1.08.65c1.06,2.84.45,4,1.59,6.17a15.68,15.68,0,0,0,3,3.59S182.22,175.39,182,176.31Zm-45.51-7.95.39,1c-.25.85-3.19,2-3.19,2l-.64-1.37a4.58,4.58,0,0,1,1.52-5.47l4.76-2.88,5,1.07a4.47,4.47,0,0,0,.86,2.78l-5.29-1-3.16,2.17A1.32,1.32,0,0,0,136.53,168.36Zm46.31,15.89,1.45-7.52c.07-.44.17-1,.23-1.39a6.13,6.13,0,0,0,1.32.39,7.52,7.52,0,0,0,1.5.16,5.52,5.52,0,0,0,4.37-2.15l1.12-1.29-.91-1.42c-.09-.14-2.1-3.3-3.65-5.47-.3-.42-.6-.85-.89-1.31-1.77-2.62-4-5.9-8.4-5.9h-.4a6.31,6.31,0,0,0-1.86.37,10,10,0,0,0-4.31-1,13.41,13.41,0,0,0-4.4.85c-.29.09-.56.18-.77.22L159,158a2.15,2.15,0,0,1-.85-.71v0l1.79-.71c-.5-5.93-6.23-9.57-9.42-10.81a3.43,3.43,0,0,0-.93-1.66l-1.79-1.68-1.56,1.87-.77.95-11.58-4.73,7.54,9.4-3,4.47a1.62,1.62,0,0,0,.11,2.3l3.07,2.1,3.19-1.18a2.91,2.91,0,0,1,.31,0c-.15.48-.35,2.37-.48,2.89l-5.53-1.08-5.81,3.26a6.81,6.81,0,0,0-2.28,8.25l.64,1.4.92,2,2-.84s.06,0,.08,0a6,6,0,0,0,.87,6l1.23,1.54,1.64,2.07,1.8-1.93A12.8,12.8,0,0,0,143,177l.39-1.26-.88-1-.15-.17,1-1.62,7.21,1.69,1.62.37.87-1.42.47-.77c.09-.16.11-.19.45-.19a3.59,3.59,0,0,1,.78.09,40.92,40.92,0,0,0,7.46.76,14.63,14.63,0,0,0,5-.59s3.87,4.37,4,4.54l-2.37,7.27-.11.44c-4.49.36-6.68,1.34-9.32,4-3.84-3.79-6.56-4.19-16.89-4.19-12.35,0-20.72-7.19-20.72-18.68v-28.1H197l0,28.1C197,175.63,191.51,182.13,182.84,184.25Zm16.25-91.38a27.57,27.57,0,0,0-2.1,9.54v21c-4.41-.73-4.93-5.45-4.95-5.66l-.09-1-.94-.08a6.69,6.69,0,0,1-4.26-2A8.8,8.8,0,0,1,184.6,109a6.09,6.09,0,0,0,.35,7,7.55,7.55,0,0,0,5,2.8,8.21,8.21,0,0,0,7.09,6.87v10.27H184a7.15,7.15,0,0,1-3.33-9.4l.51-1.11L180,125c-6.49-2.39-4.71-8.83-4.61-9.1l.26-1-.88-.41c-5.37-2.47-4.64-9.13-4.57-9.4-1.65,1.33-2.25,4-1.11,6.7-.61.69-1.44,1.54-2.34,2.46a7.24,7.24,0,0,1-5.72-6.71v-.78l-.73-.29a7.23,7.23,0,0,1-4.39-3.6,7,7,0,0,1-.31-4.54,14.31,14.31,0,0,0,1.88.29c.63.06,1.27.1,1.92.1h.08c.65,0,1.28,0,1.91-.1,3.46-.34,7.33-1.82,11.37-5.8h26.32ZM178.83,71.68l5.13,3H184l1.29.74a15.13,15.13,0,0,0-7,4.14l-.2.19c-.42.46-.85,1-1.25,1.45l-.23.3c-.4.51-.77,1-1.13,1.57l-.19.27c-.43.63-.84,1.31-1.24,2-3.66,6.26-9.5,10-14.7,10s-11-3.75-14.68-10c-.4-.68-.79-1.34-1.22-2-.09-.12-.16-.24-.24-.35-.36-.51-.72-1-1.09-1.5a3.55,3.55,0,0,0-.27-.35c-.4-.48-.81-1-1.22-1.41-.08-.06-.14-.15-.22-.22a15,15,0,0,0-7-4.12l1.31-.74h.06l5.13-3,5.28-3,14.11,7.63,0,0,0,0,14.11-7.63Zm-7-6.32-11.24,5.89V47.42l15.25-5.15ZM159.41,44.8l-16.73-6.57c1.43-3.34,8-6.19,16.73-6.19s15.3,2.85,16.72,6.19Z"/><path class="cls-4" d="M30.08,295.35V265.86h17.4V255.13H0v10.73H17.4v29.49Zm35.15-40.22H52.55v40.22H65.23Zm9.27,0v40.22H86.16V273.13l21.71,22.22h10.82V255.13H107v22.05L85.82,255.13Zm69.09,25,14.62,15.21h16.31l-20.37-21,19.61-19.26H158.38l-14.79,15.12h-3.38V255.13H128v40.22h12.25V280.14ZM199.72,254c-16.47,0-26.36,9.3-26.36,21.29s9.89,21.29,26.36,21.29S226,287.32,226,275.32,216.11,254,199.72,254Zm0,32.78c-8.19,0-13.43-4.9-13.43-11.49s5.24-11.4,13.43-11.4,13.44,4.81,13.44,11.4S207.83,286.81,199.72,286.81Zm72.74-31.68H231.82v40.22h12.25v-14h26.61v-8.87H244.07v-7.1h28.39Zm46.12,0H277.94v40.22h12.25v-14H316.8v-8.87H290.19v-7.1h28.39Z"/><path class="cls-5" d="M562.42,82.56l-26.39,63H518.81l-13-50.25c-.79-3.1-1.47-4.23-3.87-5.54-3.92-2.12-10.38-4.11-16.07-5.35l.38-1.83H514A7.58,7.58,0,0,1,521.49,89l6.86,36.44,17-42.86ZM629.89,125c.07-16.62-23-17.54-22.82-25,0-2.26,2.2-4.66,6.91-5.28A30.88,30.88,0,0,1,630,97.55L632.9,84.2a43.83,43.83,0,0,0-15.24-2.79c-16.1,0-27.43,8.56-27.53,20.81-.1,9.07,8.09,14.13,14.26,17.14,6.35,3.09,8.48,5.07,8.46,7.83-.05,4.22-5.06,6.09-9.76,6.16-8.18.13-12.93-2.22-16.72-4l-3,13.8c3.8,1.75,10.83,3.27,18.11,3.35,17.12,0,28.31-8.46,28.36-21.55m42.52,20.56h15.07l-13.15-63H660.42a7.41,7.41,0,0,0-6.93,4.62L629,145.53h17.11l3.4-9.41h20.9Zm-18.17-22.31,8.57-23.65,4.94,23.65ZM585.7,82.56l-13.47,63H555.94l13.47-63Z"/><g class="cls-6"><rect class="cls-2" x="307.17" y="60.84" width="160.63" height="106.24"/></g><rect class="cls-7" x="366.3" y="79.36" width="42.37" height="69.21"/><path class="cls-8" d="M370.67,114a43.91,43.91,0,0,1,16.81-34.6,44,44,0,1,0,0,69.21A43.92,43.92,0,0,1,370.67,114Z"/><path class="cls-9" d="M458.69,114a44,44,0,0,1-71.21,34.6,44,44,0,0,0,0-69.21A44,44,0,0,1,458.69,114Z"/><path class="cls-10" d="M842.56,88.88,829,119.74h-1.37V82.17H808.36v63.59h16.35a11,11,0,0,0,10-6.72l13.56-30.86h1.37v37.58h19.27V82.17H852.56A11,11,0,0,0,842.56,88.88Z"/><path class="cls-10" d="M770.29,90.52l-8,29.22h-1.37l-8-29.22a11.09,11.09,0,0,0-10.57-8.35H723.05v63.59h19.26V108.18h1.38l11,37.58h13.76l11-37.58h1.38v37.58h19.27V82.17H780.87A11.09,11.09,0,0,0,770.29,90.52Z"/><path class="cls-10" d="M877.16,111.07v34.69h19.23V125.52h20.68a20.73,20.73,0,0,0,19.44-14.45Z"/><path class="cls-11" d="M917.07,82.17H874.41c2.59,14.79,14.92,26,29.76,26H937.3a22.9,22.9,0,0,0,.41-4.34C937.71,91.87,928.47,82.17,917.07,82.17Z"/><path class="cls-12" d="M628.74,258.2a28.43,28.43,0,0,1,3.31,5.57l-25.17,18.8-10.52-6.68v-8l10.52,6.68Z"/><path class="cls-13" d="M585.63,275.32c0-.36,0-.72,0-1.07l-6.37-.32c0,.46,0,.93,0,1.4a28.1,28.1,0,0,0,8.1,19.79l4.52-4.58a21.54,21.54,0,0,1-6.23-15.22Z"/><path class="cls-14" d="M606.87,253.79c.36,0,.71,0,1.06,0l.32-6.46q-.68,0-1.38,0a27,27,0,0,0-10.57,2.12,27.37,27.37,0,0,0-9,6.08l4.52,4.58a21,21,0,0,1,15-6.32Z"/><path class="cls-15" d="M606.87,296.86c-.35,0-.71,0-1.06,0l-.32,6.46,1.38,0a27.22,27.22,0,0,0,10.57-2.12,27.63,27.63,0,0,0,9-6.08l-4.51-4.58a21.31,21.31,0,0,1-6.89,4.68A21,21,0,0,1,606.87,296.86Z"/><path class="cls-16" d="M618.85,257.55l5.37-4a27.29,27.29,0,0,0-17.36-6.22v6.47A21,21,0,0,1,618.85,257.55Z"/><path class="cls-12" d="M634.5,275.32a29,29,0,0,0-.43-5l-6,4.44v.57a21.71,21.71,0,0,1-1.83,8.74,21.23,21.23,0,0,1-5.17,7.22l4.29,4.81a28.15,28.15,0,0,0,9.09-20.77Z"/><path class="cls-17" d="M606.87,296.86a20.81,20.81,0,0,1-8.61-1.86,21.08,21.08,0,0,1-7.14-5.24l-4.73,4.35a27.56,27.56,0,0,0,9.27,6.81,27.12,27.12,0,0,0,11.21,2.4Z"/><path class="cls-18" d="M592.63,259.36l-4.29-4.8a28,28,0,0,0-6.73,9.4,28.45,28.45,0,0,0-2.37,11.36h6.39a21.56,21.56,0,0,1,7-16Z"/><g class="cls-19"><path class="cls-12" d="M738.69,263.34l7.9-5.84H720.13v35.07h26.46v-5.84H727.68v-9h16.13v-5.84H727.68v-8.57Z"/><path class="cls-12" d="M702.33,271.16h-9.18v-7.83h14.66l7.9-5.85H685.6v35.07h15.76c8.83,0,13.91-4,13.91-11C715.27,274.84,710.67,271.16,702.33,271.16ZM701,286.71h-7.87V277H701c4.78,0,7,1.63,7,4.86S705.66,286.71,701,286.71Z"/><path class="cls-12" d="M766,257.5h-14.4v35.06h7.55v-9.93H766c9.19,0,14.87-4.85,14.87-12.59S775.23,257.5,766,257.5Zm-.16,19.29h-6.69V263.34h6.69c4.83,0,7.5,2.39,7.5,6.72S770.71,276.79,765.88,276.79Z"/><path class="cls-12" d="M674.27,284.29a13.15,13.15,0,0,1-6.35,1.59c-6.64,0-11.45-4.75-11.45-11.28s4.81-11.3,11.45-11.3a11.22,11.22,0,0,1,6.69,2.08l5.28-3.9-.36-.25a17.62,17.62,0,0,0-11.9-4.16,18.78,18.78,0,0,0-13,4.86,16.92,16.92,0,0,0-5.18,12.49,17.48,17.48,0,0,0,5.14,12.67,18.4,18.4,0,0,0,13,5.05,17.53,17.53,0,0,0,13.08-5.22l-4.73-3.53Z"/><path class="cls-12" d="M810.84,271.16h-9.18v-7.83h19.73v-5.85H794.11v35.07h15.74c8.84,0,13.91-4,13.91-11C823.78,274.84,819.19,271.16,810.84,271.16Zm-1.31,15.55h-7.87V277h7.87c4.78,0,7,1.63,7,4.86S814.19,286.71,809.53,286.71Z"/><path class="cls-12" d="M909.58,292.5h-7.65V257.43h7.65v14.73h4.16L925,257.43h8.67l-13.34,16.68,15.5,18.39H925.66l-11.39-13.79h-4.69Z"/><path class="cls-12" d="M851.56,285.83H835.37l-2.74,6.81h-8.15l15.19-35.06h8.14l14.94,35.06H854.3ZM849,279.48l-5.51-13.62L838,279.48Z"/><path class="cls-12" d="M873.05,257.58v14.64h15.84V257.58h7.89v35.06h-7.89V278.83H873.05v13.81h-7.89V257.58Z"/></g><path id="path60" class="cls-4" d="M532.57,251.72v26.9H523V259.75h-9.24v18.87h-9.61v-26.9Z"/><path id="path62" class="cls-20" d="M484.39,279.58c8.59,0,15-5.27,15-13.27,0-7.73-4.71-12.75-12.58-12.75A12.35,12.35,0,0,0,477.9,257a8.87,8.87,0,0,1,8.64-7.89h8.36l4.17-8s-9.26.21-13.57.21c-9.84.18-16.48,9.12-16.48,20C469,274,475.5,279.58,484.39,279.58Zm.05-18.95c3.19,0,5.4,2.1,5.4,5.68,0,3.23-2,5.89-5.4,5.9s-5.5-2.47-5.5-5.84C478.94,262.78,481.15,260.63,484.44,260.63Z"/><path id="path64" class="cls-4" d="M461.2,269.61a14.43,14.43,0,0,1-5.66,1.56c-3.89.11-7.36-2.35-7.36-6.72s3.06-6.7,7.26-6.7c2.58,0,6,1.78,6,1.78s2.5-4.58,3.79-6.87a15,15,0,0,0-9.19-2.77c-9.25,0-16.42,6-16.42,14.51s6.74,14.48,16.42,14.3a19.48,19.48,0,0,0,8.72-2.51Z"/><path id="path66" class="cls-21" d="M343.1,244.26l13.32,23.82V282.6l-13.3,23.77Z"/><path id="path68" class="cls-22" d="M394.25,259.41l12.49-7.65,25.55,0-38,23.29Z"/><path id="path70" class="cls-23" d="M394.18,244.12l.07,31.53-13.35-8.2V220.32l13.28,23.8Z"/><path id="path72" class="cls-24" d="M432.29,251.74l-25.55,0-12.56-7.64-13.28-23.8,51.39,31.42Z"/><path id="path74" class="cls-25" d="M394.25,306.5V291.2l-13.35-8.05v47.18Z"/><path id="path76" class="cls-26" d="M406.71,298.92l-50.29-30.84L343.1,244.26l89.13,54.63-25.52,0Z"/><path id="path78" class="cls-27" d="M380.91,330.33l13.34-23.83,12.46-7.58,25.52,0Z"/><path id="path80" class="cls-28" d="M343.12,306.37,381,283.16l-12.74-7.82-11.85,7.26Z"/><path id="path82" class="cls-4" d="M448.18,296.72a2.88,2.88,0,0,1-1.14.85,3.84,3.84,0,0,1-1.5.28,4,4,0,0,1-1.49-.25,3.19,3.19,0,0,1-1.92-1.84,4,4,0,0,1-.27-1.45,3.74,3.74,0,0,1,.26-1.39,3.2,3.2,0,0,1,.73-1.12A3.55,3.55,0,0,1,444,291a3.48,3.48,0,0,1,1.39-.28,5.22,5.22,0,0,1,1.52.21,2.68,2.68,0,0,1,1.18.68l-.56,1a2.48,2.48,0,0,0-.94-.55,3.26,3.26,0,0,0-1-.16,2.47,2.47,0,0,0-.89.17,2.49,2.49,0,0,0-.75.49,2.45,2.45,0,0,0-.52.76,2.48,2.48,0,0,0-.19,1,2.4,2.4,0,0,0,.2,1,2.46,2.46,0,0,0,.53.77,2.36,2.36,0,0,0,.79.48,2.77,2.77,0,0,0,1,.17,2.48,2.48,0,0,0,1.11-.25,2.77,2.77,0,0,0,.85-.63Zm1.59,1v-6.78H451v5l4-5h1.22v6.79H455v-5.06l-4,5.06h-1.22Zm14.48-1a2.74,2.74,0,0,1-1.14.85,3.84,3.84,0,0,1-1.5.28,4,4,0,0,1-1.49-.25,3.19,3.19,0,0,1-1.92-1.84,4,4,0,0,1-.27-1.45,3.74,3.74,0,0,1,.26-1.39,3.2,3.2,0,0,1,.73-1.12A3.62,3.62,0,0,1,460,291a3.37,3.37,0,0,1,1.4-.28,5.22,5.22,0,0,1,1.52.21,2.68,2.68,0,0,1,1.18.68l-.56,1a2.48,2.48,0,0,0-.94-.55,3.26,3.26,0,0,0-1-.16,2.38,2.38,0,0,0-1.64.66,2.45,2.45,0,0,0-.52.76,2.48,2.48,0,0,0-.19,1,2.4,2.4,0,0,0,.2,1,2.46,2.46,0,0,0,.53.77,2.27,2.27,0,0,0,.79.48,3,3,0,0,0,.95.17,2.53,2.53,0,0,0,1.12-.25,2.77,2.77,0,0,0,.85-.63Zm.63-5.81h6.25v1.2h-2.51v5.58H467.4v-5.58h-2.52v-1.2Z"/><path id="path84" class="cls-20" d="M476.83,297.63A3.31,3.31,0,0,0,478,297l-.37-.95a2.6,2.6,0,0,1-.89.5,3.34,3.34,0,0,1-1.21.21,2.59,2.59,0,0,1-1.67-.53,2.07,2.07,0,0,1-.73-1.51h5.27a3.27,3.27,0,0,0,.08-.81,3.07,3.07,0,0,0-.26-1.27,2.76,2.76,0,0,0-.67-1,3,3,0,0,0-1-.64,3.54,3.54,0,0,0-1.24-.23,3.78,3.78,0,0,0-1.52.29,3.17,3.17,0,0,0-1.79,1.87,3.9,3.9,0,0,0-.23,1.39,4,4,0,0,0,.26,1.46,3.09,3.09,0,0,0,.74,1.12,3.17,3.17,0,0,0,1.16.72,4.57,4.57,0,0,0,1.52.25,5,5,0,0,0,1.38-.22Zm-3.09-5.23a2.17,2.17,0,0,1,1.51-.51,2,2,0,0,1,1.42.48,1.84,1.84,0,0,1,.56,1.33h-4.16a2.11,2.11,0,0,1,.67-1.3Z"/><path id="path86" class="cls-4" d="M480.16,290.91h1.11l2.64,3.36,2.5-3.36h1.08v6.79h-1.22v-5l-2.38,3.15h0l-2.47-3.15v4.95h-1.22Z"/><path id="path88" class="cls-20" d="M490.8,290.93a3.86,3.86,0,0,0-1,.45l.32,1a7.34,7.34,0,0,1,.83-.35,3.18,3.18,0,0,1,1.06-.15,1.9,1.9,0,0,1,.82.16,1.11,1.11,0,0,1,.47.44,1.65,1.65,0,0,1,.21.68,5.75,5.75,0,0,1,.06.87,2.15,2.15,0,0,0-.84-.35,6.42,6.42,0,0,0-.87-.09,3.77,3.77,0,0,0-1,.15,2.31,2.31,0,0,0-.83.41,1.9,1.9,0,0,0-.54.68,2.24,2.24,0,0,0-.2.92,2.06,2.06,0,0,0,.58,1.55,2.13,2.13,0,0,0,1.53.55,2.7,2.7,0,0,0,1.37-.3,2.88,2.88,0,0,0,.83-.68v.87h1.14v-4.16a3.11,3.11,0,0,0-.59-2.05,2.46,2.46,0,0,0-2-.73A4.64,4.64,0,0,0,490.8,290.93Zm2,5.5a1.82,1.82,0,0,1-1.09.29,1.32,1.32,0,0,1-.91-.29,1,1,0,0,1-.33-.78.93.93,0,0,1,.13-.5,1.22,1.22,0,0,1,.33-.35,1.52,1.52,0,0,1,.47-.2,2,2,0,0,1,.54-.07,2.53,2.53,0,0,1,1.54.45v.86a3.84,3.84,0,0,1-.68.59Zm12.59-7.91a2,2,0,0,0,.7-.59l-.67-.95a1.28,1.28,0,0,1-.58.47,3.4,3.4,0,0,1-.71.2l-.23,0-.64.11a4.38,4.38,0,0,0-1.08.34,3.28,3.28,0,0,0-1.32,1,4.38,4.38,0,0,0-.78,1.36,7.1,7.1,0,0,0-.36,1.58,14.63,14.63,0,0,0-.09,1.58,5.67,5.67,0,0,0,.25,1.76,3.63,3.63,0,0,0,.73,1.33,3.08,3.08,0,0,0,1.14.84,3.87,3.87,0,0,0,2.94,0,3.54,3.54,0,0,0,1.11-.76,3.35,3.35,0,0,0,.73-1.11,3.55,3.55,0,0,0,.26-1.34,4.09,4.09,0,0,0-.23-1.39,3,3,0,0,0-.63-1.06,2.77,2.77,0,0,0-1-.68,3.53,3.53,0,0,0-1.33-.25,3.35,3.35,0,0,0-1.62.44,3.15,3.15,0,0,0-.64.5,2.1,2.1,0,0,0-.45.65h0a6.68,6.68,0,0,1,.13-1,4.91,4.91,0,0,1,.3-.94,3.08,3.08,0,0,1,.51-.81,2.26,2.26,0,0,1,.8-.57,4,4,0,0,1,1.06-.34l.24-.05.69-.13a3.84,3.84,0,0,0,.81-.25ZM501.14,295a4,4,0,0,1-.17-1.19,2,2,0,0,1,.28-.65,2.35,2.35,0,0,1,.5-.55,2.63,2.63,0,0,1,1.59-.54,2,2,0,0,1,1.64.66,2.43,2.43,0,0,1,.56,1.65,2.37,2.37,0,0,1-.17.9,2.16,2.16,0,0,1-1.17,1.22,2.29,2.29,0,0,1-.92.18,2.05,2.05,0,0,1-.93-.21,2.07,2.07,0,0,1-.74-.57,2.77,2.77,0,0,1-.47-.9Zm15-4.13H515v6.79h1.22Zm-7.59,0h1.22v2h1.12a3.72,3.72,0,0,1,1.31.2,2.31,2.31,0,0,1,.84.52,1.84,1.84,0,0,1,.44.75,3.16,3.16,0,0,1,.13.87,2.68,2.68,0,0,1-.15.89,1.93,1.93,0,0,1-.47.77,2.33,2.33,0,0,1-.88.55,3.85,3.85,0,0,1-1.36.21h-2.21v-6.79Zm1.22,3.17v2.49h.88a2,2,0,0,0,1.29-.33,1.12,1.12,0,0,0,.37-.92,1.18,1.18,0,0,0-.38-.94,2,2,0,0,0-1.26-.32h-.9Z"/><path id="path90" class="cls-4" d="M524.24,296.72a2.88,2.88,0,0,1-1.14.85,3.84,3.84,0,0,1-1.5.28,4,4,0,0,1-1.49-.25,3.19,3.19,0,0,1-1.92-1.84,4,4,0,0,1-.27-1.45,3.74,3.74,0,0,1,.26-1.39,3.2,3.2,0,0,1,.73-1.12A3.55,3.55,0,0,1,520,291a3.29,3.29,0,0,1,1.39-.28,5.22,5.22,0,0,1,1.52.21,2.68,2.68,0,0,1,1.18.68l-.56,1a2.48,2.48,0,0,0-.94-.55,3.26,3.26,0,0,0-1-.16,2.47,2.47,0,0,0-.89.17,2.49,2.49,0,0,0-.75.49,2.45,2.45,0,0,0-.52.76,2.48,2.48,0,0,0-.19,1,2.4,2.4,0,0,0,.2,1,2.46,2.46,0,0,0,.53.77,2.27,2.27,0,0,0,.79.48,3,3,0,0,0,1,.17,2.53,2.53,0,0,0,1.12-.25,2.77,2.77,0,0,0,.85-.63Zm.63-5.81h6.25v1.2h-2.51v5.58h-1.22v-5.58h-2.52v-1.2Z"/><path id="path92" class="cls-20" d="M533.67,290.91h-1.22v9.81h1.22v-3.34a2.5,2.5,0,0,0,.88.35,4.57,4.57,0,0,0,1.05.12,3.85,3.85,0,0,0,1.47-.28,3.78,3.78,0,0,0,1.13-.77,3.44,3.44,0,0,0,.72-1.16,4.21,4.21,0,0,0,0-2.83,3.31,3.31,0,0,0-.63-1.09,2.65,2.65,0,0,0-1-.71,3.27,3.27,0,0,0-1.32-.26,3.39,3.39,0,0,0-1.34.28,2.48,2.48,0,0,0-1,.68Zm.85,1.26a2.28,2.28,0,0,1,1.13-.28,2.45,2.45,0,0,1,1,.17,1.74,1.74,0,0,1,.7.49,2,2,0,0,1,.43.74,3.05,3.05,0,0,1,0,1.95,2.23,2.23,0,0,1-.47.78,2.27,2.27,0,0,1-.75.51,2.44,2.44,0,0,1-1,.19,4,4,0,0,1-.93-.11,3.08,3.08,0,0,1-.9-.42v-3.36a2.61,2.61,0,0,1,.85-.66Zm14-1.26h-1.22v6.79h1.22Zm-7.6,0h1.22v2h1.12a3.72,3.72,0,0,1,1.31.2,2.31,2.31,0,0,1,.84.52,1.84,1.84,0,0,1,.44.75,3.16,3.16,0,0,1,.13.87,2.68,2.68,0,0,1-.15.89,1.93,1.93,0,0,1-.47.77,2.25,2.25,0,0,1-.88.55,3.85,3.85,0,0,1-1.36.21h-2.21v-6.79Zm1.22,3.17v2.49H543a2,2,0,0,0,1.29-.33,1.12,1.12,0,0,0,.37-.92,1.18,1.18,0,0,0-.38-.94,2,2,0,0,0-1.26-.32h-.91Z"/><path id="path94" class="cls-4" d="M554.37,294.18,557,297.7h-1.49l-2-2.75-2,2.75H550l2.59-3.46-2.44-3.33h1.5l1.86,2.56,1.89-2.56h1.42ZM447.28,306.09h-3.74v5.66h-1.22V305h6.18v6.79h-1.22Zm8.14.07H453l-.08,1.15a13.66,13.66,0,0,1-.36,2.34A4.31,4.31,0,0,1,452,311a1.72,1.72,0,0,1-.81.65,2.84,2.84,0,0,1-1,.17l-.09-1.18a.9.9,0,0,0,.45-.1,1.21,1.21,0,0,0,.5-.49,4.35,4.35,0,0,0,.45-1.1,10,10,0,0,0,.26-1.89l.12-2.12h4.78v6.79h-1.22v-5.59Z"/><path id="path96" class="cls-20" d="M459.92,305a4,4,0,0,0-1.05.45l.33,1c.28-.13.55-.25.83-.35a3.2,3.2,0,0,1,1.06-.14,1.76,1.76,0,0,1,.82.16,1.15,1.15,0,0,1,.47.43,2.17,2.17,0,0,1,.21.68,5.94,5.94,0,0,1,.06.87,2.13,2.13,0,0,0-.84-.34,4.31,4.31,0,0,0-.88-.09,3.75,3.75,0,0,0-1,.14,2.31,2.31,0,0,0-.83.41,2.09,2.09,0,0,0-.54.68,2.29,2.29,0,0,0-.2.93,2,2,0,0,0,.58,1.54,2.11,2.11,0,0,0,1.53.55,2.58,2.58,0,0,0,2.2-1v.88h1.14v-4.17a3.19,3.19,0,0,0-.59-2.05,2.48,2.48,0,0,0-2-.72,4.74,4.74,0,0,0-1.24.16Zm2.05,5.5a1.82,1.82,0,0,1-1.09.29,1.35,1.35,0,0,1-.92-.29,1,1,0,0,1-.32-.77,1,1,0,0,1,.12-.5,1.11,1.11,0,0,1,.33-.35,1.68,1.68,0,0,1,.47-.21,2.5,2.5,0,0,1,.54-.07,2.63,2.63,0,0,1,1.55.45v.86A3.17,3.17,0,0,1,462,310.47Z"/><path id="path98" class="cls-4" d="M465,305h6.26v1.2h-2.52v5.59h-1.21v-5.59H465V305Z"/><path id="path100" class="cls-20" d="M476.93,311.68a3.27,3.27,0,0,0,1.2-.67l-.37-.95a2.89,2.89,0,0,1-.89.51,3.59,3.59,0,0,1-1.22.2,2.52,2.52,0,0,1-1.66-.53,2.1,2.1,0,0,1-.74-1.51h5.28a3.83,3.83,0,0,0,.08-.81,3.07,3.07,0,0,0-.26-1.27,2.88,2.88,0,0,0-.68-1,3,3,0,0,0-1-.64,3.55,3.55,0,0,0-1.25-.23,3.77,3.77,0,0,0-1.51.29,3.31,3.31,0,0,0-1.1.75,3.27,3.27,0,0,0-.69,1.12,4.15,4.15,0,0,0-.24,1.39,4.22,4.22,0,0,0,.26,1.46,3.34,3.34,0,0,0,.75,1.12,3.21,3.21,0,0,0,1.15.72,4.41,4.41,0,0,0,1.52.25,4.73,4.73,0,0,0,1.38-.22Zm-3.09-5.23a2.13,2.13,0,0,1,1.51-.52,2,2,0,0,1,1.42.48,1.93,1.93,0,0,1,.57,1.33h-4.17a2.06,2.06,0,0,1,.67-1.29ZM479.2,305h1.55l2.35,3.27-2.52,3.52h-1.49l2.63-3.52L479.2,305Zm4.2,0h1.22v6.79H483.4Zm5.58,6.79-2.69-3.52L488.8,305h-1.51l-2.37,3.27,2.54,3.52Zm5.57-.07a3.31,3.31,0,0,0,1.19-.67l-.37-.95a2.78,2.78,0,0,1-.89.51,3.57,3.57,0,0,1-1.21.2,2.53,2.53,0,0,1-1.67-.53,2.05,2.05,0,0,1-.73-1.51h5.27a3.27,3.27,0,0,0,.08-.81,3.06,3.06,0,0,0-.25-1.27,3,3,0,0,0-1.7-1.62,3.54,3.54,0,0,0-1.24-.23,3.82,3.82,0,0,0-1.52.29,3.17,3.17,0,0,0-1.79,1.87,3.9,3.9,0,0,0-.23,1.39,4,4,0,0,0,.26,1.46,3.16,3.16,0,0,0,1.9,1.84,4.33,4.33,0,0,0,1.52.25A4.68,4.68,0,0,0,494.55,311.68Zm-3.1-5.23a2.14,2.14,0,0,1,1.52-.52,2,2,0,0,1,1.41.48,1.88,1.88,0,0,1,.57,1.33h-4.17a2.06,2.06,0,0,1,.67-1.29Zm9.72-3.77c-.72,0-1.11-.4-1.18-1.19h-1.15a2.32,2.32,0,0,0,.16.84,1.78,1.78,0,0,0,.44.66,2.24,2.24,0,0,0,.72.44,2.59,2.59,0,0,0,1,.17,2.3,2.3,0,0,0,.93-.17,2.13,2.13,0,0,0,.71-.44,2,2,0,0,0,.46-.66,2.32,2.32,0,0,0,.16-.84h-1.14C502.22,302.28,501.84,302.68,501.17,302.68Zm-3.3,2.28v6.79h1.22l4-5.06v5.06h1.22V305h-1.22l-4,5.06V305Z"/></g></g></svg>