<svg width="6398" height="723" viewBox="0 0 6398 723" fill="none" xmlns="http://www.w3.org/2000/svg">
<path d="M3701.12 533.92C3735.78 533.92 3773.38 545.794 3815 582.653C3819.17 586.346 3824.72 581.758 3821.08 577.173C3780.18 525.559 3742.35 515.727 3704.62 507.419C3658.47 497.256 3634.73 471.304 3618.19 442.811C3614.9 437.138 3613.42 438.139 3613.13 445.424C3612.77 454.338 3613.38 466.133 3615.38 477.737C3613.51 477.823 3611.64 477.797 3609.76 477.797C3543.74 477.797 3490.22 424.305 3490.22 358.323C3490.22 292.336 3543.74 238.845 3609.76 238.845C3675.78 238.845 3729.3 292.336 3729.3 358.323C3729.3 363.015 3729.07 367.656 3728.55 372.211C3719.81 370.639 3702.63 370.462 3690.58 371.504C3686.05 371.895 3686.68 374.005 3690.11 374.624C3729.63 381.76 3756.78 406.237 3762.98 450.652C3763.13 451.676 3764.46 451.98 3764.99 451.096C3781.25 423.979 3790.59 392.239 3790.59 358.323C3790.59 258.504 3709.63 177.584 3609.76 177.584C3509.89 177.584 3428.92 258.504 3428.92 358.323C3428.92 458.14 3509.89 539.069 3609.76 539.069C3636.25 539.069 3662.54 533.92 3701.12 533.92V533.92ZM3714.58 468.295C3722.62 475.096 3725.07 483.178 3720.82 488.88C3718.45 492.005 3714.62 493.729 3710.02 493.729C3705.5 493.729 3700.9 492.058 3697.71 489.275C3690.4 482.884 3688.25 472.527 3693.02 466.641C3694.89 464.339 3697.92 463.071 3701.56 463.071C3705.97 463.071 3710.6 464.93 3714.58 468.295V468.295ZM3751.7 451.033C3752.88 458.953 3750.38 462.234 3747.86 462.234C3745.12 462.234 3741.68 459.021 3737.61 452.687C3733.6 446.432 3732.14 439.255 3734.12 435.631C3735.44 433.231 3738.18 432.189 3741.65 433.498C3748.36 436.034 3750.99 446.3 3751.7 451.033V451.033ZM4002.37 409.641L3981.53 384.581C3979.34 381.951 3981.21 377.968 3984.63 377.968H4028.25C4030.32 371.789 4031.5 365.187 4031.5 358.331C4031.5 326.938 4008.12 299.869 3976.03 299.869C3943.94 299.869 3920.56 326.938 3920.56 358.331C3920.56 389.726 3943.94 416.411 3976.03 416.411C3985.75 416.411 3994.66 413.928 4002.37 409.641V409.641ZM4096.71 451.995C4098.97 454.5 4097.11 458.531 4093.7 458.531H4046.1C4044.17 458.531 4042.33 457.67 4041.09 456.181L4033.02 446.486C4016.59 457.132 3997.03 463.346 3976.03 463.346C3918.09 463.346 3870.96 416.238 3870.96 358.331C3870.96 300.426 3918.09 253.314 3976.03 253.314C4033.97 253.314 4081.1 300.426 4081.1 358.331C4081.1 379.207 4074.95 398.659 4064.4 415.023L4096.71 451.995ZM4536.39 258.147H4497.54C4494.69 258.147 4492.38 260.46 4492.38 263.315V453.35C4492.38 456.2 4494.69 458.514 4497.54 458.514H4536.39C4539.24 458.514 4541.56 456.2 4541.56 453.35V263.315C4541.56 260.46 4539.24 258.147 4536.39 258.147ZM4471.03 258.147H4427.56C4425.29 258.147 4423.29 259.618 4422.62 261.777L4388.23 374.079L4350.43 261.652C4349.73 259.558 4347.76 258.147 4345.54 258.147H4315.21C4312.98 258.147 4311.01 259.558 4310.3 261.652L4272.51 374.079L4238.12 261.777C4237.45 259.618 4235.45 258.147 4233.17 258.147H4189.71C4188.05 258.147 4186.49 258.941 4185.52 260.276C4184.55 261.615 4184.29 263.33 4184.81 264.891L4248.64 455.03C4249.35 457.121 4251.32 458.531 4253.55 458.531H4288.04C4290.27 458.531 4292.24 457.121 4292.94 455.035L4330.37 343.95L4367.79 455.035C4368.5 457.121 4370.47 458.531 4372.7 458.531H4407.19C4409.42 458.531 4411.39 457.121 4412.09 455.03L4475.93 264.891C4476.45 263.33 4476.19 261.615 4475.22 260.276C4474.25 258.941 4472.69 258.147 4471.03 258.147ZM4168.36 263.315V453.35C4168.36 456.2 4166.05 458.514 4163.19 458.514H4124.35C4121.5 458.514 4119.18 456.2 4119.18 453.35V263.315C4119.18 260.46 4121.5 258.147 4124.35 258.147H4163.19C4166.05 258.147 4168.36 260.46 4168.36 263.315Z" fill="#F57D14"/>
<path d="M1409.73 258.704C1417.54 268.931 1424.16 280.042 1429.44 291.814L1279.57 403.632L1216.93 363.893V316.084L1279.57 355.824L1409.73 258.704Z" fill="#21A038"/>
<path d="M1153.01 360.519C1153.01 358.373 1153.06 356.242 1153.17 354.123L1115.21 352.241C1115.08 354.987 1115 357.759 1115 360.557C1114.98 382.42 1119.23 404.069 1127.5 424.265C1135.77 444.462 1147.9 462.806 1163.19 478.247L1190.12 451.008C1178.35 439.144 1169.01 425.041 1162.64 409.511C1156.27 393.982 1153 377.332 1153.01 360.519Z" fill="url(#paint0_linear_2_255)"/>
<path d="M1279.54 232.461C1281.65 232.461 1283.76 232.54 1285.85 232.645L1287.75 194.212C1285.03 194.082 1282.29 194.016 1279.54 194.016C1257.93 193.99 1236.52 198.284 1216.56 206.652C1196.59 215.02 1178.46 227.297 1163.19 242.779L1190.12 270.031C1201.84 258.114 1215.77 248.66 1231.12 242.212C1246.47 235.765 1262.92 232.451 1279.54 232.461Z" fill="url(#paint1_linear_2_255)"/>
<path d="M1279.54 488.578C1277.42 488.578 1275.31 488.578 1273.21 488.408L1271.31 526.827C1274.04 526.967 1276.78 527.037 1279.54 527.037C1301.14 527.06 1322.53 522.763 1342.48 514.392C1362.44 506.022 1380.56 493.743 1395.82 478.261L1368.94 451.023C1357.22 462.933 1343.28 472.382 1327.94 478.827C1312.6 485.272 1296.15 488.587 1279.54 488.578Z" fill="url(#paint2_linear_2_255)"/>
<path d="M1350.86 254.807L1382.85 230.942C1353.61 206.978 1317.11 193.933 1279.48 194V232.459C1304.96 232.427 1329.85 240.219 1350.86 254.807Z" fill="url(#paint3_linear_2_255)"/>
<path d="M1444.06 360.519C1444.08 350.514 1443.22 340.527 1441.48 330.678L1406.06 357.092C1406.06 358.231 1406.06 359.368 1406.06 360.519C1406.07 378.411 1402.37 396.106 1395.19 412.456C1388.01 428.806 1377.51 443.446 1364.38 455.428L1389.93 484.002C1406.99 468.406 1420.63 449.355 1429.96 428.083C1439.29 406.81 1444.09 383.791 1444.06 360.519Z" fill="#21A038"/>
<path d="M1279.54 488.578C1261.86 488.584 1244.37 484.832 1228.22 477.566C1212.06 470.299 1197.59 459.678 1185.75 446.393L1157.53 472.232C1172.94 489.51 1191.76 503.317 1212.78 512.758C1233.8 522.199 1256.54 527.064 1279.54 527.036V488.578Z" fill="url(#paint4_linear_2_255)"/>
<path d="M1194.69 265.608L1169.16 237.035C1152.09 252.628 1138.44 271.678 1129.11 292.95C1119.78 314.223 1114.97 337.243 1115 360.518H1153.01C1153 342.626 1156.71 324.931 1163.89 308.581C1171.07 292.232 1181.56 277.591 1194.69 265.608Z" fill="url(#paint5_linear_2_255)"/>
<path d="M2064.48 289.229L2111.56 254.523H1954V463.075H2111.56V428.369H1998.96V374.948H2095.01V340.243H1998.96V289.229H2064.48Z" fill="#21A038"/>
<path d="M1847.99 335.768H1793.29V289.215H1880.59L1927.64 254.404H1748.36V462.956H1842.2C1894.82 462.956 1925.01 439.094 1925.01 397.479C1925.01 357.667 1897.66 335.768 1847.99 335.768ZM1840.18 428.239H1793.29V370.452H1840.18C1868.64 370.452 1881.98 380.136 1881.98 399.346C1881.98 418.555 1867.78 428.239 1840.18 428.239Z" fill="#21A038"/>
<path d="M2227.37 254.493H2141.61V463.044H2186.56V403.965H2227.37C2282.09 403.965 2315.94 375.154 2315.94 329.118C2315.94 283.083 2282.09 254.493 2227.37 254.493ZM2226.42 369.233H2186.56V289.225H2226.42C2255.2 289.225 2271.09 303.441 2271.09 329.245C2271.09 355.049 2255.2 369.233 2226.42 369.233Z" fill="#21A038"/>
<path d="M1680.9 413.828C1669.29 420.12 1656.28 423.378 1643.07 423.301C1603.55 423.301 1574.88 395.068 1574.88 356.19C1574.88 317.312 1603.55 289.018 1643.07 289.018C1657.33 288.775 1671.28 293.1 1682.9 301.36L1714.35 278.187L1712.22 276.676C1693.88 260.538 1669.37 251.991 1641.32 251.991C1610.89 251.991 1583.3 262.235 1563.6 280.872C1553.64 290.468 1545.76 302.015 1540.46 314.793C1535.15 327.571 1532.54 341.305 1532.77 355.141C1532.56 369.116 1535.17 382.991 1540.43 395.937C1545.7 408.883 1553.51 420.634 1563.42 430.49C1583.21 449.867 1610.74 460.543 1640.95 460.543C1672.52 460.543 1700.11 449.527 1718.79 429.472L1690.64 408.49L1680.9 413.828Z" fill="#21A038"/>
<path d="M2494.18 335.768H2439.5V289.215H2557V254.404H2394.54V462.956H2488.27C2540.88 462.956 2571.07 439.094 2571.07 397.479C2571.2 357.667 2543.85 335.768 2494.18 335.768ZM2486.37 428.239H2439.5V370.452H2486.37C2514.83 370.452 2528.16 380.136 2528.16 399.346C2528.16 418.555 2514.09 428.239 2486.37 428.239Z" fill="#21A038"/>
<path d="M3082.14 462.657H3036.57V254.105H3082.14V341.699H3106.95L3173.93 254.105H3225.58L3146.13 353.316L3238.38 462.657H3177.91L3110.11 380.636H3082.14V462.657Z" fill="#21A038"/>
<path d="M2736.64 423.024H2640.24L2623.9 463.522H2575.4L2665.82 254.97H2714.31L2803.26 463.522H2752.99L2736.64 423.024ZM2721.55 385.236L2688.73 304.239L2655.72 385.236H2721.55Z" fill="#21A038"/>
<path d="M2864.61 254.97V342.058H2958.92V254.97H3005.91V463.522H2958.92V381.346H2864.61V463.522H2817.63V254.97H2864.61Z" fill="#21A038"/>
<path d="M735.147 197.919C733.67 196.416 732.805 195.04 731.582 193.129C730.946 192.161 730.258 191.116 729.494 189.995C731.608 187.55 733.391 184.722 734.74 181.613L740.139 169.308L726.847 167.397C724.606 167.066 720.99 166.123 716.763 165.003C708.615 162.863 698.15 160.11 686.743 158.913C690.638 157.206 693.949 154.123 696.265 149.945L698.455 145.997C698.455 145.997 697.869 140.468 695.731 138.736C696.546 137.029 697.182 135.143 697.616 133.079L699.423 124.264L690.918 121.36C689.595 120.902 688.271 120.57 686.971 120.367C686.488 118.762 685.775 117.054 684.807 115.246L679.765 105.997L670.675 111.322C668.409 112.647 666.5 114.176 664.946 115.883C663.597 115.628 662.145 115.5 660.617 115.5C660.617 115.5 655.423 114.914 649.694 117.003L642.36 109.386L633.677 100.112C625.555 91.4252 614.555 88.8517 603.351 93.1318C599.073 88.8517 592.402 85.3105 582.039 85.3105C578.525 85.3105 575.443 85.7429 573.636 85.9726C573.636 85.9726 559.376 88.571 551.356 96.1886L541.629 91.552C535.11 101.819 523.958 105.08 523.958 105.08C523.194 102.074 521.894 99.2714 520.036 96.6979L520.673 93.0809C520.673 92.979 522.862 80.7248 529.534 70.33L541.145 52.2407L524.696 54.1011C524.746 52.4704 524.671 50.534 524.441 48.2411L522.964 34.1773L510.08 40.0124C508.654 40.6485 507.457 41.2856 506.337 41.8718L503.791 36.4453L497.884 39.5021C497.298 38.0501 496.534 36.3943 495.49 34.4839L488.692 22L479.041 32.4197C478.047 33.4903 477.207 34.484 476.494 35.4267L470.638 29.5916L464.731 35.4516C463.992 34.5089 463.177 33.5153 462.184 32.4457L452.432 22L445.607 34.5349C444.564 36.4453 443.826 38.076 443.24 39.528L437.358 36.4712L434.811 41.8978C433.691 41.3116 432.494 40.6745 431.068 40.0124L418.133 34.2033L416.707 48.3181C416.478 50.5849 416.402 52.4953 416.453 54.1261L399.978 52.2666L411.614 70.3549C418.311 80.7248 420.45 92.979 420.45 93.0809L421.061 96.6979C419.203 99.2974 417.879 102.1 417.14 105.105C417.14 105.105 406.598 100.597 399.545 91.552L389.615 96.2905C378.284 88.648 371.255 85.667 359.033 85.3105C348.67 85.0299 341.999 88.8517 337.721 93.1318C326.492 88.8766 315.517 91.4501 307.42 100.138C307.42 100.138 302.098 105.921 298.737 109.412C295.376 112.927 290.411 115.832 290.411 115.832C290.411 115.832 283.357 114.252 276.101 115.908C274.548 114.201 272.612 112.672 270.321 111.322L261.204 105.997L256.188 115.297C255.221 117.08 254.533 118.762 254.075 120.367C252.777 120.57 251.453 120.902 250.129 121.36L241.674 124.315L243.432 133.079C243.864 135.194 244.475 137.08 245.315 138.786C244.832 139.729 244.4 140.723 244.043 141.767L242.617 146.022L244.781 149.971C247.073 154.123 250.357 157.232 254.279 158.939C242.846 160.136 232.406 162.888 224.233 165.028C220.031 166.123 216.415 167.092 214.175 167.422L200.832 169.359L203.862 176.237L206.281 181.715C207.656 184.773 209.464 187.601 211.552 190.046C210.762 191.167 207.401 196.441 205.899 197.944L199.151 204.797L205.619 211.93C206.434 212.797 213.691 220.415 225.429 220.44C228.637 220.44 231.82 219.88 234.978 218.759C238.109 223.651 241.827 228.619 245.213 231.064C238.975 238.401 231.871 244.771 221.763 249.586L213.309 253.612L216.95 263.267C219.318 269.101 223.927 275.496 232.839 277.941C230.929 283.649 230.013 289.05 229.198 293.865C227.288 305.304 226.473 310.042 216.415 313.584L207.376 316.743L209.973 325.966C212.061 333.481 215.193 338.45 218.579 341.736L212.571 348.36C212.571 348.36 226.83 359.061 240.809 360.36C241.012 360.386 252.929 361.15 258.276 354.322C260.415 362.066 263.802 369.201 266.883 375.672C273.198 388.971 276.559 396.843 272.332 404.027L262.783 420.231L281.55 419.441C289.749 419.109 297.362 418.6 303.957 416.969C303.957 417.327 303.932 417.657 303.906 417.989L302.378 431.899L318.827 428.435C320.559 427.925 322.189 427.237 323.666 426.447C333.85 438.37 351.165 447.669 374.49 447.669H375.839L349.026 458.675L368.556 468.841C381.415 475.541 395.701 481.147 411.997 485.91L409.73 493.733L419.534 496.611C425.187 498.267 445.633 503.694 470.536 503.694C495.439 503.694 515.86 498.267 521.538 496.611L531.316 493.733L529.049 485.936C545.372 481.172 559.657 475.567 572.515 468.867L592.045 458.701L565.207 447.695H566.557C589.881 447.695 607.17 438.396 617.356 426.472C618.833 427.262 620.463 427.95 622.193 428.46L638.642 431.925L637.14 418.04C637.114 417.708 637.09 417.352 637.09 416.995C643.659 418.626 651.298 419.109 659.471 419.467L678.237 420.256L668.74 404.078C664.487 396.894 667.874 389.022 674.164 375.723C677.245 369.252 680.631 362.117 682.77 354.373C686.386 357.124 690.282 358.78 694.152 359.647C694.152 359.647 697.157 360.539 700.034 360.614C708.335 360.869 712.486 358.5 718.189 354.908L728.553 348.386L722.492 341.762C725.879 338.501 729.011 333.532 731.099 326.043L733.721 316.794L724.657 313.636C714.573 310.093 713.784 305.355 711.875 293.915C711.06 289.101 710.168 283.675 708.233 277.992C717.145 275.522 721.728 269.126 724.097 263.318L727.713 253.637L719.259 249.611C709.15 244.797 702.045 238.427 695.782 231.089C699.193 228.644 702.911 223.675 706.069 218.784C709.2 219.906 712.384 220.44 715.618 220.466C727.356 220.466 734.638 212.848 735.428 211.981L741.895 204.848L735.147 197.919Z" fill="white"/>
<path fill-rule="evenodd" clip-rule="evenodd" d="M387.787 323.469V245.764C387.787 238.529 385.699 231.292 383.203 224.644H443.475C449 232.235 459.032 237.33 470.542 237.33C482 237.33 492.032 232.235 497.583 224.644H557.854C555.307 231.318 553.245 238.529 553.245 245.764V323.469H387.787ZM470.516 429.656C462.088 421.275 456.078 420.357 433.366 420.357C406.222 420.357 387.787 404.434 387.787 378.983V328.029H553.22V378.983C553.22 404.434 534.81 420.357 507.616 420.357C484.928 420.332 478.918 421.275 470.516 429.656Z" fill="#FFDD2D"/>
<path d="M397.383 439.263V454.779L383.914 460.205C395.295 465.377 409.428 470.523 426.029 474.319L433.668 449.428C417.373 446.091 406.015 442.601 397.383 439.263Z" fill="white"/>
<path d="M470.509 460.282C454.594 460.282 441.201 458.626 435.854 457.403L427.782 483.517C440.463 486.625 455.307 488.918 470.509 488.918C485.659 488.918 500.504 486.651 513.236 483.517L505.139 457.403C499.791 458.651 486.449 460.282 470.509 460.282Z" fill="white"/>
<path d="M543.642 439.263C534.985 442.601 523.654 446.066 507.357 449.454L515.022 474.345C531.65 470.548 545.73 465.402 557.112 460.231L543.668 454.804V439.263H543.642Z" fill="white"/>
<path d="M369.167 188.95C390.25 177.562 441.787 152.493 406.851 125.461C402.09 121.793 396.845 118.48 392.439 114.379C386.991 118.582 394.477 129.028 396.361 132.85C396.361 132.85 384.724 134.021 381.949 134.021C363.972 133.945 345.129 123.296 354.678 102.889C347.523 104.367 346.657 111.245 344.468 117.13C339.884 114.022 331.914 107.348 325.778 108.29C330.768 124.263 351.776 138.659 368.071 141.919C351.597 150.887 321.041 157.562 304.975 138.25C293.694 160.085 309.405 169.205 324.81 180.644C266.169 207.421 274.827 237.458 236.352 261.101C241.342 263.444 263.597 258.732 265.583 258.451C257.231 269.279 253.335 273.865 250.891 279.139C248.548 284.081 247.504 289.661 245.188 301.686C243.379 311.189 240.069 320.666 228.509 326.959C233.042 335.162 243.1 328.742 247.301 327.647C246.74 328.513 245.314 338.398 241.546 343.162C261.305 341.888 252.164 300.208 271.924 310.246C277.5 313.049 279.181 319.622 276.608 324.997C263.622 351.799 293.134 375.416 291.529 398.906C298.787 398.855 306.299 398.652 311.034 388.843C313.505 393.734 317.324 400.613 319.463 407.237L325.37 397.174C329.011 413.836 344.544 429.224 365.526 430.6C355.519 414.753 367.512 393.123 343.195 370.117C346.224 367.671 353.227 362.958 355.722 359.748C325.88 363.264 294.738 339.646 308.87 328.437C318.113 321.125 322.162 336.309 336.421 333.761L330.845 328.946C332.805 327.009 335.046 324.488 337.363 322.577C331.303 321.839 324.682 317.966 324.682 317.966L328.298 311.978C293.338 311.927 292.446 285.177 306.654 284.107C313.326 283.623 321.958 295.928 343.474 293.354C340.724 290.043 339.63 285.024 338.33 281.33C343.525 280.846 349.637 280.897 354.551 278.502C344.035 277.152 341.386 273.61 332.627 266.987L342.787 263.267C328.044 255.904 328.935 243.089 328.477 229.738C336.192 234.171 345.257 241.051 354.932 237.866C357.224 237.101 358.701 236.032 358.752 233.637C344.951 228.109 336.091 206.835 369.167 188.95ZM343.984 191.039C325.523 210.784 333.518 222.605 337.236 226.248C330.36 224.771 320.1 216.006 322.441 207.523C320.253 210.147 318.012 213 315.72 215.93C311.136 222.045 307.037 228.032 303.396 233.841C297.794 250.502 308.055 267.7 325.523 275.317C306.12 272.464 297.412 255.191 297.463 244.185C288.194 261.713 283.763 277.712 284.171 291.139C284.349 296.132 284.782 300.794 285.444 305.201C289.901 313.66 297.056 316.769 309.812 318.322C298.227 319.061 292.09 318.526 287.049 313.227C294.942 347.188 331.863 376.588 346.887 401.759C331.837 382.193 300.697 353.048 289.799 331.978C288.958 339.595 290.995 359.111 300.467 371.11C286.513 357.379 285.419 336.589 286.336 324.411C282.796 315.647 280.556 305.864 280.25 294.731C279.969 284.489 280.682 275.598 282.236 267.623C273.425 280.158 260.694 284.998 254.43 304.081C255.652 279.469 274.012 279.088 287.762 249.203C293.083 236.134 300.823 224.847 309.38 212.058C298.507 215.625 290.359 218.172 277.779 231.955C286.717 210.809 338.356 187.04 362.012 164.033C354.907 165.537 325.905 166.275 313.861 158.225C335.683 164.135 384.241 157.384 402.574 144.849C389.919 163.065 362.368 164.11 328.834 200.339C333.111 196.924 338.815 193.485 343.984 191.039Z" fill="white"/>
<path d="M695.809 301.688C693.493 289.663 692.474 284.083 690.131 279.141C687.713 273.867 683.791 269.282 675.414 258.453C677.4 258.734 699.706 263.448 704.671 261.104C666.196 237.461 674.853 207.423 616.187 180.647C631.592 169.208 647.303 160.087 636.022 138.228C619.956 157.565 589.4 150.89 572.925 141.897C589.247 138.635 610.228 124.267 615.219 108.267C609.057 107.324 601.087 113.999 596.504 117.081C594.314 111.197 593.473 104.318 586.318 102.815C595.867 123.247 576.999 133.896 558.997 133.973C556.247 133.973 544.636 132.801 544.636 132.801C546.495 128.979 553.981 118.535 548.506 114.33C544.101 118.458 538.907 121.744 534.12 125.413C499.159 152.444 550.747 177.539 571.83 188.901C604.856 206.786 596.071 228.06 582.245 233.511C582.296 235.906 583.773 236.977 586.09 237.741C595.714 240.951 604.831 234.073 612.495 229.614C612.062 242.964 612.978 255.804 598.236 263.142L608.37 266.861C599.611 273.485 596.987 277.027 586.471 278.377C591.36 280.772 597.523 280.721 602.692 281.205C601.367 284.899 600.222 289.918 597.523 293.23C619.064 295.777 627.722 283.498 634.342 283.981C648.499 285.052 647.659 311.802 612.673 311.853L616.289 317.84C616.289 317.84 609.668 321.713 603.582 322.452C605.9 324.337 608.166 326.885 610.126 328.821L604.55 333.637C618.784 336.184 622.859 321 632.101 328.312C646.233 339.522 615.117 363.138 585.25 359.623C587.77 362.833 594.773 367.572 597.802 370.018C573.46 392.998 585.428 414.653 575.471 430.525C596.402 429.124 611.935 413.736 615.627 397.074L621.534 407.137C623.647 400.513 627.518 393.635 629.937 388.743C634.647 398.552 642.21 398.756 649.493 398.807C647.837 375.317 677.324 351.7 664.388 324.898C661.792 319.548 663.471 312.975 669.049 310.147C688.858 300.108 679.666 341.79 699.451 343.063C695.657 338.298 694.257 328.414 693.721 327.548C697.897 328.644 707.931 335.063 712.462 326.834C700.979 320.668 697.669 311.191 695.809 301.688ZM658.812 267.6C660.366 275.6 661.154 284.466 660.798 294.708C660.467 305.841 658.251 315.624 654.712 324.388C655.603 336.567 654.535 357.355 640.58 371.088C650.027 359.063 652.09 339.573 651.249 331.955C640.3 353.024 609.185 382.17 594.11 401.737C609.159 376.565 646.08 347.139 653.999 313.204C648.906 318.477 642.821 319.039 631.21 318.3C643.941 316.745 651.096 313.637 655.552 305.179C656.214 300.797 656.648 296.109 656.825 291.116C657.259 277.689 652.803 261.689 643.534 244.161C643.611 255.167 634.902 272.44 615.474 275.294C632.891 267.651 643.177 250.454 637.601 233.818C633.985 228.009 629.912 221.996 625.277 215.907C622.985 212.977 620.745 210.124 618.53 207.5C620.872 215.983 610.611 224.747 603.735 226.225C607.479 222.582 615.449 210.76 597.013 191.016C602.182 193.462 607.886 196.901 612.189 200.264C578.654 164.036 551.129 163.017 538.423 144.776C556.781 157.311 605.34 164.087 627.136 158.15C615.117 166.201 586.09 165.462 578.985 163.959C602.641 186.965 654.331 210.736 663.243 231.882C650.664 218.098 642.49 215.551 631.668 211.984C640.249 224.798 647.939 236.06 653.261 249.129C667.036 279.013 685.421 279.371 686.617 304.007C680.354 284.975 667.647 280.135 658.812 267.6Z" fill="white"/>
<path d="M497.552 224.617C492.025 232.209 481.968 237.304 470.535 237.304C467.861 237.304 465.289 236.999 462.845 236.54C463.533 239.674 465.137 242.91 468.472 245.686C467.123 254.781 471.044 263.291 480.797 265.508C481.84 270.145 484.693 273.635 489.531 275.29L482.731 283.138C480.109 286.144 476.697 287.112 473.947 286.756L443.596 283.316C444.919 279.953 441.405 276.055 431.78 277.711L443.697 244.336L436.439 228.872L422.665 240.642L421.646 275.647L415.713 272.769C408.074 269.456 405.808 283.392 413.091 283.443L416.019 283.469C415.815 284.895 416.273 286.475 417.419 286.985C416.044 287.545 415.636 290.118 417.343 291.036C415.611 291.876 415.357 294.526 416.757 295.673C415.255 298.245 414.974 303.825 420.297 305.227C424.676 306.373 427.426 301.684 428.318 298.959L475.551 313.583C482.197 315.494 486.984 314.423 492.535 309.558L504.86 298.78C503.306 305.838 505.826 312.181 511.2 314.296C511.2 314.296 510.359 320.767 510.69 323.443L527.215 323.468H553.238V245.763C553.238 238.528 555.302 231.292 557.848 224.617H527.215H497.552Z" fill="white"/>
<path d="M426.819 355.367L427.736 356.514C429.009 358.094 429.773 357.711 431.224 356.871L433.363 355.725C434.713 354.705 443.498 358.069 443.981 350.757C444.949 356.208 438.456 367.698 442.377 374.119L447.648 382.756L430.435 383.011C428.551 383.011 427.558 384.157 427.049 385.176L422.541 394.526C421.369 396.997 421.446 399.545 422.923 401.252L425.979 404.691C425.979 404.691 428.475 402.577 429.288 399.8L427.939 398.398C426.819 397.328 426.819 396.309 427.43 394.984L430.205 389.227C431.275 386.959 432.37 386.475 434.815 387.061L448.743 390.067C449.761 390.323 451.417 390.806 452.409 389.099C454.115 386.067 457.12 385.864 460.176 386.348C467.814 387.494 485.461 389.329 491.75 381.966C499.134 391.775 513.572 391.775 512.63 396.92L509.574 413.786H514.157L516.958 396.539C517.263 394.526 518.512 391.775 516.347 390.221C515.456 389.533 515.049 389.176 513.036 385.711C510.414 381.125 510.542 374.246 508.02 368.31C510.414 365.482 513.011 364.514 515.277 365.049C520.37 366.297 521.745 375.087 528.976 382.245C528.162 379.061 527.806 375.571 526.099 372.539C526.099 372.539 531.115 376.437 532.414 380.997C533.229 383.851 534.069 385.94 536.641 387.265C538.347 387.876 540.384 387.061 542.422 384.615C542.422 384.615 537.659 377.839 534.171 373.406C529.384 367.316 522.992 361.202 514.285 361.915C511.534 362.145 508.886 363.393 506.366 364.896C496.46 359.342 488.771 365.227 485.715 365.227L467.178 364.131C463.537 363.903 460.659 359.673 460.659 359.673C460.201 343.98 447.597 337.737 443.243 337.737C443.243 337.737 443.651 334.909 442.504 333.916L438.634 338.782L427.888 334.858L436.317 341.763L427.175 352.387C426.234 353.432 426.361 354.807 426.819 355.367Z" fill="white"/>
<path d="M414.675 377.403C412.078 379.415 412.205 382.218 413.759 385.352L415.312 388.256L419.36 385.173L418.444 383.186C417.782 381.785 417.808 380.358 418.953 379.466L424.759 375.084C426.389 373.887 426.898 373.76 428.63 374.014L440.876 376.588C440.876 376.588 439.018 373.887 438.407 371.135L426.872 369.606C425.242 369.403 424.25 370.091 422.824 371.186L414.675 377.403Z" fill="white"/>
<path d="M492.995 413.785H497.63L505.064 395.467C505.319 394.83 505.675 394.55 505.956 394.015C502.62 392.69 500.659 391.773 497.884 390.168C499.743 392.665 501.194 393.735 500.43 396.053L492.995 413.785Z" fill="white"/>
<path d="M496.94 166.022L505.521 116.674L473.005 127.731V178.608L496.94 166.022ZM478.504 132.724L500.071 124.776C500.071 124.776 495.87 128.189 490.854 131.628C486.398 134.711 478.504 137.998 478.504 137.998V132.724ZM478.504 144.673L498.238 137.615C498.238 137.615 495.87 140.113 490.879 143.552C486.423 146.609 478.53 149.895 478.53 149.895V144.673H478.504ZM478.504 157.36L495.87 150.685C495.87 150.685 495.87 152.8 490.854 156.214C486.398 159.297 478.504 162.583 478.504 162.583V157.36Z" fill="white"/>
<path d="M439.09 209.663L439.803 210.81H446.5L446.576 211.982C446.653 213.104 446.908 214.25 447.289 215.421C448.334 218.606 450.396 221.944 453.706 224.644C457.551 227.753 463.102 229.995 470.486 229.995C486.503 229.995 493.734 219.626 494.422 211.982L494.473 210.81H501.194L501.907 209.663C508.223 199.779 515.938 188.798 524.9 187.219L500.456 173.027L470.486 189.333L440.49 173.027L416.071 187.219C425.035 188.773 432.75 199.779 439.09 209.663Z" fill="white"/>
<path d="M467.968 178.608V127.731L435.503 116.674L444.032 166.022L467.968 178.608ZM462.493 162.634C462.493 162.634 454.599 159.323 450.144 156.265C445.128 152.851 445.128 150.711 445.128 150.711L462.518 157.386V162.634H462.493ZM462.493 132.724V137.998C462.493 137.998 454.599 134.711 450.144 131.628C445.102 128.189 440.875 124.776 440.875 124.776L462.493 132.724ZM462.493 144.673V149.921C462.493 149.921 454.599 146.635 450.144 143.577C445.102 140.138 442.76 137.641 442.76 137.641L462.493 144.673Z" fill="white"/>
<path d="M470.508 94.9155C451.945 94.9155 438.017 101.004 434.986 108.139L470.508 122.176L505.978 108.139C502.973 101.004 489.07 94.9155 470.508 94.9155Z" fill="white"/>
<path d="M470.512 74.5319C484.186 74.5319 497.885 78.6852 507.102 84.0609C508.605 79.0927 510.209 75.5515 512.399 71.5011L503.997 72.8003L497.197 58.2781L484.492 65.0299L470.512 51.1958L456.507 65.0299L443.827 58.2781L436.978 72.8003L428.574 71.5011C430.764 75.5515 432.343 79.0927 433.897 84.0609C443.14 78.6852 456.788 74.5319 470.512 74.5319Z" fill="white"/>
<path d="M702.223 186.376C706.806 185.791 710.499 184.262 715.006 180.898C705.304 178.326 684.984 170.963 667.644 174.275C661.915 175.039 658.733 177.357 660.769 178.682C670.089 184.873 681.598 199.216 689.975 215.956C697.334 206.809 694.253 194.809 692.699 191.37C707.366 200.21 711.212 204.516 718.01 202.834C714.368 197.255 709.25 192.236 702.223 186.376Z" fill="white"/>
<path d="M251.045 215.932C259.422 199.194 270.931 184.851 280.276 178.659C282.364 177.335 279.13 175.016 273.452 174.252C256.086 170.966 235.716 178.303 226.015 180.876C230.572 184.24 234.188 185.768 238.823 186.354C231.77 192.239 226.651 197.233 223.01 202.812C229.859 204.493 233.679 200.188 248.32 191.347C246.818 194.812 243.711 206.786 251.045 215.932Z" fill="white"/>
<path fill-rule="evenodd" clip-rule="evenodd" d="M352.717 371.29C359.465 365.939 365.066 363.263 364.787 350.296C354.652 355.493 325.905 355.213 313.886 338.653C310.499 333.94 314.115 331.571 317.399 335.29C325.624 344.615 340.851 340.386 346.402 337.71C345.511 334.501 343.041 330.322 340.979 328.539C343.067 326.501 348.949 323.443 350.145 318.195C347.013 316.488 334.816 315.265 334.816 315.265C336.778 313.38 339.221 310.756 337.745 303.75C325.293 307.572 309.888 302.374 306.4 297.763C302.962 293.227 306.477 288.973 309.379 291.979C315.592 298.501 346.198 305.966 357.581 294.629C353.354 293.457 348.694 289.686 347.853 287.342C358.396 286.273 366.798 280.056 367.486 272.311C361.654 272.311 350.654 271.878 346.885 269.075C351.927 267.216 355.136 265.381 356.74 259.725C337.465 258.554 335.937 244.235 335.835 241.866C348.388 249.101 370.49 245.891 364.761 228.057C354.321 227.497 343.805 210.606 372.502 195.09C398.602 180.951 428.266 165.715 425.643 140.621C423.937 124.57 397.532 113.615 394.171 105.488C383.145 110.735 380.93 116.825 385.895 127.041C385.895 127.041 361.323 129.487 359.388 114.354C358.548 107.577 363.08 101.232 367.944 96.3672C365.194 96.3672 346.682 91.3989 341.105 106.481C330.742 99.399 321.856 99.6537 314.879 107.143C326.031 113.767 332.932 136.493 351.367 143.193C338.253 150.301 317.043 147.321 304.668 125.461C292.955 143.117 286.208 160.594 311.34 179.269C265.633 200.083 265.965 239.879 226.191 258.833C230.214 269.661 238.719 269.661 249.567 267.98C232.378 290.323 247.02 313.711 219.8 323.265C222.346 332.386 227.464 339.672 237.497 336.997C234.645 341.455 232.761 341.353 228.33 346.245C243.2 355.621 260.847 348.844 264.844 318.755C265.557 313.38 272.941 316.743 270.395 322.017C253.436 357.099 296.317 383.493 281.141 409.225C294.508 408.663 304.719 407.619 310.27 403.11C312.995 408.511 314.65 413.861 314.039 419.135C321.423 417.632 324.122 413.275 324.631 408.231C329.47 422.371 346.784 437.478 374.488 437.478C359.796 416.486 373.47 395.212 352.717 371.29ZM325.369 397.148L319.463 407.211C317.348 400.587 313.504 393.709 311.034 388.818C306.273 398.626 298.761 398.83 291.529 398.881C293.133 375.391 263.622 351.774 276.608 324.972C279.205 319.622 277.499 313.049 271.922 310.221C252.138 300.183 261.304 341.863 241.546 343.137C245.314 338.372 246.739 328.488 247.3 327.621C243.098 328.717 233.04 335.137 228.509 326.934C240.069 320.641 243.379 311.164 245.187 301.661C247.478 289.635 248.548 284.056 250.865 279.113C253.309 273.84 257.205 269.254 265.557 258.426C263.571 258.706 241.342 263.42 236.326 261.076C274.801 237.433 266.143 207.395 324.784 180.619C309.404 169.18 293.693 160.059 304.949 138.226C321.015 157.537 351.546 150.862 368.046 141.894C351.75 138.633 330.742 124.264 325.777 108.265C331.913 107.322 339.883 113.997 344.442 117.105C346.657 111.194 347.523 104.341 354.678 102.863C345.129 123.27 363.972 133.92 381.949 133.997C384.749 133.997 396.361 132.824 396.361 132.824C394.501 129.003 386.99 118.557 392.439 114.354C396.844 118.481 402.09 121.767 406.851 125.436C441.812 152.492 390.249 177.562 369.166 188.951C336.089 206.835 344.951 228.134 358.752 233.561C358.701 235.955 357.224 237.025 354.932 237.79C345.257 241 336.191 234.095 328.476 229.662C328.934 243.013 328.018 255.853 342.786 263.19L332.626 266.884C341.36 273.534 344.034 277.049 354.55 278.425C349.636 280.82 343.55 280.769 338.33 281.254C339.655 284.947 340.724 289.967 343.474 293.278C321.958 295.827 313.326 283.546 306.654 284.031C292.446 285.1 293.337 311.852 328.298 311.903L324.682 317.889C324.682 317.889 331.302 321.762 337.389 322.5C335.071 324.386 332.83 326.934 330.87 328.869L336.446 333.685C322.162 336.232 318.138 321.048 308.869 328.36C294.738 339.57 325.879 363.188 355.721 359.671C353.227 362.882 346.198 367.621 343.194 370.066C367.511 393.047 355.518 414.702 365.525 430.575C344.544 429.198 329.011 413.784 325.369 397.148Z" fill="black"/>
<path fill-rule="evenodd" clip-rule="evenodd" d="M287 313.229C292.067 318.502 298.178 319.063 309.763 318.324C297.007 316.77 289.852 313.661 285.396 305.204C284.759 300.822 284.327 296.133 284.148 291.14C283.741 277.713 288.171 261.714 297.44 244.186C297.389 255.166 306.072 272.439 325.5 275.318C308.033 267.676 297.771 250.478 303.372 233.842C307.014 228.033 311.114 222.02 315.697 215.932C317.988 213.002 320.229 210.148 322.419 207.524C320.076 216.008 330.338 224.772 337.213 226.249C333.495 222.606 325.5 210.811 343.961 191.067C338.817 193.512 333.113 196.951 328.785 200.314C362.295 164.086 389.87 163.067 402.526 144.826C384.192 157.361 335.635 164.137 313.813 158.2C325.856 166.251 354.859 165.512 361.963 164.009C338.334 187.015 286.694 210.786 277.732 231.932C290.31 218.123 298.458 215.601 309.356 212.059C300.776 224.874 293.061 236.135 287.738 249.205C273.988 279.063 255.604 279.446 254.407 304.057C260.672 284.974 273.403 280.134 282.213 267.599C280.66 275.599 279.921 284.465 280.201 294.707C280.507 305.84 282.748 315.623 286.287 324.387C285.396 336.566 286.465 357.354 300.419 371.087C290.947 359.087 288.909 339.572 289.75 331.954C300.674 353.023 331.815 382.169 346.864 401.736C331.815 376.59 294.919 347.189 287 313.229Z" fill="black"/>
<path fill-rule="evenodd" clip-rule="evenodd" d="M631.692 212.057C642.514 215.624 650.688 218.147 663.266 231.955C654.355 210.809 602.639 187.039 579.009 164.034C586.113 165.511 615.141 166.276 627.16 158.225C605.364 164.161 556.806 157.384 538.446 144.849C551.128 163.091 578.679 164.11 612.213 200.338C607.91 196.975 602.206 193.536 597.037 191.09C615.473 210.835 607.503 222.656 603.76 226.299C610.634 224.822 620.896 216.058 618.553 207.573C620.769 210.198 623.009 213.051 625.301 215.981C629.909 222.096 633.984 228.082 637.625 233.891C643.227 250.554 632.94 267.75 615.523 275.368C634.952 272.515 643.66 255.215 643.559 244.235C652.852 261.763 657.283 277.763 656.875 291.189C656.697 296.182 656.264 300.845 655.602 305.253C651.121 313.71 643.966 316.819 631.234 318.373C642.846 319.086 648.931 318.552 654.023 313.278C646.104 347.239 609.208 376.639 594.134 401.81C609.208 382.244 640.299 353.099 651.274 332.028C652.114 339.646 650.077 359.161 640.605 371.162C654.558 357.43 655.628 336.64 654.736 324.462C658.25 315.698 660.465 305.915 660.822 294.781C661.153 284.539 660.363 275.648 658.836 267.674C667.671 280.208 680.377 285.05 686.667 304.132C685.47 279.495 667.086 279.113 653.31 249.254C647.963 236.107 640.273 224.847 631.692 212.057Z" fill="black"/>
<path fill-rule="evenodd" clip-rule="evenodd" d="M691.48 267.927C702.302 269.635 710.808 269.635 714.856 258.807C675.082 239.852 675.414 200.082 629.707 179.243C654.839 160.593 648.067 143.09 636.379 125.435C624.029 147.294 602.743 150.275 589.68 143.167C608.064 136.466 615.016 113.741 626.168 107.117C619.191 99.6263 610.279 99.3717 599.916 106.454C594.314 91.3716 575.828 96.3398 573.052 96.3398C577.89 101.18 582.474 107.525 581.608 114.327C579.699 129.461 555.127 127.014 555.127 127.014C560.092 116.798 557.876 110.709 546.851 105.46C543.49 113.588 517.111 124.543 515.379 140.593C512.731 165.688 542.445 180.923 568.52 195.064C597.216 210.579 586.701 227.496 576.286 228.031C570.506 245.865 592.608 249.075 605.186 241.839C605.135 244.209 603.532 258.526 584.256 259.699C585.886 265.355 589.069 267.188 594.111 269.049C590.342 271.877 579.342 272.284 573.536 272.284C574.223 280.029 582.652 286.271 593.194 287.316C592.353 289.66 587.669 293.431 583.466 294.602C594.849 305.939 625.455 298.475 631.669 291.953C634.52 288.947 638.009 293.201 634.596 297.736C631.082 302.372 615.703 307.57 603.226 303.722C601.8 310.704 604.194 313.353 606.154 315.239C606.154 315.239 593.958 316.461 590.8 318.169C591.997 323.417 597.904 326.448 599.967 328.512C597.878 330.295 595.409 334.473 594.518 337.684C600.119 340.384 615.346 344.588 623.52 335.263C626.83 331.569 630.446 333.913 627.059 338.627C615.041 355.186 586.294 355.441 576.134 350.269C575.853 363.237 581.455 365.913 588.203 371.262C567.425 395.186 581.15 416.459 566.457 437.401C594.136 437.401 611.451 422.293 616.289 408.153C616.849 413.172 619.496 417.554 626.855 419.057C626.296 413.783 627.925 408.433 630.624 403.032C636.226 407.542 646.437 408.586 659.804 409.146C644.654 383.415 687.534 357.021 670.525 321.939C668.004 316.665 675.388 313.302 676.101 318.678C680.073 348.766 697.745 355.543 712.64 346.168C708.159 341.276 706.3 341.378 703.448 336.919C713.481 339.594 718.574 332.308 721.145 323.187C694.053 313.659 708.694 290.271 691.48 267.927ZM693.772 327.646C694.308 328.512 695.708 338.397 699.501 343.162C679.717 341.887 688.883 300.207 669.099 310.245C663.522 313.048 661.868 319.621 664.439 324.996C677.374 351.798 647.888 375.416 649.544 398.905C642.261 398.855 634.698 398.65 629.988 388.841C627.568 393.734 623.673 400.612 621.56 407.236L615.652 397.173C611.985 413.834 596.452 429.223 575.522 430.624C585.479 414.777 573.51 393.121 597.853 370.116C594.798 367.67 587.795 362.932 585.275 359.721C615.142 363.237 646.258 339.621 632.127 328.41C622.884 321.098 618.809 336.283 604.575 333.734L610.152 328.92C608.191 326.984 605.925 324.461 603.607 322.551C609.694 321.812 616.314 317.939 616.314 317.939L612.698 311.952C647.659 311.901 648.499 285.15 634.367 284.08C627.721 283.596 619.064 295.901 597.548 293.329C600.272 290.016 601.393 284.997 602.717 281.303C597.522 280.819 591.385 280.87 586.497 278.475C597.013 277.125 599.661 273.584 608.395 266.96L598.261 263.24C613.003 255.877 612.062 243.062 612.52 229.713C604.83 234.146 595.714 241.024 586.115 237.84C583.823 237.075 582.321 236.005 582.27 233.61C596.096 228.158 604.907 206.885 571.856 189C550.798 177.612 499.209 152.542 534.145 125.511C538.932 121.843 544.126 118.531 548.506 114.429C553.98 118.632 546.495 129.078 544.635 132.9C544.635 132.9 556.247 134.071 558.996 134.071C576.999 133.995 595.867 123.346 586.318 102.913C593.474 104.391 594.314 111.295 596.503 117.18C601.087 114.072 609.032 107.423 615.219 108.365C610.203 124.34 589.246 138.734 572.925 141.994C589.399 150.963 619.955 157.638 636.022 138.326C647.277 160.16 631.592 169.281 616.187 180.72C674.854 207.471 666.171 237.534 704.67 261.177C699.705 263.52 677.4 258.807 675.414 258.526C683.816 269.354 687.738 273.94 690.131 279.214C692.474 284.156 693.493 289.711 695.81 301.761C697.643 311.264 700.978 320.741 712.487 327.035C707.981 335.162 697.949 328.741 693.772 327.646Z" fill="black"/>
<path fill-rule="evenodd" clip-rule="evenodd" d="M414.414 393.405L422.792 386.297L421.518 383.749C420.602 381.915 421.086 381.813 422.054 381.1L426.485 377.813C427.502 376.972 428.572 377.074 429.82 377.38L443.085 380.488H429.081C425.847 380.691 424.906 381.94 423.734 384.335L422.767 386.297L419.177 393.685C417.954 396.233 417.317 399.621 420.526 403.442L423.072 406.474L417.928 416.895H422.257L425.822 409.659C426.102 409.404 431.373 404.589 432.493 399.621C430.965 398.373 429.896 397.506 430.737 395.774L432.34 392.309C432.876 391.163 433.053 390.705 434.581 390.984L448.484 393.991C450.216 394.474 452.762 395.239 454.62 392.436C456.531 389.532 456.785 389.838 461.215 390.271L468.319 391.035C478.021 391.953 487.722 389.532 491.491 386.526C492.815 389.532 495.438 391.851 496.66 394.195C497.118 395.061 496.354 396.284 495.769 397.812L487.799 416.869H500.097L507.049 399.494C507.686 397.838 508.627 396.513 509.34 395.851L505.343 416.895H517.285L520.442 396.08C521.13 391.443 520.723 389.966 518.508 388.054C513.542 383.851 513.643 375.036 512.04 369.685C512.88 369.202 513.873 368.946 515.045 369.1C517.642 369.329 519.602 375.979 522.658 380.259C528.768 388.844 537.095 398.322 546.644 384.971C545.727 383.444 544.734 382.067 543.563 380.742L540.89 377.609C539.336 375.877 531.952 367.418 528.87 364.387C521.868 357.329 511.123 358.4 506.845 361.839C497.143 356.743 486.908 362.094 484.489 361.89L467.785 360.87C467.021 360.819 465.876 360.565 465.061 359.266L468.167 358.247C465.265 346.145 457.957 336.03 445.2 334.273C445.2 334.273 444.461 330.451 442.5 329.712L438.681 334.196C437.611 334.349 436.44 334.68 435.472 335.088L419.177 329.024L431.399 341.381C431.399 341.381 425.058 350.374 423.25 352.208C422.054 353.89 422.156 355.189 423.505 356.794L425.873 359.903C427.096 361.508 428.445 361.457 430.405 360.463L433.079 359.062C434.251 358.093 438.171 360.005 439.852 358.476C438.782 361.992 438.248 365.38 437.994 368.056L427.019 366.73C424.625 366.399 423.531 366.73 422.079 367.877L412.709 375.087C409.653 377.431 408.711 381.481 410.596 385.431L414.414 393.405ZM505.062 395.468L497.628 413.812H492.993L500.429 396.054C501.193 393.761 499.741 392.691 497.882 390.194C500.633 391.749 502.619 392.768 505.954 394.042C505.674 394.551 505.317 394.831 505.062 395.468ZM433.359 355.749L431.246 356.871C429.769 357.712 429.03 358.093 427.757 356.514L426.841 355.342C426.383 354.782 426.23 353.432 427.172 352.361L436.287 341.738L427.885 334.833L438.579 338.782L442.5 333.89C443.646 334.859 443.238 337.686 443.238 337.686C447.567 337.686 460.172 343.954 460.655 359.648C460.655 359.648 463.507 363.851 467.148 364.081L485.711 365.201C488.792 365.201 496.482 359.343 506.362 364.871C508.857 363.367 511.53 362.17 514.281 361.864C522.988 361.227 529.406 367.291 534.167 373.405C537.655 377.838 542.443 384.615 542.443 384.615C540.38 387.061 538.368 387.876 536.663 387.264C534.091 385.94 533.25 383.876 532.435 380.998C531.137 376.437 526.121 372.539 526.121 372.539C527.827 375.596 528.183 379.062 528.998 382.246C521.741 375.061 520.366 366.297 515.299 365.075C513.058 364.513 510.436 365.482 508.016 368.284C510.563 374.22 510.436 381.1 513.058 385.71C515.045 389.15 515.477 389.455 516.369 390.22C518.508 391.749 517.31 394.525 516.98 396.539L514.23 413.786H509.595L512.651 396.92C513.593 391.774 499.156 391.774 491.771 381.966C485.482 389.328 467.836 387.494 460.197 386.348C457.116 385.889 454.111 386.093 452.43 389.125C451.438 390.831 449.783 390.322 448.765 390.068L434.836 387.061C432.391 386.5 431.322 386.985 430.252 389.227L427.477 394.985C426.866 396.335 426.892 397.329 428.011 398.424L429.336 399.825C428.547 402.576 426.026 404.691 426.026 404.691L422.995 401.277C421.518 399.544 421.443 397.048 422.614 394.602L427.121 385.175C427.655 384.132 428.623 383.01 430.507 383.01L447.72 382.755L442.449 374.169C438.528 367.724 445.047 356.234 444.053 350.807C443.519 358.068 434.734 354.756 433.359 355.749ZM414.669 377.405L422.818 371.188C424.269 370.093 425.236 369.38 426.892 369.583L438.401 371.112C439.037 373.864 440.871 376.564 440.871 376.564L428.623 373.991C426.892 373.788 426.383 373.864 424.753 375.036L418.947 379.418C417.802 380.31 417.751 381.736 418.413 383.138L419.354 385.15L415.306 388.207L413.752 385.303C412.173 382.22 412.073 379.392 414.669 377.405Z" fill="black"/>
<path fill-rule="evenodd" clip-rule="evenodd" d="M450.168 156.24C454.624 159.323 462.518 162.609 462.518 162.609V157.36L445.126 150.711C445.126 150.711 445.126 152.852 450.168 156.24Z" fill="black"/>
<path fill-rule="evenodd" clip-rule="evenodd" d="M462.489 149.919V144.672L442.756 137.614C442.756 137.614 445.099 140.111 450.141 143.55C454.596 146.608 462.489 149.919 462.489 149.919Z" fill="black"/>
<path fill-rule="evenodd" clip-rule="evenodd" d="M462.494 137.997V132.724L440.875 124.775C440.875 124.775 445.102 128.189 450.144 131.628C454.6 134.711 462.494 137.997 462.494 137.997Z" fill="black"/>
<path fill-rule="evenodd" clip-rule="evenodd" d="M523.218 209.663H545.32C544.403 206.452 540.965 203.217 534.523 203.217C528.413 203.217 524.746 206.733 523.218 209.663Z" fill="black"/>
<path fill-rule="evenodd" clip-rule="evenodd" d="M500.105 124.775L478.538 132.724V137.997C478.538 137.997 486.431 134.711 490.888 131.628C495.904 128.189 500.105 124.775 500.105 124.775Z" fill="black"/>
<path fill-rule="evenodd" clip-rule="evenodd" d="M495.904 150.711L478.538 157.386V162.634C478.538 162.634 486.431 159.323 490.888 156.265C495.904 152.852 495.904 150.711 495.904 150.711Z" fill="black"/>
<path fill-rule="evenodd" clip-rule="evenodd" d="M498.237 137.614L478.504 144.672V149.919C478.504 149.919 486.422 146.633 490.853 143.576C495.895 140.111 498.237 137.614 498.237 137.614Z" fill="black"/>
<path fill-rule="evenodd" clip-rule="evenodd" d="M406.448 203.217C400.006 203.217 396.569 206.452 395.652 209.663H417.78C416.201 206.733 412.585 203.217 406.448 203.217Z" fill="black"/>
<path fill-rule="evenodd" clip-rule="evenodd" d="M514.411 110.608C514.411 98.1763 493.531 87.0425 470.487 87.0425C447.443 87.0425 426.564 98.1763 426.564 110.608L427.047 113.666L436.213 166.48L392.672 191.88C388.038 194.607 382.232 202.096 381.494 209.638H389.438C390.762 202.096 396.695 193.74 407.823 194.25C417.881 194.784 423.838 200.899 429.746 209.638L431.274 211.931L433.464 215.37H369.424C374.135 224.822 378.591 234.86 378.591 245.739V378.958C378.591 413.225 404.895 429.556 433.387 429.556C455.388 429.556 458.366 428.562 470.513 440.714C482.607 428.562 485.587 429.556 507.637 429.556C536.105 429.556 562.434 413.225 562.434 378.958V245.765C562.434 234.886 566.89 224.847 571.6 215.395H507.51L509.725 211.956L511.253 209.663C517.135 200.925 523.119 194.81 533.177 194.275C544.253 193.766 550.237 202.122 551.535 209.663H559.454C558.742 202.122 552.91 194.607 548.302 191.906L504.76 166.505L513.952 113.691L514.411 110.608ZM435.475 116.672L467.966 127.729V178.606L444.03 166.022L435.475 116.672ZM443.471 224.619C447.748 230.478 454.675 234.809 462.873 236.49C463.561 239.573 465.242 242.961 468.5 245.688C467.151 254.783 471.047 263.267 480.825 265.509C481.843 270.145 484.721 273.636 489.533 275.292L482.735 283.139C480.137 286.145 476.751 287.113 473.95 286.757L443.598 283.317C444.922 279.954 441.408 276.056 431.808 277.712L443.751 244.338L436.468 228.873L422.667 240.644L421.648 275.649L415.793 272.77C408.077 269.458 405.836 283.393 413.169 283.444L416.072 283.47C415.894 284.897 416.327 286.476 417.447 286.96C416.072 287.547 415.665 290.145 417.396 291.063C415.64 291.878 415.41 294.527 416.811 295.673C415.283 298.247 415.054 303.826 420.375 305.227C424.73 306.374 427.454 301.686 428.345 298.96L475.554 313.584C482.25 315.494 486.987 314.425 492.538 309.559L504.862 298.782C503.309 305.839 505.855 312.183 511.228 314.297C511.228 314.297 510.464 320.641 510.693 323.47H387.783V245.765C387.783 238.529 385.695 231.293 383.2 224.619H443.471ZM494.244 254.095C491.646 259.064 491.901 264.77 494.957 269.942L492.92 271.929C484.059 270.833 480.571 257.611 480.571 257.611C480.392 258.809 480.29 259.955 480.316 261.127C475.146 259.216 471.888 254.631 472.142 248.337C474.103 249.433 476.293 250.198 478.635 250.605L479.247 246.732C473.059 245.662 469.443 241.79 468.068 237.204C467.762 237.178 467.508 237.102 467.227 237.077C468.323 237.153 469.417 237.255 470.538 237.255C474.205 237.255 477.693 236.694 480.952 235.726C483.524 239.395 488.082 242.019 492.665 242.529C491.927 245.586 492.283 249.382 494.244 254.095ZM507.358 289.049C506.466 290.247 505.753 291.623 505.294 293.126L500.355 297.661C501.348 290.426 496.485 281.89 492.054 278.4L497.3 273.254L498.343 274.324C496.586 278.935 500.024 287.98 507.358 289.049ZM483.499 286.783L487.573 282.782C491.697 286.4 497.147 294.476 495.441 302.171L491.01 306.247C490.093 307.138 489.152 307.775 488.184 308.361C490.959 301.507 487.42 290.961 483.499 286.783ZM474.739 290.171H474.867C476.344 290.4 477.922 290.145 479.348 289.559C482.454 293.992 484.874 304.081 481.156 310.374C479.043 310.425 476.98 310.043 475.044 309.483L473.517 309.023C476.649 304.158 476.216 295.547 474.739 290.171ZM464.478 288.897L470.207 289.61C471.124 294.374 470.513 302.603 467.482 307.292L460.811 305.355C463.739 301.381 465.114 293.203 464.478 288.897ZM452.536 287.445L459.487 288.26C460.174 292.081 458.876 300.208 456.253 304.081L449.174 302.043C452 298.298 453.019 291.699 452.536 287.445ZM424.399 285.584C421.165 286.629 419.739 284.285 419.867 282.298C426.207 279.98 429.033 281.483 430.892 282.655C432.598 283.725 434.024 286.783 436.315 288.693C435.934 291.291 435.145 295.062 434.202 297.585C427.709 295.928 427.378 290.196 429.797 286.706C428.447 285.126 427.022 284.718 424.399 285.584ZM419.867 298.247C419.867 298.247 421.801 299.062 424.246 299.241C423.966 300.591 422.922 301.865 421.267 301.507C419.892 301.202 419.281 299.52 419.867 298.247ZM413.475 279.648C411.871 278.579 412.584 276.235 414.367 276.235C416.327 276.286 418.924 278.502 421.496 279.597C421.496 279.597 414.748 280.515 413.475 279.648ZM420.071 293.152C421.471 294.502 425.672 293.992 425.672 293.992L425.825 294.833C423.991 297.278 418.899 296.183 420.071 293.152ZM425.723 290.375C422.718 291.572 419.637 289.941 420.579 288.005C421.98 289.279 425.876 288.642 425.876 288.642L425.723 290.375ZM430.154 255.395L424.399 276.362L426.36 242.529L435.271 234.912L439.804 244.873L428.345 277.738L431.376 255.624C431.656 254.044 430.408 253.866 430.154 255.395ZM430.561 280.821C430.561 280.821 436.977 280.515 438.786 281.202C440.11 281.763 439.218 284.005 437.486 283.751C435.679 283.521 430.561 280.821 430.561 280.821ZM440.619 285.916L447.595 286.783C448.131 290.603 447.137 297.075 444.641 300.693L437.894 298.731C439.676 294.476 440.11 290.477 440.619 285.916ZM553.242 378.984C553.242 395.186 545.755 407.493 533.305 414.32L537.76 405.25H533.431L527.702 416.868C521.77 419.11 515.047 420.358 507.612 420.358C484.899 420.358 478.89 421.275 470.487 429.657C462.058 421.275 456.05 420.358 433.362 420.358C425.977 420.358 419.256 419.161 413.348 416.919H413.501L419.23 405.25H414.927L409.911 415.467C408.713 414.906 407.542 414.294 406.422 413.632L410.547 405.25H406.269L403.214 411.492C393.486 404.333 387.757 393.123 387.757 378.984V328.029H553.191V378.984H553.242ZM557.85 224.619C555.279 231.293 553.216 238.529 553.216 245.765V323.47H544.176C540.077 319.495 536.614 306.247 536.614 306.247C534.374 311.011 536.945 320.666 539.339 323.47H527.702C524.825 319.571 522.33 305.763 522.33 305.763C518.842 309.737 521.057 320.463 523.221 323.47H515.48C514.996 317.941 516.575 311.928 516.575 311.928C512.526 311.189 508.223 309.049 508.248 304.565C510.285 306.476 511.126 306.451 513.952 306.4L517.237 303.8C506.339 304.158 505.83 292.183 514.487 286.578C505.855 286.858 499.413 281.713 502.545 272.54C496.409 269.355 494.244 258.962 498.776 254.401C495.492 250.834 494.957 243.828 497.045 239.064C492.691 239.064 487.802 237.331 485.077 234.35C484.874 234.452 484.619 234.529 484.389 234.605C489.839 232.389 494.447 228.924 497.554 224.644H557.85V224.619ZM524.901 187.218C515.939 188.773 508.223 199.752 501.908 209.663L501.195 210.809H494.447L494.423 211.982C493.734 219.624 486.478 229.994 470.487 229.994C463.103 229.994 457.527 227.726 453.707 224.644C450.397 221.943 448.308 218.606 447.29 215.421C446.908 214.275 446.679 213.102 446.577 211.982L446.526 210.809H439.829L439.116 209.663C432.776 199.778 425.061 188.797 416.123 187.218L440.542 173.027L470.538 189.333L500.482 173.027L524.901 187.218ZM496.943 166.022L473.033 178.606V127.729L505.524 116.672L496.943 166.022ZM470.513 122.175L434.992 108.138C437.996 101.003 451.924 94.9147 470.513 94.9147C489.075 94.9147 502.978 101.003 505.982 108.138L470.513 122.175Z" fill="black"/>
<path fill-rule="evenodd" clip-rule="evenodd" d="M549.447 274.833L549.523 270.934C537.581 270.654 534.832 256.565 534.832 256.565C531.342 266.934 540.459 274.679 549.447 274.833Z" fill="black"/>
<path fill-rule="evenodd" clip-rule="evenodd" d="M534.371 298.704L533.175 295.011C522.99 297.609 517.72 281.457 517.72 281.457C514.46 293.202 525.816 301.508 534.371 298.704Z" fill="black"/>
<path fill-rule="evenodd" clip-rule="evenodd" d="M541.452 283.724C529.281 285.66 524.291 271.496 524.291 271.496C522.941 279.215 527.932 287.036 536.004 287.851C534.17 297.916 543.515 303.086 551.612 299.494L550.441 295.979C543.413 298.348 536.819 291.392 541.452 283.724Z" fill="black"/>
<path fill-rule="evenodd" clip-rule="evenodd" d="M534.168 243.293L534.27 239.395C518.202 236.083 519.552 225.026 519.552 225.026C516.089 235.446 525.204 243.141 534.168 243.293Z" fill="black"/>
<path fill-rule="evenodd" clip-rule="evenodd" d="M432.367 405.25L426.613 416.919H430.941L436.671 405.25H432.367Z" fill="black"/>
<path fill-rule="evenodd" clip-rule="evenodd" d="M441.051 405.25L435.322 416.919H439.676L445.354 405.25H441.051Z" fill="black"/>
<path fill-rule="evenodd" clip-rule="evenodd" d="M475.834 405.25L470.104 416.919H474.408L480.162 405.25H475.834Z" fill="black"/>
<path fill-rule="evenodd" clip-rule="evenodd" d="M484.54 405.25L478.76 416.919H483.114L488.817 405.25H484.54Z" fill="black"/>
<path fill-rule="evenodd" clip-rule="evenodd" d="M467.149 405.25L461.396 416.919H465.723L471.452 405.25H467.149Z" fill="black"/>
<path fill-rule="evenodd" clip-rule="evenodd" d="M517.947 416.919H522.275L528.005 405.25H523.676L517.947 416.919Z" fill="black"/>
<path fill-rule="evenodd" clip-rule="evenodd" d="M449.76 405.25L444.031 416.919H448.359L454.088 405.25H449.76Z" fill="black"/>
<path fill-rule="evenodd" clip-rule="evenodd" d="M458.416 405.25L452.687 416.919H457.041L462.77 405.25H458.416Z" fill="black"/>
<path fill-rule="evenodd" clip-rule="evenodd" d="M438.759 342.527C437.97 342.527 437.282 343.291 437.282 344.285C437.282 345.253 437.97 346.043 438.759 346.043C439.574 346.043 440.287 345.253 440.287 344.285C440.262 343.291 439.574 342.527 438.759 342.527Z" fill="black"/>
<path fill-rule="evenodd" clip-rule="evenodd" d="M470.513 79.1706C488.337 79.1706 502.621 85.0805 510.489 91.4249C510.489 91.4249 512.858 77.2592 520.828 64.8272L506.466 66.432L498.954 50.4319L484.517 57.9476L470.513 44.0376L456.508 57.9476L442.019 50.4319L434.508 66.432L420.146 64.8272C428.142 77.2592 430.484 91.4249 430.484 91.4249C438.378 85.0805 452.688 79.1706 470.513 79.1706ZM436.977 72.8013L443.828 58.2791L456.508 65.0309L470.513 51.1968L484.517 65.0309L497.198 58.2791L503.971 72.8013L512.4 71.5021C510.235 75.5525 508.605 79.0937 507.103 84.0619C497.886 78.6863 484.186 74.534 470.513 74.534C456.788 74.534 443.115 78.6863 433.896 84.0619C432.369 79.0937 430.765 75.5525 428.575 71.5021L436.977 72.8013Z" fill="black"/>
<path fill-rule="evenodd" clip-rule="evenodd" d="M485.178 50.5595C487.265 50.7383 489.124 49.1584 489.302 47.0942C489.506 45.0051 486.45 39.4517 486.45 39.4517C486.45 39.4517 481.892 44.369 481.739 46.4581C481.536 48.4963 483.114 50.3558 485.178 50.5595Z" fill="black"/>
<path fill-rule="evenodd" clip-rule="evenodd" d="M508.703 59.0955C510.563 60.0881 512.829 59.3501 513.822 57.4896C514.84 55.6552 514.178 49.3628 514.178 49.3628C514.178 49.3628 508.118 52.0891 507.126 53.9485C506.158 55.783 506.871 58.0759 508.703 59.0955Z" fill="black"/>
<path fill-rule="evenodd" clip-rule="evenodd" d="M455.822 50.5595C457.935 50.3558 459.488 48.5213 459.31 46.4581C459.107 44.369 454.6 39.4517 454.6 39.4517C454.6 39.4517 451.569 45.031 451.748 47.0942C451.901 49.1584 453.759 50.7383 455.822 50.5595Z" fill="black"/>
<path fill-rule="evenodd" clip-rule="evenodd" d="M432.317 59.0955C434.176 58.0759 434.864 55.783 433.896 53.9485C432.928 52.0891 426.843 49.3628 426.843 49.3628C426.843 49.3628 426.207 55.6552 427.225 57.4896C428.167 59.3501 430.459 60.0881 432.317 59.0955Z" fill="black"/>
<path fill-rule="evenodd" clip-rule="evenodd" d="M714.576 188.518C719.592 186.734 723.462 181.945 725.397 177.512C712.641 175.678 678.748 161.436 650.892 173.028C661.333 163.118 670.703 161.844 671.593 147.577C675.922 150.685 683.23 152.443 687.356 145.03C684.479 136.545 677.221 143.424 676.203 141.08C674.777 137.819 685.343 142.074 687.61 131.043C679.386 128.214 676.941 134.94 675.464 133.386C674.115 131.908 680.684 129.08 675.847 120.189C667.29 125.208 671.746 130.839 669.939 131.475C667.749 132.342 669.48 125.437 660.008 125.769C659.066 135.934 668.895 136.265 667.29 137.87C665.33 139.832 662.784 132.036 655.629 135.985C655.755 144.189 662.401 148.697 669.252 146.761C668.131 162.354 653.821 159.449 643.177 177.028C665.738 188.595 675.948 208.772 689.825 222.734C694.409 219.473 702.251 205.002 702.251 205.002C717.274 216.645 727.841 205.052 727.841 205.052C722.673 199.754 722.469 195.728 714.576 188.518ZM692.677 191.346C694.23 194.786 697.312 206.785 689.953 215.932C681.576 199.193 670.066 184.85 660.746 178.659C658.709 177.334 661.867 175.016 667.622 174.252C684.962 170.965 705.307 178.302 714.983 180.876C710.475 184.238 706.81 185.767 702.2 186.327C709.228 192.238 714.372 197.231 717.987 202.786C711.189 204.492 707.344 200.187 692.677 191.346Z" fill="black"/>
<path fill-rule="evenodd" clip-rule="evenodd" d="M547.819 451.568V432.511C533.101 439.262 514.385 444.739 490.298 446.906L489.203 453.708C491.239 453.988 493.837 454.243 497.3 454.472C488.388 455.696 476.853 456.281 470.538 456.281C464.198 456.281 452.689 455.696 443.751 454.472C447.188 454.243 449.786 453.988 451.823 453.708L450.729 446.906C426.64 444.739 407.899 439.262 393.207 432.511V451.568L373.244 459.771C388.039 467.465 405.048 473.733 424.705 478.803L422.362 486.777C433.617 490.09 451.619 493.452 470.487 493.452C489.356 493.452 507.332 490.064 518.612 486.777L516.296 478.803C535.927 473.733 552.988 467.465 567.781 459.771L547.819 451.568ZM383.913 460.204L397.384 454.778V439.262C406.041 442.599 417.397 446.065 433.693 449.453L426.055 474.344C409.427 470.522 395.296 465.376 383.913 460.204ZM470.513 488.891C455.311 488.891 440.467 486.624 427.786 483.491L435.858 457.376C441.205 458.625 454.598 460.255 470.513 460.255C486.453 460.255 499.769 458.6 505.142 457.376L513.24 483.491C500.508 486.624 485.689 488.891 470.513 488.891ZM514.996 474.344L507.358 449.453C523.654 446.091 535.011 442.599 543.669 439.262V454.778L557.113 460.204C545.731 465.376 531.649 470.522 514.996 474.344Z" fill="black"/>
<path fill-rule="evenodd" clip-rule="evenodd" d="M238.77 205.002C238.77 205.002 246.612 219.473 251.171 222.734C265.074 208.798 275.309 188.62 297.844 177.028C287.175 159.449 272.865 162.405 271.795 146.761C278.645 148.697 285.266 144.163 285.418 135.985C278.237 132.036 275.692 139.883 273.757 137.87C272.152 136.215 281.955 135.934 281.039 125.769C271.567 125.463 273.298 132.342 271.082 131.475C269.3 130.839 273.757 125.183 265.176 120.189C260.363 129.106 266.958 131.908 265.583 133.386C264.131 134.94 261.635 128.239 253.437 131.043C255.652 142.074 266.27 137.819 264.844 141.08C263.825 143.424 256.594 136.545 253.742 145.03C257.817 152.468 265.15 150.711 269.453 147.602C270.369 161.894 279.714 163.092 290.18 173.028C262.298 161.436 228.407 175.678 215.598 177.538C217.56 181.945 221.43 186.735 226.446 188.467C218.552 195.754 218.349 199.779 213.18 205.052C213.18 205.052 223.721 216.645 238.77 205.002ZM222.983 202.811C226.624 197.257 231.742 192.238 238.821 186.353C234.187 185.767 230.546 184.238 226.013 180.876C235.714 178.302 256.085 170.939 273.451 174.252C279.154 175.016 282.363 177.334 280.275 178.659C270.956 184.85 259.421 199.193 251.043 215.932C243.71 206.785 246.816 194.811 248.319 191.372C233.677 200.187 229.859 204.492 222.983 202.811Z" fill="black"/>
<path fill-rule="evenodd" clip-rule="evenodd" d="M458.313 194.377V202.76C461.19 199.269 466.793 199.957 466.793 199.957V212.059C466.793 212.059 466.589 218.02 464.501 220.568H470.536H476.57C474.457 218.02 474.278 212.059 474.278 212.059V199.982C474.278 199.982 479.855 199.294 482.733 202.784V194.403H470.536H458.313V194.377Z" fill="black"/>
<path d="M64.5526 698.192V634.908H101.907V611.879H0V634.908H37.3531V698.192H64.5526ZM139.084 662.108V611.879H112.792V698.192H136.002L181.334 647.964V698.192H207.627V611.879H184.417L139.084 662.108ZM296.082 666.097V698.192H322.374V611.879H296.082V643.43H253.831V611.879H227.539V698.192H253.831V666.097H296.082ZM395.597 698.192C401.581 698.192 407.021 697.648 412.098 696.197C425.698 692.389 434.583 681.328 434.583 666.278C434.583 651.953 426.967 641.98 414.818 637.446C409.016 635.271 402.126 635.089 395.597 635.089H368.58V611.879H342.287V698.192H395.597ZM391.064 655.399C394.691 655.399 398.135 655.399 401.218 656.486C405.57 657.937 408.109 661.563 408.109 665.915C408.109 670.449 405.57 674.256 401.4 676.07C398.498 677.339 395.597 677.339 391.064 677.339H368.58V655.399H391.064ZM481.725 665.552L513.096 698.192H548.092L504.392 653.222L546.46 611.879H513.458L481.725 644.338H474.472V611.879H448.179V698.192H474.472V665.552H481.725ZM602.193 609.522C566.835 609.522 545.619 629.468 545.619 655.217C545.619 680.965 566.835 700.912 602.193 700.912C637.371 700.912 658.587 680.965 658.587 655.217C658.587 629.468 637.371 609.522 602.193 609.522ZM602.193 679.878C584.605 679.878 573.362 669.36 573.362 655.217C573.362 641.073 584.605 630.737 602.193 630.737C619.601 630.737 631.024 641.073 631.024 655.217C631.024 669.36 619.601 679.878 602.193 679.878ZM746.15 606.983H719.858V615.687C686.856 616.413 667.091 630.375 667.091 655.036C667.091 679.696 686.856 692.571 719.858 693.296V702H746.15V693.296C779.333 692.571 799.098 679.696 799.098 655.036C799.098 630.375 779.333 616.413 746.15 615.687V606.983ZM719.858 674.801C701.725 674.075 693.746 666.64 693.746 655.036C693.746 643.43 701.725 635.089 719.858 634.364V674.801ZM746.15 634.364C764.465 635.089 772.261 643.43 772.261 655.036C772.261 666.64 764.465 674.075 746.15 674.801V634.364ZM886.574 606.983H860.281V615.687C827.279 616.413 807.515 630.375 807.515 655.036C807.515 679.696 827.279 692.571 860.281 693.296V702H886.574V693.296C919.753 692.571 939.522 679.696 939.522 655.036C939.522 630.375 919.753 616.413 886.574 615.687V606.983ZM860.281 674.801C842.148 674.075 834.169 666.64 834.169 655.036C834.169 643.43 842.148 635.089 860.281 634.364V674.801ZM886.574 634.364C904.89 635.089 912.685 643.43 912.685 655.036C912.685 666.64 904.89 674.075 886.574 674.801V634.364Z" fill="black"/>
<path d="M5293.18 237C5238.44 237 5189.51 265.396 5189.51 317.861C5189.51 378.028 5276.28 382.184 5276.28 412.41C5276.28 425.137 5261.71 436.53 5236.81 436.53C5201.49 436.53 5175.08 420.611 5175.08 420.611L5163.79 473.553C5163.79 473.553 5194.2 487 5234.58 487C5294.44 487 5341.53 457.209 5341.53 403.848C5341.53 340.27 5254.41 336.238 5254.41 308.183C5254.41 298.213 5266.37 287.289 5291.19 287.289C5319.2 287.289 5342.05 298.867 5342.05 298.867L5353.1 247.733C5353.1 247.733 5328.24 237 5293.18 237V237ZM4792.33 240.859L4791 248.577C4791 248.577 4814.03 252.796 4834.77 261.21C4861.48 270.859 4863.38 276.476 4867.88 293.922L4916.9 483.02H4982.61L5083.83 240.859H5018.28L4953.23 405.506L4926.69 265.944C4924.26 249.971 4911.93 240.859 4896.83 240.859H4792.33V240.859ZM5110.19 240.859L5058.77 483.02H5121.28L5172.52 240.859H5110.19V240.859ZM5458.85 240.859C5443.77 240.859 5435.79 248.936 5429.93 263.049L5338.34 483.02H5403.9L5416.58 446.358H5496.44L5504.16 483.02H5562L5511.54 240.859H5458.85V240.859ZM5467.37 306.284L5486.8 397.154H5434.75L5467.37 306.284V306.284Z" fill="#1434CB"/>
<path d="M5856.8 617.874V583.762C5856.8 570.713 5848.86 562.169 5835.24 562.169C5828.42 562.169 5821.01 564.421 5815.92 571.839C5811.95 565.613 5806.26 562.169 5797.73 562.169C5792.04 562.169 5786.35 563.891 5781.85 570.117V563.295H5769.94V617.874H5781.85V587.736C5781.85 578.065 5786.95 573.495 5794.88 573.495C5802.82 573.495 5806.79 578.595 5806.79 587.736V617.874H5818.7V587.736C5818.7 578.065 5824.39 573.495 5831.73 573.495C5839.67 573.495 5843.64 578.595 5843.64 587.736V617.874H5856.8ZM6033.43 563.295H6014.11V546.802H6002.21V563.295H5991.42V574.091H6002.21V599.129C6002.21 611.648 6007.3 619 6020.93 619C6026.02 619 6031.71 617.278 6035.68 615.026L6032.24 604.759C6028.8 607.011 6024.83 607.607 6021.99 607.607C6016.3 607.607 6014.05 604.163 6014.05 598.533V574.091H6033.37V563.295H6033.43ZM6134.51 562.102C6127.7 562.102 6123.13 565.547 6120.29 570.051V563.228H6108.38V617.808H6120.29V587.074C6120.29 577.999 6124.26 572.833 6131.67 572.833C6133.92 572.833 6136.76 573.429 6139.08 573.959L6142.52 562.566C6140.14 562.102 6136.76 562.102 6134.51 562.102ZM5981.77 567.799C5976.08 563.825 5968.14 562.102 5959.6 562.102C5945.98 562.102 5936.91 568.925 5936.91 579.721C5936.91 588.796 5943.73 593.962 5955.64 595.618L5961.32 596.214C5967.54 597.34 5970.98 599.063 5970.98 601.911C5970.98 605.885 5966.42 608.733 5958.48 608.733C5950.54 608.733 5944.26 605.885 5940.29 603.037L5934.6 612.111C5940.82 616.682 5949.35 618.934 5957.88 618.934C5973.76 618.934 5982.89 611.515 5982.89 601.315C5982.89 591.644 5975.48 586.544 5964.17 584.822L5958.48 584.226C5953.39 583.629 5949.42 582.503 5949.42 579.125C5949.42 575.151 5953.39 572.899 5959.67 572.899C5966.48 572.899 5973.3 575.747 5976.74 577.469L5981.77 567.799ZM6298.57 562.102C6291.76 562.102 6287.19 565.547 6284.35 570.051V563.228H6272.44V617.808H6284.35V587.074C6284.35 577.999 6288.32 572.833 6295.73 572.833C6297.98 572.833 6300.82 573.429 6303.14 573.959L6306.58 562.698C6304.26 562.102 6300.89 562.102 6298.57 562.102ZM6146.42 590.584C6146.42 607.077 6157.8 619 6175.4 619C6183.33 619 6189.02 617.278 6194.71 612.774L6189.02 603.103C6184.46 606.547 6179.96 608.203 6174.8 608.203C6165.14 608.203 6158.33 601.381 6158.33 590.584C6158.33 580.318 6165.14 573.495 6174.8 572.965C6179.89 572.965 6184.46 574.687 6189.02 578.065L6194.71 568.395C6189.02 563.824 6183.33 562.169 6175.4 562.169C6157.8 562.102 6146.42 574.091 6146.42 590.584ZM6256.56 590.584V563.295H6244.66V570.117C6240.69 565.017 6235 562.169 6227.59 562.169C6212.24 562.169 6200.34 574.091 6200.34 590.584C6200.34 607.077 6212.24 619 6227.59 619C6235.53 619 6241.22 616.152 6244.66 611.052V617.874H6256.56V590.584ZM6212.84 590.584C6212.84 580.914 6219.06 572.965 6229.31 572.965C6238.97 572.965 6245.78 580.384 6245.78 590.584C6245.78 600.255 6238.97 608.203 6229.31 608.203C6219.12 607.607 6212.84 600.189 6212.84 590.584ZM6070.34 562.102C6054.47 562.102 6043.09 573.495 6043.09 590.518C6043.09 607.607 6054.47 618.934 6070.94 618.934C6078.88 618.934 6086.82 616.682 6093.1 611.515L6087.41 602.971C6082.85 606.415 6077.16 608.667 6071.54 608.667C6064.13 608.667 6056.78 605.223 6055.06 595.618H6095.35C6095.35 593.896 6095.35 592.77 6095.35 591.048C6095.88 573.495 6085.63 562.102 6070.34 562.102ZM6070.34 572.369C6077.75 572.369 6082.85 576.939 6083.97 585.418H6055.59C6056.72 578.065 6061.81 572.369 6070.34 572.369ZM6366.18 590.584V541.701H6354.27V570.117C6350.3 565.017 6344.61 562.169 6337.21 562.169C6321.86 562.169 6309.95 574.091 6309.95 590.584C6309.95 607.077 6321.86 619 6337.21 619C6345.14 619 6350.83 616.152 6354.27 611.052V617.874H6366.18V590.584ZM6322.45 590.584C6322.45 580.914 6328.67 572.965 6338.93 572.965C6348.58 572.965 6355.4 580.384 6355.4 590.584C6355.4 600.255 6348.58 608.203 6338.93 608.203C6328.67 607.607 6322.45 600.189 6322.45 590.584ZM5923.82 590.584V563.295H5911.91V570.117C5907.94 565.017 5902.25 562.169 5894.84 562.169C5879.49 562.169 5867.59 574.091 5867.59 590.584C5867.59 607.077 5879.49 619 5894.84 619C5902.78 619 5908.47 616.152 5911.91 611.052V617.874H5923.82V590.584ZM5879.56 590.584C5879.56 580.914 5885.78 572.965 5896.03 572.965C5905.69 572.965 5912.5 580.384 5912.5 590.584C5912.5 600.255 5905.69 608.203 5896.03 608.203C5885.78 607.607 5879.56 600.189 5879.56 590.584Z" fill="black"/>
<path d="M6156.67 148.783H5977.8V470.563H6156.67V148.783Z" fill="#FF5A00"/>
<path d="M5989.7 309.673C5989.7 244.297 6020.4 186.273 6067.5 148.783C6032.84 121.493 5989.11 105 5941.41 105C5828.42 105 5737 196.54 5737 309.673C5737 422.806 5828.42 514.345 5941.41 514.345C5989.11 514.345 6032.84 497.852 6067.5 470.563C6020.33 433.602 5989.7 375.049 5989.7 309.673Z" fill="#EB001B"/>
<path d="M6398 309.673C6398 422.806 6306.58 514.345 6193.59 514.345C6145.89 514.345 6102.16 497.852 6067.5 470.563C6115.2 433.006 6145.3 375.049 6145.3 309.673C6145.3 244.297 6114.6 186.273 6067.5 148.783C6102.1 121.493 6145.83 105 6193.52 105C6306.58 105 6398 197.136 6398 309.673Z" fill="#F79E1B"/>
<defs>
<linearGradient id="paint0_linear_2_255" x1="1170.88" y1="473.448" x2="1128.45" y2="352.269" gradientUnits="userSpaceOnUse">
<stop offset="0.14" stop-color="#F1E813"/>
<stop offset="0.3" stop-color="#E6E418"/>
<stop offset="0.58" stop-color="#C9DA26"/>
<stop offset="0.89" stop-color="#A2CC39"/>
</linearGradient>
<linearGradient id="paint1_linear_2_255" x1="1174.04" y1="249.579" x2="1281.33" y2="209.183" gradientUnits="userSpaceOnUse">
<stop offset="0.06" stop-color="#0FA7DF"/>
<stop offset="0.54" stop-color="#0098F8"/>
<stop offset="0.92" stop-color="#0290EA"/>
</linearGradient>
<linearGradient id="paint2_linear_2_255" x1="1268.8" y1="503.826" x2="1389.9" y2="476.796" gradientUnits="userSpaceOnUse">
<stop offset="0.12" stop-color="#A2CC39"/>
<stop offset="0.28" stop-color="#86C239"/>
<stop offset="0.87" stop-color="#219F38"/>
</linearGradient>
<linearGradient id="paint3_linear_2_255" x1="1271.58" y1="206.881" x2="1375.2" y2="238.476" gradientUnits="userSpaceOnUse">
<stop offset="0.06" stop-color="#0290EA"/>
<stop offset="0.79" stop-color="#0C89CA"/>
</linearGradient>
<linearGradient id="paint4_linear_2_255" x1="1167.07" y1="467.551" x2="1279.96" y2="509.236" gradientUnits="userSpaceOnUse">
<stop offset="0.13" stop-color="#F1E813"/>
<stop offset="0.3" stop-color="#EAE616"/>
<stop offset="0.53" stop-color="#D8DF1F"/>
<stop offset="0.8" stop-color="#BAD52D"/>
<stop offset="0.98" stop-color="#A2CC39"/>
</linearGradient>
<linearGradient id="paint5_linear_2_255" x1="1129.16" y1="365.173" x2="1175.3" y2="246.588" gradientUnits="userSpaceOnUse">
<stop offset="0.07" stop-color="#A2CC39"/>
<stop offset="0.26" stop-color="#81C45E"/>
<stop offset="0.92" stop-color="#0FA7DF"/>
</linearGradient>
</defs>
</svg>
