<svg width="146" height="40" viewBox="0 0 146 40" fill="none" xmlns="http://www.w3.org/2000/svg">
<rect x="20.5504" y="4.22481" width="15.7621" height="26.6926" rx="4" transform="rotate(15 20.5504 4.22481)" stroke="#0070F0" stroke-width="2"/>
<rect x="12.4263" y="5.53748" width="17.7621" height="28.6926" rx="5" transform="rotate(15 12.4263 5.53748)" fill="#0070F0"/>
<path d="M50.7 14.692C52.1813 14.692 53.4427 15.2567 54.484 16.386C55.54 17.5153 56.068 18.8867 56.068 20.5C56.068 22.1427 55.54 23.5213 54.484 24.636C53.4573 25.7507 52.196 26.308 50.7 26.308C49.16 26.308 47.972 25.7727 47.136 24.702V30.4H44.298V15H47.136V16.298C47.972 15.2273 49.16 14.692 50.7 14.692ZM47.994 22.744C48.566 23.316 49.292 23.602 50.172 23.602C51.052 23.602 51.778 23.316 52.35 22.744C52.9367 22.1573 53.23 21.4093 53.23 20.5C53.23 19.5907 52.9367 18.85 52.35 18.278C51.778 17.6913 51.052 17.398 50.172 17.398C49.292 17.398 48.566 17.6913 47.994 18.278C47.422 18.85 47.136 19.5907 47.136 20.5C47.136 21.4093 47.422 22.1573 47.994 22.744ZM67.4415 24.636C66.3268 25.7507 64.9482 26.308 63.3055 26.308C61.6628 26.308 60.2842 25.7507 59.1695 24.636C58.0548 23.5213 57.4975 22.1427 57.4975 20.5C57.4975 18.872 58.0548 17.5007 59.1695 16.386C60.2988 15.2567 61.6775 14.692 63.3055 14.692C64.9335 14.692 66.3122 15.2567 67.4415 16.386C68.5708 17.5153 69.1355 18.8867 69.1355 20.5C69.1355 22.128 68.5708 23.5067 67.4415 24.636ZM61.1715 22.678C61.7435 23.25 62.4548 23.536 63.3055 23.536C64.1562 23.536 64.8675 23.25 65.4395 22.678C66.0115 22.106 66.2975 21.38 66.2975 20.5C66.2975 19.62 66.0115 18.894 65.4395 18.322C64.8675 17.75 64.1562 17.464 63.3055 17.464C62.4548 17.464 61.7435 17.75 61.1715 18.322C60.6142 18.9087 60.3355 19.6347 60.3355 20.5C60.3355 21.3653 60.6142 22.0913 61.1715 22.678ZM76.72 20.434L81.274 26H77.974L73.97 21.006V26H71.132V10.6H73.97V19.84L77.754 15H81.142L76.72 20.434ZM92.5877 21.666H84.2937C84.6603 23.0447 85.6943 23.734 87.3957 23.734C88.481 23.734 89.3023 23.3673 89.8597 22.634L92.1477 23.954C91.0623 25.5233 89.4637 26.308 87.3517 26.308C85.533 26.308 84.0737 25.758 82.9737 24.658C81.8737 23.558 81.3237 22.172 81.3237 20.5C81.3237 18.8573 81.8663 17.4787 82.9517 16.364C84.0223 15.2493 85.4157 14.692 87.1317 14.692C88.7597 14.692 90.087 15.2493 91.1137 16.364C92.1697 17.4787 92.6977 18.8573 92.6977 20.5C92.6977 20.808 92.661 21.1967 92.5877 21.666ZM84.2497 19.466H89.8597C89.6983 18.7473 89.3683 18.1973 88.8697 17.816C88.3857 17.4347 87.8063 17.244 87.1317 17.244C86.369 17.244 85.7383 17.442 85.2397 17.838C84.741 18.2193 84.411 18.762 84.2497 19.466ZM97.5169 15V16.892C97.7662 16.2027 98.1915 15.682 98.7929 15.33C99.3942 14.9633 100.084 14.78 100.861 14.78V17.948C99.9955 17.8307 99.2182 18.0067 98.5289 18.476C97.8542 18.9307 97.5169 19.686 97.5169 20.742V26H94.6789V15H97.5169ZM108.923 14.692C110.404 14.692 111.665 15.2567 112.707 16.386C113.763 17.5153 114.291 18.8867 114.291 20.5C114.291 22.1427 113.763 23.5213 112.707 24.636C111.68 25.7507 110.419 26.308 108.923 26.308C107.383 26.308 106.195 25.7727 105.359 24.702V30.4H102.521V15H105.359V16.298C106.195 15.2273 107.383 14.692 108.923 14.692ZM106.217 22.744C106.789 23.316 107.515 23.602 108.395 23.602C109.275 23.602 110.001 23.316 110.573 22.744C111.159 22.1573 111.453 21.4093 111.453 20.5C111.453 19.5907 111.159 18.85 110.573 18.278C110.001 17.6913 109.275 17.398 108.395 17.398C107.515 17.398 106.789 17.6913 106.217 18.278C105.645 18.85 105.359 19.5907 105.359 20.5C105.359 21.4093 105.645 22.1573 106.217 22.744ZM124.652 16.298V15H127.49V26H124.652V24.702C123.801 25.7727 122.606 26.308 121.066 26.308C119.599 26.308 118.338 25.7507 117.282 24.636C116.241 23.5067 115.72 22.128 115.72 20.5C115.72 18.8867 116.241 17.5153 117.282 16.386C118.338 15.2567 119.599 14.692 121.066 14.692C122.606 14.692 123.801 15.2273 124.652 16.298ZM119.416 22.744C119.988 23.316 120.714 23.602 121.594 23.602C122.474 23.602 123.2 23.316 123.772 22.744C124.359 22.1573 124.652 21.4093 124.652 20.5C124.652 19.5907 124.359 18.85 123.772 18.278C123.2 17.6913 122.474 17.398 121.594 17.398C120.714 17.398 119.988 17.6913 119.416 18.278C118.844 18.85 118.558 19.5907 118.558 20.5C118.558 21.4093 118.844 22.1573 119.416 22.744ZM134.794 22.392L137.236 15H140.272L136.268 26C135.696 27.584 134.933 28.728 133.98 29.432C133.041 30.1507 131.868 30.4733 130.46 30.4V27.76C131.208 27.7747 131.809 27.6133 132.264 27.276C132.718 26.9387 133.078 26.396 133.342 25.648L128.832 15H131.934L134.794 22.392Z" fill="#0A2540"/>
</svg>
