<svg width="111" height="121" viewBox="0 0 111 121" fill="none" xmlns="http://www.w3.org/2000/svg">
<path d="M98.3177 14.4065L64.2446 5.2625C58.3409 3.67816 52.2727 7.18709 50.6908 13.0999L31.536 84.6972C29.9541 90.61 33.4576 96.6876 39.3613 98.272L73.4344 107.416C79.3381 109 85.4063 105.491 86.9882 99.5785L106.143 27.9813C107.725 22.0685 104.221 15.9908 98.3177 14.4065Z" stroke="#C9CEFC" stroke-width="8"/>
<path d="M72.0343 23.4121L37.9613 14.2681C32.0576 12.6838 25.9894 16.1927 24.4075 22.1055L5.2527 93.7028C3.67081 99.6156 7.17432 105.693 13.078 107.278L47.151 116.422C53.0547 118.006 59.123 114.497 60.7049 108.584L79.8597 36.9869C81.4415 31.0741 77.938 24.9964 72.0343 23.4121Z" stroke="#151619" stroke-width="8"/>
</svg>
