<svg width="249" height="124" viewBox="0 0 249 124" fill="none" xmlns="http://www.w3.org/2000/svg">
<path d="M134.114 96.2906V49.0459H138.748L139.371 52.2325C143.014 49.5539 146.794 48.2146 150.714 48.2146C155.049 48.2146 158.507 49.7617 161.089 52.8559C163.671 55.9502 164.962 60.1297 164.962 65.3945C164.962 70.6593 163.671 74.8386 161.089 77.933C158.507 81.0275 155.049 82.5744 150.714 82.5744C147.117 82.5744 143.659 81.4431 140.339 79.18V96.2906H134.114ZM149.4 76.7554C152.351 76.7554 154.61 75.7627 156.178 73.7766C157.792 71.7905 158.599 68.9967 158.599 65.3945C158.599 61.746 157.792 58.929 156.178 56.9431C154.61 54.9572 152.351 53.9643 149.4 53.9643C146.265 53.9643 143.244 54.9572 140.339 56.9431V73.8459C143.244 75.7855 146.265 76.7554 149.4 76.7554ZM185.58 82.5744C181.614 82.5744 178.525 81.651 176.311 79.8034C174.144 77.9559 173.061 75.3928 173.061 72.114C173.061 68.9737 174.098 66.5721 176.173 64.9096C178.248 63.247 181.314 62.4157 185.372 62.4157H196.992V61.3766C196.992 58.6519 196.346 56.7122 195.056 55.5576C193.764 54.3569 191.574 53.7565 188.485 53.7565C184.288 53.7565 180.438 54.7263 176.934 56.666L174.997 51.4705C179.101 49.2999 183.758 48.2146 188.969 48.2146C193.903 48.2146 197.499 49.2306 199.759 51.2626C202.064 53.2485 203.217 56.3889 203.217 60.6839V81.7431H198.583L197.891 78.5565C194.295 81.2353 190.19 82.5744 185.58 82.5744ZM186.686 76.9632C190.56 76.9632 193.994 75.947 196.992 73.9152V67.542H185.58C181.475 67.542 179.424 69.0198 179.424 71.9755C179.424 75.3006 181.845 76.9632 186.686 76.9632ZM218.024 97.1219C214.796 97.1219 212.007 96.3827 209.655 94.9051L211.73 89.7096C213.574 90.7715 215.534 91.3029 217.609 91.3029C219.453 91.3029 220.906 90.8408 221.967 89.9174C223.027 89.0397 224.018 87.4235 224.941 85.0682L226.117 82.1587L212.491 49.0459H219.2L229.299 74.0537L239.12 49.0459H245.414L230.267 87.6314C228.884 91.095 227.269 93.5425 225.425 94.9744C223.627 96.4063 221.16 97.1219 218.024 97.1219Z" fill="#151619"/>
<path d="M99.3177 15.4065L65.2446 6.2625C59.3409 4.67816 53.2727 8.18709 51.6908 14.0999L32.536 85.6972C30.9541 91.61 34.4576 97.6876 40.3613 99.272L74.4344 108.416C80.3381 110 86.4063 106.491 87.9882 100.579L107.143 28.9813C108.725 23.0685 105.221 16.9908 99.3177 15.4065Z" stroke="#C9CEFC" stroke-width="8"/>
<path d="M73.0343 24.4121L38.9613 15.2681C33.0576 13.6838 26.9894 17.1927 25.4075 23.1055L6.2527 94.7028C4.67081 100.616 8.17432 106.693 14.078 108.278L48.151 117.422C54.0547 119.006 60.123 115.497 61.7049 109.584L80.8597 37.9869C82.4415 32.0741 78.938 25.9964 73.0343 24.4121Z" stroke="#151619" stroke-width="8"/>
</svg>
