<svg width="1039" height="937" viewBox="0 0 1039 937" fill="none" xmlns="http://www.w3.org/2000/svg">
<path d="M399.166 78.1314C292.5 3.69367 69.5 106.5 99 296C101.234 360.369 103.909 479.5 28.2427 570.582C-22.1834 631.282 -18.1912 868.409 159.082 898.651C379.183 936.199 419.951 802.836 572.443 863.785C706.65 917.425 983.803 1046 983.803 739.55C983.803 682.655 979.027 607.823 1000.5 551.5C1119.64 239 933 119.699 834 160C672 225.948 568.268 196.141 399.166 78.1314Z" fill="#AAD9FF"/>
<path d="M868 106.5C801.5 126 785 70 834 20.5C859.5 -4.5 913.5 -6.5 975.5 20.5C1037.5 47.5 1029.5 95 1008 106.5C986.5 118 934.5 87 868 106.5Z" fill="#AAD9FF"/>
<path d="M477.647 281.103C510.44 193.904 701.981 235.64 629.687 384.7C628.647 384.38 627.652 383.921 626.706 383.357C620.605 379.716 616.522 371.644 615.112 367.558C623.45 353.069 623.523 322.84 608.074 322.84C588.003 322.84 581.431 344.775 576.631 360.796L576.63 360.798C576.585 360.949 576.54 361.099 576.495 361.249C575.819 363.502 575.177 365.632 574.535 367.558C571.057 350.416 562.014 317.027 553.667 320.604C546.008 323.886 506.226 334.798 477.647 321.213C467.29 316.29 458.404 308.15 453.052 295.264C458.517 297.003 471.088 296.606 477.647 281.103Z" fill="#282644"/>
<path fill-rule="evenodd" clip-rule="evenodd" d="M555.903 446.202C563.982 442.994 572.687 438.768 579.148 433.889C575.458 451.777 565.555 459.23 561.065 460.72C559.375 456.938 557.194 450.273 555.903 446.202Z" fill="#CA7E60"/>
<path d="M778.288 496.494C845.862 493.265 959.109 535.377 854.767 722.596C854.724 722.588 854.68 722.58 854.637 722.573C837.51 719.525 815.807 716.45 788.801 713.376C799.096 685.436 807.813 655.243 807.813 610.525C807.813 580.713 794.074 533.147 778.288 496.494Z" fill="#4D4897"/>
<path d="M567.082 727.537C569.231 730.271 582.896 732.596 602.256 734.458C602.455 734.477 602.656 734.496 602.857 734.515C632.432 737.328 675.001 739.071 710.179 739.558C739.997 739.97 764.506 739.479 771.294 737.971C777.824 736.52 783.811 726.78 788.801 713.376C788.855 713.23 788.746 713.524 788.801 713.376C815.807 716.45 837.51 719.525 854.637 722.573L854.767 722.596C1020.05 752.05 758.032 779.032 723.595 779.708C720.302 779.772 714.767 779.915 707.306 780.108C628.633 782.138 335.799 789.696 199.651 769.273C80.4031 751.386 133.319 727.537 199.651 717.848C245.114 711.207 367.471 698.318 400.572 702.197L411.315 716.357C416.284 712.879 428.457 705.868 437.4 705.649C434.817 706.888 432.698 708.232 431.438 709.65C425.476 716.357 426.966 724.896 450.071 716.357C466.352 710.34 474.901 712.896 488.095 716.839C502.684 721.2 522.951 727.258 565.627 725.301C566.092 726.144 566.577 726.894 567.082 727.537Z" fill="#8BCBFF"/>
<path d="M450.071 716.357C426.966 724.896 425.476 716.357 431.438 709.65C432.698 708.232 434.817 706.888 437.4 705.649C428.457 705.868 416.284 712.879 411.315 716.357L400.572 702.197L394.919 694.744L405.003 690.58L415.088 686.417C427.039 680.245 444.784 676.346 464.974 675.059C476.095 674.35 487.959 674.434 500.005 675.366C507.421 675.94 514.927 676.908 522.364 678.186C534.341 680.243 546.14 683.104 557.102 686.417C558.222 698.578 560.897 716.727 565.627 725.301C522.951 727.258 502.684 721.2 488.095 716.839C474.901 712.896 466.352 710.34 450.071 716.357Z" fill="#FFA683"/>
<path d="M553.667 320.604C562.014 317.027 571.057 350.416 574.535 367.558C573.355 371.284 570.063 375.011 565.592 367.558C564.192 365.226 563.226 362.31 562.194 359.198C559.929 352.366 557.351 344.591 549.195 339.982C543.977 337.033 538.594 337.973 530.521 339.383C520.231 341.18 505.571 343.741 481.315 339.982C480.103 334.038 478.88 327.786 477.647 321.213C506.226 334.798 546.008 323.886 553.667 320.604Z" fill="#E09070"/>
<path fill-rule="evenodd" clip-rule="evenodd" d="M576.631 360.796L576.63 360.798C576.585 360.949 576.54 361.099 576.495 361.249C576.54 361.099 576.585 360.947 576.631 360.796Z" fill="white"/>
<path d="M608.074 322.84C623.523 322.84 623.45 353.069 615.112 367.558C616.522 371.644 620.605 379.716 626.706 383.357C633.265 405.896 648.817 416.002 655.773 418.238C593.757 497.696 572.056 485.325 561.065 460.72C565.555 459.23 575.458 451.777 579.148 433.889C572.687 438.768 563.982 442.994 555.903 446.202L555.843 446.225C552.163 447.684 548.615 448.932 545.469 449.933C541.342 451.246 537.908 452.135 535.78 452.522C535.339 452.602 534.856 452.719 534.334 452.846C532.535 453.282 530.265 453.832 527.582 453.387C517.226 451.668 500.71 435.122 481.315 339.982C505.571 343.741 520.231 341.18 530.521 339.383C538.594 337.973 543.977 337.033 549.195 339.982C557.351 344.591 559.929 352.366 562.194 359.198C563.226 362.31 564.192 365.226 565.592 367.558C570.063 375.011 573.355 371.284 574.535 367.558C575.177 365.632 575.819 363.502 576.495 361.249L576.63 360.798L576.631 360.796C581.431 344.775 588.003 322.84 608.074 322.84Z" fill="#FFA683"/>
<path d="M710.179 650.808C707.627 636.465 705.665 623.054 704.222 610.525C687.967 469.375 737.662 440.2 753.407 452.522C759.276 457.273 768.813 474.497 778.285 496.489C767.819 474.205 744.463 485.623 753.407 506.183C754.654 509.05 756.147 512.35 757.794 515.988L757.795 515.99C767.959 538.442 783.962 573.796 783.964 600.091C783.965 617.233 782.473 664.772 771.294 686.417C761.496 705.387 783.308 727.382 788.801 713.376C783.811 726.78 777.824 736.52 771.294 737.971C764.506 739.479 739.997 739.97 710.179 739.558C745.954 739.558 738.501 710.142 690.802 716.357C643.103 722.573 614.781 722.573 602.857 722.573C591.103 722.573 588.762 733.012 602.256 734.458C582.896 732.596 569.231 730.271 567.082 727.537C566.577 726.894 566.092 726.144 565.627 725.301C560.897 716.727 558.222 698.578 557.102 686.417C556.902 684.254 556.752 682.28 556.648 680.583C583.697 671.087 615.078 662.925 644.272 657.554C644.292 657.55 644.312 657.546 644.331 657.543C644.418 657.527 644.506 657.512 644.593 657.495C663.504 654.027 681.486 651.734 696.764 651.013C701.515 650.789 706.005 650.716 710.179 650.808Z" fill="#4E73EA"/>
<path fill-rule="evenodd" clip-rule="evenodd" d="M771.294 686.417C761.496 705.387 783.308 727.382 788.801 713.376C788.855 713.23 788.746 713.524 788.801 713.376C799.096 685.436 807.813 655.243 807.813 610.525C807.813 580.713 794.074 533.147 778.288 496.494L778.285 496.489C767.819 474.205 744.463 485.623 753.407 506.183C754.654 509.05 756.147 512.35 757.794 515.988L757.795 515.99C767.959 538.442 783.962 573.796 783.964 600.091C783.965 617.233 782.473 664.772 771.294 686.417Z" fill="#4465CE"/>
<path d="M500.005 675.366C501.044 667.591 502.987 651.841 502.987 637.356C504.537 611.27 523.855 610.525 522.364 678.186C514.927 676.908 507.421 675.94 500.005 675.366Z" fill="#4465CE"/>
<path d="M433.674 588.166C440.708 567.063 454.116 544.485 464.652 526.744C470.86 516.289 476.071 507.515 478.392 501.712C482.511 492.1 489.92 482.655 500.005 474.205C517.147 462.329 528.327 485.315 514.166 501.712C500.006 518.108 482.864 565.807 478.392 588.166C473.92 610.525 459.713 632.884 437.4 632.884C415.088 632.884 416.3 619.469 419.523 614.997C424.847 608.093 429.996 599.201 433.674 588.166Z" fill="#4465CE"/>
<path d="M690.802 716.357C738.501 710.142 745.954 739.558 710.179 739.558C675.001 739.071 632.432 737.328 602.857 734.515L602.256 734.458C588.762 733.012 591.103 722.573 602.857 722.573C614.781 722.573 643.103 722.573 690.802 716.357Z" fill="#4465CE"/>
<path d="M561.065 460.72C572.056 485.325 593.757 497.696 655.773 418.238C662.692 420.423 671.124 422.831 680.144 425.406C699.111 430.822 720.68 436.98 736.265 443.377C743.606 446.39 749.619 449.456 753.407 452.522C737.662 440.2 687.967 469.375 704.222 610.525C702.625 597.855 687.821 606.053 690.802 619.469C693.783 632.884 693.783 641.082 660.245 637.356C626.948 633.656 629.646 660.045 644.272 657.554C615.078 662.925 583.697 671.087 556.648 680.583C556.752 682.28 556.902 684.254 557.102 686.417C546.14 683.104 534.341 680.243 522.364 678.186C523.855 610.525 504.537 611.27 502.987 637.356C484.993 664.074 471.03 673.298 464.974 675.059C444.784 676.346 427.039 680.245 415.088 686.417L399.39 632.884C403.924 630.69 411.903 624.88 419.523 614.997C416.3 619.469 415.088 632.884 437.4 632.884C459.713 632.884 473.92 610.525 478.392 588.166C482.864 565.807 500.006 518.108 514.166 501.712C528.327 485.315 517.147 462.329 500.005 474.205C511.818 464.307 527.301 455.773 545.469 449.933C548.615 448.932 552.163 447.684 555.843 446.225L555.903 446.202C557.194 450.273 559.375 456.938 561.065 460.72Z" fill="#4E73EA"/>
<path d="M710.179 650.808C706.005 650.716 701.515 650.789 696.764 651.013C681.486 651.734 663.504 654.027 644.593 657.495C644.506 657.512 644.418 657.527 644.331 657.543L644.272 657.554C629.646 660.045 626.948 633.656 660.245 637.356C693.783 641.082 693.783 632.884 690.802 619.469C687.821 606.053 702.625 597.855 704.222 610.525C705.665 623.054 707.627 636.465 710.179 650.808Z" fill="#4465CE"/>
<path d="M301.756 626.922C295.96 600.836 249.499 601.581 254.803 626.922C261.51 658.969 309.209 660.46 301.756 626.922Z" fill="#7B77B0"/>
<path d="M426.966 734.244L428.458 729.769C429.425 726.868 429.429 723.732 428.468 720.829V720.829H565.08C566.186 720.829 567.082 721.725 567.082 722.831C567.082 723.449 566.797 724.032 566.309 724.411L559.198 729.942C555.613 732.731 551.201 734.244 546.66 734.244H426.966Z" fill="#36345E"/>
<path fill-rule="evenodd" clip-rule="evenodd" d="M428.468 720.829C429.429 723.732 429.425 726.868 428.458 729.769L426.966 734.244H218.64C213.526 734.244 208.982 730.984 207.344 726.14L146.097 545.032C143.482 537.301 149.232 529.288 157.393 529.288H356.491C361.634 529.288 366.197 532.585 367.812 537.467L428.468 720.829V720.829ZM301.756 626.922C295.96 600.836 249.499 601.581 254.803 626.922C261.51 658.969 309.209 660.46 301.756 626.922Z" fill="#4A4686"/>
<path d="M750.426 453.267C691.547 437.616 695.273 564.316 708.689 646.299M724.34 652.262C669.933 646.299 587.454 666.919 558.884 678.347M512.676 527.797C504.477 552.392 502.241 623.94 502.987 633.629" stroke="#1A487D" stroke-width="2" stroke-linecap="round"/>
<path d="M844.334 713.376C936.75 544.193 827.192 505.438 795.889 509.91M403.862 713.376L354.634 556.418C353.326 552.248 349.463 549.411 345.093 549.411H236.17" stroke="#383572" stroke-width="2" stroke-linecap="round"/>
<path d="M441.872 704.433C468.107 699.066 481.621 700.706 485.099 702.197" stroke="#C17657" stroke-linecap="round"/>
</svg>
