<svg width="974" height="1056" viewBox="0 0 974 1056" fill="none" xmlns="http://www.w3.org/2000/svg">
<path d="M0.812134 45.159C0.812133 94.818 28.6859 131.374 84.4034 113.352C154.05 90.8242 156.015 53.9581 113.61 20.9615C71.2048 -12.035 0.812135 -4.5 0.812134 45.159Z" fill="#AAD9FF"/>
<path d="M170.634 86.6391C154.943 132.304 187.397 140.279 210.454 140.279C233.511 140.279 254.123 124.881 238.451 100.683C222.779 76.4858 190.473 40.9739 170.634 86.6391Z" fill="#AAD9FF"/>
<path d="M825.176 917.028C862.022 867.303 926.365 853.116 957.162 872.803C987.959 892.489 970.361 925.531 948.363 941.916C926.365 958.301 891.531 964.616 891.531 1014.24C891.531 1063.85 813.337 1073.22 797.477 1014.24C781.616 955.251 816.288 929.023 825.176 917.028Z" fill="#AAD9FF"/>
<path fill-rule="evenodd" clip-rule="evenodd" d="M643.292 964.61L643.29 964.604C642.997 963.807 642.697 962.993 642.391 962.163C642.698 962.996 642.998 963.812 643.292 964.61Z" fill="#AAD9FF"/>
<path d="M184.492 952.177C230.824 968.651 270.405 981.165 322.404 989.508C336.2 991.721 347.405 993.077 361.289 994.693C370.104 995.719 392.922 997.219 401.73 998.001C484.148 1005.32 578.506 984.879 645.129 969.592C810.202 930.382 983.487 773.922 900.533 556.195C860.733 472.917 854.621 384.947 849.262 307.808C843.373 223.043 838.392 151.357 790.618 113.352C699.368 40.7617 491.981 69.7978 374.289 154.832C318.103 195.427 248.823 183.609 185.992 172.891C112.528 160.359 47.8798 149.33 23.2875 225.348C-36.1093 408.95 108.051 442.748 75.0543 626.978C65.9163 677.999 35.4585 679.961 35.4585 748.516C36.5584 845.305 95.3159 925.732 184.492 952.177Z" fill="#AAD9FF"/>
<path d="M435.922 413.762C433.556 429.254 459.394 440.578 479.512 422.142C477.836 413.762 476.997 408.734 479.512 397.84C481.524 392.477 487.916 384.837 490.86 381.687C488.466 378.843 487.851 374.273 487.866 372.08C494.548 366.758 499.881 352.469 492.203 349.628C482.229 345.937 475.119 355.107 469.927 361.804L469.78 361.993C469.05 362.935 468.358 363.825 467.701 364.618C466.462 366.164 464.173 367.322 463.257 362.973C462.97 361.613 463 360.055 463.033 358.393C463.104 354.744 463.185 350.591 459.94 346.911C457.863 344.556 455.023 344.011 450.764 343.193C445.336 342.151 437.602 340.667 426.206 334.427C419.176 383.009 424.485 393.875 429.33 396.593C430.586 397.297 431.81 397.454 432.781 397.579C433.062 397.615 433.322 397.648 433.556 397.691C434.681 397.9 436.543 398.11 438.824 398.248C439.104 401.041 437.934 410.41 435.922 413.762Z" fill="#FFA683"/>
<path d="M467.701 364.618C468.976 355.868 470.332 338.407 465.557 338.564C461.176 338.709 439.494 336.556 427.671 324.872C427.133 328.209 426.645 331.392 426.206 334.427C437.602 340.667 445.336 342.151 450.764 343.193C455.023 344.011 457.863 344.556 459.94 346.911C463.185 350.591 463.104 354.744 463.033 358.393C463 360.055 462.97 361.613 463.257 362.973C464.173 367.322 466.462 366.164 467.701 364.618Z" fill="#E09070"/>
<path d="M492.106 382.871C554.148 325.639 466.273 270.667 434.698 305.895C428.723 312.023 422.406 309.9 419.995 308.072C420.397 315.153 423.387 320.639 427.671 324.872C439.494 336.556 461.176 338.709 465.557 338.564C470.332 338.407 468.976 355.868 467.701 364.618C468.358 363.825 469.05 362.935 469.78 361.993L469.927 361.804C475.119 355.107 482.229 345.937 492.203 349.628C499.881 352.469 494.548 366.758 487.866 372.08C487.851 374.273 488.466 378.843 490.86 381.687C491.231 382.128 491.645 382.528 492.106 382.871Z" fill="#282644"/>
<path d="M394.009 616.558C400.715 619.24 408.964 617.676 412.251 616.558C412.314 612.629 411.688 607.609 411.072 603.975C405.603 607.691 399.916 611.87 394.009 616.558Z" fill="#415BB0"/>
<path d="M516.936 606.502C521.545 605.371 528.676 602.332 527.294 598.011L527.094 597.502C526.692 596.638 525.948 595.726 524.779 594.77C521.396 591.107 514.694 585.073 504.196 581.133C509.555 589.899 513.761 598.355 516.936 606.502Z" fill="#415BB0"/>
<path d="M688.242 391.136C686.901 399.851 691.037 411.527 693.272 416.276C694.061 417.952 702.493 416.276 702.493 412.924C702.194 412.086 701.792 410.938 701.345 409.572C701.27 409.344 701.195 409.11 701.118 408.87C699.933 405.173 698.515 400.134 697.847 395.326C697.607 393.596 697.463 391.895 697.463 390.298C695.787 389.46 692.266 389.125 688.242 391.136Z" fill="#415BB0"/>
<path d="M697.847 395.326C698.515 400.134 699.933 405.173 701.118 408.87C701.195 409.11 701.27 409.344 701.345 409.572C701.49 409.377 701.906 409.15 702.493 408.906C705.211 407.774 711.606 406.27 711.9 405.884C717.814 406.831 722.096 405.102 726.681 403.252C735.009 399.89 744.336 396.126 766.249 407.254C770.131 409.305 765.461 395.322 745.179 391.711C754.205 385.817 764.304 387.685 770.697 388.867C773.881 389.455 776.145 389.874 776.899 389.079C777.912 388.01 777.167 385.441 773.654 383.463C778.14 383.141 767.46 370.294 742.119 378.972C748.504 373.31 754.713 371.885 758.957 370.91C761.678 370.285 763.592 369.845 764.228 368.594C765.856 365.39 760.663 360.219 718.041 379.614C725.735 353.302 717.238 353.252 715.889 354.264C715.445 354.598 715.005 357.202 714.415 360.69C713.217 367.783 712.509 379.441 708.361 381.514C702.989 384.2 700.552 389.295 698.934 392.939C698.532 393.844 698.18 394.659 697.847 395.326Z" fill="#FFA683"/>
<path d="M315.211 269.626C314.652 271.302 314.037 275.659 316.049 279.682C317.307 282.196 337.006 279.682 337.006 277.168C337.006 274.933 336.671 269.961 335.33 267.95C332.454 268.472 324.979 269.484 316.887 269.612C316.331 269.621 315.772 269.626 315.211 269.626Z" fill="#415BB0"/>
<path d="M289.731 223.695C287.059 223.479 285.349 224.666 287.775 225.699C293.403 228.095 296.02 233.265 299.691 240.519C303.13 247.313 307.494 255.935 316.123 265.816C316.702 266.587 316.971 267.323 317.066 267.95C317.181 268.71 317.041 269.309 316.887 269.612C321.743 269.536 326.377 269.14 329.928 268.724C329.977 268.122 330.05 267.585 330.144 267.104C330.452 265.534 330.982 264.566 331.605 263.93C332.058 263.469 332.607 262.909 333.254 261.843C337.284 256.685 336.708 252.995 336.311 250.454C336.191 249.684 336.087 249.019 336.133 248.451C335.948 238.774 340.197 233.329 342.652 230.183C343.602 228.965 344.284 228.091 344.336 227.45C344.48 225.675 336.511 221.678 329.928 244.822C324.722 239.932 320.076 232.073 319.038 229.867C309.097 208.736 299.451 208.847 299.289 210.845C299.237 211.487 299.774 212.016 300.759 212.985C302.835 215.026 306.898 219.022 311.618 230.159C292.067 208.696 282.201 217.054 283.663 218.4C282.192 218.724 280.807 219.462 281.022 220.533C281.183 221.331 282.185 221.521 283.745 221.817C285.287 222.109 287.375 222.505 289.731 223.695Z" fill="#FFA683"/>
<path d="M561.929 745.859C551.058 745.16 547.871 740.373 546.925 735.102C540.033 734.271 536.171 738.085 534.527 742.257C534.033 743.509 533.74 744.793 533.624 745.994C533.387 748.44 533.889 750.54 534.943 751.315C535.558 751.767 536.697 751.895 538.355 751.954C538.866 751.973 539.427 751.985 540.036 751.998C548.039 752.168 564.522 752.518 589.181 770.053C579.027 746.957 565.105 746.065 562.251 745.882C562.12 745.873 562.012 745.866 561.929 745.859Z" fill="#C2C2C2"/>
<path d="M523.273 717.345C531.218 713.399 543.827 716.303 545.972 722.654C546.496 724.204 546.506 726.303 546.516 728.609C546.526 730.688 546.536 732.936 546.925 735.102C547.871 740.373 551.058 745.16 561.929 745.859C562.012 745.866 562.12 745.873 562.251 745.882C565.105 746.065 579.027 746.957 589.181 770.053C589.89 772.084 592.748 773.171 595.439 772.359C598.903 771.313 602.091 767.118 600.058 757.735C596.376 740.739 545.025 692.705 532.787 695.899C522.038 698.704 516.702 716.172 520.947 717.706C521.535 717.918 522.307 717.825 523.273 717.345Z" fill="#F35454"/>
<path d="M532.787 695.899C545.025 692.705 596.376 740.739 600.058 757.735C602.091 767.118 598.903 771.313 595.439 772.359C598.01 772.132 609.265 766.838 605.026 753.667C600.787 740.496 549.236 682.43 542.617 684.435C539.584 685.354 533.372 688.934 532.787 695.899Z" fill="#F4F4F4"/>
<path d="M545.972 722.654C543.827 716.303 531.218 713.399 523.273 717.345C522.307 717.825 521.535 717.918 520.947 717.706C519.881 718.959 518.735 720.091 517.61 721.086C521.366 730.228 525.716 738.993 529.491 745.994L534.527 742.257C536.171 738.085 540.033 734.271 546.925 735.102C546.536 732.936 546.526 730.688 546.516 728.609C546.506 726.303 546.496 724.204 545.972 722.654Z" fill="#EF9C7B"/>
<path d="M329.928 268.724C332.294 268.446 334.18 268.159 335.33 267.95C334.639 266.915 331.873 266.869 330.144 267.104C330.05 267.585 329.977 268.122 329.928 268.724Z" fill="#2A3C77"/>
<path d="M315.211 269.626C315.772 269.626 316.331 269.621 316.887 269.612C317.041 269.309 317.181 268.71 317.066 267.95C316.448 267.95 315.432 268.962 315.211 269.626Z" fill="#2A3C77"/>
<path d="M697.463 390.298C697.463 391.895 697.607 393.596 697.847 395.326C698.18 394.659 698.532 393.844 698.934 392.939C698.976 392.338 698.742 390.969 697.463 390.298Z" fill="#2A3C77"/>
<path d="M701.345 409.572C701.792 410.938 702.194 412.086 702.493 412.924C702.586 411.628 703.105 410.413 702.493 408.906C701.906 409.15 701.49 409.377 701.345 409.572Z" fill="#2A3C77"/>
<path fill-rule="evenodd" clip-rule="evenodd" d="M471.968 735.554L513.881 711.252C515.014 714.537 516.275 717.835 517.61 721.086C521.366 730.228 525.716 738.993 529.491 745.994C532.319 751.24 534.824 755.496 536.515 758.18C487.895 790.862 423.348 830.248 408.259 837.79C398.703 842.567 383.093 840.621 372.719 830.248C368.08 832.762 355.448 835.947 342.036 828.572C325.27 819.354 329.462 791.7 331.138 783.32C332.815 774.94 341.197 745.859 399.038 669.352C402.657 664.566 405.106 653.8 407.736 642.239C408.79 637.605 409.873 632.844 411.072 628.289C412.151 624.191 412.204 620.136 412.24 617.307C412.244 617.047 412.247 616.797 412.251 616.558C413.089 616.153 414.296 615.516 415.823 614.709C432.05 606.135 484.502 578.422 516.936 606.502C539.748 665.037 509.39 707.68 471.968 735.554Z" fill="#4D4897"/>
<path d="M504.196 581.133C485.746 574.208 455.57 573.749 411.072 603.975C411.688 607.609 412.314 612.629 412.251 616.558C413.089 616.153 414.296 615.516 415.823 614.709C432.05 606.135 484.502 578.422 516.936 606.502C513.761 598.355 509.555 589.899 504.196 581.133Z" fill="#3A3579"/>
<path d="M394.009 436.303C387.873 432.073 366.304 403.252 352.909 381.514C345.822 370.013 336.477 348.523 329.693 332.922C323.654 319.035 319.644 309.814 321.061 316.454C331.572 358.474 357.434 410.532 387.761 444.058C397.233 451.813 400.144 440.533 394.009 436.303Z" fill="#4465CE"/>
<path d="M479.512 422.142C459.394 440.578 433.556 429.254 435.922 413.762C434.29 412.08 432.584 410.448 430.844 408.87C419.179 429.958 459.363 459.568 487.866 419.667C483.756 420.115 480.754 420.901 479.512 422.142Z" fill="#4465CE"/>
<path d="M584.91 411.873C565.275 417.535 549.3 422.142 541.545 422.142C520.947 420.137 521.855 436.303 541.545 436.303C561.235 436.303 643.367 414.489 649.007 408.87C654.449 403.449 657.982 393.898 643.944 396.516C643.41 396.626 642.876 396.738 642.342 396.851C622.438 401.051 602.248 406.873 584.91 411.873Z" fill="#4465CE"/>
<path d="M500.958 518.082C500.077 511.915 503.412 499.046 506.777 490.409L506.781 490.399C508.713 484.205 492.032 477.726 487.866 499.752C483.333 523.722 496.123 563.907 507.303 569.547C512.943 571.662 516.574 570.252 515.029 566.022C507.643 546.273 501.794 523.932 500.958 518.082Z" fill="#4465CE"/>
<path d="M693.272 416.276C691.037 411.527 686.901 399.851 688.242 391.136C674.69 391.136 659.429 393.314 643.944 396.516C657.982 393.898 654.449 403.449 649.007 408.87C643.367 414.489 561.235 436.303 541.545 436.303C521.855 436.303 520.947 420.137 541.545 422.142C527.371 420.425 501.513 418.18 487.866 419.667C459.363 459.568 419.179 429.958 430.844 408.87C426.064 404.535 421.029 400.604 416.586 397.135C413.784 394.947 411.217 392.943 409.097 391.136C396.523 379.404 365.507 347.167 362.154 338.564C361.848 337.779 361.43 336.703 360.92 335.388C355.839 322.294 341.577 285.544 337.006 277.168C337.006 279.682 317.307 282.196 316.049 279.682C315.854 290.23 317.648 302.813 321.061 316.454C319.644 309.814 323.654 319.035 329.693 332.922C336.477 348.523 345.822 370.013 352.909 381.514C366.304 403.252 387.873 432.073 394.009 436.303C400.144 440.533 397.233 451.813 387.761 444.058C389.824 446.338 391.908 448.533 394.009 450.633C402.642 459.263 401.396 469.305 398.576 492.026C395.647 515.634 391.018 552.932 394.009 616.558C399.916 611.87 405.603 607.691 411.072 603.975C455.57 573.749 485.746 574.208 504.196 581.133C514.694 585.073 521.396 591.107 524.779 594.77C525.948 595.726 526.692 596.638 527.094 597.502C527.124 597.567 527.153 597.632 527.179 597.696C524.68 590.859 518.939 575.462 515.029 566.022C516.574 570.252 512.943 571.662 507.303 569.547C496.123 563.907 483.333 523.722 487.866 499.752C492.032 477.726 508.713 484.205 506.781 490.399C509.282 484.8 511.768 480.802 513.043 480.802C515.309 480.802 521.983 478.109 529.755 474.973C536.363 472.306 543.765 469.32 549.927 467.394C552.209 466.743 556.124 465.697 561.235 464.332C595.554 455.163 683.787 431.593 693.272 416.276Z" fill="#4E73EA"/>
<path d="M369.829 824.754C354.319 781.75 417.769 705.61 430.459 698.561M430.459 768.355C436.099 760.6 464.063 739.45 471.348 736.63M342.036 828.573C325.27 819.355 329.462 791.701 331.138 783.321C332.815 774.941 341.197 745.859 399.038 669.353C407.194 656.261 407.899 641.456 411.424 629.471" stroke="#3A3672" stroke-linecap="round"/>
<path d="M398.734 489.177C392.389 535.707 393.094 592.811 394.504 616.781M362.779 341.834C364.471 349.166 364.894 353.349 364.894 355.229M436.099 413.743C422.563 400.207 404.609 388.833 397.324 384.838M445.264 437.008C462.183 442.648 479.808 431.368 483.333 426.433M488.268 420.088C514.212 416.704 539.028 421.498 548.193 424.318M505.893 480.717C508.059 480.988 510.12 481.051 512.238 480.826M551.718 466.618C544.668 468.968 529.158 474.373 523.518 477.192C519.175 479.364 515.635 480.465 512.238 480.826M512.238 480.826C505.47 488.635 501.898 506.567 500.958 514.557" stroke="#3A3672" stroke-linecap="round"/>
<path d="M292.28 224.1C296.51 224.805 302.855 231.855 304.97 238.2" stroke="#E09070" stroke-width="0.5" stroke-linecap="round"/>
<ellipse cx="443.5" cy="932" rx="125.5" ry="28" fill="#8BCBFF"/>
</svg>
