<svg width="987" height="945" viewBox="0 0 987 945" fill="none" xmlns="http://www.w3.org/2000/svg">
<path d="M723.64 20.8244C712.554 56.2942 736.944 67.3785 762.443 66.2701C787.942 65.1617 802.354 39.6677 782.399 20.8244C762.443 1.98097 734.727 -14.6455 723.64 20.8244Z" fill="#AAD9FF"/>
<path d="M844.483 66.2701C858.895 140.025 937.61 172.767 965.326 140.025C993.042 107.282 999.694 51.8605 952.022 29.6918C904.35 7.52311 832.288 -7.48447 844.483 66.2701Z" fill="#AAD9FF"/>
<path d="M42.9999 207.5C29.5248 74.1362 156.561 23.0841 272.42 14.1737C379.198 5.96162 413.353 70.1926 471.5 102.5C523.23 131.242 600.289 128.804 667.099 118.367C782.399 100.355 1010.78 207.867 844.483 383C782.399 448.383 817 600.116 871.091 632.68C974.195 694.752 911.002 898.74 740.27 925.343C711.797 929.779 675.43 934.524 634.307 938.24C606.61 940.743 576.756 942.78 545.702 943.941C471.057 946.734 378 938.24 314.286 931.481C193.909 918.711 39.9951 908.96 11.9999 801C-28.132 646.236 43.5938 561.677 93.4999 505.5C120.799 474.771 144.545 448.041 146.113 413.551C148.583 359.23 112.014 325.534 77.8853 294.086C50.7307 269.065 46.1759 238.933 42.9999 207.5Z" fill="#AAD9FF"/>
<ellipse cx="462" cy="818.938" rx="331" ry="42.6653" fill="#8BCBFF"/>
<path d="M267.628 639.293C267.628 587.319 348.942 581.113 348.942 639.293C348.942 686.613 267.628 690.492 267.628 639.293Z" fill="#BD563F"/>
<path fill-rule="evenodd" clip-rule="evenodd" d="M338.875 575.683H202.577C198.763 575.683 195.11 576.374 191.736 577.637C179.975 582.039 171.601 593.396 171.601 606.712V662.565C171.601 675.882 179.975 687.239 191.736 691.641C195.11 692.904 198.763 693.595 202.577 693.595H338.875C347.924 693.595 356.067 689.708 361.73 683.51C366.774 677.99 369.851 670.638 369.851 662.565V606.712C369.851 589.575 355.983 575.683 338.875 575.683ZM267.628 639.293C267.628 587.319 348.942 581.113 348.942 639.293C348.942 686.613 267.628 690.492 267.628 639.293Z" fill="#F98341"/>
<path d="M202.577 575.683H338.875L191.736 551.635V577.637C195.11 576.374 198.763 575.683 202.577 575.683Z" fill="#BD6C3F"/>
<path d="M338.875 693.595H202.577C198.763 693.595 195.11 692.904 191.736 691.641V726.175L346.842 703.98C348.24 703.78 349.643 703.513 350.927 702.926C358.505 699.462 360.156 691.283 361.399 685.128C361.511 684.57 361.62 684.029 361.73 683.51C356.067 689.708 347.924 693.595 338.875 693.595Z" fill="#BD6C3F"/>
<path d="M179.081 354.775C174.964 358.522 174.698 364.909 178.49 368.984L256.787 453.117H540.223C537.125 362.357 312.545 350.721 297.831 246.731L179.081 354.775Z" fill="#FFDE81"/>
<path d="M607.597 453.117L368.466 195.84C364.734 191.825 358.466 191.563 354.412 195.251L297.831 246.731C312.545 350.721 537.125 362.357 540.223 453.117H607.597Z" fill="#FFE59E"/>
<path fill-rule="evenodd" clip-rule="evenodd" d="M675.037 453.117C689.737 453.117 701.736 464.878 702.032 479.575L708.492 801.029C708.796 816.15 696.622 828.572 681.498 828.572H218.736C203.824 828.572 191.736 816.484 191.736 801.572V726.175L346.842 703.98C348.24 703.78 349.643 703.513 350.927 702.926C358.505 699.462 360.156 691.283 361.399 685.128C361.511 684.57 361.62 684.029 361.73 683.51C366.774 677.99 369.851 670.638 369.851 662.565V606.712C369.851 589.575 355.983 575.683 338.875 575.683L191.736 551.635V480.117C191.736 465.206 203.824 453.117 218.736 453.117H256.787H540.223H607.597H675.037ZM267.628 475.197C238.44 474.447 215.762 475.871 213.573 508.176C213.417 510.479 213.055 512.779 212.822 515.075C212.306 520.168 212.664 528.969 216.517 539.582C222.712 556.648 267.628 551.636 267.628 539.582C267.628 535.487 265.393 532.114 263.201 528.807C258.942 522.382 254.847 516.205 267.628 505.45C278.03 496.698 362.198 499.141 438.347 501.352C503.933 503.256 563.571 504.988 565.004 499.244C568.102 486.833 565.004 475.197 547.967 475.197C544.849 475.197 534.491 475.223 519.463 475.26H519.461C519.456 475.26 519.452 475.26 519.447 475.26C388.437 478.299 292.3 475.83 267.628 475.197Z" fill="#FC9054"/>
<path d="M212.822 515.075C213.055 512.779 213.417 510.479 213.573 508.176C215.762 475.871 238.44 474.447 267.628 475.197C292.3 475.83 388.437 478.299 519.447 475.26L519.461 475.26H519.463C534.491 475.223 544.849 475.197 547.967 475.197C565.004 475.197 568.102 486.833 565.004 499.244C563.571 504.988 503.933 503.256 438.347 501.352C362.198 499.141 278.03 496.698 267.628 505.45C254.847 516.205 258.942 522.382 263.201 528.807C265.393 532.114 267.628 535.487 267.628 539.582C267.628 551.636 222.712 556.648 216.517 539.582C212.664 528.969 212.306 520.168 212.822 515.075Z" fill="#FFA371"/>
<path d="M663.533 219.493C664.337 211.321 664.84 195.065 660.418 195.418C656.36 195.741 636.154 194.681 624.682 184.354C624.327 187.473 624.012 190.446 623.736 193.281C634.577 198.576 641.815 199.619 646.896 200.351C650.881 200.925 653.54 201.308 655.568 203.403C658.737 206.677 658.842 210.532 658.933 213.921C658.975 215.464 659.014 216.91 659.339 218.16C660.377 222.154 662.45 220.981 663.533 219.493Z" fill="#E09070"/>
<path d="M686.961 235.37C742.039 179.599 658.147 132.403 630.381 166.446C625.103 172.389 619.151 170.693 616.835 169.101C617.515 175.652 620.525 180.612 624.682 184.354C636.154 194.681 656.36 195.741 660.418 195.418C664.84 195.065 664.337 211.321 663.533 219.493C664.108 218.729 664.711 217.874 665.348 216.969L665.476 216.787C670.003 210.35 676.201 201.536 685.614 204.529C692.859 206.832 688.529 220.318 682.561 225.544C682.611 226.798 682.922 228.879 683.701 230.885C684.187 232.134 684.854 233.354 685.753 234.326C686.117 234.72 686.518 235.072 686.961 235.37Z" fill="#282644"/>
<path d="M676.975 272.344C675.375 273.954 673.735 275.335 672.074 276.509C655.186 288.446 636.177 278.946 636.177 269.555C634.591 268.065 628.29 270.551 627.889 272.118C623.238 290.305 675.175 303.483 683.701 274.443C684.347 272.244 678.275 271.036 676.975 272.344Z" fill="#4465CE"/>
<path d="M643.393 804.658L642.167 788.285L641.842 783.948C633.284 784.318 621.937 785.73 613.498 788.379L613.775 791.52L615.487 810.859L643.393 804.658Z" fill="#FFA683"/>
<path d="M687.577 787.142L687.577 817.06L720.134 814.735L718.751 789.299L718.765 787.142C711.38 784.916 698.08 784.916 687.577 787.142Z" fill="#FFA683"/>
<path d="M500.762 349.635C510.968 342.431 514.248 335.372 516.088 331.412C516.148 331.282 516.208 331.154 516.265 331.031C514.973 329.739 511.614 326.38 508.514 326.38C508.424 326.83 508.239 327.354 507.978 327.93C506.26 331.715 501.213 337.77 497.661 340.233C497.101 340.622 496.578 340.921 496.111 341.108C495.336 342.4 496.886 348.084 500.762 349.635Z" fill="#415BB0"/>
<path d="M761.218 477.537C755.637 479.398 741.839 478.312 735.638 477.537C735.017 480.018 735.379 484.772 735.638 486.839C736.618 486.979 737.927 487.119 739.441 487.246C744.727 487.686 752.515 487.96 757.561 487.485C759.073 487.342 760.339 487.132 761.218 486.839C762.458 482.498 761.218 478.829 761.218 477.537Z" fill="#415BB0"/>
<path d="M507.978 327.93C507.774 327.744 507.571 327.56 507.37 327.377C488.261 310.005 483.531 305.418 466.655 302.35C449.601 299.249 481.383 313.977 482.158 320.178C482.933 326.38 463.554 324.28 463.554 329.48C463.554 337.807 489.426 330.421 497.137 339.546C497.323 339.765 497.498 339.994 497.661 340.233C501.213 337.77 506.26 331.715 507.978 327.93Z" fill="#FFA683"/>
<path d="M735.73 493.636C731.338 507.916 730.167 509.055 730.987 510.92C732.004 512.706 735.447 511.139 737.206 507.478C738.612 504.548 739.522 504.22 739.802 504.423C739.839 507.949 744.348 517.6 741.125 527.515C740.42 530.085 741.563 532.784 743.924 531.046C742.756 537.13 747.624 534.95 748.286 532.996C748.591 535.089 752.435 535.265 754.564 525.678C755.835 527.91 758.919 525.366 759.433 515.712C759.948 506.058 759.271 496.454 758.969 493.608C758.969 492.12 758.132 489.219 757.561 487.485C752.515 487.96 744.727 487.686 739.441 487.246C737.929 489.151 736.438 491.333 735.73 493.636Z" fill="#FFA683"/>
<path d="M653.47 784.503C651.855 783.908 647.447 783.705 641.842 783.948L642.167 788.285C646.294 787.312 650.172 786.072 653.47 784.503Z" fill="#2B2859"/>
<path d="M613.498 788.379C610.659 789.27 608.149 790.301 606.185 791.48C608.226 791.556 610.821 791.582 613.775 791.52L613.498 788.379Z" fill="#2B2859"/>
<path d="M723.235 788.379C722.484 787.91 719.945 787.498 718.765 787.142L718.751 789.299C719.719 789.019 722.247 788.712 723.235 788.379Z" fill="#2B2859"/>
<path fill-rule="evenodd" clip-rule="evenodd" d="M683.701 274.443C675.175 303.483 623.238 290.305 627.889 272.118C601.063 275.95 596.215 282.021 585.619 298.677L585.255 299.249C584.837 299.905 584.297 300.74 583.656 301.731L583.65 301.74L583.648 301.744C576.808 312.317 558.499 340.617 554.248 360.078C548.354 353.275 528.744 337.27 516.265 331.031L516.088 331.412C514.248 335.372 510.968 342.431 500.762 349.635C502.618 355.204 514.2 371.331 524.693 384.875C515.91 373.248 529.443 369.372 533.319 377.899C537.195 386.426 543.396 395.728 550.373 398.053C557.349 400.379 565.101 394.177 568.977 390.302C572.765 386.513 581.852 392.352 577.427 397.685C582.256 392.248 587.795 385.149 594.183 375.99C594.369 374.496 594.56 373.062 594.754 371.698C598.051 360.845 611.611 368.597 607.735 381C605.603 387.821 605.41 401.929 605.41 410.456C605.41 413.924 606.603 419.32 607.853 424.97C610.234 435.736 612.819 447.422 607.735 448.439C599.983 449.989 590.082 448.439 590.134 434.486C589.821 448.117 590.167 458.419 591.456 459.708C591.961 460.213 594.174 460.691 597.658 461.135C618.613 463.803 685.541 465.21 703.081 463.494C705.018 463.305 706.353 463.077 706.956 462.809C708.999 461.901 710.509 456.543 711.469 448.314C710.188 456.712 705.52 454.959 706.956 449.214C708.506 443.013 710.057 415.107 706.956 397.695C703.855 380.283 710.385 376.349 711.16 384.875C710.494 376.699 709.611 368.517 708.507 360.685C717.97 378.502 727.651 392.003 734.055 400.933C735.024 402.284 735.918 403.531 736.724 404.671C734.603 425.422 732.537 457.902 735.638 477.537C741.839 478.312 755.637 479.398 761.218 477.537C764.319 474.436 773.621 412.423 773.621 397.695C773.621 394.081 771.146 386.265 767.355 376.424C767.345 376.399 767.336 376.374 767.326 376.349L767.355 376.424C769.464 382.033 758.886 385.609 757.342 376.349C755.792 367.047 741.064 333.714 730.212 321.312C719.359 308.909 729.265 292.631 736.724 307.724C732.628 299.237 729.586 293.161 728.661 291.497C724.785 284.521 706.956 274.443 683.701 274.443Z" fill="#4E73EA"/>
<path d="M736.724 307.724C729.265 292.631 719.359 308.909 730.212 321.312C741.064 333.714 755.792 367.047 757.342 376.349C758.886 385.609 769.464 382.033 767.355 376.424L767.326 376.349C759.349 355.659 745.575 326.062 736.724 307.724Z" fill="#4465CE"/>
<path d="M711.16 384.875C710.385 376.349 703.855 380.283 706.956 397.695C710.057 415.107 708.506 443.013 706.956 449.214C705.52 454.959 710.188 456.712 711.469 448.314C711.553 447.601 711.631 446.868 711.706 446.114C713.194 431.115 713.045 408.016 711.16 384.875Z" fill="#4465CE"/>
<path d="M594.183 375.99C592.12 392.518 590.549 416.424 590.134 434.486C590.082 448.439 599.983 449.989 607.735 448.439C612.819 447.422 610.234 435.736 607.853 424.97C606.603 419.32 605.41 413.924 605.41 410.456C605.41 401.929 605.603 387.821 607.735 381C611.611 368.597 598.051 360.845 594.754 371.698C594.56 373.062 594.369 374.496 594.183 375.99Z" fill="#4465CE"/>
<path d="M524.693 384.875C531.726 393.954 538.271 401.872 541.071 404.671C546.86 410.46 553.183 424.79 577.099 398.053L577.3 397.828L577.427 397.685C581.852 392.352 572.765 386.513 568.977 390.302C565.101 394.177 557.349 400.379 550.373 398.053C543.396 395.728 537.195 386.426 533.319 377.899C529.443 369.372 515.91 373.248 524.693 384.875Z" fill="#4465CE"/>
<path d="M496.111 341.108C496.578 340.921 497.101 340.622 497.661 340.233C497.498 339.994 497.323 339.765 497.137 339.546C496.794 340.055 496.452 340.575 496.111 341.108Z" fill="#1F2D5B"/>
<path d="M507.978 327.93C508.239 327.354 508.424 326.83 508.514 326.38C508.203 326.632 507.818 326.966 507.37 327.377C507.571 327.56 507.774 327.744 507.978 327.93Z" fill="#1F2D5B"/>
<path fill-rule="evenodd" clip-rule="evenodd" d="M636.177 269.555C636.177 278.946 655.186 288.446 672.074 276.509C668.043 259.612 668.198 245.345 683.701 230.885C682.922 228.879 682.611 226.798 682.561 225.544C688.529 220.318 692.859 206.832 685.614 204.529C676.201 201.536 670.003 210.35 665.476 216.787L665.348 216.969C664.711 217.874 664.108 218.729 663.533 219.493C662.45 220.981 660.377 222.154 659.339 218.16C659.014 216.91 658.975 215.464 658.933 213.921C658.842 210.532 658.737 206.677 655.568 203.403C653.54 201.308 650.881 200.925 646.896 200.351C641.815 199.619 634.577 198.576 623.736 193.281C619.314 238.651 624.709 248.501 629.32 250.812C630.516 251.411 631.658 251.504 632.564 251.578C632.827 251.599 633.07 251.619 633.288 251.649C634.341 251.793 636.077 251.908 638.199 251.937C639.817 251.96 641.658 251.932 643.591 251.829L643.602 251.829L643.622 251.827C647.867 251.6 652.549 251.011 656.272 249.796C657.191 249.497 658.051 249.159 658.832 248.779C656.272 260.074 645.991 263.639 637.78 262.399C637.426 265.42 636.891 268.23 636.177 269.555Z" fill="#FFA683"/>
<path d="M658.832 248.779C658.051 249.159 657.191 249.497 656.272 249.796C652.549 251.011 647.867 251.6 643.622 251.827L643.602 251.829L643.591 251.829C641.658 251.932 639.817 251.96 638.199 251.937C638.422 253.447 638.281 258.133 637.78 262.399C645.991 263.639 656.272 260.074 658.832 248.779Z" fill="#E09070"/>
<path d="M676.975 272.344C675.058 264.643 674.063 260.015 675.925 249.801C677.559 244.739 683.158 237.375 685.753 234.326C684.854 233.354 684.187 232.134 683.701 230.885C668.198 245.345 668.043 259.612 672.074 276.509C673.735 275.335 675.375 273.954 676.975 272.344Z" fill="#E09070"/>
<path d="M703.081 463.494C685.541 465.21 618.613 463.803 597.658 461.135C596.596 464.907 595.562 468.701 594.557 472.508C617.812 479.446 679.826 480.996 706.379 475.57C705.452 471.34 704.361 467.305 703.081 463.494Z" fill="#3B3777"/>
<path fill-rule="evenodd" clip-rule="evenodd" d="M706.379 475.57C679.826 480.996 617.812 479.446 594.557 472.508C576.413 541.23 567.589 613.883 570.527 626.369C573.008 636.912 595.332 740.836 606.185 791.48C608.149 790.301 610.659 789.27 613.498 788.379C621.937 785.73 633.284 784.318 641.842 783.948C633.316 718.972 627.591 698.818 619.363 663.16C603.622 594.946 626.893 592.384 624.87 604.248C627.07 591.347 632.038 573.718 636.841 556.67C638.258 551.643 639.66 546.666 640.973 541.876C649.18 610.452 663.724 686.724 674.192 741.623C677.687 759.951 680.727 775.897 682.926 788.379C684.334 787.91 685.9 787.498 687.577 787.142C698.08 784.916 711.38 784.916 718.765 787.142C718.745 784.576 718.747 780.698 718.748 776.503C718.751 768.047 718.754 758.302 718.584 755.405C716.259 715.872 713.158 692.617 711.608 682.54C710.057 672.462 705.406 623.627 705.406 598.046C705.406 572.466 711.031 560.838 710.776 573.034C711.546 537.66 712.308 502.621 706.379 475.57Z" fill="#4D4897"/>
<path d="M641.842 783.948C647.447 783.705 651.855 783.908 653.47 784.503C644.246 713.174 633.545 663.844 627.591 636.396L627.591 636.394C626.039 629.242 624.81 623.575 624.014 619.393C623.362 615.971 623.77 610.701 624.87 604.248C626.893 592.384 603.622 594.946 619.363 663.16C627.591 698.818 633.316 718.972 641.842 783.948Z" fill="#47438C"/>
<path d="M723.235 788.379C724.826 727.401 716.706 665.935 710.604 630.245C709.93 611.914 710.354 592.423 710.776 573.034C711.031 560.838 705.406 572.466 705.406 598.046C705.406 623.627 710.057 672.462 711.608 682.54C713.158 692.617 716.259 715.872 718.584 755.405C718.754 758.302 718.751 768.047 718.748 776.503C718.747 780.698 718.745 784.576 718.765 787.142C719.945 787.498 722.484 787.91 723.235 788.379Z" fill="#47438C"/>
<path d="M647.269 514.328C645.202 521.822 636.106 557.118 634.866 560.838M576.728 653.858C572.853 632.929 567.426 624.402 571.302 597.271" stroke="#3A3672" stroke-linecap="round"/>
<path d="M698.43 338.365C702.771 349.528 706.181 356.711 707.732 359.295M738.738 397.278C737.188 401.929 736.155 412.265 735.638 417.432M597.658 358.52C593.782 369.372 590.682 416.657 590.682 420.533M549.598 355.419C553.318 359.14 556.316 362.654 557.349 363.946M500.762 349.218C505.413 346.117 508.514 343.016 513.165 336.815M530.994 392.627C551.148 419.758 554.249 414.332 562 411.231M645.718 463.942C586.031 462.392 590.682 460.842 590.682 455.416C590.682 452.315 589.906 451.54 589.906 441.463M627.89 275.577C630.215 287.204 650.369 291.855 658.121 291.08M684.012 274.802C694.089 274.802 704.166 276.352 717.344 282.553M735.793 477.275C738.893 478.051 752.536 479.601 761.063 477.275" stroke="#1A477D" stroke-width="0.5" stroke-linecap="round"/>
<path d="M604.467 804.143C609.686 796.56 614.569 796.289 618.834 797.849C623.505 791.815 620.215 786.146 616.627 783.565C614.939 782.351 613.186 781.82 612.163 782.254C611.566 782.507 610.979 783.278 610.217 784.455C609.982 784.818 609.731 785.219 609.458 785.655C605.867 791.385 598.473 803.185 574.965 813.589C596.258 816.071 602.941 806.358 604.311 804.367C604.374 804.275 604.426 804.2 604.467 804.143Z" fill="#B6B6B6"/>
<path d="M642.067 788.27C641.513 795.711 633.928 803.615 628.353 802.464C626.992 802.183 625.453 801.295 623.761 800.32C622.236 799.441 620.587 798.49 618.834 797.849C614.569 796.289 609.686 796.56 604.467 804.143C604.426 804.2 604.374 804.275 604.311 804.367C602.941 806.358 596.258 816.071 574.965 813.589C573.173 813.238 571.14 814.847 570.569 817.144C569.833 820.101 571.521 824.2 579.266 826.724C593.294 831.298 650.672 814.54 653.636 804.307C656.239 795.318 645.771 784.006 642.811 786.43C642.401 786.765 642.135 787.365 642.067 788.27Z" fill="#F35454"/>
<path d="M653.636 804.307C650.672 814.54 593.294 831.298 579.266 826.724C571.521 824.2 569.833 820.101 570.569 817.144C569.621 819.104 568.619 829.52 580.091 832.059C591.562 834.599 656.366 821.971 657.765 816.318C658.406 813.728 658.478 807.698 653.636 804.307Z" fill="#F4F4F4"/>
<path d="M677.957 803.008C684.332 796.366 689.194 796.887 693.151 799.115C698.735 793.913 696.403 787.788 693.278 784.661C691.809 783.191 690.164 782.384 689.084 782.647C688.454 782.801 687.75 783.468 686.809 784.506C686.519 784.826 686.206 785.181 685.866 785.568C681.398 790.643 672.196 801.095 647.318 807.57C667.931 813.455 676.094 804.947 677.767 803.203C677.844 803.123 677.907 803.057 677.957 803.008Z" fill="#B6B6B6"/>
<path d="M717.626 793.41C715.878 800.665 707.118 807.241 701.801 805.205C700.503 804.708 699.127 803.584 697.615 802.349C696.252 801.235 694.778 800.031 693.151 799.115C689.194 796.887 684.332 796.366 677.957 803.008C677.907 803.057 677.844 803.123 677.767 803.203C676.094 804.947 667.931 813.455 647.318 807.57C645.606 806.934 643.34 808.194 642.405 810.368C641.202 813.168 642.207 817.486 649.443 821.227C662.549 828.004 721.879 820.724 726.455 811.104C730.475 802.653 721.97 789.8 718.657 791.714C718.198 791.979 717.839 792.528 717.626 793.41Z" fill="#F35454"/>
<path d="M726.455 811.104C721.879 820.724 662.549 828.004 649.443 821.227C642.207 817.486 641.202 813.168 642.405 810.368C641.153 812.15 638.484 822.268 649.395 826.625C660.306 830.983 726.299 828.977 728.592 823.624C729.643 821.171 730.686 815.232 726.455 811.104Z" fill="white"/>
<path d="M233.534 730.167V779.347C233.534 784.87 238.011 789.347 243.534 789.347H574.857" stroke="#BD6C3F" stroke-width="2" stroke-linecap="round" stroke-dasharray="25 25"/>
<path d="M234.911 547.119V497.938C234.911 492.415 239.388 487.938 244.911 487.938H576.233" stroke="#BD6C3F" stroke-width="2" stroke-linecap="round" stroke-dasharray="25 25"/>
<path d="M341.156 248.504L362.244 228.779L367.373 234.262C369.277 236.299 370.312 238.31 370.477 240.297C370.658 242.284 369.875 244.094 368.129 245.728C365.896 247.816 363.452 248.329 360.797 247.266C361.986 248.998 362.503 250.695 362.348 252.357C362.202 254.011 361.392 255.528 359.918 256.906C358.708 258.038 357.413 258.738 356.034 259.005C354.655 259.273 353.257 259.119 351.84 258.543C350.439 257.968 349.09 256.986 347.791 255.597L341.156 248.504ZM356.494 240.436L357.797 241.829C359.008 243.124 360.209 243.862 361.4 244.042C362.591 244.222 363.693 243.838 364.707 242.89C365.73 241.933 366.186 240.867 366.077 239.692C365.968 238.516 365.299 237.272 364.072 235.96L362.769 234.567L356.494 240.436ZM346.921 249.39L349.407 252.048C350.738 253.471 352.028 254.286 353.275 254.493C354.531 254.708 355.691 254.318 356.756 253.321C357.839 252.309 358.319 251.149 358.198 249.841C358.084 248.541 357.378 247.197 356.079 245.808L353.593 243.15L346.921 249.39ZM355.578 263.923L384.52 252.596L387.425 255.702L374.203 283.836L370.832 280.231L374.391 273.021L366.382 264.458L358.937 267.515L355.578 263.923ZM370.385 262.846L376.267 269.134L381.468 258.35L370.385 262.846ZM377.707 287.582L398.795 267.857L401.927 271.206L395.702 295.575L411.18 281.098L414.312 284.447L393.223 304.171L390.091 300.823L396.303 276.466L380.839 290.93L377.707 287.582ZM398.977 310.323L420.065 290.598L423.197 293.947L414.084 302.47L431.015 302.305L434.864 306.421L415.78 306.563L414.9 327.347L410.56 322.707L411.26 305.112L402.109 313.671L398.977 310.323ZM432.757 347.258C431.266 345.665 430.153 343.919 429.415 342.021C428.687 340.114 428.331 338.171 428.347 336.19C428.372 334.218 428.77 332.321 429.541 330.498C430.32 328.667 431.476 327.034 433.01 325.599C434.535 324.173 436.237 323.132 438.116 322.477C440.003 321.83 441.932 321.56 443.901 321.667C445.87 321.774 447.773 322.254 449.61 323.108C451.463 323.963 453.131 325.182 454.613 326.767C455.833 328.071 456.801 329.481 457.518 330.999C458.235 332.517 458.681 333.993 458.856 335.427L454.644 336.611C454.557 335.494 454.244 334.365 453.704 333.224C453.165 332.084 452.441 331.028 451.532 330.056C450.456 328.906 449.268 328.029 447.968 327.424C446.667 326.819 445.329 326.481 443.953 326.411C442.593 326.341 441.266 326.544 439.97 327.02C438.675 327.497 437.491 328.238 436.417 329.242C435.343 330.246 434.526 331.378 433.963 332.639C433.401 333.9 433.106 335.214 433.076 336.584C433.064 337.953 433.315 339.307 433.832 340.645C434.349 341.983 435.145 343.227 436.221 344.378C437.129 345.349 438.134 346.142 439.237 346.756C440.339 347.371 441.444 347.759 442.553 347.92L441.09 352.043C439.712 351.783 438.286 351.248 436.811 350.439C435.343 349.639 433.992 348.579 432.757 347.258ZM440.752 354.986L469.694 343.659L472.599 346.764L459.376 374.899L456.005 371.294L459.564 364.084L451.555 355.52L444.111 358.578L440.752 354.986ZM455.559 353.909L461.44 360.197L466.642 349.413L455.559 353.909ZM462.88 378.645L483.968 358.92L490.113 365.49C491.436 366.904 492.336 368.362 492.814 369.864C493.3 371.374 493.342 372.845 492.939 374.276C492.545 375.715 491.695 377.045 490.392 378.264C489.31 379.276 488.147 379.98 486.904 380.376C485.677 380.773 484.428 380.855 483.157 380.622C481.893 380.398 480.656 379.862 479.446 379.013L477.285 394.046L473.316 389.802L475.693 375.742L474.294 374.247L466.012 381.993L462.88 378.645ZM477.106 371.617L479.198 373.854C480.067 374.782 480.957 375.444 481.868 375.837C482.788 376.223 483.684 376.335 484.556 376.175C485.444 376.015 486.272 375.576 487.039 374.859C488.189 373.783 488.713 372.558 488.61 371.184C488.524 369.811 487.823 368.422 486.508 367.016L484.417 364.779L477.106 371.617ZM480.438 397.416L501.526 377.692L506.595 383.111C507.997 384.611 509.032 386.255 509.699 388.043C510.365 389.832 510.667 391.658 510.605 393.522C510.559 395.385 510.144 397.188 509.36 398.928C508.592 400.668 507.466 402.232 505.984 403.619C504.501 405.005 502.87 406.028 501.09 406.687C499.309 407.345 497.484 407.639 495.612 407.569C493.758 407.498 491.956 407.067 490.208 406.274C488.476 405.481 486.909 404.335 485.506 402.835L480.438 397.416ZM486.573 397.956L488.175 399.668C489.163 400.725 490.263 401.525 491.475 402.069C492.695 402.622 493.956 402.911 495.259 402.939C496.571 402.974 497.854 402.749 499.108 402.262C500.379 401.777 501.555 401.028 502.637 400.015C503.711 399.011 504.533 397.891 505.102 396.656C505.68 395.429 505.99 394.164 506.034 392.861C506.094 391.559 505.889 390.281 505.419 389.027C504.966 387.774 504.245 386.619 503.257 385.562L501.655 383.85L486.573 397.956Z" fill="#A4893E"/>
</svg>
